<?xml version="1.0" encoding="UTF-8"?>
<svg xmlns="http://www.w3.org/2000/svg" xmlns:xlink="http://www.w3.org/1999/xlink" viewBox="0 0 2500 2000">
  <defs>
    <style>
      .cls-1 {
        fill: url(#linear-gradient);
      }

      .cls-2 {
        fill: #674dda;
      }

      .cls-3 {
        fill: #fff;
      }

      .cls-4 {
        fill: #9c9eca;
      }

      .cls-5 {
        fill: #bc62f4;
      }

      .cls-6 {
        fill: #bda48b;
      }

      .cls-7 {
        fill: #bffe4b;
      }

      .cls-8 {
        fill: #cfd0d5;
      }

      .cls-9 {
        fill: #d1d5fe;
      }

      .cls-10 {
        fill: #e16ffe;
      }

      .cls-11 {
        fill: #2a9358;
      }

      .cls-12 {
        fill: #38365f;
      }

      .cls-13 {
        fill: #575b89;
      }

      .cls-14 {
        fill: #3d14a4;
      }

      .cls-15 {
        fill: #61506f;
      }

      .cls-16 {
        fill: #7a7c8d;
      }

      .cls-17 {
        fill: url(#linear-gradient-8);
      }

      .cls-18 {
        fill: url(#linear-gradient-9);
      }

      .cls-19 {
        fill: url(#linear-gradient-3);
      }

      .cls-20 {
        fill: url(#linear-gradient-4);
      }

      .cls-21 {
        fill: url(#linear-gradient-2);
      }

      .cls-22 {
        fill: url(#linear-gradient-6);
      }

      .cls-23 {
        fill: url(#linear-gradient-7);
      }

      .cls-24 {
        fill: url(#linear-gradient-5);
      }

      .cls-25 {
        fill: url(#linear-gradient-59);
      }

      .cls-26 {
        fill: url(#linear-gradient-57);
      }

      .cls-27 {
        fill: url(#linear-gradient-58);
      }

      .cls-28 {
        fill: url(#linear-gradient-55);
      }

      .cls-29 {
        fill: url(#linear-gradient-56);
      }

      .cls-30 {
        fill: url(#linear-gradient-53);
      }

      .cls-31 {
        fill: url(#linear-gradient-54);
      }

      .cls-32 {
        fill: url(#linear-gradient-51);
      }

      .cls-33 {
        fill: url(#linear-gradient-52);
      }

      .cls-34 {
        fill: url(#linear-gradient-50);
      }

      .cls-35 {
        fill: url(#linear-gradient-64);
      }

      .cls-36 {
        fill: url(#linear-gradient-63);
      }

      .cls-37 {
        fill: url(#linear-gradient-60);
      }

      .cls-38 {
        fill: url(#linear-gradient-62);
      }

      .cls-39 {
        fill: url(#linear-gradient-61);
      }

      .cls-40 {
        fill: url(#linear-gradient-41);
      }

      .cls-41 {
        fill: url(#linear-gradient-40);
      }

      .cls-42 {
        fill: url(#linear-gradient-43);
      }

      .cls-43 {
        fill: url(#linear-gradient-42);
      }

      .cls-44 {
        fill: url(#linear-gradient-45);
      }

      .cls-45 {
        fill: url(#linear-gradient-46);
      }

      .cls-46 {
        fill: url(#linear-gradient-44);
      }

      .cls-47 {
        fill: url(#linear-gradient-49);
      }

      .cls-48 {
        fill: url(#linear-gradient-47);
      }

      .cls-49 {
        fill: url(#linear-gradient-48);
      }

      .cls-50 {
        fill: url(#linear-gradient-14);
      }

      .cls-51 {
        fill: url(#linear-gradient-18);
      }

      .cls-52 {
        fill: url(#linear-gradient-22);
      }

      .cls-53 {
        fill: url(#linear-gradient-20);
      }

      .cls-54 {
        fill: url(#linear-gradient-21);
      }

      .cls-55 {
        fill: url(#linear-gradient-23);
      }

      .cls-56 {
        fill: url(#linear-gradient-15);
      }

      .cls-57 {
        fill: url(#linear-gradient-19);
      }

      .cls-58 {
        fill: url(#linear-gradient-16);
      }

      .cls-59 {
        fill: url(#linear-gradient-17);
      }

      .cls-60 {
        fill: url(#linear-gradient-13);
      }

      .cls-61 {
        fill: url(#linear-gradient-12);
      }

      .cls-62 {
        fill: url(#linear-gradient-10);
      }

      .cls-63 {
        fill: url(#linear-gradient-11);
      }

      .cls-64 {
        fill: url(#linear-gradient-27);
      }

      .cls-65 {
        fill: url(#linear-gradient-24);
      }

      .cls-66 {
        fill: url(#linear-gradient-26);
      }

      .cls-67 {
        fill: url(#linear-gradient-38);
      }

      .cls-68 {
        fill: url(#linear-gradient-35);
      }

      .cls-69 {
        fill: url(#linear-gradient-37);
      }

      .cls-70 {
        fill: url(#linear-gradient-34);
      }

      .cls-71 {
        fill: url(#linear-gradient-39);
      }

      .cls-72 {
        fill: url(#linear-gradient-36);
      }

      .cls-73 {
        fill: url(#linear-gradient-25);
      }

      .cls-74 {
        fill: url(#linear-gradient-28);
      }

      .cls-75 {
        fill: url(#linear-gradient-29);
      }

      .cls-76 {
        fill: url(#linear-gradient-33);
      }

      .cls-77 {
        fill: url(#linear-gradient-30);
      }

      .cls-78 {
        fill: url(#linear-gradient-32);
      }

      .cls-79 {
        fill: url(#linear-gradient-31);
      }
    </style>
    <linearGradient id="linear-gradient" x1="915.93" y1="482.52" x2="915.93" y2="1652.66" gradientUnits="userSpaceOnUse">
      <stop offset="0" stop-color="#420cce"/>
      <stop offset=".2" stop-color="#df00ff"/>
      <stop offset=".33" stop-color="#ffc776"/>
      <stop offset=".57" stop-color="#d300ff"/>
      <stop offset=".75" stop-color="#7c00ff"/>
      <stop offset="1" stop-color="#3110bf"/>
    </linearGradient>
    <linearGradient id="linear-gradient-2" x1="1332.73" y1="482.52" x2="1332.73" y2="1652.66" xlink:href="#linear-gradient"/>
    <linearGradient id="linear-gradient-3" x1="1250" y1="482.52" x2="1250" y2="1652.66" xlink:href="#linear-gradient"/>
    <linearGradient id="linear-gradient-4" x1="917.69" x2="917.69" xlink:href="#linear-gradient"/>
    <linearGradient id="linear-gradient-5" x1="1468.2" y1="482.52" x2="1468.2" y2="1652.66" xlink:href="#linear-gradient"/>
    <linearGradient id="linear-gradient-6" x1="1167.27" y1="482.52" x2="1167.27" y2="1652.66" xlink:href="#linear-gradient"/>
    <linearGradient id="linear-gradient-7" x1="916.75" x2="916.75" xlink:href="#linear-gradient"/>
    <linearGradient id="linear-gradient-8" x1="1133.31" y1="482.52" x2="1133.31" y2="1652.66" xlink:href="#linear-gradient"/>
    <linearGradient id="linear-gradient-9" x1="913.84" x2="913.84" xlink:href="#linear-gradient"/>
    <linearGradient id="linear-gradient-10" x1="941.28" y1="482.52" x2="941.28" y2="1652.66" xlink:href="#linear-gradient"/>
    <linearGradient id="linear-gradient-11" x1="914.26" x2="914.26" xlink:href="#linear-gradient"/>
    <linearGradient id="linear-gradient-12" x1="918.76" x2="918.76" xlink:href="#linear-gradient"/>
    <linearGradient id="linear-gradient-13" x1="915.24" x2="915.24" xlink:href="#linear-gradient"/>
    <linearGradient id="linear-gradient-14" x1="1031.8" y1="482.52" x2="1031.8" y2="1652.66" xlink:href="#linear-gradient"/>
    <linearGradient id="linear-gradient-15" x1="1104.41" y1="482.52" x2="1104.41" y2="1652.66" xlink:href="#linear-gradient"/>
    <linearGradient id="linear-gradient-16" x1="913.98" x2="913.98" xlink:href="#linear-gradient"/>
    <linearGradient id="linear-gradient-17" x1="914.68" x2="914.68" xlink:href="#linear-gradient"/>
    <linearGradient id="linear-gradient-18" x1="1558.71" y1="482.52" x2="1558.71" y2="1652.66" xlink:href="#linear-gradient"/>
    <linearGradient id="linear-gradient-19" x1="1395.59" y1="482.52" x2="1395.59" y2="1652.66" xlink:href="#linear-gradient"/>
    <linearGradient id="linear-gradient-20" x1="1585.32" y1="482.52" x2="1585.32" y2="1652.66" xlink:href="#linear-gradient"/>
    <linearGradient id="linear-gradient-21" x1="1366.69" y1="482.52" x2="1366.69" y2="1652.66" xlink:href="#linear-gradient"/>
    <linearGradient id="linear-gradient-22" x1="1586.02" y1="482.52" x2="1586.02" y2="1652.66" xlink:href="#linear-gradient"/>
    <linearGradient id="linear-gradient-23" x1="1584.07" y1="482.52" x2="1584.07" y2="1652.66" xlink:href="#linear-gradient"/>
    <linearGradient id="linear-gradient-24" x1="1435.66" y1="482.52" x2="1435.66" y2="1652.66" xlink:href="#linear-gradient"/>
    <linearGradient id="linear-gradient-25" x1="1305.05" y1="482.52" x2="1305.05" y2="1652.66" xlink:href="#linear-gradient"/>
    <linearGradient id="linear-gradient-26" x1="1518.28" y1="482.52" x2="1518.28" y2="1652.66" xlink:href="#linear-gradient"/>
    <linearGradient id="linear-gradient-27" x1="1580.08" y1="482.52" x2="1580.08" y2="1652.66" xlink:href="#linear-gradient"/>
    <linearGradient id="linear-gradient-28" x1="1582.31" y1="482.52" x2="1582.31" y2="1652.66" xlink:href="#linear-gradient"/>
    <linearGradient id="linear-gradient-29" x1="1584.76" y1="482.52" x2="1584.76" y2="1652.66" xlink:href="#linear-gradient"/>
    <linearGradient id="linear-gradient-30" x1="1586.17" y1="482.52" x2="1586.17" y2="1652.66" xlink:href="#linear-gradient"/>
    <linearGradient id="linear-gradient-31" x1="1194.95" y1="482.52" x2="1194.95" y2="1652.66" xlink:href="#linear-gradient"/>
    <linearGradient id="linear-gradient-32" x1="1583.25" y1="482.52" x2="1583.25" y2="1652.66" xlink:href="#linear-gradient"/>
    <linearGradient id="linear-gradient-33" x1="1581.25" y1="482.52" x2="1581.25" y2="1652.66" xlink:href="#linear-gradient"/>
    <linearGradient id="linear-gradient-34" x1="981.72" y1="482.52" x2="981.72" y2="1652.66" xlink:href="#linear-gradient"/>
    <linearGradient id="linear-gradient-35" x1="919.92" x2="919.92" xlink:href="#linear-gradient"/>
    <linearGradient id="linear-gradient-36" x1="1585.74" y1="482.52" x2="1585.74" y2="1652.66" xlink:href="#linear-gradient"/>
    <linearGradient id="linear-gradient-37" x1="1064.34" y1="482.52" x2="1064.34" y2="1652.66" xlink:href="#linear-gradient"/>
    <linearGradient id="linear-gradient-38" x1="925.99" y1="2685.22" x2="920.25" y2="2720.07" gradientTransform="translate(0 4022) scale(1 -1)" gradientUnits="userSpaceOnUse">
      <stop offset="0" stop-color="#6bcd3a"/>
      <stop offset="1" stop-color="#39a152"/>
    </linearGradient>
    <linearGradient id="linear-gradient-39" x1="1574" y1="2685.08" x2="1579.73" y2="2719.93" xlink:href="#linear-gradient-38"/>
    <linearGradient id="linear-gradient-40" x1="949.12" y1="2698.01" x2="935.18" y2="2771.72" gradientTransform="translate(0 4022) scale(1 -1)" gradientUnits="userSpaceOnUse">
      <stop offset="0" stop-color="#4bb149"/>
      <stop offset="1" stop-color="#238d5b"/>
    </linearGradient>
    <linearGradient id="linear-gradient-41" x1="1550.9" y1="2697.84" x2="1564.84" y2="2771.55" xlink:href="#linear-gradient-40"/>
    <linearGradient id="linear-gradient-42" x1="1559.67" y1="2602.22" x2="1576.09" y2="2686.28" gradientTransform="translate(0 4022) scale(1 -1)" gradientUnits="userSpaceOnUse">
      <stop offset="0" stop-color="#b3ff19"/>
      <stop offset="1" stop-color="#7ddd32"/>
    </linearGradient>
    <linearGradient id="linear-gradient-43" x1="940.7" y1="2602.46" x2="924.28" y2="2686.53" xlink:href="#linear-gradient-42"/>
    <linearGradient id="linear-gradient-44" x1="890.71" y1="2570.59" x2="884.67" y2="2749.7" gradientTransform="translate(0 4022) scale(1 -1)" gradientUnits="userSpaceOnUse">
      <stop offset="0" stop-color="#56579b"/>
      <stop offset="1" stop-color="#6e70ab"/>
    </linearGradient>
    <linearGradient id="linear-gradient-45" x1="1609.29" y1="2570.56" x2="1615.33" y2="2749.67" xlink:href="#linear-gradient-44"/>
    <linearGradient id="linear-gradient-46" x1="933.18" y1="2920.04" x2="962.55" y2="2804.95" gradientTransform="translate(0 4022) scale(1 -1)" gradientUnits="userSpaceOnUse">
      <stop offset="0" stop-color="#edffbd"/>
      <stop offset="1" stop-color="#fff"/>
    </linearGradient>
    <linearGradient id="linear-gradient-47" x1="1566.78" y1="2919.73" x2="1537.32" y2="2804.78" xlink:href="#linear-gradient-46"/>
    <linearGradient id="linear-gradient-48" x1="1454.31" y1="2909.53" x2="1236.26" y2="3224.96" gradientTransform="translate(0 4022) scale(1 -1)" gradientUnits="userSpaceOnUse">
      <stop offset="0" stop-color="#e3e7ff"/>
      <stop offset="1" stop-color="#fff"/>
    </linearGradient>
    <linearGradient id="linear-gradient-49" x1="1044.11" y1="2910.55" x2="1263.88" y2="3223.29" xlink:href="#linear-gradient-48"/>
    <linearGradient id="linear-gradient-50" x1="937.88" y1="2740.37" x2="881.68" y2="3080.52" gradientTransform="translate(0 4022) scale(1 -1)" gradientUnits="userSpaceOnUse">
      <stop offset="0" stop-color="#dbdeff"/>
      <stop offset="1" stop-color="#f8f9ff"/>
    </linearGradient>
    <linearGradient id="linear-gradient-51" x1="1562.1" y1="2740.23" x2="1618.29" y2="3080.38" xlink:href="#linear-gradient-50"/>
    <linearGradient id="linear-gradient-52" x1="1688.45" y1="2975.38" x2="1516.31" y2="2877.01" gradientTransform="translate(0 4022) scale(1 -1)" gradientUnits="userSpaceOnUse">
      <stop offset="0" stop-color="#d0ff50"/>
      <stop offset="1" stop-color="#e7ffa6"/>
    </linearGradient>
    <linearGradient id="linear-gradient-53" x1="810.98" y1="2975.88" x2="983.3" y2="2877.16" gradientTransform="translate(0 4022) scale(1 -1)" gradientUnits="userSpaceOnUse">
      <stop offset="0" stop-color="#d0ff50"/>
      <stop offset="1" stop-color="#e7ffa7"/>
    </linearGradient>
    <linearGradient id="linear-gradient-54" x1="1358.58" y1="2831.34" x2="1327.54" y2="2619.55" gradientTransform="translate(0 4022) scale(1 -1)" gradientUnits="userSpaceOnUse">
      <stop offset="0" stop-color="#4546d1"/>
      <stop offset="1" stop-color="#a05cec"/>
    </linearGradient>
    <linearGradient id="linear-gradient-55" x1="1229.21" y1="2883.55" x2="1227.37" y2="3324.22" gradientTransform="translate(0 4022) scale(1 -1)" gradientUnits="userSpaceOnUse">
      <stop offset="0" stop-color="#8688bb"/>
      <stop offset="1" stop-color="#b5b8db"/>
    </linearGradient>
    <linearGradient id="linear-gradient-56" x1="1150.84" y1="2732.71" x2="1165.24" y2="2616.68" gradientTransform="translate(0 4022) scale(1 -1)" gradientUnits="userSpaceOnUse">
      <stop offset="0" stop-color="#584ad7"/>
      <stop offset="1" stop-color="#af5ff0"/>
    </linearGradient>
    <linearGradient id="linear-gradient-57" x1="1204.42" y1="2782.1" x2="1183.49" y2="2762.04" gradientTransform="translate(0 4022) scale(1 -1)" gradientUnits="userSpaceOnUse">
      <stop offset="0" stop-color="#f5cdff"/>
      <stop offset="1" stop-color="#fae4ff"/>
    </linearGradient>
    <linearGradient id="linear-gradient-58" x1="1146.5" y1="2822.56" x2="1156.18" y2="2738.87" gradientTransform="translate(0 4022) scale(1 -1)" gradientUnits="userSpaceOnUse">
      <stop offset="0" stop-color="#eb9bff"/>
      <stop offset="1" stop-color="#fff"/>
    </linearGradient>
    <linearGradient id="linear-gradient-59" x1="1218.31" y1="617.53" x2="1215.28" y2="1088.3" gradientUnits="userSpaceOnUse">
      <stop offset="0" stop-color="#fff"/>
      <stop offset="1" stop-color="#fff" stop-opacity=".4"/>
    </linearGradient>
    <linearGradient id="linear-gradient-60" x1="1283.12" y1="728.84" x2="1282.33" y2="850.69" xlink:href="#linear-gradient-59"/>
    <linearGradient id="linear-gradient-61" x1="1370.15" y1="1180.25" x2="1321.55" y2="1391.85" xlink:href="#linear-gradient-59"/>
    <linearGradient id="linear-gradient-62" x1="1060.7" y1="1108.5" x2="1060.35" y2="1162.61" gradientTransform="translate(2456.56 272.16) rotate(90)" xlink:href="#linear-gradient-59"/>
    <linearGradient id="linear-gradient-63" x1="1633.33" y1="932.43" x2="1630.61" y2="1354.4" xlink:href="#linear-gradient-59"/>
    <linearGradient id="linear-gradient-64" x1="816.7" y1="932.43" x2="813.98" y2="1354.4" gradientTransform="translate(1683.37) rotate(-180) scale(1 -1)" xlink:href="#linear-gradient-59"/>
  </defs>
  <g id="Layer_2" data-name="Layer 2">
    <path class="cls-3" d="M1967.42,1220.51l-.33-14.74-10.67-10.17c-4.08-3.88-8.19-7.74-12.3-11.61-9.01-8.47-17.66-16.59-25.88-24.86v-318.22c8.4-8.42,17.19-16.7,26.34-25.32,3.96-3.73,7.92-7.46,11.84-11.2l11-10.49,.17-511.49-340.36,.06c-16.67,0-33.69-.11-50.16-.22-34.88-.23-70.96-.47-106.58,.34l-14.74,.33-10.17,10.67c-3.87,4.06-7.71,8.15-11.56,12.25-8.48,9.02-16.62,17.69-24.9,25.93h-318.21c-8.43-8.42-16.72-17.22-25.36-26.38-3.72-3.95-7.44-7.89-11.17-11.81l-10.49-11-511.49-.14,.05,340.27c0,16.67-.11,33.71-.22,50.19-.23,34.89-.47,70.97,.34,106.6l.33,14.73,10.67,10.17c4.05,3.86,8.14,7.7,12.22,11.54,9.03,8.49,17.7,16.64,25.96,24.93v318.22c-8.43,8.44-17.25,16.75-26.43,25.41-3.93,3.7-7.85,7.4-11.75,11.11l-11.01,10.49-.17,511.5,340.03-.06c16.67,0,33.72,.11,50.2,.22,16.68,.11,33.62,.22,50.67,.22,18.7,0,37.51-.14,56.19-.56l14.73-.33,10.17-10.67c3.88-4.08,7.75-8.19,11.62-12.3,8.46-9.01,16.59-17.65,24.85-25.88h318.23c8.44,8.42,16.75,17.24,25.4,26.42,3.7,3.93,7.4,7.86,11.12,11.76l10.49,11.01,511.49,.15-.05-340.27c0-16.68,.11-33.73,.22-50.22,.23-34.88,.47-70.95-.34-106.56Z"/>
  </g>
  <g id="Layer_1" data-name="Layer 1">
    <g>
      <rect class="cls-3" x="652.22" y="382.27" width="1195.55" height="1235.45"/>
      <g>
        <g>
          <polygon class="cls-1" points="617.27 624 617.27 751.76 1214.6 991.79 617.27 624"/>
          <polygon class="cls-21" points="1306.41 1632.73 1408.77 1632.73 1256.7 1048.71 1306.41 1632.73"/>
          <polygon class="cls-19" points="1200.34 1632.73 1299.66 1632.73 1250 1049.26 1200.34 1632.73"/>
          <polygon class="cls-20" points="617.27 457.24 617.27 616.1 1218.12 986.07 617.27 457.24"/>
          <polygon class="cls-24" points="1535.34 1632.73 1667.08 1632.73 1269.32 1044.23 1535.34 1632.73"/>
          <polygon class="cls-22" points="1091.23 1632.73 1193.59 1632.73 1243.3 1048.71 1091.23 1632.73"/>
          <polygon class="cls-23" points="617.27 1332.42 617.27 1473.42 1216.24 1030.43 617.27 1332.42"/>
          <polygon class="cls-17" points="1136.44 367.27 1026.6 367.27 1240.01 971.29 1136.44 367.27"/>
          <polygon class="cls-18" points="617.27 986.12 617.27 1087.28 1210.41 1011.32 617.27 986.12"/>
          <polygon class="cls-62" points="657.46 1632.73 824.81 1632.73 1225.1 1040.48 657.46 1632.73"/>
          <polygon class="cls-63" points="617.27 1094.05 617.27 1199.9 1211.25 1017.99 617.27 1094.05"/>
          <polygon class="cls-61" points="617.27 1481.79 617.27 1632.73 648.16 1632.73 1220.25 1035.82 617.27 1481.79"/>
          <polygon class="cls-60" points="617.27 1206.93 617.27 1324.89 1213.21 1024.42 617.27 1206.93"/>
          <polygon class="cls-50" points="832.92 1632.73 964.66 1632.73 1230.68 1044.23 832.92 1632.73"/>
          <polygon class="cls-56" points="972.03 1632.73 1084.29 1632.73 1236.8 1047.01 972.03 1632.73"/>
          <polygon class="cls-58" points="617.27 876.71 617.27 979.4 1210.7 1004.61 617.27 876.71"/>
          <polygon class="cls-59" points="617.27 759.01 617.27 869.84 1212.1 998.03 617.27 759.01"/>
          <polygon class="cls-51" points="1675.19 1632.73 1842.54 1632.73 1274.89 1040.47 1675.19 1632.73"/>
          <polygon class="cls-57" points="1415.71 1632.73 1527.97 1632.73 1263.2 1047.01 1415.71 1632.73"/>
          <polygon class="cls-53" points="1882.73 869.84 1882.73 759.01 1287.9 998.03 1882.73 869.84"/>
          <polygon class="cls-54" points="1473.4 367.27 1363.56 367.27 1259.99 971.29 1473.4 367.27"/>
          <polygon class="cls-52" points="1882.73 979.4 1882.73 876.71 1289.3 1004.61 1882.73 979.4"/>
          <polygon class="cls-55" points="1882.73 751.76 1882.73 624 1285.4 991.79 1882.73 751.76"/>
          <polygon class="cls-65" points="1605 367.27 1480.53 367.27 1266.33 973.52 1605 367.27"/>
          <polygon class="cls-73" points="1356.74 367.27 1253.36 367.27 1253.36 970.15 1356.74 367.27"/>
          <polygon class="cls-66" points="1764.36 367.27 1612.7 367.27 1272.2 976.79 1764.36 367.27"/>
          <polygon class="cls-64" points="1773 367.27 1277.42 981.03 1882.73 448.29 1882.73 367.27 1773 367.27"/>
          <polygon class="cls-74" points="1882.73 616.1 1882.73 457.24 1281.88 986.07 1882.73 616.1"/>
          <polygon class="cls-75" points="1882.73 1324.89 1882.73 1206.93 1286.79 1024.42 1882.73 1324.89"/>
          <polygon class="cls-77" points="1882.73 1087.28 1882.73 986.12 1289.6 1011.32 1882.73 1087.28"/>
          <polygon class="cls-79" points="1246.64 367.27 1143.26 367.27 1246.64 970.15 1246.64 367.27"/>
          <polygon class="cls-78" points="1882.73 1473.42 1882.73 1332.42 1283.76 1030.43 1882.73 1473.42"/>
          <polygon class="cls-76" points="1851.85 1632.73 1882.73 1632.73 1882.73 1481.79 1279.77 1035.83 1851.85 1632.73"/>
          <polygon class="cls-70" points="887.3 367.27 735.64 367.27 1227.8 976.81 887.3 367.27"/>
          <polygon class="cls-68" points="727 367.27 617.27 367.27 617.27 448.29 1222.58 981.03 727 367.27"/>
          <polygon class="cls-72" points="1882.73 1199.9 1882.73 1094.05 1288.75 1017.99 1882.73 1199.9"/>
          <polygon class="cls-69" points="1019.47 367.27 895 367.27 1233.67 973.52 1019.47 367.27"/>
        </g>
        <g>
          <g>
            <path class="cls-12" d="M567.92,317.94l460.77,.13c15.79,16.57,31.28,33.61,47.94,49.3h346.74c16.72-15.6,32.17-32.74,47.94-49.3,51.87-1.18,104.03-.1,155.93-.11l304.85-.05-.16,460.78c-16.57,15.79-33.62,31.28-49.3,47.94v346.73c15.6,16.72,32.74,32.17,49.3,47.94,1.17,51.88,.1,104.07,.11,155.99l.04,304.76-460.77-.13c-15.79-16.57-31.28-33.62-47.94-49.3h-346.73c-16.72,15.6-32.17,32.75-47.94,49.3-51.97,1.18-104.25,.1-156.26,.1l-304.52,.05,.16-460.78c16.57-15.78,33.62-31.27,49.3-47.94v-346.74c-15.62-16.71-32.74-32.17-49.3-47.94-1.18-51.88-.11-104.07-.11-155.99l-.05-304.76Zm27.3,27.27l-.02,419.57c16.96,16.24,34.48,32.58,50.32,49.9-.83,26.73-.21,53.61-.2,80.36v144.23s0,96.41,0,96.41c0,16.31-1.03,33.4,.19,49.63-15.91,17.28-33.33,33.67-50.32,49.9l.02,419.57,419.57,.02c16.24-16.96,32.58-34.48,49.9-50.32,27.04,.84,54.24,.22,81.29,.2h143.61s96.39,0,96.39,0c16.22,0,33.22,1.02,49.35-.19,17.32,15.84,33.66,33.36,49.9,50.32l419.57-.02,.02-419.57c-16.99-16.23-34.41-32.62-50.32-49.9,1.21-16.16,.19-33.15,.19-49.38l-.02-95.94,.04-144.83c.01-26.78,.64-53.72-.21-80.48,15.84-17.32,33.36-33.66,50.32-49.9l-.02-419.57-419.57-.02c-16.23,16.99-32.62,34.41-49.9,50.32-16.22-1.23-33.32-.2-49.63-.19h-96.41s-144.23,0-144.23,0c-26.74-.01-53.63-.63-80.36,.2-17.28-15.91-33.67-33.33-49.9-50.32l-419.57,.02Z"/>
            <path class="cls-16" d="M595.21,345.21l419.57-.02c16.23,16.99,32.62,34.41,49.9,50.32,26.73-.83,53.61-.21,80.36-.2h144.23s96.41,0,96.41,0c16.31,0,33.41-1.03,49.63,.19,17.28-15.91,33.67-33.33,49.9-50.32l419.57,.02,.02,419.57c-16.96,16.24-34.48,32.58-50.32,49.9,.84,26.75,.22,53.7,.21,80.48l-.04,144.83,.02,95.94c0,16.23,1.03,33.22-.19,49.38,15.91,17.28,33.33,33.67,50.32,49.9l-.02,419.57-419.57,.02c-16.24-16.96-32.58-34.48-49.9-50.32-16.13,1.21-33.13,.2-49.35,.19h-96.39s-143.61,0-143.61,0c-27.05,.01-54.25,.64-81.29-.2-17.32,15.84-33.66,33.36-49.9,50.32l-419.57-.02-.02-419.57c16.99-16.23,34.41-32.62,50.32-49.9-1.22-16.22-.2-33.32-.19-49.63v-96.41s0-144.23,0-144.23c-.01-26.74-.63-53.63,.2-80.36-15.84-17.32-33.36-33.66-50.32-49.9l.02-419.57Zm70.19,70.19c.53,15.36,.05,30.76,.04,46.12v86.85c-.01,61.79,1.02,123.76,.02,185.53l37.43,37.98c7.61,7.62,18.29,15.93,23.87,24.96-.64,16.44-.29,32.96-.26,49.4-10.05,7.83-24.2,19.21-25.83,32.78-1.05,8.75,6.94,56.49,10.06,66.01,1.41,4.31,3.63,8.58,6.61,12.01,2.68,3.09,5.73,5.4,9.15,7.61v157.18c0,26.99-.96,54.39,.26,81.32-5.94,8.67-15.19,16.35-22.62,23.8-12.99,12.96-25.88,26.02-38.67,39.17l-.02,204.27,.02,76.02c0,12.68,.57,25.52-.06,38.18,15.36-.53,30.76-.05,46.13-.04h87.96c61.42,0,123.03-1.03,184.42-.02l37.95-37.39c7.62-7.61,15.94-18.28,24.97-23.89,27.52,.96,55.28,.26,82.82,.26h150.6s113.19,0,113.19,0c19.73,0,40.05,.98,59.73-.26,9.03,5.62,17.35,16.28,24.97,23.89l37.95,37.39c61.39-1.04,123.01,.03,184.42,.03h87.96c15.37-.02,30.77-.51,46.13,.03-.64-12.68-.07-25.52-.06-38.21l.02-75.16v-205.1c-12.81-13.15-25.7-26.21-38.68-39.17-7.44-7.44-16.66-15.12-22.62-23.78,1.19-26.95,.25-54.34,.25-81.34v-157.17c3.42-2.22,6.47-4.52,9.15-7.61,2.98-3.43,5.2-7.7,6.62-12.01,3.11-9.52,11.11-57.27,10.06-66.01-1.63-13.56-15.78-24.94-25.83-32.78,.03-16.45,.38-32.97-.25-49.42,5.62-9.03,16.28-17.35,23.89-24.97l37.39-37.95c-1.01-61.76,.03-123.74,.03-185.53v-86.85c-.02-15.37-.51-30.77,.03-46.13-12.68,.63-25.52,.07-38.21,.06l-75.16-.02-205.1,.02c-13.19,12.82-26.28,25.75-39.28,38.77-7.41,7.4-15.06,16.61-23.7,22.53-33.67-1.28-67.69-.28-101.39-.26-3.06-2.13-6.72-4.1-10.36-4.99-9.34-2.28-21.51-.81-31.23-.77l-63.77,.29-54.88-.3c-9.66-.05-19.77-.61-29.39,.22-5.21,.45-9.54,2.81-13.88,5.54-33.7-.02-67.72-1.02-101.39,.26-8.67-5.94-16.35-15.19-23.8-22.62-12.96-12.99-26.02-25.88-39.17-38.67l-205.1-.02-75.17,.02c-12.7,0-25.53,.56-38.21-.06Z"/>
            <path class="cls-8" d="M1773.25,796.83c13.3,3.38,27,5.69,40.19,9.36v387.64c-13.28,3.25-27.16,5.4-40.19,9.34,1.19-26.95,.25-54.34,.25-81.34v-157.17c3.42-2.22,6.47-4.52,9.15-7.61,2.98-3.43,5.2-7.7,6.62-12.01,3.11-9.52,11.11-57.27,10.06-66.01-1.63-13.56-15.78-24.94-25.83-32.78,.03-16.45,.38-32.97-.25-49.42Z"/>
            <path class="cls-8" d="M686.56,806.19c13.2-3.67,26.88-6.01,40.2-9.34-.64,16.44-.29,32.96-.26,49.4-10.05,7.83-24.2,19.21-25.83,32.78-1.05,8.75,6.94,56.49,10.06,66.01,1.41,4.31,3.63,8.58,6.61,12.01,2.68,3.09,5.73,5.4,9.15,7.61v157.18c0,26.99-.96,54.39,.26,81.32-13.08-3.86-26.9-6.07-40.2-9.32v-387.64Z"/>
            <path class="cls-8" d="M1056.19,436.56h387.64c3.25,13.29,5.46,27.11,9.32,40.2-33.67-1.28-67.69-.28-101.39-.26-3.06-2.13-6.72-4.1-10.36-4.99-9.34-2.28-21.51-.81-31.23-.77l-63.77,.29-54.88-.3c-9.66-.05-19.77-.61-29.39,.22-5.21,.45-9.54,2.81-13.88,5.54-33.7-.02-67.72-1.02-101.39,.26,3.34-13.31,5.67-27,9.34-40.2Z"/>
            <path class="cls-8" d="M1046.83,1523.25c27.52,.96,55.28,.26,82.82,.26h150.6s113.19,0,113.19,0c19.73,0,40.05,.98,59.73-.26-3.94,13.03-6.09,26.91-9.34,40.19h-387.64c-3.67-13.2-5.98-26.89-9.36-40.19Z"/>
            <path class="cls-8" d="M595.21,345.21l419.57-.02c16.23,16.99,32.62,34.41,49.9,50.32-2.8,13.6-5.72,27.18-8.74,40.73l-56.67-56.96h-360.23s-33.8-24.04-33.8-24.04l24.04,33.84v360.19s56.95,56.67,56.95,56.67c-13.43,2.92-27.17,6.73-40.73,8.74-15.84-17.32-33.36-33.66-50.32-49.9l.02-419.57Z"/>
            <path class="cls-8" d="M1485.22,345.19l419.57,.02,.02,419.57c-16.96,16.24-34.48,32.58-50.32,49.9-13.56-2.01-27.3-5.83-40.73-8.75l56.96-56.66V389.09l24.04-33.85-33.81,24.04h-360.22s-56.67,56.95-56.67,56.95c-3.03-13.55-5.94-27.13-8.74-40.73,17.28-15.91,33.67-33.33,49.9-50.32Z"/>
            <path class="cls-8" d="M1813.76,1194.06c13.55-3.03,27.13-5.94,40.72-8.74,15.91,17.28,33.33,33.67,50.32,49.9l-.02,419.57-419.57,.02c-16.24-16.96-32.58-34.48-49.9-50.32,2.02-13.56,5.83-27.3,8.75-40.73l56.66,56.96h360.19l33.84,24.04-24.04-33.8v-360.23l-56.95-56.67Z"/>
            <path class="cls-8" d="M645.51,1185.31c13.6,2.8,27.17,5.72,40.73,8.74l-56.96,56.67v360.23s-24.04,33.8-24.04,33.8l33.85-24.04h360.18l56.66-56.96c2.92,13.43,6.74,27.17,8.75,40.73-17.32,15.84-33.66,33.36-49.9,50.32l-419.57-.02-.02-419.57c16.99-16.23,34.41-32.62,50.32-49.9Z"/>
            <path class="cls-12" d="M665.4,415.4c12.67,.62,25.51,.07,38.21,.06l75.17-.02,205.1,.02c13.15,12.79,26.21,25.68,39.17,38.67,7.44,7.43,15.13,16.68,23.8,22.62,33.67-1.28,67.69-.28,101.39-.26,4.34-2.73,8.67-5.1,13.88-5.54,9.63-.83,19.73-.27,29.39-.22l54.88,.3,63.77-.29c9.72-.03,21.89-1.51,31.23,.77,3.64,.89,7.31,2.85,10.36,4.99,33.7-.02,67.72-1.02,101.39,.26,8.64-5.92,16.28-15.12,23.7-22.53,12.99-13.02,26.09-25.95,39.28-38.77l205.1-.02,75.16,.02c12.7,0,25.54,.57,38.21-.06-.54,15.36-.05,30.76-.04,46.13v86.85c0,61.79-1.03,123.77-.02,185.53l-37.39,37.95c-7.61,7.62-18.28,15.94-23.89,24.97,.63,16.44,.28,32.97,.25,49.42,10.05,7.83,24.2,19.21,25.83,32.78,1.04,8.74-6.95,56.49-10.06,66.01-1.41,4.31-3.63,8.58-6.62,12.01-2.68,3.09-5.74,5.4-9.15,7.61v157.17c0,27,.94,54.4-.25,81.34,5.96,8.66,15.19,16.34,22.62,23.78,12.99,12.96,25.88,26.02,38.67,39.17v205.1s0,75.16,0,75.16c0,12.7-.57,25.54,.06,38.21-15.36-.54-30.76-.05-46.13-.04h-87.96c-61.41,0-123.03-1.06-184.42-.02l-37.95-37.39c-7.62-7.61-15.94-18.27-24.97-23.89-19.68,1.24-40,.26-59.73,.26l-113.19-.02h-150.6c-27.54,.02-55.3,.71-82.82-.25-9.03,5.62-17.35,16.28-24.97,23.89l-37.95,37.39c-61.4-1.01-123.01,.03-184.42,.03h-87.96c-15.37-.02-30.77-.5-46.13,.03,.63-12.67,.07-25.5,.06-38.18l-.02-76.02,.02-204.27c12.79-13.15,25.68-26.21,38.67-39.17,7.43-7.44,16.68-15.13,22.62-23.8-1.22-26.93-.25-54.34-.26-81.32v-157.18c-3.42-2.21-6.47-4.52-9.15-7.61-2.98-3.43-5.2-7.7-6.61-12.01-3.12-9.52-11.11-57.26-10.06-66.01,1.62-13.57,15.77-24.94,25.83-32.78-.03-16.44-.38-32.97,.26-49.4-5.57-9.02-16.25-17.33-23.87-24.96l-37.43-37.98c1-61.77-.03-123.74-.03-185.53v-86.85c.02-15.37,.5-30.77-.03-46.12Zm880.91,27.42l-19.39,.06c-20.52,20.43-41.6,40.53-61.35,61.7l-101.57-.18c-.25,10.86-4.57,22.95-7.43,33.46,6.2,2.35,11.09,5.45,14.05,11.62,5.09,10.61,3.5,67.13,3.12,82.91-2.24,3.87-4.16,6.46-8.7,7.54-3.89,.93-8.51,.53-12.5,.42l.32,248.49-.28,94.17c.11,15.65-1.12,31.95,1.44,47.41,2.47,14.98,8.63,29.12,19.43,39.97,3.56,3.57,7.54,6.49,11.68,9.36,11.95,.71,23.95,1.2,35.84,2.68l27.43-87.43c5-15.93,9.24-32.99,15.84-48.31,2.9-6.73,6.26-12.64,10.97-18.3,14.7-15.33,29.67-23.11,50.08-28.65-10.28-26.27-6.64-39.1,2.39-64.72,3.47-9.83,6.63-19.99,10.59-29.62,25.67-19.67,55.89-17.72,86.62-13.62,2.62,.36,5.24,.76,7.85,1.17s5.22,.86,7.82,1.34c2.6,.47,5.2,.97,7.79,1.49,2.59,.52,5.18,1.07,7.76,1.65,2.58,.58,5.16,1.18,7.72,1.81,2.57,.63,5.13,1.28,7.69,1.96,2.56,.68,5.11,1.39,7.65,2.12,2.54,.73,5.08,1.49,7.6,2.27,2.53,.78,5.05,1.59,7.55,2.43,2.51,.83,5.01,1.69,7.5,2.58,2.49,.89,4.98,1.8,7.45,2.73,2.47,.94,4.94,1.9,7.4,2.88,2.45,.99,4.9,2,7.33,3.03,2.44,1.03,4.86,2.09,7.27,3.18,2.41,1.08,4.82,2.19,7.2,3.33,2.39,1.14,4.77,2.29,7.14,3.47l-.2-44.81c21.1-19.86,41.27-40.81,61.7-61.35l-.04-280.16-260.77-.1Zm-837.6-.02l-15.78,.12-.04,280.16c20.43,20.52,40.53,41.6,61.7,61.35l-.2,44.81c46.12-22.67,137.11-52.03,186.97-35.49,7.87,2.61,13.83,6.62,20.36,11.66,3.91,10.65,7.73,21.33,11.45,32.04,8.39,23.97,11.72,37.86,1.54,62.29,22.31,6.06,44.75,17,56.64,37.93,9.75,17.17,14.45,38.83,20.34,57.61l27.34,87.15c11.91-1.39,23.85-2,35.82-2.68l8.15-5.94c16.31-15.25,23.46-34.44,24.29-56.59,1.69-45.3-.1-90.95-.18-136.28l.36-240.59c-5.9,.12-13.47,1.17-18.07-3.4-1.35-1.34-2.27-2.88-3.14-4.56-.21-16.63-1.64-64.17,1.22-77.32,.92-4.25,2.84-8.23,5.98-11.3,2.88-2.82,6.32-4.65,9.89-6.45-2.87-10.72-6.6-21.85-7.73-32.91l-101.18,.17c-19.87-21.09-40.81-41.26-61.35-61.7h-174.88c-29.74,0-59.8,.9-89.51-.09Zm45.84,695.99c-.22,25.59-.21,51.18,.04,76.76-21.09,19.87-41.26,40.81-61.7,61.35l.04,280.16,170.01,.07c15.19,0,30.67,.66,45.82-.11,6.59-25.96,13.15-52.04,20.37-77.83-26.49-3.97-47.89-15.53-64.03-37.27-15.53-20.92-22.83-51.59-31.33-76.15l-54.46-156.57-15.88-46.02c-2.74-7.96-5.09-16.92-8.9-24.39Zm990.5,.11l-67.81,195.26-18.94,54.52c-5.57,16-10.38,32.72-19.21,47.29-8.91,14.69-23.11,27.33-38.56,34.78-1.17,.56-2.34,1.09-3.53,1.6-1.19,.51-2.39,.99-3.59,1.45-1.21,.45-2.42,.88-3.65,1.29-1.23,.4-2.46,.78-3.7,1.13-1.24,.35-2.49,.68-3.75,.97-1.25,.3-2.52,.57-3.79,.81-1.27,.24-2.54,.46-3.82,.65-1.28,.19-2.56,.35-3.84,.48,6.86,25.9,14.3,51.83,20.38,77.91,16.47,.16,32.94,.2,49.41,.12l166.43-.08,.04-280.16c-20.43-20.52-40.53-41.6-61.7-61.35l.28-51.25c.03-7.8,1.14-17.91-.65-25.4Zm-663.15,312.75c-16.35,8-59.89,18.93-79.15,22.5l-19.72,73.04,32.1-31.98c6.57-6.48,13.01-13.08,19.32-19.81l111.08,.22c-13.42-6.98-26.62-14.38-38.84-23.36-6.58-4.84-18.73-17.88-24.79-20.61Zm335.85-.17c-19.44,17.54-39.67,32.62-63.3,44.13l111.11-.22c6.42,6.7,12.78,13.47,19.44,19.93l31.98,31.86c-6.57-24.33-12.77-48.82-19.74-73.04-19.69-3.78-62.72-14.37-79.5-22.67Z"/>
            <path class="cls-11" d="M1610.47,1236.99c2.51,0,5.14-.04,7.19,1.67,1.6,1.32,2.51,2.94,2.44,5.05-.1,2.66-1.9,4.52-3.57,6.36-2.39,.12-4.99,.35-7-1.25-1.78-1.43-2.53-3.11-2.51-5.39,.02-2.67,1.79-4.57,3.44-6.43Z"/>
            <path class="cls-11" d="M883.84,1236.87c2.79,.17,5.54,.25,7.6,2.41,1.43,1.51,1.77,3.29,1.48,5.31-.38,2.62-2.49,4.35-4.33,6.01-2.23-.24-4.43-.55-6.27-2.01-1.63-1.3-2.43-3.07-2.37-5.15,.09-2.77,2.09-4.72,3.89-6.57Z"/>
            <path class="cls-13" d="M879.75,957.3c16.95,1.77,34.42,.52,51.26,2.79l-1.56,.25,1.37,.29-3.72,2.55-11.18,5.84c-11.64-4.57-25.05-6.08-36.17-11.73Z"/>
            <path class="cls-13" d="M1617.9,957.87l1.31-.33c-3.64,3.36-28.6,9.21-35.14,11.5-3.17-1.62-6.29-3.37-9.43-5.06-2.16-1.19-4.22-2.67-6.29-4.02,16.33-1.61,33.13-1.59,49.54-2.09Z"/>
            <path class="cls-4" d="M1015.48,1272.76c4.83-2.85,9.63-5.84,14.57-8.49,1.75-.94,3.01-2.07,4.94-1.47-1.45,5.02-3.03,10.01-4.07,15.13-5.76,3.33-13.69,9.34-20.01,10.86l4.57-16.03Z"/>
            <path class="cls-4" d="M1465.01,1262.8c1.94-.6,3.19,.52,4.94,1.47,4.94,2.65,9.74,5.64,14.57,8.48l4.57,16.04c-6.34-1.53-14.24-7.52-20.01-10.86-1.04-5.11-2.63-10.12-4.07-15.13Z"/>
            <path class="cls-4" d="M1240.41,1254.53c6.42-.2,12.76-.32,19.18,0v19.06s-19.19,0-19.19,0v-19.06Z"/>
            <path class="cls-4" d="M1331.05,577.48l3.87,.85c3.01,5.57,.8,31.33,.98,39.3-4.89-.36-9.97-.14-14.88-.18,3.48-13.29,6.82-26.61,10.03-39.96Z"/>
            <path class="cls-4" d="M1168.95,577.48c3.21,13.35,6.55,26.67,10.03,39.96-4.91,.04-9.99-.18-14.88,.18,.18-7.97-2.03-33.73,.98-39.3l3.87-.85Z"/>
            <path class="cls-7" d="M1470.65,1374.69l9.87,36.57c-7.98-3-16.74-4.64-24.88-7.46,5.44-9.48,10.77-19.02,15.01-29.11Z"/>
            <path class="cls-7" d="M1029.34,1374.71c4.3,10.05,9.61,19.61,15.02,29.09-8.15,2.82-16.91,4.46-24.89,7.46l9.86-36.55Z"/>
            <path class="cls-13" d="M1240.4,1273.6h19.19v22.64h-19.19v-22.64Z"/>
            <path class="cls-8" d="M1177.21,634.81c1.68,.09,3.35,.26,5.03,.41,3.81,3.03,9.47,32.68,11.3,39.47l-16.33-.02v-39.87Z"/>
            <path class="cls-8" d="M1316.59,634.86l5.62,.35c2.21,6.84,.54,30,.33,38.7-2.18,1.59-7.77,.8-10.6,.81-1.74,.09-3.18-.21-4.87-.58,1.5-12.86,6.34-26.64,9.52-39.28Z"/>
            <path class="cls-13" d="M1010.91,1288.79c6.32-1.51,14.25-7.52,20.01-10.86-3.24,10.83-5.49,21.97-8.8,32.74-5.04-.87-15.23,6.93-19.62,9.6,2.14-10.55,5.54-21.11,8.41-31.48Z"/>
            <path class="cls-13" d="M1469.08,1277.93c5.77,3.34,13.67,9.33,20.01,10.86,2.97,10.45,5.77,20.94,8.41,31.48-4.39-2.67-14.58-10.46-19.62-9.6-3.32-10.77-5.56-21.91-8.8-32.74Z"/>
            <path class="cls-8" d="M1164.09,617.62c-3.1-.04-6.3,.08-8.55-2.41-3.2-3.55-2.68-34.18-1.85-40.22,.56-4.09,1.56-6.91,4.87-9.45,2.3-.57,3.43-.36,5.68,.31,3.35,3.17,3.63,7.21,4.69,11.62l-3.87,.85c-3.01,5.57-.8,31.33-.98,39.3Z"/>
            <path class="cls-8" d="M1331.05,577.48c1.06-4.41,1.34-8.44,4.69-11.62,2.25-.67,3.38-.88,5.68-.31,3.31,2.54,4.31,5.36,4.87,9.45,.84,6.04,1.35,36.66-1.85,40.22-2.25,2.49-5.45,2.37-8.55,2.41-.18-7.97,2.03-33.73-.98-39.3l-3.87-.85Z"/>
            <path class="cls-67" d="M867.93,1303.59c17.92,17.83,40.44,38.2,67.4,38.35,8.91,.05,19.21-2.97,25.4-9.69,5.17-5.64,6.41-13.01,5.85-20.39-.1-1.36-.23-2.71-.37-4.06l.72-.87c1.11,3.95,.1,10.1,1.98,13.17,2.37-2.48,2.94-9.67,3.84-13.2,.38,.29,.84,.54,1.09,.95-3.07,12.59-5.64,26.28-10.25,38.38-.05-.54-.12-1.07-.17-1.61-.4-5.01,3.02-10.14,2.39-14.88-1.83,1.32-.71,.34-1.97,1.84-5.72,6.82-14.9,11.71-23.78,12.14-11.29,.55-30.42-7.74-39.97-1.16l-.63,3.5-1.42,.57c-.04-2.48,.64-4.36-1.05-6.29-1.9-.09-2.36-.38-4.08,.57-.52,2.28-.12,3.1,.53,5.39l-1.29,.58-1.56-4.1c-2.34,.79-4.56,1.74-6.81,2.73,.21,.43,.43,.86,.62,1.29,.99,2.16,1.09,4.56,.8,6.89-7.19-15.73-11.77-33.67-17.27-50.1Z"/>
            <path class="cls-71" d="M1533.81,1307.8c-.18,1.67-.33,3.34-.45,5.02-.48,7.01,1.05,14.12,5.92,19.43,6.18,6.73,16.48,9.75,25.39,9.69,26.96-.16,49.48-20.52,67.4-38.35-4.41,13.28-10.6,36.82-16.63,48.37l-.37-.4c-.62-2.55,.3-3.74,1.25-6.14-1.14-1.86-1.73-1.99-3.71-2.99-1.25,.14-2.34,.13-3.47,.72-.29,1.26-.62,2.26-1.1,3.45l-1.25-.22c.58-2.43,1.01-2.99,.05-5.25-2.16-.89-2.26-.97-4.51-.4-1.2,2.25-.49,3.04,.07,5.41l-.88,.48c-6.58-12.22-20.96-4.11-31.37-3.02-5.43,.57-12.21-.03-17.51-1.36-11.16-2.81-11.12-8.41-18.03-11.66-1.35,3.83,2.3,9.66,1.96,14.05-.04,.54-.11,1.08-.17,1.63-4.58-12.12-7.18-25.74-10.24-38.36l.89-.74c1.16,3.88,2.06,10.47,4.5,13.6,.78-4.84-.03-9.48,1.62-14.21l.61,1.28Z"/>
            <path class="cls-13" d="M1455.64,1403.8c8.14,2.82,16.91,4.46,24.88,7.46,1.68,10.2,5.51,20.96,8.37,30.94-8.25-2.17-16.43-4.57-24.54-7.18-8.12-2.62-16.15-5.45-24.11-8.51,5.43-7.34,10.9-14.76,15.4-22.71Z"/>
            <path class="cls-13" d="M1019.48,1411.26c7.98-3,16.74-4.64,24.89-7.46,4.48,8,9.99,15.41,15.62,22.63-8,3.07-16.08,5.92-24.23,8.55-8.15,2.63-16.37,5.04-24.66,7.23,2.86-9.96,6.7-20.76,8.37-30.94Z"/>
            <path class="cls-13" d="M803.07,958.09c6.03-1.14,13.68-3.48,19.78-3.11,10.72,.65,67.95,17,78.5,21.09-9.39,3.53-18.81,6.61-28.3,9.81-5.45-3.86-14.77-6.09-21.12-8.53-16.32-6.29-32.78-12.39-48.86-19.26Z"/>
            <path class="cls-13" d="M1598.64,976.07c10.54-4.08,67.79-20.44,78.5-21.09,6.1-.37,13.75,1.97,19.78,3.11-16.08,6.87-32.54,12.97-48.86,19.26-6.35,2.44-15.66,4.67-21.12,8.53-9.49-3.2-18.91-6.28-28.3-9.81Z"/>
            <path class="cls-13" d="M1240.45,1191.32h19.1l.04,63.21c-6.42-.32-12.76-.2-19.18,0l.04-63.21Z"/>
            <path class="cls-13" d="M1043.36,1178.02l13.59,2.26c-7.88,27.29-14.93,54.99-21.96,82.51-1.94-.6-3.19,.52-4.94,1.47-4.94,2.65-9.74,5.64-14.57,8.49,10.37-31.12,18.28-63.34,27.88-94.74Z"/>
            <path class="cls-13" d="M1456.66,1178.02c9.49,31.41,17.47,63.66,27.86,94.73-4.83-2.85-9.63-5.84-14.57-8.48-1.75-.94-3.01-2.07-4.94-1.47-7.03-27.52-14.05-55.25-22.02-82.5l13.67-2.28Z"/>
            <path class="cls-4" d="M803.07,958.09c16.08,6.87,32.54,12.97,48.86,19.26,6.35,2.44,15.66,4.67,21.12,8.53-27.53,7.45-54.56,10.01-83.02,9.51-5.04-10.79-8.7-23.04-12.52-34.35,8.52-1.01,17.05-1.85,25.56-2.94Z"/>
            <path class="cls-4" d="M1696.93,958.09c8.51,1.1,17.04,1.93,25.56,2.94-3.82,11.32-7.48,23.57-12.52,34.35-28.46,.51-55.49-2.05-83.02-9.51,5.45-3.86,14.77-6.09,21.12-8.53,16.32-6.29,32.78-12.39,48.86-19.26Z"/>
            <path class="cls-14" d="M1265.58,1140.23c4.38-4.66,8.84-9.13,13.86-13.11,15.81-12.55,33.15-16.23,52.92-13.83,20.21,6.07,33.21,20.51,47.33,35.41-20.78,1.63-41.59,2.83-62.42,3.63-20.83,.79-41.67,1.17-62.52,1.12,3.31-4.62,7.13-8.88,10.81-13.21Z"/>
            <path class="cls-2" d="M1312.33,1122.73c4.89-.18,10.03-.64,14.52,1.73,2.55,1.34,5.14,3.75,5.62,6.71,.31,1.95-.21,3.91-1.28,5.55-3.24,5-9.26,6.33-14.66,7.65-4.77,.52-10.57,1.07-15.09-.83-2.91-1.23-5.75-3.35-6.61-6.55-.63-2.37,0-4.61,1.32-6.59,3.61-5.39,10.25-6.5,16.17-7.66Z"/>
            <path class="cls-4" d="M1240.4,1296.24h19.19c.69,66.42,.03,132.92,.04,199.35h-19.27l.04-199.35Z"/>
            <path class="cls-41" d="M966.21,1307.8l-.7-1.51c-5.37-11.4-12.4-21.39-24.91-25.8-1.23-.43-2.2-.89-3.44-.31,0,.09,0,.18-.01,.27-.04,.17-.12,.33-.17,.5,4.97,4.02,11.48,8.05,12.04,15.05,.28,3.51-1.09,6.87-3.38,9.48-3.29,3.76-8.4,6.25-13.41,6.41-12.16,.39-19.68-3.79-28.07-12.2-6.03-6.05-9.58-14.03-9.55-22.63,.03-6.12,2.45-11.77,6.83-16.05,8.58-8.39,21.71-10.39,33.25-9.91,17.87,.74,34.81,7.21,49.97,16.41-2.87,10.73-6.67,31.15-10.83,40.33-.25-.41-.71-.66-1.09-.95-.89,3.52-1.47,10.72-3.84,13.2-1.87-3.07-.87-9.22-1.98-13.17l-.72,.87Z"/>
            <path class="cls-7" d="M917.23,1265.67c1.86,0,4.18,.03,5.84,1,1.77,1.03,2.84,2.55,2.91,4.61,.09,2.68-1.75,4.72-3.33,6.64-1.97,.02-4.25,.08-6-1.03-1.69-1.08-2.66-2.54-2.73-4.56-.09-2.69,1.72-4.72,3.3-6.66Z"/>
            <path class="cls-40" d="M1515.44,1267.52c19.56-11.49,45.13-20.86,68.04-14.72,7.64,2.05,14.75,6.07,18.85,13.07,3.45,5.9,3.85,12.8,2,19.29-2.8,9.82-10.4,18.41-19.39,23.08-7.1,3.69-14.14,4.88-21.79,2.34-4.22-1.4-9.5-3.24-11.83-7.33-1.62-2.84-.99-6.28,.23-9.13,2.54-5.96,7.42-8.88,11.29-13.67-5.17-.37-9.16,3-13.43,5.55-9.77,5.83-10.37,14.75-15.6,21.79l-.61-1.28c-1.65,4.73-.85,9.38-1.62,14.21-2.44-3.12-3.34-9.72-4.5-13.6l-.89,.74c-4.17-13.23-7.27-26.91-10.75-40.35Z"/>
            <path class="cls-7" d="M1576.51,1265.92c1.98-.13,4.18-.31,6.03,.61,2.23,1.11,2.57,2.2,3.46,4.33-.07,3.02-.8,4.37-2.45,6.87-1.81,.14-3.96,.3-5.67-.48-2.42-1.1-2.81-2.24-3.78-4.5,.02-2.99,.8-4.35,2.41-6.83Z"/>
            <path class="cls-4" d="M1002.49,1320.27c4.4-2.67,14.58-10.46,19.62-9.6l-66.06,246.32-17.27,.07c15.44-55.06,29.74-110.48,44.51-165.72,6.32-23.65,12.09-47.64,19.19-71.07Z"/>
            <path class="cls-4" d="M1477.88,1310.67c5.04-.87,15.23,6.93,19.62,9.6,7.3,24.03,13.21,48.66,19.69,72.93,14.6,54.62,28.77,109.41,44.01,163.86l-17.27-.07-66.05-246.32Z"/>
            <path class="cls-43" d="M1536.42,1346.23c.05-.54,.13-1.08,.17-1.63,.34-4.39-3.31-10.22-1.96-14.05,6.91,3.25,6.87,8.85,18.03,11.66,5.29,1.33,12.07,1.93,17.51,1.36,10.4-1.09,24.78-9.2,31.37,3.02l.88-.48c-.56-2.36-1.27-3.16-.07-5.41,2.25-.57,2.35-.49,4.51,.4,.96,2.26,.53,2.82-.05,5.25l1.25,.22c.48-1.19,.81-2.19,1.1-3.45,1.13-.59,2.22-.58,3.47-.72,1.98,1,2.57,1.14,3.71,2.99-.95,2.4-1.87,3.59-1.25,6.14l.37,.4c-5.96,20.69-13.34,53.8-33.59,65.52-8.13,4.71-16.92,4.48-25.96,4.28-4.05-16.57-8.74-33.02-13.15-49.5-2.25-8.45-5.21-17.36-6.32-26.03Z"/>
            <path class="cls-7" d="M1571.28,1382.34c1.01,.09,2.87,.1,3.87,.51,2.41,.98,2.78,1.83,3.85,4-.05,2.91-.84,4.18-2.41,6.49-1.44-.06-3.46,0-4.81-.56-2.12-.88-2.57-2.03-3.29-3.97,.22-2.95,1.08-4.2,2.79-6.46Z"/>
            <path class="cls-7" d="M1575.6,1355.4c.37,.03,.74,.04,1.12,.09,3.47,.43,6.7,1.63,8.79,4.59,1.65,2.34,1.96,4.74,1.35,7.53-.86,3.93-3.92,5.8-7.15,7.68-1.33-.12-2.81-.18-4.09-.54-2.72-.75-5.17-2.48-6.62-4.92-1.41-2.35-1.7-5.07-.71-7.66,1.36-3.55,4.1-5.13,7.31-6.79Z"/>
            <path class="cls-42" d="M885.2,1353.69c.29-2.33,.19-4.73-.8-6.89-.2-.43-.42-.86-.62-1.29,2.25-.99,4.48-1.94,6.81-2.73l1.56,4.1,1.29-.58c-.65-2.29-1.04-3.11-.53-5.39,1.72-.95,2.18-.66,4.08-.57,1.69,1.93,1.02,3.81,1.05,6.29l1.42-.57,.63-3.5c9.55-6.58,28.68,1.71,39.97,1.16,8.88-.43,18.06-5.32,23.78-12.14,1.26-1.5,.14-.52,1.97-1.84,.63,4.73-2.79,9.86-2.39,14.88,.04,.54,.11,1.07,.17,1.61-1.12,8.67-4.06,17.57-6.32,26.03-4.4,16.48-9.09,32.93-13.15,49.5-8.96,.05-18.95,.75-26.77-4.39-17.4-11.44-27.79-44.28-32.14-63.68Z"/>
            <path class="cls-7" d="M924.09,1382.11c1.43,.24,3.36,.45,4.64,1.19,2.03,1.17,2.26,2.35,2.82,4.4-.44,2.83-1.53,4.04-3.34,6.1-1.25-.25-3.07-.47-4.17-1.09-2.18-1.23-2.42-2.17-3.11-4.37,.37-2.8,1.47-4.11,3.17-6.23Z"/>
            <path class="cls-7" d="M920.89,1355.42c.41,.04,.83,.05,1.24,.11,3.47,.46,6.62,1.71,8.62,4.72,1.61,2.43,1.8,4.99,1.04,7.76-1,3.61-4.14,5.49-7.21,7.14-1.39-.07-2.83-.13-4.19-.43-2.68-.59-5.19-2.51-6.51-4.92-1.32-2.39-1.44-5.12-.42-7.67,1.44-3.6,4.12-5.08,7.44-6.72Z"/>
            <path class="cls-46" d="M830.12,1267.95c12.08,10.9,24.03,23.24,36.95,33.06l.85,2.57c5.49,16.43,10.08,34.38,17.27,50.1,4.35,19.4,14.74,52.23,32.14,63.68,7.82,5.14,17.81,4.45,26.77,4.39-2.54,10.23-5.35,20.42-8.05,30.61-7.65-1.08-15.04-2.9-22.01-6.29-11.6-5.65-22.11-15.65-29-26.5-11.29-17.81-16.82-40.7-23.63-60.53l-31.3-91.09Z"/>
            <path class="cls-44" d="M1669.88,1267.95l-31.37,91.28c-6.79,19.78-12.3,42.59-23.57,60.35-6.89,10.85-17.39,20.85-29,26.5-6.97,3.4-14.36,5.2-22.01,6.29-2.69-10.2-5.5-20.38-8.05-30.61,9.04,.2,17.83,.43,25.96-4.28,20.25-11.72,27.64-44.83,33.59-65.52,6.02-11.56,12.22-35.1,16.63-48.37l.85-2.57c12.92-9.82,24.88-22.16,36.95-33.06Z"/>
            <path class="cls-6" d="M1189.68,565.56h120.64l11.37-.04c-6.16,25.19-12.48,50.34-18.97,75.46-3.32,12.89-6.25,26.13-10.26,38.81-.89-12.12,8.83-59.9,11.37-75.26-2.78-2.88-5.29-6.06-7.86-9.14h-91.93c-2.44,3.17-5.17,6.11-7.83,9.1l7.64,46.47c1.5,9.2,4.07,19.52,3.69,28.83-4.01-12.68-6.95-25.92-10.26-38.81-6.48-25.11-12.81-50.26-18.97-75.46l11.37,.04Z"/>
            <path class="cls-15" d="M1189.68,565.56h120.64c-1.14,5.61-8.9,9.9-13.26,13.2h-94.16c-4.54-3.37-11.89-7.49-13.22-13.2Z"/>
            <path class="cls-6" d="M1162.58,504.39h174.84c-2.31,9.04-4.7,18.06-7.18,27.05-.51,2.08-.87,3.45-2.11,5.24-16.18,1.95-34.12,.45-50.47,.47l-106.22-.16c-3.58-10.59-6.04-21.77-8.87-32.6Z"/>
            <path class="cls-45" d="M1021.35,1075.19c2.04,5.12,3.64,10.24,5.16,15.54-22.8,5.57-60.38,16.31-73.56,37.81-3.24,5.28-4.69,11.63-3.21,17.72,2.42,9.96,11.99,16.93,20.47,21.76,6.4,3.65,35.02,13.69,36.34,15.1l-.73,1.98c-12.69-1.49-38.58-14.75-50.25-5.75-3.21,2.47-3.98,5.96-4.28,9.8-.77,10.11,4.01,25.47-5.06,33.01-3.72,3.09-8.92,3.33-13.5,2.73-23.82-3.13-58.34-30.81-76.4-47.11,3.24-6,36.27-27.71,43.75-31.58,5.65-2.93,12.13-2.62,16.46-7.88,10.3-12.52,69.12-45.12,86.35-53.5,5.41-2.63,12.41-1.8,17.45-5.41,1.15-.82,.89-2.86,1.01-4.21Z"/>
            <path class="cls-48" d="M1473.48,1090.73c1.5-5.3,3.18-10.44,5.11-15.59l.59,4.11c33.73,12.21,56.83,25.36,86.19,45.3,7.14,4.85,13.64,11.09,20.84,15.61,4.85,3.04,10.54,4.83,15.58,7.62,8.98,4.98,37.58,21.99,41.86,30-7.87,6.93-16.04,13.49-24.5,19.69-13.69,10.12-42,30.72-59.54,27.48-3.33-.61-6.1-2.22-7.93-5.11-2.8-4.38-4.99-14.06-3.6-19.15,1.29-4.72,1.38-11.86-.26-16.53-6.66-18.92-48.23,2.95-54.16,.23l-.1-1.73c1.31-1.07,26.92-9.57,33.13-12.86,9.57-5.07,20.28-12.68,23.29-23.64,1.69-6.11,.53-12.28-2.74-17.64-12.52-20.56-51.88-32.46-73.77-37.81Z"/>
            <path class="cls-3" d="M1578.99,813.62c46.25-2.68,103.88,13.76,145.94,33.06,10.78,4.95,45.56,21.76,47.89,33.26,.27,1.35,.11,2.61-.73,3.68-2.53,3.27-7.67,3.42-11.48,4.03-38.76,5.65-102.3-13.58-138.32-28.67-14.05-5.88-51.88-23.1-57.33-36.39,.06-1.6-.22-2.56,.8-3.91,2.95-3.89,8.74-4.22,13.24-5.06Z"/>
            <path class="cls-4" d="M1583.43,818.05l11.67-.22,1.48,1.44-.54-1.42,.71,1.38c-1.77,1-3.61,2.11-5.12,3.48-.1,.1-.21,.2-.3,.3-.1,.1-.19,.21-.29,.31-.1,.11-.19,.22-.27,.33-.09,.11-.17,.23-.25,.35-.08,.12-.16,.23-.23,.35-.07,.12-.15,.25-.22,.37s-.13,.25-.19,.38c-.06,.13-.12,.26-.17,.39-.05,.13-.1,.26-.15,.4-.05,.13-.09,.27-.13,.4-.04,.14-.07,.28-.11,.42-.03,.14-.06,.28-.08,.42-.03,.14-.05,.28-.06,.42-.02,.14-.03,.28-.04,.43,0,.14-.01,.28-.01,.43,0,.14,0,.28,0,.43,.26,4.98,5.06,8.76,8.46,11.84v.7c-6.35-2.8-18.19-9.12-22-15.09-1.3-2.03-1.16-2.95-.58-5.18,2.36-2.3,5.33-2.47,8.44-3.05Z"/>
            <path class="cls-4" d="M1741.71,860.67c2.02,.68,3.73,1.5,5.58,2.55,6.35,3.63,13.59,7.39,15.68,14.94-.35,1.44-.25,2.18-1.44,3.2-4.02,3.43-13.85,1.97-18.9,1.73-7.26-.08-14.51-1.24-21.7-2.16,7.21-2.26,17.37,.65,24.08-4.33,1.71-1.27,2.68-2.48,2.92-4.67,.43-3.92-3.88-8.6-6.22-11.28Z"/>
            <path class="cls-12" d="M1604.32,824.35c2.11-.19,4.23-.31,6.35-.36,27.42-.81,104.92,19.04,124.29,38.51,1.94,1.95,2.38,3.23,2.36,5.93-1.46,2.5-2.81,3.06-5.33,4.15-30.48,2.99-104.86-16.86-128.91-36.57-2.65-2.17-3.72-3.8-4.05-7.21,1.67-2.66,2.6-2.99,5.28-4.46Z"/>
            <path class="cls-3" d="M897.37,813.86c6.35-1.23,30.62-.96,35.45,2.45,2.04,1.44,1.99,2,2.41,4.31-.66,2.14-1.37,3.65-2.79,5.41-19.03,23.48-82.5,44.82-112.2,52.37-17.17,4.37-35.02,7.43-52.62,9.38-10.31,.91-26.81,2.33-36.39-2.11-2.68-1.24-3.18-2.3-4.07-4.91,.46-2.75,1.42-4.37,3.25-6.41,27.91-30.99,124.59-57.65,166.96-60.49Z"/>
            <path class="cls-4" d="M898.82,818.32c6.18-.54,17.66-1.83,23.24,1.31,2.19,1.24,2.32,1.73,2.97,3.99-1.58,6.07-8.03,9.18-12.89,12.51-4.09,2.48-8.38,4.62-12.61,6.84,3.68-3.03,7.91-6.18,10.25-10.41,1.15-2.08,1.65-4.37,.75-6.66-1.92-4.87-7.26-6.12-11.71-7.58Z"/>
            <path class="cls-4" d="M756.93,860.88l.59,.46c-1.85,2.15-3.8,4.82-5.03,7.38-.99,2.08-.56,3.36,.06,5.45,6.47,7.22,16.75,5.05,25.2,6.53l1.33,.25c-6.47,.9-12.89,1.61-19.4,2.1-5.6,.28-15.97,1.14-20.81-1.81-2.08-1.27-2.08-1.69-2.47-3.91,2.82-7.33,14.07-12.73,20.53-16.46Z"/>
            <path class="cls-12" d="M877.62,824.41c6.19-.81,15.21-1.67,20.8,1.56,2.08,1.2,2.64,2.06,3.37,4.29-.35,1.25-.71,2.29-1.6,3.28-15.72,17.35-89.24,37.33-113.94,38.9-4.03,1.17-14.04,1.61-17.89-.04-2.81-1.2-4.37-2.83-5.4-5.66,.37-1.73,.7-2.74,1.86-4.14,3.04-3.69,9.06-6.47,13.25-8.67,29.33-15.42,66.55-26.32,99.56-29.52Z"/>
            <path class="cls-9" d="M1409.31,1196.57l16.69-1.85c6.96,25.06,13.75,50.17,20.36,75.33,2.93,10.96,10.75,33.43,10.51,43.82-.46,19.29-13.26,48.85-22.49,65.58-.84,1.51-1.7,3.02-2.57,4.52-.88,1.49-1.77,2.98-2.68,4.45-.91,1.47-1.85,2.93-2.79,4.38-.95,1.45-1.92,2.89-2.9,4.31-.98,1.43-1.98,2.84-3,4.24-1.02,1.4-2.05,2.79-3.11,4.16-1.05,1.38-2.12,2.74-3.21,4.09-1.09,1.35-2.19,2.69-3.31,4.01-1.12,1.32-2.26,2.63-3.41,3.93-1.15,1.29-2.32,2.57-3.5,3.84-1.18,1.27-2.38,2.52-3.59,3.75-1.21,1.24-2.44,2.46-3.68,3.67-1.25,1.2-2.51,2.39-3.78,3.57-1.27,1.17-2.56,2.33-3.86,3.47-1.3,1.14-2.62,2.27-3.95,3.38-1.33,1.11-2.67,2.21-4.03,3.28-1.36,1.08-2.73,2.14-4.11,3.18-1.38,1.05-2.77,2.07-4.18,3.08-1.41,1.01-2.83,2-4.26,2.98s-2.87,1.93-4.33,2.87c-1.46,.94-2.93,1.86-4.4,2.77-1.48,.9-2.97,1.79-4.47,2.65-1.5,.87-3.01,1.72-4.54,2.55-1.52,.83-3.05,1.64-4.59,2.43-1.54,.79-3.09,1.56-4.65,2.32s-3.13,1.49-4.71,2.21c-1.58,.71-3.16,1.41-4.76,2.08-1.6,.68-3.2,1.33-4.81,1.97-1.61,.64-3.23,1.25-4.86,1.85-1.63,.6-3.26,1.17-4.9,1.73-1.64,.56-3.29,1.09-4.94,1.61-1.65,.51-3.31,1.01-4.98,1.48-11.15,3.16-23.13,5.95-34.74,6.64v-31.74c38.96-2.25,78.49-19.79,105.01-48.74,14.78-12.53,27.49-35.52,34.86-53.18,21.48-51.5,17.41-105.82-3.34-156.67Z"/>
            <path class="cls-4" d="M1080.3,1105.39l1.62,.04c-2.06,5.58-11.43,13.14-15.64,17.64-20.47,3.42-43.17,5.9-61.47,16.26,5.24,2.98,10.71,4.98,16.47,6.67,26.95,7.92,56.58,10.57,84.46,13.14,98.71,9.11,212.79,9.18,311.09-2.33,25.11-2.94,55.89-5.35,78.35-17.48-18.39-10.38-41.05-12.87-61.62-16.22-5.48-6.42-11.38-12.4-17.29-18.43,15.51,2.6,31.2,4.2,46.73,6.83,14.78,2.86,33.39,5.86,45.7,15.18,3.49,2.64,7.44,6.54,7.66,11.21,.12,2.55-1.02,4.92-2.58,6.87-12.98,16.2-56.59,21.65-76.81,24.48-74.54,10.43-151.39,11.81-226.59,10.27-53.27-1.09-107.43-3.54-160.04-12.21-17.44-2.88-46.17-7.19-59.79-18.09-3.29-2.63-5.59-5.93-5.97-10.2-.32-3.62,.88-6.71,3.23-9.44,14.06-16.4,70.65-21.84,92.46-24.18Z"/>
            <path class="cls-4" d="M1556.93,832.88c36.78,39.18,132.79,66.19,186.09,67.98,9.74,.33,19-.65,28.56-2.51-2.9,14.57-3.99,34.98-17.24,44.2-18.26,12.72-52.31,4.23-72.99-.03-11.71-2.5-23.35-5.33-34.91-8.48-9.14-2.68-18.23-5.54-27.26-8.57-18.06-6.14-65.19-22.41-72.86-39.57-6.44-14.38,1.03-30.34,6.51-43.68l4.1-9.35Z"/>
            <path class="cls-3" d="M1761.18,905.54h0c.2,4.01-1.48,13.42-3.09,18.05-1.02,5.18-3.68,9.42-8.17,12.3-9.67,6.21-25.15,4.19-35.82,1.74l-1.61-.21c.43,0,.85,.01,1.27,0,6.32-.12,14.74-3.19,21.06-7.21,3.68-2.34,6.28-6.02,7.3-10.27s1.36-8.03,.99-13.19l18.06-1.22Z"/>
            <path class="cls-13" d="M1614.13,879.69c10.66,5.16,21.85,9.21,33.06,12.98,5.53,1.86,11.84,3.17,17.01,5.79,10.35,5.22,30.1,25.07,41.1,33.77-18.31-2.71-39.82-4.9-57.16-11.53-.14-.95-.5-1.77-1.08-2.55-2.94-4.01-7.09-7.67-10.51-11.33-8.12-8.66-15.8-17.23-22.42-27.13Z"/>
            <path class="cls-13" d="M1552.82,842.23l9.08,9.09c8.2,7.36,20.74,11.01,27.04,16.71,4.08,1.81,8.25,3.93,12.43,5.46,2.9,1.1,11.48,3.42,12.76,6.2,6.62,9.91,14.3,18.48,22.42,27.13,3.42,3.65,7.57,7.32,10.51,11.33,.57,.78,.94,1.6,1.08,2.55-3.5-.83-7-1.62-10.52-2.37-4.09-1.13-8.18-2.34-12.29-3.38,7.23,5.88,14.64,12.35,21.1,19.09-9.14-2.68-18.23-5.54-27.26-8.57-18.06-6.14-65.19-22.41-72.86-39.57-6.44-14.38,1.03-30.34,6.51-43.68Z"/>
            <path class="cls-12" d="M1601.37,873.49c2.9,1.1,11.48,3.42,12.76,6.2,6.62,9.91,14.3,18.48,22.42,27.13,3.42,3.65,7.57,7.32,10.51,11.33,.57,.78,.94,1.6,1.08,2.55-3.5-.83-7-1.62-10.52-2.37-8.26-8.32-33.53-34.78-36.25-44.84Z"/>
            <path class="cls-12" d="M1561.91,851.32c8.2,7.36,20.74,11.01,27.04,16.71,10.45,16.24,22.68,31.22,35.39,45.72-20.63-6.57-56.42-15.69-68.29-34.32,1.17-9.67,3.08-18.76,5.86-28.11Z"/>
            <path class="cls-4" d="M728.43,898.35c9.55,1.86,18.81,2.84,28.56,2.51,53.32-1.8,149.28-28.8,186.09-67.98l4.1,9.35c5.49,13.33,12.95,29.28,6.52,43.67-7.67,17.16-54.79,33.42-72.86,39.57-9.03,3.02-18.12,5.88-27.25,8.58-11.6,3.01-23.19,6.05-34.92,8.47-20.68,4.26-54.75,12.76-72.99,.04-13.23-9.22-14.33-29.64-17.24-44.21Z"/>
            <path class="cls-3" d="M738.35,904.8c5.69,.49,12.67,1.36,18.37,1.71h0c-1.97,12.82,2.83,19.27,2.83,19.27,8.08,8.52,17.42,10,28.51,11.7-.05,.01-.11,.03-.16,.04-11.59,1.71-28,5.49-38.08-2.03-9.3-6.94-9.76-20.13-11.47-30.68Z"/>
            <path class="cls-13" d="M885.54,879.75c-2.75,4.67-5.82,8.86-9.31,13-3.85,4.57-23.78,23.93-24.37,27.95-17.33,6.63-38.85,8.82-57.16,11.53,10.57-8.33,31.08-28.87,41.42-33.94,4.76-2.34,10.44-3.55,15.51-5.21,11.1-3.64,22.58-7.57,33-12.86l.91-.47Z"/>
            <path class="cls-13" d="M947.17,842.24c5.49,13.33,12.95,29.28,6.52,43.67-7.67,17.16-54.79,33.42-72.86,39.57-9.03,3.02-18.12,5.88-27.25,8.58,6.41-6.77,13.87-13.22,21.09-19.1-4.11,1.04-8.19,2.24-12.28,3.37-3.52,.75-7.03,1.54-10.53,2.38,.59-4.02,20.51-23.38,24.37-27.95,3.49-4.14,6.56-8.33,9.31-13,2.49-3.23,9.35-4.83,13.09-6.26,4.18-1.53,8.35-3.65,12.43-5.46,6.3-5.7,18.84-9.35,27.04-16.71l9.08-9.09Z"/>
            <path class="cls-12" d="M898.63,873.49c-2.71,10.04-28,36.55-36.24,44.83-3.52,.75-7.03,1.54-10.53,2.38,.59-4.02,20.51-23.38,24.37-27.95,3.49-4.14,6.56-8.33,9.31-13,2.49-3.23,9.35-4.83,13.09-6.26Z"/>
            <path class="cls-12" d="M938.09,851.32c2.77,9.35,4.68,18.44,5.86,28.11-11.86,18.63-47.66,27.75-68.29,34.32,12.72-14.5,24.95-29.48,35.39-45.72,6.3-5.7,18.84-9.35,27.04-16.71Z"/>
            <path class="cls-15" d="M1204.04,595.39h91.93c2.57,3.07,5.08,6.26,7.86,9.14-2.54,15.36-12.26,63.14-11.37,75.26-.53,8.22-9.65,43.14-14.36,49.71-18.66,.59-37.53,.07-56.2,0-4.89-7.12-13.42-40.35-14.36-49.71,.38-9.31-2.19-19.63-3.69-28.83l-7.64-46.47c2.66-2.99,5.39-5.93,7.83-9.1Z"/>
            <path class="cls-12" d="M1218.99,674.79l64.17,.05c-1.32,4.26-2.44,8.61-3.64,12.89-.66,2.24-1.36,6.02-2.92,7.68-1.94,2.06-47.3,1.03-53.69,1-1.83-6.48-4.88-14.02-5.18-20.72l1.26-.92Z"/>
            <path class="cls-12" d="M1201.2,617.47h97.64l-4.09,15.15-.45,1.23c-3.86,2.45-77.63,1.07-88.46,1.06l-4.64-17.44Z"/>
            <path class="cls-49" d="M1322.75,734.46l.04,206.43-.06,53.24c-.04,14.06-.95,28.56,1.66,42.43,3.78,20.11,12.16,39.14,26.8,53.69,8.3,8.26,18.71,14.41,27.98,21.52,13.03,9.99,24.27,21.47,34.9,33.94-11.29,1.03-23.08,2.87-34.37,2.99-14.13-14.9-27.12-29.33-47.33-35.41-4.48-3.45-8.86-6.92-12.86-10.94-10.78-10.81-20.33-25.42-23.64-40.5-3.12-14.21-2.06-29.51-2.07-43.99l.03-53.98,.07-200.38,28.86-29.05Z"/>
            <path class="cls-47" d="M1177.25,734.46l28.86,29.06,.05,204.16,.06,54.08c0,11.94,1.11,25.09-1.33,36.78-3.39,16.26-12.06,31.37-23.71,43.11-8.34,8.4-18.46,14.71-27.87,21.81-8.5,6.41-16.09,13.76-23.14,21.71-1.41,1.34-2.84,2.65-4.19,4.06l-40.14-3.52c10.78-12.7,22.27-24.36,35.56-34.47,9.1-6.93,19.25-12.9,27.39-20.98,14.65-14.53,23.02-33.61,26.8-53.7,2.63-13.98,1.7-28.63,1.66-42.8l-.06-52.85,.04-206.44Z"/>
            <path class="cls-34" d="M960,926.56c8.08,1.28,15.63,3.2,22.99,6.86,8.15,4.05,16.4,10.64,21.19,18.43,8.76,14.27,13.32,35.34,18.44,51.27l26.84,83.14c-7.71,1.24-15.32,2.8-22.94,4.46-1.52-5.3-3.12-10.42-5.16-15.54-1.36-5.8-3.03-12.48-5.97-17.67-5.15-12.29-7.18-24.59-21.14-30.25-6.45-2.62-13.14-3.1-20-3.24,9.63-4.5,17.25-6.78,28.05-6.58-3.96-11.96-7.76-28.83-19.9-35.1-6.3-3.25-11.55-2.6-18-.27-17.48,6.29-32.53,18.45-49.68,25.93-26.49,11.56-54.04,19.69-82.82,22.91-10.16,1.14-21,.35-30.98,2.12-6.24,1.1-10.1,2.84-12.9,8.76-5.93,12.56,1.81,29.98,6.59,41.83,.28,.7,.59,1.38,.91,2.07,2.65,15.7,9.21,31,14.6,45.95,10.23,32.89,21.81,65.46,32.83,98.1,7.99,23.68,15.29,47.92,24.14,71.29-12.92-9.82-24.88-22.16-36.95-33.06l-50.78-147.65c-6.59-19.16-23.65-61.37-24.86-79.31-1.28-18.95,5.72-35.35,18.06-49.39l4.56,16.56c2.86,.38,5.72,.73,8.58,1.07,68.32,7.95,128.22-13.51,181.48-55.6l-7.15-27.07Z"/>
            <path class="cls-32" d="M1450.54,1086.27l26.84-83.14c5.12-15.93,9.68-37,18.44-51.27,4.79-7.8,13.03-14.38,21.19-18.43,7.36-3.66,14.91-5.58,22.99-6.86l-7.15,27.07c53.26,42.09,113.15,63.55,181.48,55.6,2.86-.33,5.72-.69,8.58-1.07l4.55-16.56c12.33,14.04,19.34,30.44,18.06,49.39-1.21,17.94-18.27,60.15-24.87,79.31l-50.78,147.65c-12.08,10.9-24.03,23.24-36.95,33.06,8.82-23.3,16.1-47.46,24.07-71.08,11.05-32.75,22.65-65.44,32.94-98.43,5.37-14.9,11.91-30.17,14.55-45.83,.53-1.17,1.05-2.35,1.53-3.55,4.75-11.52,11.63-28.37,5.97-40.35-3.07-6.49-7.72-8.05-14.5-9.01-9.6-1.36-19.66-.78-29.37-1.86-3.71-.44-7.42-.95-11.11-1.53-3.69-.59-7.37-1.24-11.04-1.98-3.67-.73-7.32-1.53-10.95-2.41-3.64-.87-7.25-1.82-10.85-2.84-3.6-1.02-7.17-2.1-10.73-3.26-3.56-1.16-7.09-2.39-10.59-3.69-3.51-1.3-6.99-2.66-10.44-4.1-3.45-1.43-6.87-2.94-10.27-4.51-15.95-7.29-30.08-18.6-46.52-24.52-6.45-2.32-11.7-2.98-18,.27-12.15,6.27-15.94,23.15-19.9,35.1,10.81-.2,18.42,2.08,28.05,6.58-6.86,.14-13.54,.63-19.99,3.24-13.91,5.65-16.01,17.98-21.14,30.25-2.94,5.18-4.58,11.83-6.03,17.61-1.94,5.15-3.61,10.29-5.11,15.59-7.63-1.66-15.23-3.22-22.94-4.46Z"/>
            <path class="cls-4" d="M1497.71,1017.45c3.96-11.96,7.76-28.83,19.9-35.1,6.3-3.25,11.55-2.6,18-.27,16.44,5.92,30.57,17.23,46.52,24.52,3.39,1.57,6.82,3.07,10.27,4.51,3.45,1.44,6.93,2.8,10.44,4.1,3.5,1.3,7.04,2.53,10.59,3.69,3.56,1.16,7.13,2.25,10.73,3.26,3.6,1.02,7.21,1.96,10.85,2.84,3.64,.88,7.29,1.68,10.95,2.41,3.67,.73,7.35,1.39,11.04,1.97,3.69,.59,7.4,1.1,11.11,1.54,9.71,1.08,19.77,.51,29.37,1.86,6.78,.95,11.44,2.52,14.5,9.01,5.66,11.98-1.22,28.83-5.97,40.35-.49,1.19-1,2.37-1.53,3.55-2.64,15.66-9.18,30.93-14.55,45.83-13.83,14.2-29.98,35.63-46.26,46.28-4.28-8-32.88-25.02-41.86-30-5.04-2.8-10.73-4.58-15.58-7.62-7.2-4.52-13.71-10.77-20.84-15.61-29.37-19.94-52.46-33.1-86.19-45.3l-.59-4.11c1.45-5.78,3.09-12.43,6.03-17.61,5.13-12.27,7.23-24.6,21.14-30.25,6.45-2.62,13.13-3.1,19.99-3.24-9.63-4.5-17.24-6.78-28.05-6.58Z"/>
            <path class="cls-33" d="M1484.63,1057.53c52.55,2.5,76.6,90.49,140.85,82.47,12.29-1.54,24.77-7.35,33.87-15.75,7.4-6.84,13.04-15.81,13.5-26.09,.34-7.6-2.23-14.8-7.59-20.25-6.12-6.22-16.36-10.81-25.17-10.52-1.86,.06-3.49,.57-5.27,1.05-.38,.1-.77,.19-1.15,.29-7.55,1.95-13.91,6.4-18,13.08-2.13,3.49-3.67,8.69-2.76,12.79,.7,3.13,2.88,5.89,5.6,7.51,1.79,1.06,3.92,1.99,6.06,1.6,2.76-.49,4.69-3.05,5.94-5.36,2.38-4.42,2.22-11.34,6.34-13.91,5.24-.44,10.11,2.56,13.98,5.86,3.89,3.31,6.72,6.55,6.97,11.83,.35,7.42-3.36,15.57-8.48,20.81-6.4,6.55-16.81,11.09-26.05,11.19-10.78,.11-19.41-3.07-26.93-10.8-7.7-7.92-11.79-18.01-11.62-29.08,.22-15.06,8.25-29.46,19.12-39.52,12.94-11.99,31.01-19.17,48.73-18.24,15.49,.8,31.52,7.6,41.92,19.31,7.65,8.61,10.02,18.62,9.99,29.9-2.64,15.66-9.18,30.93-14.55,45.83-13.83,14.2-29.98,35.63-46.26,46.28-4.28-8-32.88-25.02-41.86-30-5.04-2.8-10.73-4.58-15.58-7.62-7.2-4.52-13.71-10.77-20.84-15.61-29.37-19.94-52.46-33.1-86.19-45.3l-.59-4.11c1.45-5.78,3.09-12.43,6.03-17.61Z"/>
            <path class="cls-8" d="M1610.42,1059.82c2.38,.78,3.61,1.32,5.17,3.28-.05,2.73-.62,3.42-1.95,5.73-2.37-.72-3.41-1-5.06-2.99-.08-2.87,.5-3.56,1.84-6.02Z"/>
            <path class="cls-8" d="M1499.08,1074.75c2.84,.39,4.32,.62,6.44,2.67,.31,2.64-.26,3.57-1.47,5.82-2.27-.35-3.39-.7-5.22-2.09-1.01-2.4-.39-4.02,.25-6.4Z"/>
            <path class="cls-8" d="M1630.63,1115.11c1.31,.39,2.86,.75,4.05,1.43,1.97,1.13,2.34,2.58,2.84,4.63-.63,2.99-1.86,4.16-3.94,6.2-1.32-.38-2.87-.73-4.06-1.41-1.99-1.13-2.38-2.59-2.88-4.65,.65-2.98,1.82-4.13,3.99-6.2Z"/>
            <path class="cls-8" d="M1685.07,1070.77c.64,.04,1.28,.09,1.91,.15,3.44,.36,6.76,1.78,8.72,4.8,1.69,2.62,1.96,5.2,1.16,8.19-1,3.71-4.1,5.65-7.24,7.4-1.22-.06-2.44-.12-3.65-.28-2.94-.38-5.85-2.12-7.41-4.71-1.43-2.36-1.88-4.83-1.13-7.52,1.17-4.25,3.96-6.05,7.66-8.04Z"/>
            <path class="cls-4" d="M795.51,1085.68c-.33-.68-.63-1.37-.91-2.07-4.77-11.85-12.52-29.26-6.59-41.83,2.8-5.92,6.65-7.66,12.9-8.76,9.98-1.76,20.81-.98,30.98-2.12,28.77-3.21,56.33-11.35,82.82-22.91,17.16-7.48,32.21-19.64,49.68-25.93,6.45-2.32,11.7-2.98,18,.27,12.15,6.27,15.94,23.15,19.9,35.1-10.81-.2-18.42,2.08-28.05,6.58,6.86,.14,13.54,.63,20,3.24,13.96,5.66,15.99,17.95,21.14,30.25,2.94,5.19,4.61,11.87,5.97,17.67-.13,1.35,.14,3.39-1.01,4.21-5.04,3.62-12.05,2.78-17.45,5.41-17.23,8.38-76.06,40.98-86.35,53.5-4.33,5.26-10.81,4.95-16.46,7.88-7.48,3.87-40.51,25.57-43.75,31.58-17.08-11.19-31.6-31.79-46.21-46.15-5.39-14.96-11.95-30.25-14.6-45.95Z"/>
            <path class="cls-30" d="M795.51,1085.68c.07-5.53,.39-10.83,2.1-16.14,3.97-12.28,14.21-21.24,25.51-26.82,15.33-7.57,32.96-8.14,48.99-2.5,16.54,5.82,30.96,18.04,38.38,34.04,5.11,11.03,6.53,23.77,2.11,35.29-3.28,8.54-11.41,18.5-20.18,21.98-10.02,3.98-22.4,3.08-31.98-1.51-7.55-3.63-14.5-11.25-17.18-19.24-1.69-5.04-1.87-9.24,.74-13.98,2.87-5.2,9.22-11.39,15.31-12.45,9.73-1.69,5.73,13.39,14.91,18.99,1.64,1,3.35,1.11,5.11,.38,2.79-1.15,5.81-4.2,6.99-6.99,1.78-4.22,.6-9.68-1.16-13.7-3.82-8.74-12.24-11.33-20.37-14.67-1.62-.66-2.97-1.24-4.77-1.25-8.76-.04-19.18,4.59-25.28,10.79-5.36,5.44-7.93,12.64-7.59,20.25,.47,10.55,6.36,19.69,14.04,26.58,9.29,8.33,21.84,14.04,34.26,15.38,63.84,6.86,87.58-80.09,139.92-82.57,2.94,5.19,4.61,11.87,5.97,17.67-.13,1.35,.14,3.39-1.01,4.21-5.04,3.62-12.05,2.78-17.45,5.41-17.23,8.38-76.06,40.98-86.35,53.5-4.33,5.26-10.81,4.95-16.46,7.88-7.48,3.87-40.51,25.57-43.75,31.58-17.08-11.19-31.6-31.79-46.21-46.15-5.39-14.96-11.95-30.25-14.6-45.95Z"/>
            <path class="cls-8" d="M886.4,1059.82c2.32,.76,3.37,1.09,5.01,3.03,.1,2.86-.47,3.53-1.79,5.99-2.43-.74-3.63-1.25-5.21-3.24-.22-2.56,.67-3.74,2-5.78Z"/>
            <path class="cls-8" d="M995.55,1074.83c2.44,.26,3.72,.26,5.67,1.9,.7,2.81,.18,3.74-.63,6.47-2.4-.36-4.12-.42-5.88-2.3-.69-2.59-.1-3.68,.84-6.07Z"/>
            <path class="cls-8" d="M866.4,1115.13c1.32,.37,2.88,.72,4.07,1.39,1.99,1.12,2.38,2.58,2.89,4.64-.65,2.99-1.82,4.14-3.99,6.22-1.31-.39-2.86-.76-4.05-1.45-1.97-1.13-2.34-2.57-2.84-4.62,.64-2.99,1.84-4.15,3.93-6.18Z"/>
            <path class="cls-8" d="M810.44,1070.8c1.59,.11,3.26,.19,4.81,.56,2.71,.65,5.35,2.88,6.63,5.32,1.32,2.52,1.27,5.06,.42,7.7-1.14,3.55-4.09,5.32-7.18,6.96-1.22-.08-2.44-.16-3.65-.33-2.89-.42-5.8-2.17-7.33-4.72-1.4-2.34-1.84-4.77-1.14-7.44,1.08-4.09,3.96-6.06,7.44-8.06Z"/>
            <path class="cls-31" d="M1404.2,1196.75l5.11-.18c20.75,50.85,24.82,105.17,3.34,156.67-7.37,17.66-20.08,40.65-34.86,53.18-26.52,28.95-66.05,46.48-105.02,48.74-.14-10.32-.1-20.65,.1-30.97-.52-20.31-.03-40.77-.03-61.09l-.05-118.76,.04-39.74c29.67,.35,59.41-1.65,88.98-3.86,13.99-1.05,28.62-1.43,42.39-3.98Z"/>
            <path class="cls-10" d="M1395.14,1323.65c2.87,.07,5.84-.04,8.09,2.05,1.64,1.53,2.39,3.32,2.28,5.56-.14,2.9-2.04,4.91-3.86,6.95-3.01,.24-6.25,.16-8.59-2.04-1.5-1.4-2.35-3.58-2.1-5.64,.39-3.11,2.07-4.76,4.18-6.88Z"/>
            <path class="cls-10" d="M1323.64,1276.59c2.95-.09,6.17,.13,8.34,2.43,1.58,1.67,2.09,3.59,1.85,5.85-.3,2.82-2.47,4.65-4.4,6.47-2.29,.02-4.84,.1-6.83-1.26-1.94-1.33-3.11-2.71-3.31-5.13-.31-3.85,1.81-5.89,4.34-8.35Z"/>
            <path class="cls-10" d="M1295.52,1362.25c2.67,.43,5.13,.75,7.18,2.72,1.59,1.52,2.21,3.69,1.98,5.85-.34,3-2.51,4.87-4.58,6.79-2.88-.06-5.42-.2-7.74-2.22-1.68-1.47-2.61-3.4-2.39-5.66,.37-3.71,2.76-5.5,5.54-7.48Z"/>
            <path class="cls-10" d="M1347.18,1358.07c2.49-.13,5.27-.36,7.7,.26,4.11,1.05,7.86,4.2,9.77,7.96,.11,.22,.22,.45,.32,.67s.2,.46,.29,.69c.09,.23,.17,.47,.25,.7s.15,.47,.21,.71c.07,.24,.12,.48,.17,.73,.05,.24,.1,.49,.14,.73,.04,.25,.07,.49,.09,.74,.03,.25,.05,.49,.06,.74,.01,.25,.02,.5,.02,.74s0,.5-.02,.74c-.01,.25-.04,.5-.06,.74-.02,.25-.06,.49-.1,.74-.04,.25-.08,.49-.13,.73-.05,.24-.11,.48-.17,.72-.07,.24-.14,.48-.22,.72s-.16,.47-.25,.7c-1.9,4.84-5.28,7.17-9.79,9.35-2.31,.43-4.73,.53-7.05,.1-3.84-.72-7.56-3.23-9.64-6.53-2.35-3.72-2.86-8.22-1.6-12.42,1.6-5.3,5.28-7.91,10.02-10.27Z"/>
            <path class="cls-5" d="M1274.09,1395.23c21.25-.13,43.44,1.46,64.47,4.54,6.78,.99,32.33,8.55,35.74,8.11,.97-.13,2.54-1.06,3.5-1.45-26.52,28.95-66.05,46.48-105.02,48.74-.14-10.32-.1-20.65,.1-30.97,2-9.03,1.09-19.7,1.22-28.96Z"/>
            <path class="cls-10" d="M1290.83,1415.36c1.59,.11,3.77,.24,5.18,1,2.21,1.2,2.49,2.39,3.09,4.59-.58,3.02-1.56,4.21-3.68,6.39-1.36-.2-3.02-.4-4.27-.97-2.08-.95-2.63-2.37-3.35-4.37,.28-3.01,1.17-4.3,3.03-6.65Z"/>
            <path class="cls-14" d="M1272.82,1204.6c29.67,.35,59.41-1.65,88.98-3.86,13.99-1.05,28.62-1.43,42.39-3.98,10.12,31.93,13.39,65.32-2.55,96.06-11.12,21.45-30.71,38.8-53.92,45.99-14.44,4.47-30.94,4.44-44.59-2.61-.33-.17-.67-.34-1-.52-.33-.18-.65-.36-.98-.54-.33-.19-.65-.37-.97-.56-.32-.19-.64-.39-.95-.59-.32-.2-.63-.4-.94-.61-.31-.21-.62-.42-.92-.64s-.61-.43-.91-.66-.6-.45-.89-.68c-.29-.23-.58-.46-.87-.7-.29-.24-.57-.48-.86-.73-.28-.25-.56-.49-.83-.74s-.55-.51-.82-.77c-.27-.26-.53-.52-.8-.79-.26-.26-.52-.53-.78-.8-.26-.27-.51-.55-.76-.82-.25-.28-.5-.56-.74-.85-.24-.28-.48-.57-.72-.86-.24-.29-.47-.58-.69-.88-.23-.3-.45-.59-.67-.9-.22-.3-.44-.61-.65-.91-.21-.31-.42-.62-.63-.93-.21-.31-.41-.63-.61-.95-.2-.32-.39-.63-.58-.95-.19-.32-.37-.65-.56-.97-.18-.33-.36-.65-.53-.99s-.34-.66-.51-1c-.17-.33-.33-.67-.48-1.01-.16-.34-.31-.68-.46-1.02-.15-.34-.29-.69-.43-1.04-.14-.35-.28-.69-.41-1.04-.13-.35-.26-.7-.38-1.05-.12-.35-.24-.71-.35-1.06-2.83-9.14-2.55-19.14,1.95-27.71,3.45-6.58,11.08-14,18.35-16.07,5.44-1.55,11.95-1.05,17.26,.75l.13,.79-.98,.07c-5.69,.44-10.06,2.1-13.75,6.65-4.29,5.28-5.85,12.43-4.98,19.1,.76,5.78,3.17,11.66,8.12,15.06,4.11,2.82,10.64,3.84,15.46,2.81,10.01-2.13,18.26-9.91,23.43-18.43,5.7-9.4,8.43-20.82,5.49-31.61-3.4-12.43-10.13-12.69-13.15-18.48-1.91-3.67,3.19-4.2-3.44-7.99-3.56,0-4.38,2.82-7.32,2.81-4.24-.02-8.5-2.18-12.76-2.68-14-1.63-29.03,4.03-41.51,9.63l.04-39.74Z"/>
            <path class="cls-2" d="M1385.64,1257.07c.93,.09,2.62,.1,3.54,.48,2.25,.93,2.67,1.62,3.66,3.65-.07,2.88-.77,4.22-2.32,6.62-1.15-.16-1.96-.23-3.11-.56-2.24-.65-3.11-1.78-4.26-3.68,0-2.98,.85-4.2,2.5-6.52Z"/>
            <path class="cls-2" d="M1370.76,1204.84c2.01-.15,3.97-.31,5.96,.07,.21,.04,.41,.09,.62,.14,.21,.05,.41,.11,.61,.17,.2,.06,.4,.13,.6,.2,.2,.07,.39,.15,.59,.23,.19,.08,.39,.17,.58,.26,.19,.09,.37,.19,.56,.29,.19,.1,.37,.21,.55,.33,.18,.11,.35,.23,.52,.35,.17,.12,.34,.25,.51,.38,.17,.13,.33,.26,.49,.4,.16,.14,.31,.28,.47,.43,.15,.15,.3,.3,.44,.45,.14,.16,.28,.32,.42,.48,.13,.16,.27,.33,.39,.5,.13,.17,.25,.34,.36,.52s.23,.36,.34,.54c1.48,2.47,1.73,5.57,.95,8.31-1.24,4.42-4.11,6.42-7.87,8.71-1.52,.05-3.03,.04-4.54-.16-.21-.03-.42-.06-.63-.1-.21-.04-.42-.08-.63-.13-.21-.05-.41-.11-.61-.17-.21-.06-.41-.13-.61-.2s-.4-.15-.6-.23c-.2-.08-.39-.17-.59-.26-.19-.09-.38-.19-.57-.29-.19-.1-.37-.21-.55-.32-.18-.11-.36-.23-.54-.35-.18-.12-.35-.25-.52-.38-.17-.13-.34-.27-.5-.4-.16-.14-.32-.28-.48-.43-.15-.15-.3-.3-.45-.45-.15-.16-.29-.31-.43-.48-.14-.16-.27-.33-.4-.5-.13-.17-.26-.34-.38-.52-1.66-2.44-2.16-5.39-1.53-8.26,1-4.53,3.73-6.72,7.45-9.15Z"/>
            <path class="cls-28" d="M1301.06,696.52l21.66-.03,.03,37.97-28.86,29.05-.07,200.38-.03,53.98c0,14.48-1.05,29.77,2.07,43.99,3.31,15.08,12.86,29.69,23.64,40.5,4,4.01,8.38,7.48,12.86,10.94-19.77-2.4-37.12,1.29-52.92,13.83-5.02,3.98-9.48,8.46-13.86,13.11-3.68,4.33-7.5,8.59-10.81,13.21-21.48,.13-42.96-.15-64.43-.86-21.47-.71-42.92-1.83-64.34-3.37,1.34-1.4,2.77-2.72,4.19-4.06,7.05-7.96,14.64-15.3,23.14-21.71,9.41-7.1,19.53-13.41,27.87-21.81,11.65-11.74,20.32-26.85,23.71-43.11,2.43-11.69,1.33-24.84,1.33-36.78l-.06-54.08-.05-204.16-28.86-29.06,.03-37.97,21.7,.03c2.25,9.12,7.28,38.68,15,42.92,8.88,4.89,60.2,4.36,70.09,.87,3.85-1.36,5.54-4.01,7.19-7.62,5.01-11.02,6.65-24.45,9.81-36.17Z"/>
            <path class="cls-10" d="M1261.27,1074.15c1.56,.07,3.63,.22,5.02,.96,2.14,1.14,2.37,2.35,2.97,4.46-.57,2.92-1.44,4.06-3.5,6.17-1.18-.18-2.86-.31-3.93-.82-2.29-1.11-2.55-2.03-3.46-4.21,.29-2.95,1.12-4.23,2.91-6.55Z"/>
            <path class="cls-10" d="M1222.74,1094.68c1.69,.2,3.43,.39,5.04,.97,3.16,1.12,5.91,3.64,7.24,6.73,.07,.17,.14,.34,.21,.52,.07,.18,.13,.35,.18,.53,.06,.18,.11,.36,.16,.54,.05,.18,.09,.36,.13,.55,.04,.18,.07,.37,.1,.55,.03,.19,.06,.37,.08,.56s.04,.37,.05,.56c0,.19,.01,.37,.02,.56,0,.19,0,.37,0,.56,0,.19-.02,.37-.04,.56-.02,.19-.04,.37-.06,.56-.03,.19-.06,.37-.09,.55-.04,.19-.07,.37-.12,.55-.04,.18-.09,.36-.15,.54-.05,.18-.11,.36-.17,.53-.06,.18-.13,.35-.2,.52-1.83,4.54-5.19,6.4-9.56,8.03-2.22-.22-4.67-.43-6.71-1.39-.18-.09-.36-.18-.53-.27s-.35-.2-.52-.3c-.17-.1-.34-.21-.5-.32-.16-.11-.33-.23-.49-.35-.16-.12-.31-.24-.47-.37-.16-.13-.31-.26-.45-.39-.15-.13-.29-.27-.43-.42-.14-.14-.28-.29-.41-.43-.13-.15-.26-.3-.39-.46-.13-.16-.25-.31-.37-.48-.12-.16-.23-.32-.35-.49-.11-.17-.21-.34-.32-.51-.1-.17-.2-.34-.29-.52-.09-.18-.18-.36-.27-.54-.08-.18-.16-.36-.24-.55-.08-.19-.15-.37-.22-.56-.07-.19-.13-.38-.19-.58-.06-.19-.11-.39-.16-.59-.05-.2-.09-.4-.13-.6-.04-.2-.07-.4-.1-.6-.03-.2-.05-.41-.07-.61-.01-.2-.03-.4-.03-.61,0-.2,0-.41,0-.61s.01-.41,.03-.61c.01-.2,.03-.4,.06-.61,.03-.2,.06-.4,.09-.6,.04-.2,.08-.4,.13-.6,.04-.2,.09-.39,.15-.59,.06-.2,.12-.39,.18-.58,.07-.19,.14-.38,.21-.57,.07-.19,.16-.37,.24-.56,.08-.19,.17-.37,.27-.55,2.08-4.04,5.34-5.36,9.47-6.68Z"/>
            <path class="cls-10" d="M1130.18,1145.16c11.02-6.84,19.84-15.78,31.72-21.72,49.32-24.68,52.62,11.26,89.08,16.97,4.78,.75,9.8,.17,14.6-.19-3.68,4.33-7.5,8.59-10.81,13.21-21.48,.13-42.96-.15-64.43-.86-21.47-.71-42.92-1.83-64.34-3.37,1.34-1.4,2.77-2.72,4.19-4.06Z"/>
            <path class="cls-16" d="M1193.82,1123.77c3.13,.43,6.63,.58,9.63,1.57,3.69,1.21,5.96,3.64,7.72,6.99,.08,2.23,.19,3.88-1.48,5.62-3.61,3.78-9.16,3.97-14.02,4.45-3.48-.21-7.46-.46-10.71-1.74-2.71-1.07-6.04-3.5-6.83-6.45-.55-2.04,.12-4.01,1.38-5.62,3.24-4.16,9.54-4.34,14.32-4.81Z"/>
            <path class="cls-9" d="M1073.99,1194.72l17.34,1.85c15.9,1.76,31.89,2.58,47.77,4.33,27.03,1.44,53.94,3.68,81.02,3.8,2.7,0,4.36-.33,6.73,1.04,1.06,9.1,.47,18.66,.43,27.82l-.05,42.87-.15,138.2c.23,12.38,.28,24.75,.14,37.13v35.22c-32.9-3.02-65.67-15.35-93.18-33.48-50.43-33.23-79.78-82.44-91.84-140.82,11.32-39.11,20.51-78.84,31.8-117.96Z"/>
            <path class="cls-5" d="M1133.15,1416.51c-.26-1.68-.87-2.31-2.02-3.48-.87-.88-1.3-1.14-1.7-2.33,14.06-5.45,29.8-7.19,44.61-9.11-2.82,15.11-2.57,27.18,2.19,41.81-12.67-5.44-34.53-15.97-43.07-26.89Z"/>
            <path class="cls-5" d="M1182.24,1400.9c6.53-1.56,37.22-4.49,42.66-2.43,.31,5.65,.4,10.74,2.17,16.16,.23,12.38,.28,24.75,.14,37.13-1.23-.61-2.46-1.23-3.68-1.88-19.95-10.63-34.74-27.33-41.3-48.98Z"/>
            <path class="cls-29" d="M1227.23,1276.42l-.15,138.2c-1.77-5.42-1.86-10.51-2.17-16.16-5.44-2.06-36.12,.87-42.66,2.43-.58-5.53-.69-10.78-.47-16.34-3.52,5.33-5.85,10.95-7.74,17.03-14.81,1.92-30.55,3.66-44.61,9.11,.4,1.19,.83,1.45,1.7,2.33,1.15,1.17,1.76,1.8,2.02,3.48-15.47-10.59-27.63-29.5-37.1-45.35-5.46-10.25-10.04-20.68-13.7-31.7-2.95-6.57-4.33-15.05-6.01-22.08,11.76,8.59,24.12,14.59,38.69,16.48,46.14,5.97,79.24-31.76,112.2-57.42Z"/>
            <path class="cls-10" d="M1197.62,1339.72c2.44-.04,5.19,.14,7.5,.99,.26,.1,.51,.2,.76,.3,.25,.11,.5,.22,.75,.34,.25,.12,.49,.25,.73,.39,.24,.13,.47,.27,.7,.42,.23,.15,.46,.3,.68,.46,.22,.16,.44,.33,.65,.5,.22,.17,.42,.35,.63,.53,.21,.18,.41,.37,.6,.56,.19,.19,.38,.39,.57,.59,.18,.2,.36,.41,.53,.62,.17,.21,.34,.43,.5,.65,.16,.22,.32,.45,.47,.68,.15,.23,.29,.46,.43,.7,.14,.24,.27,.48,.39,.72,.13,.25,.24,.49,.35,.74,.11,.25,.21,.5,.31,.76,.08,.23,.16,.47,.23,.7,.07,.24,.14,.47,.2,.71,.06,.24,.11,.48,.16,.72,.05,.24,.09,.48,.13,.73,.04,.25,.06,.49,.09,.74,.02,.25,.04,.49,.05,.74,0,.25,.01,.49,.01,.74,0,.25-.01,.49-.03,.74-.01,.25-.04,.49-.06,.74-.03,.25-.06,.49-.1,.74-.04,.24-.08,.48-.13,.73-.05,.24-.11,.48-.17,.72-.06,.24-.13,.47-.21,.71-.07,.23-.16,.46-.24,.69-.09,.23-.18,.46-.28,.69-.1,.22-.2,.45-.31,.67-2.38,4.71-5.98,6.63-10.76,8.36-2.34-.05-4.85-.05-7.09-.79-3.87-1.29-7.22-4.32-8.96-8-1.65-3.49-1.73-7.7-.31-11.28,2.14-5.4,6.08-7.68,11.23-9.73Z"/>
            <path class="cls-14" d="M1082.35,1339.46c1.64-.39,1.6-.22,3.08,.61,21.06,11.81,31.55,17.73,56.42,14.25-12.91,11.41-28.42,17.34-45.79,16.84-5.46-10.25-10.04-20.68-13.7-31.7Z"/>
            <path class="cls-14" d="M1091.34,1196.56c15.9,1.76,31.89,2.58,47.77,4.33,27.03,1.44,53.94,3.68,81.02,3.8,2.7,0,4.36-.33,6.73,1.04,1.06,9.1,.47,18.66,.43,27.82l-.05,42.87c-32.96,25.66-66.06,63.4-112.2,57.42-14.58-1.89-26.94-7.88-38.69-16.48-3.32-22.05-6.67-60.31,1.65-80.87-.35-6.08,3.57-16.81,6.27-22.28,1.56-6.12,4.46-11.94,7.09-17.65Z"/>
            <path class="cls-2" d="M1127.99,1305.9c.94,.01,2.47-.08,3.41,.2,2.37,.69,2.82,1.38,4.17,3.27,.18,2.99-.49,4.29-1.94,6.75-.96-.02-2.6,.07-3.56-.23-2.37-.73-2.78-1.44-4.03-3.39-.19-2.88,.57-4.21,1.95-6.6Z"/>
            <path class="cls-26" d="M1196.07,1235.4c2.73-2.04,6.71-1.36,8.44,1.57,.07,.12,.14,.25,.21,.38,1.34,2.67,.84,5.98,.04,8.73-2.09,7.22-6.88,13.94-12.98,18.36-2.61,1.89-6.34,1.34-8.12-1.34-.07-.11-.15-.23-.22-.35-1.51-2.61-1.09-5.84-.34-8.61,1.97-7.28,6.87-14.19,12.95-18.75Z"/>
            <path class="cls-27" d="M1091.34,1196.56c15.9,1.76,31.89,2.58,47.77,4.33,27.03,1.44,53.94,3.68,81.02,3.8-14.67,19.8-24.74,12.03-36.92,23.49-21.04,19.79-8.52,53.31-49.79,59.7-.4,.06-.8,.11-1.2,.16-.4,.05-.8,.09-1.2,.13-.4,.04-.8,.07-1.2,.1-.4,.03-.8,.05-1.2,.07-.4,.02-.81,.03-1.21,.04-.4,0-.81,.01-1.21,0-.4,0-.81,0-1.21-.02-.4-.01-.8-.03-1.21-.05-.4-.02-.8-.05-1.2-.08-.4-.03-.8-.07-1.2-.11-.4-.04-.8-.09-1.2-.14-.4-.05-.79-.11-1.19-.17-.4-.06-.79-.13-1.19-.2-.39-.07-.79-.15-1.18-.22-.39-.08-.79-.17-1.18-.26-.39-.09-.78-.19-1.17-.29-.39-.1-.78-.2-1.17-.31-.39-.11-.77-.23-1.16-.35-.38-.12-.76-.24-1.15-.37-.38-.13-.76-.26-1.14-.4-.38-.14-.75-.28-1.12-.43-.37-.15-.75-.3-1.12-.45s-.74-.32-1.11-.48c-.37-.16-.73-.33-1.09-.51s-.72-.35-1.08-.53c-.36-.18-.71-.37-1.07-.56-.35-.19-.7-.39-1.05-.59-.35-.2-.7-.4-1.04-.61-.34-.21-.68-.42-1.02-.64s-.67-.44-1-.66c-.33-.23-.66-.46-.99-.69-.33-.23-.65-.47-.97-.71-11.48-8.82-17.03-22.5-18.6-36.53-.2-1.85-.34-3.7-.43-5.55-.35-6.08,3.57-16.81,6.27-22.28,1.56-6.12,4.46-11.94,7.09-17.65Z"/>
            <path class="cls-10" d="M1091.34,1196.56c15.9,1.76,31.89,2.58,47.77,4.33-3.63,1.78-7.89,1.35-11.9,1.97-7.41,1.15-38.51,6.12-42.19,11.75l-.76-.39c1.56-6.12,4.46-11.94,7.09-17.65Z"/>
          </g>
          <path class="cls-25" d="M1191.86,708.75h120.73l-91.12,12.53v432.03s-63.2,2.89-101.46-4.62c0,0,75.77-16.86,75.77-73.5l-3.92-366.44Z"/>
          <ellipse class="cls-37" cx="1282.59" cy="810" rx="33.43" ry="57.71"/>
          <path class="cls-39" d="M1295.47,1215.85l92.81-10.03c13.13-1.42,24.78,8.46,25.49,21.64,2.88,53.23-3.72,176.88-125.33,188.06,0,0,81.24-53.96,61.15-163.45-1.34-7.3-6.11-13.52-12.82-16.69l-41.3-19.53Z"/>
          <ellipse class="cls-38" cx="1312.02" cy="1332.63" rx="25.63" ry="20.22" transform="translate(-233.01 2386.27) rotate(-79.74)"/>
          <g>
            <path class="cls-36" d="M1627.35,1013.62s61.13,12.53,97.95,8.35c0,0-23.16,8.35-25.44,16.7l-112.31,340.17s-8.8,26.2-3.48,34.17l-46-59.8s27.37,1.95,30.05-22.65l59.24-316.94Z"/>
            <path class="cls-35" d="M872.65,1013.62s-61.13,12.53-97.95,8.35c0,0,23.16,8.35,25.44,16.7l112.31,340.17s8.8,26.2,3.48,34.17l46-59.8s-27.37,1.95-30.05-22.65l-59.24-316.94Z"/>
          </g>
        </g>
      </g>
    </g>
  </g>
</svg>