<?xml version="1.0" encoding="UTF-8"?>
<svg xmlns="http://www.w3.org/2000/svg" xmlns:xlink="http://www.w3.org/1999/xlink" viewBox="0 0 2500 2000">
  <defs>
    <style>
      .cls-1 {
        fill: url(#linear-gradient);
      }

      .cls-2 {
        fill: #fff;
      }

      .cls-3 {
        fill: #11162a;
      }

      .cls-4 {
        fill: url(#linear-gradient-8);
      }

      .cls-5 {
        fill: url(#linear-gradient-9);
      }

      .cls-6 {
        fill: url(#linear-gradient-3);
      }

      .cls-7 {
        fill: url(#linear-gradient-4);
      }

      .cls-8 {
        fill: url(#linear-gradient-2);
      }

      .cls-9 {
        fill: url(#linear-gradient-6);
      }

      .cls-10 {
        fill: url(#linear-gradient-7);
      }

      .cls-11 {
        fill: url(#linear-gradient-5);
      }

      .cls-12 {
        fill: url(#linear-gradient-13);
      }

      .cls-13 {
        fill: url(#linear-gradient-12);
      }

      .cls-14 {
        fill: url(#linear-gradient-10);
      }

      .cls-15 {
        fill: url(#linear-gradient-11);
      }
    </style>
    <linearGradient id="linear-gradient" x1="625.72" y1="902.08" x2="624.36" y2="1057.69" gradientUnits="userSpaceOnUse">
      <stop offset=".5" stop-color="#fff"/>
      <stop offset=".5" stop-color="#afb0ba"/>
      <stop offset="1" stop-color="#fff"/>
    </linearGradient>
    <linearGradient id="linear-gradient-2" x1="729.59" y1="903.12" x2="728.24" y2="1058.72" xlink:href="#linear-gradient"/>
    <linearGradient id="linear-gradient-3" x1="826.91" y1="904.18" x2="825.55" y2="1059.74" xlink:href="#linear-gradient"/>
    <linearGradient id="linear-gradient-4" x1="930.78" y1="905.26" x2="929.42" y2="1060.88" xlink:href="#linear-gradient"/>
    <linearGradient id="linear-gradient-5" x1="1033.08" y1="906.3" x2="1031.73" y2="1061.91" xlink:href="#linear-gradient"/>
    <linearGradient id="linear-gradient-6" x1="1141.51" y1="907.45" x2="1140.16" y2="1063.13" xlink:href="#linear-gradient"/>
    <linearGradient id="linear-gradient-7" x1="1250.7" y1="908.59" x2="1249.35" y2="1064.15" xlink:href="#linear-gradient"/>
    <linearGradient id="linear-gradient-8" x1="1354.61" y1="909.63" x2="1353.25" y2="1065.23" xlink:href="#linear-gradient"/>
    <linearGradient id="linear-gradient-9" x1="1451.59" y1="910.68" x2="1450.23" y2="1066.24" xlink:href="#linear-gradient"/>
    <linearGradient id="linear-gradient-10" x1="1558.06" y1="911.79" x2="1556.71" y2="1067.35" xlink:href="#linear-gradient"/>
    <linearGradient id="linear-gradient-11" x1="1668.78" y1="912.94" x2="1667.43" y2="1068.5" xlink:href="#linear-gradient"/>
    <linearGradient id="linear-gradient-12" x1="1776.19" y1="914.06" x2="1774.83" y2="1069.62" xlink:href="#linear-gradient"/>
    <linearGradient id="linear-gradient-13" x1="1882.86" y1="915.17" x2="1881.51" y2="1070.77" xlink:href="#linear-gradient"/>
  </defs>
  <g id="Layer_2" data-name="Layer 2">
    <path class="cls-2" d="M1353.57,837.35l-2.64,21H731.15l-2.57-20.3-2.57,20.3h-216.33l24.74,96.86v105.74c0,3.83,.2,7.68,.59,11.45,.1,.97,.21,1.93,.33,2.82,.5,3.79,1.2,7.55,2.09,11.17,.7,2.84,1.53,5.65,2.46,8.35,.65,1.89,1.37,3.76,2.13,5.58,10.75,25.5,32.3,41.34,56.23,41.34h62.29c21.22,0,40.57-12.46,52.18-33.07h286.13v-.41c2.24,.27,4.52,.41,6.83,.41h106.88v47l88.95-47h590.15v33.07h126.13c23.93,0,45.48-15.84,56.24-41.35,.76-1.81,1.48-3.68,2.12-5.54,.93-2.7,1.76-5.51,2.46-8.35,.9-3.64,1.6-7.4,2.1-11.19,.12-.93,.23-1.87,.33-2.83,.39-3.76,.59-7.61,.59-11.44v-202.6s-625.45,0-625.45,0l-2.65-21Z"/>
  </g>
  <g id="Layer_1" data-name="Layer 1">
    <g>
      <path class="cls-3" d="M1951.68,888.35H548.32l16.12,63.09v109.51c0,2.79,.15,5.6,.43,8.32,.07,.69,.15,1.37,.24,2.04,.36,2.7,.86,5.37,1.48,7.92,.48,1.96,1.05,3.89,1.69,5.73,.44,1.26,.91,2.5,1.42,3.7,6.07,14.4,16.76,23,28.59,23h62.29c11.83,0,22.52-8.6,28.59-23,.5-1.19,.98-2.43,1.41-3.7,.64-1.84,1.2-3.77,1.68-5.72,.05-.21,.09-.43,.14-.65h36.02l.17-1.31,.16,1.31h240.14v-112.86h2.99v67.12c0,25.65,14.87,45.74,33.85,45.74h96.13v-3.02c3.8,1.95,7.94,3.02,12.31,3.02h28.44v27.22l51.51-27.22h159.38l.16-1.31,.17,1.31h104.62v-56.43h28.44c3.47,0,6.84-.69,10.01-1.99v58.42h324.8v33.07h96.13c11.83,0,22.52-8.6,28.59-23,.5-1.19,.98-2.43,1.41-3.7,.64-1.84,1.2-3.77,1.68-5.72,.63-2.56,1.13-5.23,1.48-7.92,.09-.68,.17-1.36,.24-2.05,.29-2.73,.43-5.53,.43-8.32v-52.25c0-6.77-.8-13.15-2.27-18.95h2.27v-101.4Z"/>
      <g>
        <g>
          <path class="cls-1" d="M647.22,947.76h-35.59v95.78c0,4.81,1.99,8.71,4.45,8.71h26.69c2.46,0,4.45-3.9,4.45-8.71v-26.12h22.25c1.23,0,2.34,.97,3.15,2.54,.8,1.59,1.3,3.76,1.3,6.16v34.83c0,14.42-5.98,26.12-13.35,26.12h-62.29c-7.37,0-13.35-11.7-13.35-26.12v-113.19l-8.9-34.83h97.88v43.54c0,4.81-1.99,8.71-4.45,8.71h-22.25v-17.42Z"/>
          <path class="cls-8" d="M773.08,1054.01h-26.69l-5.34-42.32h-24.92l-5.34,42.32h-26.69l6.35-50.4-6.35-20.15h8.9l6.36-50.38h0s-6.35-20.16-6.35-20.16h62.29l17.79,141.08Zm-35.59-70.54l-5.34-42.32h-7.12l-5.34,42.32h17.8Z"/>
          <path class="cls-6" d="M861.81,997.58h-.89l14.24,56.43h-26.69l-14.24-56.43h-21.36v56.43h-26.69v-56.43l-8.9-28.22h8.9v-28.22l-8.9-28.22h97.88v63.49c0,11.68-5.98,21.16-13.35,21.16Zm-17.79-28.22c2.46,0,4.45-3.16,4.45-7.06v-21.16h-35.59v28.22h31.14Z"/>
          <path class="cls-7" d="M979.53,912.93v28.22h-31.14v112.86h-26.69v-112.86h-31.14l-8.9-28.22h97.88Z"/>
          <path class="cls-11" d="M1081.35,934.09v119.92h-75.63c-7.37,0-13.35-9.48-13.35-21.16v-91.7l-8.9-28.22h84.54c7.37,0,13.35,9.48,13.34,21.16Zm-26.69,14.11c0-3.9-1.99-7.06-4.45-7.06h-31.14v77.59c0,3.9,1.99,7.06,4.45,7.06h31.14v-77.59Z"/>
          <path class="cls-9" d="M1189.79,1054.01l-26.69,14.11v-14.11h-48.94c-7.37,0-13.35-9.48-13.35-21.16v-91.7l-8.9-28.22h97.88v35.27c0,3.9-1.99,7.06-4.45,7.06h-22.25v-14.11h-35.59v77.59c0,3.9,1.99,7.06,4.45,7.06h31.14v-21.16c0-3.9-1.99-7.06-4.45-7.06h-13.35l-8.9-28.22h40.04c5.81,0,10.76,5.9,12.58,14.1,.5,2.21,.76,4.58,.76,7.06v63.49Z"/>
          <path class="cls-10" d="M1285.64,997.58h-.89l14.24,56.43h-26.69l-14.24-56.43h-21.36v56.43h-26.69v-56.43l-8.9-28.22h8.9v-28.22l-8.9-28.22h97.88v63.49c0,11.68-5.98,21.16-13.35,21.16Zm-17.79-28.22c2.46,0,4.45-3.16,4.45-7.06v-21.16h-35.59v28.22h31.14Z"/>
          <path class="cls-4" d="M1398.15,1054.01h-26.69l-5.34-42.32h-24.92l-5.34,42.32h-26.69l6.35-50.4-6.35-20.15h8.9l6.36-50.38h0s-6.35-20.16-6.35-20.16h62.29l17.79,141.08Zm-35.59-70.54l-5.34-42.32h-7.12l-5.34,42.32h17.8Z"/>
          <path class="cls-5" d="M1500.23,912.93v63.49c0,11.68-5.98,21.16-13.35,21.16h-48.94v56.43h-26.69v-56.43l-8.9-28.22h8.9v-28.22l-8.9-28.22h97.88Zm-26.69,28.22h-35.59v28.22h31.14c2.46,0,4.45-3.16,4.45-7.06v-21.16Z"/>
          <path class="cls-14" d="M1606.38,912.93v141.08h-26.69v-56.43h-35.59v56.43h-26.7v-56.43l-8.9-28.22h8.9v-28.22l-8.9-28.22h35.59v56.43h35.59v-56.43h26.69Z"/>
          <path class="cls-15" d="M1690.41,948.2v-7.05h-35.59v28.22h44.49v28.22h-44.49v28.22h35.59v-14.11h22.25c2.46,0,4.45,3.16,4.45,7.06v35.27h-88.98l-8.9-28.22h8.9v-28.22l-8.9-28.22h8.9v-28.22l-8.9-28.22h97.88v42.32h-22.25c-2.46,0-4.45-3.16-4.45-7.05Z"/>
          <path class="cls-13" d="M1811.18,997.58h-.89l14.24,56.43h-26.69l-14.24-56.43h-21.36v56.43h-26.69v-56.43l-8.9-28.22h8.9v-28.22l-8.9-28.22h97.88v63.49c0,11.68-5.98,21.16-13.35,21.16Zm-17.79-28.22c2.46,0,4.45-3.16,4.45-7.06v-21.16h-35.59v28.22h31.14Z"/>
          <path class="cls-12" d="M1904.49,956.47v-8.71h-35.59v26.11c0,4.81,1.99,8.71,4.45,8.71h44.49c7.37,0,13.35,11.7,13.35,26.12v52.25c0,14.42-5.98,26.12-13.35,26.12h-75.63v-43.53c0-4.81,1.99-8.71,4.45-8.71h22.25v17.42h31.14c2.46,0,4.45-3.9,4.45-8.71v-17.41c0-4.81-1.99-8.71-4.45-8.71h-44.49c-7.37,0-13.35-11.7-13.35-26.12v-43.54l-8.9-34.83h97.88v52.24h-22.25c-2.46,0-4.45-3.9-4.45-8.7Z"/>
        </g>
        <g>
          <path class="cls-2" d="M668.92,918.92v37.54c0,1.22-.22,2.17-.43,2.71h-16.27v-17.42h-45.59v101.77c0,8.38,4.06,14.7,9.45,14.7h26.69c5.39,0,9.45-6.32,9.45-14.7v-20.12h16.27c.18,.49,.43,1.39,.43,2.71v34.83c0,11.52-4.41,20.12-8.35,20.12h-62.29c-3.94,0-8.35-8.61-8.35-20.12v-114.09l-.22-.86-6.92-27.08h86.12m5-6h-97.88l8.9,34.83v113.19c0,14.42,5.98,26.12,13.35,26.12h62.29c7.37,0,13.35-11.7,13.35-26.12v-34.83c0-2.4-.5-4.58-1.3-6.16-.81-1.57-1.92-2.54-3.15-2.54h-22.25v26.12c0,4.81-1.99,8.71-4.45,8.71h-26.69c-2.46,0-4.45-3.9-4.45-8.71v-95.78h35.59v17.42h22.25c2.46,0,4.45-3.9,4.45-8.71v-43.54h0Z"/>
          <path class="cls-2" d="M750.98,918.92l16.28,129.09h-16.58l-4.7-37.22-.64-5.1h-33.52l-.64,5.1-4.7,37.22h-16.58l5.48-43.5,.2-1.55-.46-1.47-3.79-12.03h5.96l.64-5.1,6.36-50.38,.06-.46v-1.55l-.32-1.02-3.79-12.03h50.75m-37.11,70.53h29.42l-.87-6.89-5.34-42.32-.64-5.1h-15.72l-.64,5.1-5.34,42.32-.87,6.89m41.41-76.53h-62.29l6.35,20.14h0s-6.36,50.39-6.36,50.39h-8.9l6.35,20.15-6.35,50.4h26.69l5.34-42.32h24.92l5.34,42.32h26.69l-17.79-141.08h0Zm-35.59,70.53l5.34-42.32h7.12l5.34,42.32h-17.8Z"/>
          <path class="cls-2" d="M870.16,918.92v57.49c0,8.22-3.82,15.16-8.35,15.16h-7.63l1.95,7.73,12.29,48.7h-16.25l-13.16-52.17-1.07-4.26h-30.07v56.43h-16.69v-51.53l-.32-1.02-6.34-20.1h6.66v-35.31l-.32-1.02-6.34-20.1h85.65m-62.29,56.43h36.14c5.3,0,9.45-5.73,9.45-13.05v-27.15h-45.59v40.21m67.29-62.43h-97.88l8.9,28.22v28.22h-8.9l8.9,28.22v56.43h26.69v-56.43h21.36l14.24,56.43h26.69l-14.24-56.43h.89c7.37,0,13.35-9.48,13.35-21.16v-63.49h0Zm-62.29,56.43v-28.22h35.59v21.16c0,3.9-1.99,7.06-4.45,7.06h-31.14Z"/>
          <path class="cls-2" d="M974.53,918.92v16.23h-31.14v112.86h-16.69v-112.86h-32.69l-5.12-16.23h85.65m5-6h-97.88l8.9,28.22h31.14v112.86h26.69v-112.86h31.14v-28.22h0Z"/>
          <path class="cls-2" d="M1068.01,918.92c2.64,0,4.55,2.39,5.45,3.82,1.84,2.92,2.9,7.05,2.9,11.34v113.92h-70.63c-4.52,0-8.35-6.94-8.35-15.16v-92.8l-.32-1.02-6.34-20.1h77.3m-44.49,112.86h36.14v-83.59c0-7.32-4.15-13.05-9.45-13.05h-36.14v83.59c0,7.32,4.15,13.05,9.45,13.05m44.49-118.86h-84.54l8.9,28.22v91.7c0,11.68,5.98,21.16,13.35,21.16h75.63v-119.92c0-11.68-5.98-21.16-13.34-21.16h0Zm-44.49,112.86c-2.46,0-4.45-3.16-4.45-7.06v-77.59h31.14c2.46,0,4.45,3.16,4.45,7.06v77.59h-31.14Z"/>
          <path class="cls-2" d="M1184.79,918.92v29.27c0,.47-.08,.82-.15,1.06h-16.54v-14.11h-45.59v83.59c0,7.32,4.15,13.05,9.45,13.05h36.14v-27.15c0-7.32-4.15-13.05-9.45-13.05h-9.89l-5.12-16.23h32.81c3.3,0,6.49,3.97,7.75,9.67,.39,1.75,.59,3.6,.59,5.49v59.58l-16.69,8.82v-10.91h-53.94c-4.52,0-8.35-6.94-8.35-15.16v-92.8l-.32-1.02-6.34-20.1h85.65m5-6h-97.88l8.9,28.22v91.7c0,11.68,5.98,21.16,13.35,21.16h48.94v14.11l26.69-14.11v-63.49c0-2.47-.27-4.84-.76-7.06-1.83-8.21-6.77-14.1-12.58-14.1h-40.04l8.9,28.22h13.35c2.46,0,4.45,3.16,4.45,7.06v21.16h-31.14c-2.46,0-4.45-3.16-4.45-7.06v-77.59h35.59v14.11h22.25c2.46,0,4.45-3.16,4.45-7.06v-35.27h0Z"/>
          <path class="cls-2" d="M1293.99,918.92v57.49c0,8.22-3.82,15.16-8.35,15.16h-7.63l1.95,7.73,12.29,48.7h-16.25l-13.16-52.17-1.07-4.26h-30.07v56.43h-16.69v-51.53l-.32-1.02-6.34-20.1h6.66v-35.31l-.32-1.02-6.34-20.1h85.65m-62.29,56.43h36.14c5.3,0,9.45-5.73,9.45-13.05v-27.15h-45.59v40.21m67.29-62.43h-97.88l8.9,28.22v28.22h-8.9l8.9,28.22v56.43h26.69v-56.43h21.36l14.24,56.43h26.69l-14.24-56.43h.89c7.37,0,13.35-9.48,13.35-21.16v-63.49h0Zm-62.29,56.43v-28.22h35.59v21.16c0,3.9-1.99,7.06-4.45,7.06h-31.14Z"/>
          <path class="cls-2" d="M1376.05,918.92l16.28,129.09h-16.58l-4.7-37.22-.64-5.1h-33.52l-.64,5.1-4.7,37.22h-16.58l5.48-43.5,.2-1.55-.46-1.47-3.79-12.03h5.96l.64-5.1,6.36-50.38,.06-.46v-1.55l-.32-1.02-3.79-12.03h50.75m-37.11,70.53h29.42l-.87-6.89-5.34-42.32-.64-5.1h-15.72l-.64,5.1-5.34,42.32-.87,6.89m41.41-76.53h-62.29l6.35,20.14h0s-6.36,50.39-6.36,50.39h-8.9l6.35,20.15-6.35,50.4h26.69l5.34-42.32h24.92l5.34,42.32h26.69l-17.79-141.08h0Zm-35.59,70.53l5.34-42.32h7.12l5.34,42.32h-17.8Z"/>
          <path class="cls-2" d="M1495.23,918.92v57.49c0,8.22-3.82,15.16-8.35,15.16h-53.94v56.43h-16.69v-51.53l-.32-1.02-6.34-20.1h6.66v-35.31l-.32-1.02-6.34-20.1h85.64m-62.29,56.43h36.14c5.3,0,9.45-5.73,9.45-13.05v-27.15h-45.59v40.21m67.29-62.43h-97.88l8.9,28.22v28.22h-8.9l8.9,28.22v56.43h26.69v-56.43h48.94c7.37,0,13.35-9.48,13.35-21.16v-63.49h0Zm-62.29,56.43v-28.22h35.59v21.16c0,3.9-1.99,7.06-4.45,7.06h-31.14Z"/>
          <path class="cls-2" d="M1601.38,918.92v129.09h-16.69v-56.43h-45.59v56.43h-16.7v-51.53l-.32-1.02-6.34-20.1h6.66v-35.31l-.32-1.02-6.34-20.1h23.36v56.43h45.59v-56.43h16.69m5-6h-26.69v56.43h-35.59v-56.43h-35.59l8.9,28.22v28.22h-8.9l8.9,28.22v56.43h26.7v-56.43h35.59v56.43h26.69v-141.08h0Z"/>
          <path class="cls-2" d="M1712.11,918.92v30.33h-16.54c-.08-.24-.15-.59-.15-1.06v-13.05h-45.59v40.21h44.49v16.23h-44.49v40.21h45.59v-14.11h16.54c.08,.24,.15,.59,.15,1.06v29.28h-80.53l-5.12-16.23h6.66v-35.31l-.32-1.02-6.34-20.1h6.66v-35.31l-.32-1.02-6.34-20.1h85.65m5-6h-97.88l8.9,28.22v28.22h-8.9l8.9,28.22v28.22h-8.9l8.9,28.22h88.98v-35.27c0-3.9-1.99-7.06-4.45-7.06h-22.25v14.11h-35.59v-28.22h44.49v-28.22h-44.49v-28.22h35.59v7.05c0,3.89,1.99,7.05,4.45,7.05h22.25v-42.32h0Z"/>
          <path class="cls-2" d="M1819.52,918.92v57.49c0,8.22-3.82,15.16-8.35,15.16h-7.63l1.95,7.73,12.29,48.7h-16.25l-13.16-52.17-1.07-4.26h-30.07v56.43h-16.69v-51.53l-.32-1.02-6.34-20.1h6.66v-35.31l-.32-1.02-6.34-20.1h85.65m-62.29,56.43h36.14c5.3,0,9.45-5.73,9.45-13.05v-27.15h-45.59v40.21m67.29-62.43h-97.88l8.9,28.22v28.22h-8.9l8.9,28.22v56.43h26.69v-56.43h21.36l14.24,56.43h26.69l-14.24-56.43h.89c7.37,0,13.35-9.48,13.35-21.16v-63.49h0Zm-62.29,56.43v-28.22h35.59v21.16c0,3.9-1.99,7.06-4.45,7.06h-31.14Z"/>
          <path class="cls-2" d="M1926.18,918.92v40.25h-16.27c-.21-.55-.43-1.49-.43-2.71v-14.7h-45.59v32.11c0,8.38,4.06,14.7,9.45,14.7h44.49c3.94,0,8.35,8.61,8.35,20.12v52.25c0,11.52-4.41,20.12-8.35,20.12h-70.63v-37.54c0-1.22,.22-2.17,.43-2.71h16.27v17.42h36.14c5.39,0,9.45-6.32,9.45-14.7v-17.41c0-8.38-4.06-14.7-9.45-14.7h-44.49c-3.94,0-8.35-8.61-8.35-20.12v-44.44l-.22-.86-6.92-27.08h86.12m5-6h-97.88l8.9,34.83v43.54c0,14.42,5.98,26.12,13.35,26.12h44.49c2.46,0,4.45,3.9,4.45,8.71v17.41c0,4.81-1.99,8.71-4.45,8.71h-31.14v-17.42h-22.25c-2.46,0-4.45,3.9-4.45,8.71v43.53h75.63c7.37,0,13.35-11.7,13.35-26.12v-52.25c0-14.42-5.98-26.12-13.35-26.12h-44.49c-2.46,0-4.45-3.9-4.45-8.71v-26.11h35.59v8.71c0,4.8,1.99,8.7,4.45,8.7h22.25v-52.24h0Z"/>
        </g>
      </g>
    </g>
  </g>
</svg>