<?xml version="1.0" encoding="UTF-8"?>
<svg xmlns="http://www.w3.org/2000/svg" xmlns:xlink="http://www.w3.org/1999/xlink" viewBox="0 0 2500 2000">
  <defs>
    <style>
      .cls-1 {
        fill: url(#linear-gradient);
      }

      .cls-2 {
        fill: #fff;
      }

      .cls-3 {
        fill: #242559;
      }

      .cls-4 {
        fill: url(#linear-gradient-8);
      }

      .cls-5 {
        fill: url(#linear-gradient-9);
      }

      .cls-6 {
        fill: url(#linear-gradient-3);
      }

      .cls-7 {
        fill: url(#linear-gradient-4);
      }

      .cls-8 {
        fill: url(#linear-gradient-2);
      }

      .cls-9 {
        fill: url(#linear-gradient-6);
      }

      .cls-10 {
        fill: url(#linear-gradient-7);
      }

      .cls-11 {
        fill: url(#linear-gradient-5);
      }

      .cls-12 {
        fill: url(#linear-gradient-10);
      }

      .cls-13 {
        fill: url(#linear-gradient-11);
      }
    </style>
    <linearGradient id="linear-gradient" x1="576.27" y1="1152.66" x2="573.52" y2="890.74" gradientUnits="userSpaceOnUse">
      <stop offset=".03" stop-color="#fff"/>
      <stop offset=".5" stop-color="#cacee3"/>
      <stop offset=".5" stop-color="#fff"/>
    </linearGradient>
    <linearGradient id="linear-gradient-2" x1="709.13" y1="1121.98" x2="706.41" y2="863.1" xlink:href="#linear-gradient"/>
    <linearGradient id="linear-gradient-3" x1="843.42" y1="1091.31" x2="840.83" y2="844.08" xlink:href="#linear-gradient"/>
    <linearGradient id="linear-gradient-4" x1="978.71" y1="1073.28" x2="976.13" y2="827.09" xlink:href="#linear-gradient"/>
    <linearGradient id="linear-gradient-5" x1="1115.78" y1="1059.3" x2="1113.25" y2="818.67" xlink:href="#linear-gradient"/>
    <linearGradient id="linear-gradient-6" x1="1250.57" y1="1051.63" x2="1248.09" y2="815.4" xlink:href="#linear-gradient"/>
    <linearGradient id="linear-gradient-7" x1="1385.66" y1="1055.25" x2="1383.12" y2="813.4" xlink:href="#linear-gradient"/>
    <linearGradient id="linear-gradient-8" x1="1517.38" y1="1062.62" x2="1514.81" y2="817.55" xlink:href="#linear-gradient"/>
    <linearGradient id="linear-gradient-9" x1="1645.6" y1="1083.31" x2="1642.9" y2="826.47" xlink:href="#linear-gradient"/>
    <linearGradient id="linear-gradient-10" x1="1783.04" y1="1107.11" x2="1780.27" y2="842.96" xlink:href="#linear-gradient"/>
    <linearGradient id="linear-gradient-11" x1="1922.39" y1="1128.16" x2="1919.64" y2="866.49" xlink:href="#linear-gradient"/>
  </defs>
  <g id="Layer_3" data-name="Layer 3">
    <path class="cls-2" d="M1870.31,839.2h0c-58.54-12.72-118.09-23.79-177-32.88l-.29-.04c-.12-.02-.25-.04-.38-.06-.44-.07-.87-.13-1.31-.2l-51.59-7.96,.13,.52c-12.81-1.74-25.61-3.39-38.35-4.94-15.89-1.94-32.01-3.78-47.92-5.46-28.28-2.98-57-5.58-85.34-7.73-14.78-1.12-29.84-2.15-44.76-3.05-30.2-1.82-60.86-3.19-91.15-4.06-14.01-.4-28.26-.71-42.36-.91-31.38-.44-63.21-.38-94.61,.21-13.71,.25-27.63,.61-41.38,1.06-32.53,1.07-65.49,2.71-97.97,4.87-12.91,.86-26,1.82-38.91,2.86-45.43,3.64-91.43,8.42-136.75,14.22l-2.32,.3c-31.64,4.07-63.65,8.72-95.14,13.83-13.79,2.23-27.73,4.6-41.45,7.02-31.04,5.49-62.44,11.56-93.35,18.05-14.03,2.95-28.19,6.03-42.08,9.16-43.99,9.9-88.48,20.99-132.22,32.94l-34.25,9.36,8.89,34.38c4.41,17.08,8.83,34.17,13.25,51.27l-22.13,6.05,8.88,34.38c5.92,22.9,11.84,45.82,17.76,68.75v157.6l45.26-12.05c24.65-6.56,49.72-12.89,74.51-18.8l27.65-6.59v-36.01c196.61-44.84,397.13-68.95,596.5-71.7,198.99-2.74,399.45,15.77,596.34,55.04v36l28.6,6.01c38,7.98,76.43,16.86,114.22,26.4,18.17,4.59,36.36,.74,51.21-10.83,19.88-15.49,31.28-43.46,31.28-76.73v-51.18h0s0-88.85,0-88.85c5.92-22.93,11.84-45.85,17.75-68.75l8.88-34.37-34.25-9.36c-50.85-13.9-102.62-26.59-153.87-37.73Z"/>
  </g>
  <g id="Layer_1" data-name="Layer 1">
    <g>
      <path class="cls-3" d="M575.41,1137.45c426.43-102.18,862.87-106.68,1290.18-13.5-15.78-68.38-31.58-136.62-47.38-204.73-421.18-82.12-850.51-69.63-1269.76,37.47,8.98,60.21,17.97,120.47,26.96,180.77Z"/>
      <path class="cls-3" d="M1863.66,874.38h0c-58.13-12.64-116.43-23.46-174.84-32.49,0,0,0,.02,0,.02-.19-.03-.38-.08-.56-.11-30-4.63-60.03-8.78-90.09-12.45-15.77-1.93-31.55-3.72-47.33-5.39-28.08-2.96-56.18-5.51-84.29-7.64-14.73-1.12-29.47-2.12-44.21-3.01-30-1.81-60-3.14-90.02-4.01-13.94-.4-27.89-.7-41.84-.9-31.14-.44-62.29-.37-93.44,.2-13.62,.25-27.25,.6-40.87,1.05-32.26,1.06-64.52,2.66-96.75,4.81-12.81,.85-25.62,1.79-38.42,2.82-45.06,3.61-90.07,8.29-135.03,14.04-.77,.1-1.55,.2-2.32,.3-31.36,4.03-62.68,8.59-93.97,13.66-13.65,2.21-27.3,4.53-40.94,6.94-30.78,5.44-61.52,11.38-92.22,17.83-13.87,2.91-27.73,5.93-41.58,9.05-43.65,9.83-87.2,20.68-130.63,32.55,6.3,24.37,12.6,48.77,18.91,73.19v13.41c-6.3,1.68-12.61,3.38-18.91,5.1,6.3,24.37,12.6,48.77,18.91,73.19v115.33c25.1-6.68,50.25-13.03,75.42-19.03v-91.7c13.34-3.18,26.68-6.26,40.04-9.25,6.16-1.38,11.93-4.98,17.03-10.23v60.92c25.23-5.49,50.49-10.64,75.77-15.45v-33.52c2.6,10.68,5.2,21.36,7.79,32.05,25.95-4.86,51.92-9.36,77.92-13.51-.19-.77-.37-1.54-.56-2.3,3.51,1,7.2,1.25,10.96,.67,38.78-6.04,77.61-11.28,116.49-15.72h0c32.37-3.71,64.76-6.85,97.17-9.45,7.45-.59,14.62-4.33,20.72-10.58v9.01c25.45-1.85,50.92-3.37,76.39-4.54v-76.8c13.49-.62,26.99-1.15,40.48-1.58,.83-.03,1.66-.11,2.49-.21,7.51,25.41,15.01,50.85,22.52,76.32,49.49-1.14,98.99-1,148.48,.42v-6.14c5.3,4.13,11.24,6.47,17.36,6.68,26.23,.91,52.46,2.19,78.68,3.83,11.11,.69,21.62-5.64,28.83-17.44,6.04-9.88,9.36-22.92,9.36-36.75,0-12.8,0-25.6,0-38.4,0-8.62-2.12-17.21-5.97-24.17-.06-.1-.11-.2-.17-.3-5.12-9.03-12.71-14.54-20.81-15.08-16.48-1.09-32.95-2.04-49.44-2.85v38.4c-.76-.04-1.51-.07-2.27-.11v-59.13c.76,.04,1.51,.07,2.27,.11v19.2c16.48,.81,32.96,1.76,49.44,2.85,10.07,.67,18.86-6.44,23.48-17.55,6.51,.49,13.03,.99,19.54,1.52v153.6c25.45,2.07,50.88,4.49,76.3,7.24v-153.6c4.28,.46,8.56,.94,12.84,1.42v96.76c0,13.84,3.32,27.51,9.34,38.52,7.2,13.15,17.68,21.47,28.76,22.87,33.31,4.21,66.58,9,99.82,14.38,5.53,.89,11.06,1.81,16.58,2.73,19.8,3.32,39.59,6.85,59.36,10.59v-33.52c2.6,11.67,5.2,23.33,7.79,35.01,16.7,3.2,33.38,6.56,50.06,10.06v37.25c38.62,8.11,77.16,17.02,115.62,26.72,21.15,5.34,37.68-17.64,37.68-52.65v-68.78c0-10.64-1.53-20.99-4.25-30.4,1.42,.38,2.84,.75,4.26,1.13v-46.56c6.3-24.42,12.6-48.81,18.9-73.18-50.53-13.81-101.21-26.23-152.03-37.28Zm-552.2,69.79c-.54-.19-1.08-.36-1.63-.5v-21.25c.54,.01,1.09,.02,1.63,.03,0,7.24,0,14.47,0,21.71Zm-463.57-13.23v59.13c-.75,.11-1.51,.21-2.26,.32v-59.13c.75-.11,1.51-.21,2.26-.32Z"/>
      <g>
        <g>
          <path class="cls-1" d="M524.26,974.92v45.85c-3.7,.96-7.39,1.92-11.08,2.89,3.69,14.31,7.39,28.64,11.08,42.96v91.7c11.09-2.87,22.18-5.67,33.28-8.4v-91.7c20.35-5.01,40.73-9.8,61.13-14.36,9.21-2.06,16.69-19.09,16.69-38.07v-103.16c-40.82,8.89-81.56,18.67-122.19,29.33,3.69,14.31,7.39,28.63,11.08,42.96Zm33.28-8.4c14.8-3.65,29.62-7.17,44.45-10.58v34.38c0,6.33-2.49,12.03-5.56,12.75-12.97,3.01-25.93,6.11-38.89,9.3v-45.85Z"/>
          <path class="cls-8" d="M656.85,936.43v38.4c-3.71,.78-7.43,1.57-11.14,2.36,3.71,12.01,7.42,24.02,11.14,36.04v76.8c11.14-2.34,22.29-4.61,33.44-6.82,0-25.6,0-51.2,0-76.8,8.92-1.76,17.85-3.49,26.78-5.17,5.95,24.48,11.91,48.98,17.86,73.49,11.17-2.03,22.34-3.99,33.51-5.89-5.96-24.59-11.92-49.16-17.88-73.71,.37-.07,.74-.13,1.12-.2,9.25-1.62,16.76-15.8,16.76-31.69v-86.4c-40.98,6.95-81.9,14.8-122.73,23.54,3.71,12.01,7.42,24.02,11.14,36.04Zm33.44-6.82c14.87-2.94,29.75-5.76,44.64-8.47v28.8c0,5.3-2.5,10.05-5.58,10.62-13.03,2.39-26.04,4.88-39.06,7.45v-38.4Z"/>
          <path class="cls-6" d="M885.97,859.38c-35.49,4.54-70.94,9.74-106.34,15.6,3.73,12.18,7.45,24.37,11.18,36.57v124.8c0,15.9,7.51,27.58,16.78,26.14,31.7-4.93,63.43-9.34,95.19-13.21v-163.2c0-15.9-7.53-27.89-16.81-26.7Zm-16.81,155.79c-13.07,1.75-26.13,3.59-39.19,5.52-3.09,.46-5.6-3.47-5.6-8.77v-105.59c13.06-1.95,26.12-3.82,39.19-5.59,3.09-.42,5.6,3.55,5.6,8.85v105.6Z"/>
          <path class="cls-7" d="M925.85,892.96v48c0,15.9,7.54,27.94,16.82,26.93,18.7-2.01,37.4-3.85,56.11-5.49,3.1-.27,5.62,3.81,5.61,9.11,0,6.4,0,12.8,0,19.2,0,5.3-2.52,9.82-5.61,10.09-13.1,1.15-26.19,2.39-39.28,3.73v-19.2c-9.35,.95-18.7,1.95-28.05,2.99-3.1,.35-5.61,4.93-5.61,10.23v48c31.77-3.61,63.58-6.69,95.39-9.24,9.3-.74,16.85-14.2,16.85-30.1v-57.6c0-15.9-7.55-28.25-16.85-27.5-18.72,1.5-37.43,3.18-56.13,5.05-3.1,.31-5.61-3.73-5.61-9.04v-28.79c14.96-1.52,29.93-2.93,44.9-4.22,0,3.2,0,6.4,0,9.6,0,5.3,2.51,9.38,5.62,9.12,9.36-.79,18.72-1.53,28.08-2.22v-57.59c-41.19,3.06-82.34,7-123.46,11.84,3.74,12.36,7.47,24.73,11.21,37.1Z"/>
          <path class="cls-11" d="M1063.29,880.66v38.4c-3.74,.24-7.49,.5-11.23,.76,3.74,12.54,7.49,25.09,11.23,37.64v76.8c11.24-.73,22.47-1.4,33.71-2v-76.8c20.61-1.1,41.22-1.98,61.83-2.64,9.31-.3,16.87-13.39,16.87-29.29v-86.4c-41.23,1.07-82.45,3.03-123.64,5.89,3.74,12.54,7.49,25.09,11.23,37.64Zm33.71-2c14.99-.8,29.97-1.49,44.96-2.05v28.8c0,5.3-2.52,9.69-5.62,9.82-13.12,.52-26.23,1.13-39.34,1.83v-38.4Z"/>
          <path class="cls-9" d="M1198.51,875.03v38.4c-3.75,.07-7.5,.14-11.24,.22,3.75,12.72,7.5,25.44,11.24,38.18v38.4c-3.75,.07-7.5,.14-11.24,.22,3.75,12.72,7.5,25.44,11.24,38.17,37.48-.67,74.98-.61,112.46,.19v-48c0-5.3-2.52-9.66-5.62-9.71-9.37-.18-18.74-.32-28.11-.41v19.2c-14.99-.14-29.99-.17-44.98-.07v-38.4c18.74-.12,37.49-.05,56.23,.2v-38.4c-18.74-.25-37.49-.32-56.23-.2v-38.4c14.99-.09,29.99-.07,44.98,.07v9.6c0,5.29,2.52,9.62,5.62,9.65,9.37,.11,18.74,.26,28.11,.46v-57.59c-41.23-.88-82.47-.87-123.7,.04,3.75,12.72,7.5,25.44,11.24,38.17Z"/>
          <path class="cls-10" d="M1332.82,875.76v124.79c0,15.9,7.56,29.01,16.86,29.34,26.23,.91,52.46,2.19,78.68,3.83,9.3,.58,16.85-11.8,16.85-27.7v-38.4c0-2.65-.63-5.09-1.64-6.91-1.02-1.79-2.42-2.96-3.98-3.07-9.36-.62-18.73-1.2-28.09-1.73,0,9.6,0,19.2,0,28.8,0,5.3-2.52,9.46-5.62,9.29-11.24-.61-22.48-1.16-33.72-1.64-3.1-.13-5.62-4.53-5.62-9.84v-105.59c14.99,.61,29.98,1.34,44.96,2.19,0,6.4,0,12.8,0,19.2,9.37,.53,18.73,1.1,28.09,1.73,3.1,.21,5.62-3.92,5.62-9.22v-48c-41.19-2.81-82.41-4.74-123.64-5.77,3.75,12.89,7.5,25.79,11.24,38.7Z"/>
          <path class="cls-4" d="M1464.64,882.62c13.1,.98,26.21,2.06,39.3,3.22v153.6c11.23,1,22.45,2.06,33.67,3.19,0-51.2,0-102.4,0-153.6,13.09,1.32,26.18,2.73,39.26,4.23v-38.4c-41.12-4.72-82.28-8.54-123.47-11.47,3.75,13.07,7.49,26.14,11.24,39.22Z"/>
          <path class="cls-5" d="M1688.26,869.84c-35.43-5.46-70.91-10.26-106.42-14.4,3.74,13.24,7.47,26.48,11.21,39.73v124.8c0,15.9,7.54,29.7,16.81,30.87,31.75,4.01,63.48,8.56,95.17,13.63v-163.2c0-15.9-7.51-30.01-16.78-31.44Zm-16.79,151.06c-13.06-1.94-26.12-3.78-39.19-5.54-3.09-.42-5.6-5.05-5.6-10.35v-105.59c13.07,1.73,26.14,3.55,39.2,5.46,3.09,.45,5.6,5.12,5.6,10.42,0,35.2,0,70.4,0,105.6Z"/>
          <path class="cls-12" d="M1730.92,915.14v38.4c-3.73-.63-7.45-1.26-11.18-1.87,3.73,13.42,7.45,26.84,11.18,40.27v76.8c11.18,1.89,22.35,3.85,33.51,5.88v-76.8c8.93,1.62,17.87,3.29,26.79,4.99,5.95,26.74,11.9,53.49,17.85,80.27,11.15,2.2,22.3,4.47,33.44,6.81-5.94-26.84-11.88-53.67-17.83-80.48,.37,.08,.74,.15,1.11,.23,9.23,1.88,16.72-9.45,16.72-25.34v-86.4c-40.85-8.56-81.78-16.24-122.78-23.02,3.73,13.42,7.45,26.84,11.18,40.27Zm33.52,5.88c14.89,2.7,29.77,5.52,44.64,8.46v28.8c0,5.3-2.5,9.11-5.58,8.5-13.01-2.55-26.03-5-39.06-7.36v-38.4Z"/>
          <path class="cls-13" d="M1975.75,929.07c-36.96-9.55-74.01-18.37-111.12-26.45-3.71-.81-7.42-1.61-11.13-2.4,3.71,16.08,7.42,32.16,11.13,48.25v57.31c0,18.98,7.49,36.01,16.7,38.08,18.54,4.15,37.07,8.48,55.57,13,3.07,.75,5.56,6.5,5.56,12.82v22.92c0,6.33-2.49,10.86-5.56,10.1-12.95-3.16-25.92-6.23-38.89-9.22v-22.92c-9.27-2.13-18.54-4.22-27.82-6.26-3.07-.67-5.56,3.92-5.56,10.24v57.31c31.54,6.87,63.04,14.27,94.47,22.2,9.18,2.31,16.64-11.16,16.64-30.14v-68.78c0-18.98-7.46-36.31-16.64-38.63-18.49-4.67-37-9.15-55.53-13.45-3.07-.71-5.56-6.42-5.56-12.75v-34.38c14.83,3.41,29.64,6.93,44.44,10.58v11.47c0,6.32,2.49,12.07,5.55,12.83,9.25,2.3,18.5,4.64,27.74,7.03,0-7.64,0-15.28,0-22.92,3.69-14.33,7.39-28.65,11.08-42.96-3.69-.97-7.38-1.93-11.08-2.89Z"/>
        </g>
        <g>
          <path class="cls-2" d="M626.25,916.72v91.07c0,13.83-4.91,23.38-7.58,23.98-20.4,4.57-40.78,9.35-61.13,14.36-3.03,.75-6.06,1.5-9.09,2.25v91.7c-5.04,1.26-10.07,2.53-15.11,3.81v-81.5c-.15-.57-.29-1.13-.44-1.7-2.42-9.4-4.85-18.79-7.27-28.19,2.57-.66,5.14-1.32,7.7-1.98v-59.84c-.15-.57-.29-1.13-.44-1.7-2.42-9.4-4.85-18.79-7.27-28.18,33.47-8.63,67.01-16.67,100.61-24.09m-77.8,110c3.03-.76,6.06-1.51,9.09-2.25,12.95-3.19,25.91-6.29,38.89-9.3,8.22-1.91,14.67-13.71,14.67-26.92,0-11.46,0-22.92,0-34.38,0-4.03,0-8.06,0-12.09-3.04,.69-6.07,1.38-9.11,2.08-14.83,3.41-29.64,6.93-44.45,10.58-3.03,.75-6.06,1.5-9.09,2.25v70.04m86.92-124.09c-40.82,8.89-81.56,18.67-122.19,29.33,3.69,14.31,7.39,28.63,11.08,42.96v45.85c-3.7,.96-7.39,1.92-11.08,2.89,3.69,14.31,7.39,28.64,11.08,42.96v91.7c11.09-2.87,22.18-5.67,33.28-8.4v-91.7c20.35-5.01,40.73-9.8,61.13-14.36,9.21-2.06,16.69-19.09,16.69-38.07v-103.16h0Zm-77.83,109.75v-45.85c14.8-3.65,29.62-7.17,44.45-10.58v34.38c0,6.33-2.49,12.03-5.56,12.75-12.97,3.01-25.93,6.11-38.89,9.3h0Z"/>
          <path class="cls-2" d="M759.3,890.51v74.31c0,9.56-4.02,17.4-7.61,18.03-.37,.07-.74,.13-1.12,.2-4.13,.73-8.26,1.46-12.39,2.21,1.21,5,2.43,9.99,3.64,14.99,4.74,19.53,9.49,39.08,14.23,58.63-4.79,.83-9.58,1.68-14.36,2.54-5.29-21.8-10.59-43.59-15.88-65.37-.66-2.72-1.32-5.45-1.99-8.17-2.25,.42-4.5,.84-6.75,1.26-8.93,1.68-17.86,3.4-26.78,5.17-3.05,.6-6.09,1.21-9.13,1.82v76.8c-5.06,1.02-10.12,2.05-15.18,3.09v-66.95c-.2-.66-.41-1.31-.61-1.97-2.12-6.88-4.25-13.76-6.37-20.64,2.33-.49,4.65-.97,6.98-1.45v-52.74c-.2-.66-.41-1.31-.61-1.97-2.12-6.88-4.25-13.76-6.37-20.64,33.38-6.98,66.82-13.37,100.3-19.16m-78.13,91.41c3.04-.61,6.09-1.22,9.13-1.82,13.01-2.57,26.03-5.06,39.06-7.45,8.26-1.52,14.73-12.2,14.73-24.36,0-9.6,0-19.2,0-28.8,0-4.03,0-8.06,0-12.09-3.05,.54-6.1,1.09-9.15,1.65-14.89,2.71-29.77,5.53-44.64,8.47-3.05,.6-6.09,1.21-9.13,1.82v62.59m87.29-105.07c-40.98,6.95-81.9,14.8-122.73,23.54,3.71,12.01,7.42,24.02,11.14,36.04v38.4c-3.71,.78-7.43,1.57-11.14,2.36,3.71,12.01,7.42,24.02,11.14,36.04v76.8c11.14-2.34,22.29-4.61,33.44-6.82v-76.8c8.92-1.76,17.85-3.49,26.78-5.17,5.95,24.48,11.91,48.98,17.86,73.49,11.17-2.03,22.34-3.99,33.51-5.89-5.96-24.59-11.92-49.16-17.88-73.71,.37-.07,.74-.13,1.12-.2,9.25-1.62,16.76-15.8,16.76-31.69v-86.4h0Zm-78.15,91.16v-38.4c14.87-2.94,29.75-5.76,44.64-8.47v28.8c0,5.3-2.5,10.06-5.58,10.62-13.03,2.39-26.04,4.88-39.06,7.45h0Z"/>
          <path class="cls-2" d="M885.97,871.47c2.12-.27,3.8,1.85,4.61,3.13,1.92,3.05,3.02,7.64,3.02,12.61v151.1c-28.7,3.59-57.37,7.62-86.01,12.07-3.6,.56-7.62-5.95-7.62-15.51v-127.04c-.2-.67-.41-1.33-.61-2-2.13-6.98-4.26-13.96-6.4-20.94,30.97-4.98,61.97-9.46,93.01-13.42m-56,161.31c13.06-1.93,26.12-3.77,39.19-5.52,3.06-.41,6.12-.81,9.18-1.21v-117.69c0-12.16-6.49-20.85-14.78-19.73-13.07,1.77-26.13,3.64-39.19,5.59-3.06,.46-6.11,.92-9.17,1.39v117.69c0,12.17,6.48,20.7,14.76,19.48m56-173.4c-35.49,4.54-70.94,9.74-106.34,15.6,3.73,12.18,7.45,24.37,11.18,36.57v124.8c0,15.9,7.51,27.58,16.78,26.14,31.7-4.93,63.43-9.34,95.19-13.21v-163.2c0-15.9-7.53-27.89-16.81-26.7h0Zm-56,161.31c-3.09,.46-5.6-3.47-5.6-8.77v-105.59c13.06-1.95,26.12-3.82,39.19-5.59,3.09-.42,5.6,3.55,5.6,8.85,0,35.2,0,70.4,0,105.6-13.07,1.75-26.13,3.59-39.19,5.52h0Z"/>
          <path class="cls-2" d="M1028.9,856.81v33.41c-5.1,.39-10.2,.8-15.29,1.23,0-2.37,0-4.73,0-7.1,0-4.03,0-8.06,0-12.09-3.07,.25-6.13,.51-9.2,.78-14.97,1.29-29.94,2.69-44.9,4.22-3.06,.31-6.13,.63-9.19,.95v40.88c0,12.17,6.5,21.01,14.8,20.18,18.7-1.87,37.41-3.55,56.13-5.05,3.61-.29,7.65,6.54,7.65,16.1v57.6c0,9.56-4.04,17.02-7.65,17.31-28.75,2.3-57.49,5.04-86.21,8.21,0-11.14,0-22.27,0-33.41,5.09-.56,10.18-1.11,15.28-1.65v19.2c3.06-.32,6.13-.64,9.19-.95,13.09-1.33,26.19-2.58,39.28-3.73,8.31-.73,14.81-10.79,14.81-22.96,0-6.4,0-12.8,0-19.2,0-12.16-6.51-21.16-14.81-20.43-18.71,1.65-37.42,3.48-56.11,5.49-3.6,.39-7.64-6.31-7.64-15.87,0-16,0-32,0-48,0-.75,0-1.5,0-2.24-.2-.68-.41-1.35-.61-2.03-2.14-7.09-4.28-14.17-6.41-21.25,33.6-3.8,67.23-6.99,100.88-9.6m9.2-12.79c-41.19,3.06-82.34,7-123.46,11.84,3.74,12.36,7.47,24.73,11.21,37.1v48c0,15.9,7.54,27.94,16.82,26.93,18.7-2.01,37.4-3.85,56.11-5.49,3.1-.27,5.62,3.81,5.61,9.11,0,6.4,0,12.8,0,19.2,0,5.3-2.52,9.82-5.61,10.09-13.1,1.15-26.19,2.39-39.28,3.73v-19.2c-9.35,.95-18.7,1.95-28.05,2.99-3.1,.35-5.61,4.93-5.61,10.23v48c31.77-3.61,63.58-6.69,95.39-9.24,9.3-.74,16.85-14.2,16.85-30.1v-57.6c0-15.9-7.55-28.25-16.85-27.5-18.72,1.5-37.43,3.18-56.13,5.05-3.1,.31-5.61-3.74-5.61-9.04v-28.79c14.96-1.52,29.93-2.93,44.9-4.22,0,3.2,0,6.4,0,9.6,0,5.3,2.51,9.38,5.62,9.12,9.36-.79,18.72-1.53,28.08-2.22v-57.59h0Z"/>
          <path class="cls-2" d="M1166.49,849.48v74.31c0,9.56-4.04,16.82-7.65,16.94-20.61,.66-41.22,1.54-61.83,2.64-3.07,.16-6.14,.33-9.21,.51v76.8c-5.1,.29-10.2,.59-15.3,.91v-66.95l-.61-2.06c-2.14-7.19-4.28-14.38-6.43-21.56,2.35-.15,4.69-.3,7.04-.45v-52.74c-.2-.69-.41-1.37-.61-2.06-2.14-7.19-4.28-14.37-6.43-21.56,33.66-2.17,67.34-3.75,101.03-4.74m-78.69,80.18c3.07-.17,6.14-.34,9.21-.51,13.11-.7,26.23-1.31,39.34-1.83,8.32-.33,14.83-10.08,14.83-22.24v-40.89c-3.07,.11-6.14,.22-9.21,.33-14.99,.57-29.98,1.25-44.96,2.05-3.07,.16-6.14,.33-9.21,.51v62.59m87.9-92.53c-41.23,1.07-82.45,3.03-123.64,5.89,3.74,12.54,7.49,25.09,11.23,37.64v38.4c-3.74,.24-7.49,.5-11.23,.76,3.74,12.54,7.49,25.09,11.23,37.64v76.8c11.24-.73,22.47-1.4,33.71-2v-76.8c20.61-1.1,41.22-1.98,61.83-2.64,9.31-.3,16.87-13.39,16.87-29.29v-86.4h0Zm-78.69,79.92v-38.4c14.99-.8,29.97-1.49,44.96-2.05v28.8c0,5.3-2.52,9.69-5.62,9.82-13.12,.52-26.23,1.13-39.34,1.83t0,0Z"/>
          <path class="cls-2" d="M1301.76,848.73v33.41c-5.1-.09-10.21-.17-15.31-.24,0-2.37,0-4.73,0-7.1,0-4.03,0-8.06,0-12.09-3.07-.04-6.14-.07-9.21-.1-14.99-.14-29.99-.17-44.98-.07-3.07,.02-6.14,.04-9.21,.07v62.59c3.07-.03,6.14-.05,9.21-.07,15.67-.1,31.34-.07,47.02,.09,0,4.74,0,9.48,0,14.21-15.67-.16-31.34-.19-47.02-.09-3.07,.02-6.14,.04-9.21,.07v62.59c3.07-.03,6.14-.05,9.21-.07,14.99-.09,29.99-.07,44.98,.07,3.07,.03,6.14,.06,9.21,.1,0-4.03,0-8.06,0-12.09,0-2.37,0-4.74,0-7.11,5.1,.06,10.21,.14,15.31,.24v33.41c-32.3-.58-64.61-.62-96.92-.11-1.39-4.72-2.77-9.43-4.16-14.14,2.35-.04,4.7-.08,7.05-.11v-52.74c-.2-.7-.41-1.39-.61-2.09-2.14-7.29-4.29-14.58-6.43-21.86,2.35-.04,4.7-.08,7.05-.11v-52.74c-.2-.7-.41-1.39-.61-2.09-2.14-7.29-4.29-14.58-6.43-21.86,33.69-.58,67.39-.57,101.08,.04m9.21-11.91c-41.23-.88-82.47-.87-123.7,.04,3.75,12.72,7.5,25.44,11.24,38.17v38.4c-3.75,.07-7.5,.14-11.24,.22,3.75,12.72,7.5,25.44,11.24,38.18v38.4c-3.75,.07-7.5,.14-11.24,.22,3.75,12.72,7.5,25.44,11.24,38.17,37.48-.67,74.98-.61,112.46,.19v-48c0-5.3-2.52-9.66-5.62-9.71-9.37-.18-18.74-.32-28.11-.41v19.2c-14.99-.14-29.99-.17-44.98-.07v-38.4c18.74-.12,37.49-.05,56.23,.2v-38.4c-18.74-.25-37.49-.32-56.23-.2v-38.4c14.99-.09,29.99-.07,44.98,.07v9.6c0,5.29,2.52,9.62,5.62,9.65,9.37,.11,18.74,.26,28.11,.46v-57.59s0,0,0,0Z"/>
          <path class="cls-2" d="M1436.01,854.31c0,11.14,0,22.28,0,33.41-5.1-.33-10.2-.65-15.3-.95,0-2.37,0-4.74,0-7.11,0-4.03,0-8.06,0-12.09-3.07-.18-6.14-.36-9.21-.54-14.98-.85-29.97-1.57-44.96-2.19-3.07-.13-6.14-.25-9.21-.36v117.69c0,12.16,6.51,21.94,14.83,22.29,11.24,.48,22.48,1.03,33.72,1.64,8.31,.45,14.83-8.68,14.83-20.85,0-5.57,0-11.13,0-16.7,5.1,.3,10.2,.62,15.3,.95,0,11.97,0,23.93,0,35.9,0,9.56-4.04,16.44-7.65,16.22-26.22-1.64-52.45-2.91-78.68-3.83-3.61-.13-7.65-7.4-7.65-16.96v-127.04c-.2-.7-.41-1.41-.61-2.12-2.14-7.39-4.29-14.78-6.43-22.16,33.69,1,67.37,2.6,101.03,4.79m9.2-11.48c-41.19-2.81-82.41-4.74-123.64-5.77,3.75,12.89,7.5,25.79,11.24,38.7v124.79c0,15.9,7.56,29.01,16.86,29.34,26.23,.91,52.46,2.19,78.68,3.83,9.3,.58,16.85-11.8,16.85-27.7v-38.4c0-2.65-.63-5.09-1.64-6.91-1.02-1.79-2.42-2.96-3.98-3.07-9.36-.62-18.73-1.2-28.09-1.73,0,9.6,0,19.2,0,28.8,0,5.3-2.52,9.46-5.62,9.29-11.24-.61-22.48-1.16-33.72-1.64-3.1-.13-5.62-4.53-5.62-9.84v-105.59c14.99,.61,29.98,1.34,44.96,2.19,0,6.4,0,12.8,0,19.2,9.37,.53,18.73,1.1,28.09,1.73,3.1,.21,5.62-3.92,5.62-9.22v-48h0Z"/>
          <path class="cls-2" d="M1567.69,865.93v14.21c-10.02-1.12-20.05-2.18-30.08-3.19-3.06-.31-6.13-.61-9.19-.91,0,4.03,0,8.06,0,12.09,0,47.17,0,94.34,0,141.5-5.09-.5-10.19-.98-15.28-1.45v-153.59c-3.07-.28-6.13-.56-9.2-.83-10.99-.98-21.99-1.89-32.98-2.74-1.39-4.84-2.77-9.69-4.16-14.53,33.65,2.55,67.28,5.7,100.89,9.45m9.19-11.05c-41.12-4.72-82.28-8.54-123.47-11.47,3.75,13.07,7.49,26.14,11.24,39.22,13.1,.98,26.21,2.06,39.3,3.22v153.6c11.23,1,22.45,2.06,33.67,3.19,0-51.2,0-102.4,0-153.6,13.09,1.32,26.18,2.73,39.26,4.23v-38.4s0,0,0,0Z"/>
          <path class="cls-2" d="M1688.26,881.94c2.12,.33,3.79,2.91,4.6,4.43,1.92,3.59,3.01,8.49,3.01,13.46v151.1c-28.64-4.49-57.31-8.55-86-12.18-3.6-.46-7.63-8.1-7.63-17.66,0-41.6,0-83.2,0-124.8,0-.75,0-1.5,0-2.24-.2-.72-.41-1.45-.61-2.17-2.14-7.59-4.27-15.17-6.41-22.75,31.04,3.76,62.06,8.03,93.05,12.81m-55.98,145.52c13.07,1.75,26.13,3.6,39.19,5.54,3.06,.45,6.11,.91,9.17,1.37v-117.69c0-12.16-6.48-22.68-14.77-23.89-13.06-1.91-26.13-3.73-39.2-5.46-3.06-.4-6.12-.8-9.18-1.2v117.69c0,12.17,6.49,22.53,14.78,23.64m55.98-157.61c-35.43-5.46-70.91-10.26-106.42-14.4,3.74,13.24,7.47,26.48,11.21,39.73v124.8c0,15.9,7.54,29.7,16.81,30.87,31.75,4.01,63.48,8.56,95.17,13.63v-163.2c0-15.9-7.51-30.01-16.78-31.43h0Zm-55.98,145.52c-3.09-.42-5.6-5.05-5.6-10.35v-105.59c13.07,1.73,26.14,3.55,39.2,5.46,3.09,.45,5.6,5.12,5.6,10.42,0,35.2,0,70.4,0,105.6-13.06-1.94-26.12-3.78-39.19-5.54t0,0Z"/>
          <path class="cls-2" d="M1833.39,908.09v74.31c0,9.56-4.01,15.88-7.59,15.15-.37-.08-.74-.15-1.11-.23-4.12-.84-8.24-1.67-12.36-2.49,1.21,5.46,2.42,10.92,3.64,16.37,4.73,21.33,9.47,42.67,14.2,64.03-4.78-.98-9.56-1.95-14.33-2.9-5.29-23.81-10.57-47.6-15.86-71.39-.66-2.97-1.32-5.95-1.98-8.92-2.25-.44-4.5-.87-6.75-1.3-8.93-1.71-17.86-3.37-26.79-4.99-3.05-.55-6.1-1.1-9.15-1.64v76.8c-5.07-.9-10.14-1.79-15.21-2.67v-66.95c-.2-.73-.41-1.47-.61-2.2-2.13-7.69-4.26-15.38-6.39-23.06,2.33,.4,4.67,.8,7,1.2v-52.74c-.2-.73-.41-1.47-.61-2.2-2.13-7.69-4.26-15.38-6.39-23.06,33.49,5.7,66.93,12,100.32,18.89m-78.1,61.78c3.05,.54,6.1,1.09,9.15,1.65,13.03,2.36,26.05,4.82,39.06,7.36,8.25,1.61,14.71-6.61,14.71-18.78v-40.89c-3.04-.61-6.09-1.22-9.13-1.82-14.87-2.94-29.75-5.76-44.64-8.46-3.05-.55-6.1-1.1-9.15-1.65v62.59m87.23-71.98c-40.85-8.56-81.78-16.24-122.78-23.02,3.73,13.42,7.45,26.84,11.18,40.27v38.4c-3.73-.63-7.45-1.26-11.18-1.87,3.73,13.42,7.45,26.84,11.18,40.27v76.8c11.18,1.89,22.35,3.85,33.51,5.88v-76.8c8.93,1.62,17.87,3.29,26.79,4.99,5.95,26.74,11.9,53.49,17.85,80.27,11.15,2.2,22.3,4.47,33.44,6.81-5.94-26.84-11.88-53.67-17.83-80.48,.37,.08,.74,.15,1.11,.23,9.23,1.88,16.72-9.45,16.72-25.34v-86.4h0Zm-78.08,61.53v-38.4c14.89,2.7,29.77,5.52,44.64,8.46v28.8c0,5.3-2.5,9.11-5.58,8.5-13.01-2.54-26.03-5-39.06-7.36h0Z"/>
          <path class="cls-2" d="M1974.36,940.81c-2.42,9.39-4.84,18.79-7.26,28.18-.15,.57-.29,1.13-.44,1.7v12.73c-5.04-1.28-10.07-2.56-15.11-3.81v-22.92c-3.03-.76-6.06-1.51-9.09-2.25-14.8-3.64-29.62-7.17-44.44-10.58-3.04-.7-6.07-1.39-9.11-2.08v46.47c0,13.21,6.44,25.01,14.67,26.92,18.53,4.3,37.04,8.78,55.53,13.45,2.66,.67,7.55,10.38,7.55,24.2v68.78c0,14.71-5.29,20.95-7.55,20.38-28.41-7.17-56.86-13.9-85.36-20.2v-44.58c5.05,1.12,10.1,2.25,15.16,3.39v22.92c3.04,.69,6.07,1.38,9.11,2.08,12.97,2.98,25.93,6.05,38.89,9.22,8.22,2.01,14.65-6.73,14.65-19.94v-22.92c0-13.2-6.43-25.16-14.65-27.17-18.5-4.52-37.03-8.85-55.57-13-2.67-.6-7.58-10.15-7.58-23.98v-59.21c-.15-.63-.29-1.27-.44-1.9-2.43-10.55-4.86-21.1-7.29-31.65,36.18,7.9,72.3,16.49,108.35,25.79m12.46-8.85c-3.69-.97-7.38-1.93-11.08-2.89-36.96-9.55-74.01-18.37-111.12-26.45-3.71-.81-7.42-1.61-11.13-2.4,3.71,16.08,7.42,32.16,11.13,48.25v57.31c0,18.98,7.49,36.01,16.7,38.08,18.54,4.15,37.07,8.48,55.57,13,3.07,.75,5.56,6.5,5.56,12.82v22.92c0,6.33-2.49,10.86-5.56,10.1-12.95-3.16-25.92-6.23-38.89-9.22v-22.92c-9.27-2.13-18.54-4.22-27.82-6.26-3.07-.67-5.56,3.92-5.56,10.24v57.31c31.54,6.87,63.04,14.27,94.47,22.2,9.18,2.31,16.64-11.16,16.64-30.14v-68.78c0-18.98-7.46-36.31-16.64-38.63-18.49-4.67-37-9.15-55.53-13.45-3.07-.71-5.56-6.42-5.56-12.75v-34.38c14.83,3.41,29.64,6.93,44.44,10.58v11.47c0,6.32,2.49,12.07,5.55,12.83,9.25,2.3,18.5,4.64,27.74,7.03,0-7.64,0-15.28,0-22.92,3.69-14.33,7.39-28.65,11.08-42.96t0,0Z"/>
        </g>
      </g>
    </g>
  </g>
</svg>