<?xml version="1.0" encoding="UTF-8" standalone="no"?>
<!-- Created with Inkscape (http://www.inkscape.org/) -->

<svg version="1.1" id="svg1" width="196" height="196" viewBox="0 0 196 196" sodipodi:docname="Blight.svg" inkscape:version="1.3.2 (091e20e, 2023-11-25, custom)"
   xmlns:inkscape="http://www.inkscape.org/namespaces/inkscape"
   xmlns:sodipodi="http://sodipodi.sourceforge.net/DTD/sodipodi-0.dtd"
   xmlns="http://www.w3.org/2000/svg"
   xmlns:svg="http://www.w3.org/2000/svg">
   <defs id="defs1" />
   <sodipodi:namedview id="namedview1" pagecolor="#ffffff" bordercolor="#000000" borderopacity="0.25" inkscape:showpageshadow="2" inkscape:pageopacity="0.0" inkscape:pagecheckerboard="0" inkscape:deskcolor="#d1d1d1" inkscape:zoom="4" inkscape:cx="153.375" inkscape:cy="137.625" inkscape:window-width="2560" inkscape:window-height="1494" inkscape:window-x="-11" inkscape:window-y="-11" inkscape:window-maximized="1" inkscape:current-layer="g1" />
   <g inkscape:groupmode="layer" inkscape:label="Image" id="g1">
      <path id="path8" style="fill:#998800;fill-opacity:1;stroke:#f5f3d5;stroke-width:1.47292;stroke-linejoin:round;stroke-dasharray:none;stroke-dashoffset:2.26667;stroke-opacity:1" d="m 97.850844,153.32573 c -1.53914,1.46482 -2.562468,2.87971 -6.038525,5.07404 3.913858,3.03624 8.624461,2.73786 12.538321,2.34831 -2.27779,-2.08492 -4.445642,-4.55465 -6.499796,-7.42235 z M 87.220521,137.99878 c -0.106523,5.07492 -0.565509,10.83893 -1.677368,15.74628 3.16638,-1.36399 5.250567,-4.46832 7.380422,-6.81429 -2.4136,-2.85904 -3.980539,-5.91347 -5.703054,-8.93199 z M 144.37841,60.668436 c 0,0 -5.97491,10.854171 -10.31887,15.774845 -4.34397,4.920674 -15.65624,13.284081 -15.65624,13.284081 0,0 2.79913,1.230839 2.84658,2.490765 0.12093,3.2128 -6.87925,6.404826 -6.76065,6.879256 0.11864,0.474432 4.84995,4.662637 6.64204,7.472297 1.39028,2.17967 2.97118,4.53362 3.08381,7.11647 0.0981,2.24829 -0.84445,4.56118 -2.13495,6.40483 -1.96865,2.8125 -5.12457,4.63349 -8.06533,6.40482 -2.69939,1.62594 -8.65838,3.79545 -8.65838,3.79545 0,0 7.09751,13.15061 13.04688,17.19815 4.24318,2.88677 9.69801,3.94615 14.82598,4.15126 5.35353,0.21414 15.77485,-3.08379 15.77485,-3.08379 l 7.11646,3.08379 c 4.75347,2.05984 9.60724,12.21662 9.60724,12.21662 0,0 -8.42484,-1.57941 -11.9794,-3.79545 -2.0882,-1.30186 -2.66393,-4.99046 -5.10013,-5.33736 -3.98106,-0.56686 -6.51769,5.15162 -10.43749,6.04901 -3.59426,0.82285 -7.49574,0.219 -11.03053,-0.83026 -5.7503,-1.70688 -15.77486,-8.65838 -15.77486,-8.65838 0,0 4.44079,7.43616 7.59091,10.31889 3.8216,3.49722 9.20933,4.86667 13.28408,8.06533 3.16656,2.48576 6.35814,5.15648 8.53976,8.53977 1.94597,3.01781 3.79546,10.08167 3.79546,10.08167 0,0 -8.16674,-4.94541 -12.21661,-7.4723 -2.62403,-1.63723 -4.93999,-3.87481 -7.82812,-4.98153 -2.91932,-1.1187 -6.41677,-0.32495 -9.25141,-1.54189 -3.18542,-1.36755 -7.35369,-6.04901 -7.35369,-6.04901 -5.24877,2.58521 -10.246623,1.4068 -15.181808,-0.71165 0,0 -1.160937,6.94966 0.237216,9.96307 1.579482,3.40422 5.252255,5.46194 8.421162,7.4723 2.5425,1.61295 5.84465,1.81905 8.30255,3.55821 2.76371,1.95554 6.87925,7.4723 6.87925,7.4723 0,0 -7.45431,-3.22429 -11.38635,-4.15127 -3.05967,-0.72131 -6.43279,0.0526 -9.370023,-1.06747 -3.392561,-1.29369 -6.456069,-3.59701 -8.895589,-6.28622 -2.629264,-2.89837 -4.809747,-6.41748 -5.811785,-10.20026 -0.911131,-3.43962 0,-10.67471 0,-10.67471 0,0 -5.838781,4.43382 -9.579693,5.53015 -3.195099,0.93637 -6.447864,0.35737 -9.753389,0.75606 -3.58738,0.43268 -6.725902,2.93764 -10.318884,3.32102 -4.385097,0.46788 -13.165473,-1.30469 -13.165473,-1.30469 0,0 9.001795,-2.32774 12.69104,-4.98154 5.660528,-4.07177 12.074819,-4.96134 18.38422,-6.16759 2.186384,-0.41801 6.267982,-1.77949 6.286217,-2.25356 0.01484,-0.38547 -5.845686,-4.68734 -9.370022,-5.57457 -2.64794,-0.66659 -5.560708,-0.40218 -8.183943,0.35583 -1.837324,0.53092 -4.98153,2.8466 -4.98153,2.8466 0,0 3.322235,-5.01356 5.930395,-6.16762 2.568003,-1.13629 5.651891,-0.70301 8.421157,-0.23722 3.417874,0.57488 9.725845,3.67685 9.725845,3.67685 0,0 2.771797,-11.86539 2.846589,-17.9098 0.04984,-4.02833 -2.065571,-7.62648 -1.601207,-11.97938 0.416544,-3.90467 3.696989,-7.0108 6.286217,-9.96306 3.220954,-3.67255 6.598264,-5.17042 8.361855,-9.72586 1.138495,-2.94078 0.236795,-6.618975 -1.304687,-9.370013 -1.40057,-2.499552 -4.025653,-4.288113 -6.64204,-5.455962 -4.054127,-1.809595 -8.879703,-3.175106 -13.165473,-2.016334 -3.337903,0.902492 -8.065334,6.523434 -8.065334,6.523434 -0.772879,-3.241948 -0.76268,-6.483898 0.830254,-9.725846 l 7.472297,-3.558235 -6.997866,-9.132805 c -0.12564,-2.412775 0.01987,-4.614645 1.304687,-5.930395 0,0 7.45698,9.11289 12.21661,12.453826 3.344968,2.347941 7.208774,4.016094 11.149139,5.100138 4.601124,1.265829 9.464549,1.729336 14.232936,1.541904 4.26147,-0.167508 8.62518,-0.757448 12.57245,-2.372159 4.80046,-1.963735 9.18801,-5.065116 12.92825,-8.658373 2.99959,-2.881722 7.35368,-10.081669 7.35368,-10.081669 2.45123,-2.222783 4.90247,-2.623276 7.35369,-2.490765 z M 106.64263,110.0763 c -1.24398,3.01679 -3.45107,4.78183 -5.31125,7.26988 -0.56489,2.22936 -0.1249,4.32732 0.73324,6.39857 3.07148,-1.32869 6.92644,-1.90375 9.18445,-5.08125 -1.12421,-3.63351 -2.86466,-6.11161 -4.60644,-8.5872 z m 8.23808,4.94017 c 1.08884,-1.11507 2.21701,-2.20394 2.84696,-3.62495 l -5.21722,-8.31278 c -0.85933,1.3285 -1.31716,2.65699 -2.97101,3.98549 2.37804,2.45155 3.89588,5.18982 5.34127,7.95224 z m -17.029866,-25.72428 3.690206,7.925567 10.02228,-9.267461 z M 131.12645,38.408415 A 29.880538,29.880538 0 0 1 102.42268,69.419539 29.880538,29.880538 0 0 1 71.409989,40.717459 29.880538,29.880538 0 0 1 100.1104,9.7032162 29.880538,29.880538 0 0 1 131.1262,38.401927 m 9.49079,-0.471224 A 38.819451,38.819451 0 0 0 100.32266,0.64662678 38.819451,38.819451 0 0 0 63.036384,40.938938 38.819451,38.819451 0 0 0 103.32667,78.227392 38.819451,38.819451 0 0 0 140.61731,37.939132" />
   </g>
</svg>
