<?xml version="1.0" encoding="UTF-8" standalone="no"?>
<!-- Created with Inkscape (http://www.inkscape.org/) -->

<svg version="1.1" id="svg1" width="196" height="196" viewBox="0 0 196 196" sodipodi:docname="Breach.svg" inkscape:version="1.3.2 (091e20e, 2023-11-25, custom)"
   xmlns:inkscape="http://www.inkscape.org/namespaces/inkscape"
   xmlns:sodipodi="http://sodipodi.sourceforge.net/DTD/sodipodi-0.dtd"
   xmlns="http://www.w3.org/2000/svg"
   xmlns:svg="http://www.w3.org/2000/svg">
   <defs id="defs1" />
   <sodipodi:namedview id="namedview1" pagecolor="#ffffff" bordercolor="#000000" borderopacity="0.25" inkscape:showpageshadow="2" inkscape:pageopacity="0.0" inkscape:pagecheckerboard="0" inkscape:deskcolor="#d1d1d1" inkscape:zoom="4.3905559" inkscape:cx="146.33682" inkscape:cy="117.4111" inkscape:window-width="2560" inkscape:window-height="1494" inkscape:window-x="-11" inkscape:window-y="-11" inkscape:window-maximized="1" inkscape:current-layer="g1" />
   <g inkscape:groupmode="layer" inkscape:label="Image" id="g1" transform="matrix(1.2881211,0,0,1.2881211,-30.618052,-29.458494)">
      <path id="path4" style="display:inline;fill:#822617;fill-opacity:1;stroke:#ffe0cc;stroke-width:1;stroke-linejoin:round;stroke-dasharray:none;stroke-dashoffset:2.26667;stroke-opacity:1" d="m 119.6212,109.03205 2.97946,-3.70419 m -14.21461,29.27924 c 3.29818,-0.184 6.467,-0.99323 9.53751,-2.27761 m -32.19979,2.27761 c -1.290946,0.21312 -2.301831,0.62789 -4.484057,0.19929 m 2.918195,30.66241 c -2.467957,-7.40579 -4.192524,-15.43151 -2.593404,-22.56972 -0.932662,-1.50732 -1.137582,-2.52947 -1.278543,-3.50899 -0.13613,-2.39803 0.500491,-3.25057 0.911047,-4.55523 -2.427374,-2.6931 -5.448476,-5.20596 -5.010755,-8.76882 -0.635539,-9.27867 0.479614,-18.4421 0.957625,-27.619545 0,0 -7.658477,-6.332666 -9.270923,-10.872163 -0.838973,-2.361949 -0.577498,-7.435606 -0.577498,-7.435606 0,0 -0.850324,-4.4922 -0.700453,-6.748969 0.174484,-2.627407 2.075117,-7.225015 2.075117,-7.225015 2.556587,-0.740514 3.272043,0.574862 4.669111,1.935974 0,0 -0.496351,7.038207 0.113882,10.477033 0.337741,1.90326 0.98888,3.781203 1.935973,5.466279 1.295542,2.305041 5.323927,5.836391 5.323927,5.836391 1.931559,-0.879335 3.409554,-1.730322 4.128179,-2.533848 0,0 -2.316037,-7.511421 -2.84702,-11.38808 -0.566853,-4.138541 -0.651592,-8.30123 0.341643,-12.270655 0.929241,-3.713676 4.640643,-10.277743 4.640643,-10.277743 1.750669,0.178935 3.348367,0.606448 3.900416,2.73314 -1.720199,3.985828 -1.349207,7.971655 -1.594331,11.957483 -0.299576,3.719128 0.185704,7.251386 1.480451,10.590914 0,0 2.254054,5.255592 4.669112,5.69404 1.63999,0.297736 3.340423,-1.162265 4.327471,-2.505377 2.557722,-3.480378 2.281242,-8.358848 2.847022,-12.640769 0.48275,-3.65352 0.82563,-10.676324 0.82563,-10.676324 0.54994,-2.65756 1.79656,-4.807508 3.04631,-6.975199 1.75713,-1.581798 3.17133,-1.654716 4.55524,-1.594331 l -0.56941,9.907629 c -0.28476,7.383174 -1.07334,13.859447 -1.70821,20.612424 0.27775,2.761973 2.01929,2.510244 3.53031,2.733139 0,0 5.82126,-7.206695 7.28837,-11.50196 1.18307,-3.463689 1.82209,-10.818676 1.82209,-10.818676 l 0.0569,-8.455649 c 1.13866,-1.425473 2.86006,-2.531826 4.24206,-0.996457 1.34537,3.742178 2.95882,7.365214 3.67265,11.38808 0,0 -0.5221,9.429559 -2.16373,13.779576 -1.34971,3.576488 -5.04235,6.021032 -6.14956,9.679868 -1.51765,5.015153 -1.6595,10.644226 -0.34165,15.715546 0.32094,1.23504 1.93598,3.30255 1.93598,3.30255 2.6524,-2.27943 5.38551,-4.47079 7.23142,-7.630017 0,0 1.17357,-4.696874 2.67621,-6.491205 2.31225,-2.761115 5.58938,-6.564405 9.11046,-5.807921 1.28672,0.276444 0.96799,3.302543 0.96799,3.302543 -0.0816,-0.03401 -1.61092,8.554137 -3.13172,12.52689 -0.9524,2.48793 -4.52626,3.04341 -6.03569,5.23851 -3.27275,4.75943 -2.8566,11.38929 -5.9218,16.28496 -2.77796,4.4369 -7.97636,6.954 -10.93255,11.2742 -2.00477,2.9298 -3.92855,6.16705 -4.44136,9.67986 -0.94143,6.44888 2.73314,19.35974 2.73314,19.35974 -4.67947,-3.61769 -7.1324,-8.28959 -7.93021,-12.54189 -1.48094,5.31944 -2.63048,9.57191 -3.28537,14.89134 -0.58844,-5.74709 -1.04318,-9.09504 -2.10847,-14.07917 l -3.625239,8.8148 c -1.762641,4.28588 -3.916615,8.95963 -4.896875,14.42556 0,0 -0.61351,-8.04866 -0.588349,-12.08004 0.01163,-1.8635 0.314845,-3.76254 -0.08112,-5.58016 -0.653626,-3.00039 -3.70971,-8.43231 -3.70971,-8.43231 -2.65535,5.19864 -3.72338,11.03221 -4.522429,16.97337 z" />
      <path style="fill:#cc0000;fill-opacity:1;stroke:#ffcccc;stroke-width:1;stroke-linejoin:round;stroke-dasharray:none;stroke-dashoffset:2.26667;stroke-opacity:1" d="m 100.65735,133.18981 c 0,0 -3.268552,-5.29936 -3.784712,-8.29416 -0.52627,-3.05346 1.221336,-6.19007 0.805259,-9.26048 -0.398036,-2.93728 -1.43265,-5.88389 -3.100247,-8.33443 -1.197662,-1.75997 -3.388765,-2.63198 -4.751027,-4.26787 -0.936791,-1.12496 -1.795528,-2.36836 -2.294988,-3.744456 -0.564677,-1.555778 -0.724733,-4.912079 -0.724733,-4.912079 0,0 1.838209,2.68617 3.221036,3.42235 0.804359,0.42822 1.905114,0.892675 2.697617,0.442893 0.890838,-0.505591 1.127362,-2.858669 1.127362,-2.858669 0,0 -1.47453,-1.94141 -2.174199,-2.939195 -1.183957,-1.68842 -2.728946,-3.211568 -3.42235,-5.153656 -0.907065,-2.54051 -0.805259,-8.052589 -0.805259,-8.052589 0,0 1.071191,2.926696 2.174199,3.945769 0.789726,0.729631 2.939195,1.328677 2.939195,1.328677 0,0 0.771915,-2.760275 0.603944,-4.147083 -0.231646,-1.91253 -2.174199,-5.354972 -2.174199,-5.354972 l 3.100247,1.529992 c 0,0 0.5501,-2.519852 0.120789,-3.663928 -0.29024,-0.773464 -1.251209,-1.112525 -1.691044,-1.811832 -1.395918,-2.219414 -2.226744,-4.783242 -2.858669,-7.327855 -0.761939,-3.068152 -1.087099,-9.421529 -1.087099,-9.421529 l 2.657354,2.496303 c 0,0 1.905172,-1.448363 2.375513,-2.496303 0.661748,-1.474405 0.53326,-3.220741 0.40263,-4.831553 -0.08946,-1.103101 -0.352893,-2.210986 -0.805259,-3.221035 -0.497543,-1.110919 -2.05341,-3.019721 -2.05341,-3.019721 0,0 3.003075,-2.308229 4.267872,-3.70419 1.325152,-1.462575 2.682527,-3.001849 3.42235,-4.831553 0.829634,-2.05182 -0.04308,-4.614403 1.006573,-6.56286 1.243835,-2.308907 5.838125,-5.274445 5.838125,-5.274445 0,0 -3.04782,5.877025 -1.81183,8.495481 0.68415,1.449369 4.26787,2.214461 4.26787,2.214461 0,0 -3.14508,2.501376 -3.34182,4.308135 -0.15597,1.432335 0.65346,3.106004 1.85209,3.905505 1.15137,0.767977 2.86794,0.729726 4.14709,0.201315 1.69467,-0.700062 3.70419,-4.066557 3.70419,-4.066557 0,0 0.33883,4.306241 -0.56368,6.16023 -1.13029,2.32192 -4.11622,3.227452 -5.63682,5.314708 -1.47049,2.01847 -2.42437,4.397343 -3.22103,6.764175 -0.77838,2.312514 -1.58045,4.728491 -1.48973,7.166803 0.067,1.799869 0.15305,3.986738 1.48973,5.19392 0.78932,0.712846 2.13211,0.901774 3.14051,0.563681 0.91848,-0.307946 1.64529,-1.222276 1.97288,-2.133936 0.32274,-0.898175 0.005,-1.918801 -0.16105,-2.858669 -0.25834,-1.463409 -1.28841,-4.267872 -1.28841,-4.267872 0,0 3.30283,2.383823 4.14708,4.147083 0.86279,1.801977 0.68967,3.961554 0.64421,5.958916 -0.042,1.846407 -0.0581,3.80517 -0.84553,5.47576 -0.84304,1.788478 -2.72438,2.874058 -3.94576,4.428923 -1.29931,1.654076 -2.80879,3.238377 -3.58341,5.19392 -0.65987,1.665857 -0.81268,3.522935 -0.80526,5.314708 0.007,1.698946 -0.12863,3.613602 0.80526,5.032868 0.45435,0.69049 1.27043,1.402606 2.09368,1.328677 0.92707,-0.08325 1.51037,-1.136382 2.05341,-1.892358 0.5573,-0.775832 1.16762,-2.617092 1.16762,-2.617092 0,0 0.72727,7.331072 -0.16105,10.830734 -0.6336,2.49617 -2.36532,4.57565 -3.5834,6.8447 -1.36939,2.55091 -3.03474,4.95378 -4.18735,7.60969 -0.86002,1.98171 -1.6869,4.02473 -2.01314,6.16023 -0.4804,3.14454 0.12078,9.54232 0.12078,9.54232 z" id="path5" sodipodi:nodetypes="cssssscsscsscscsccssaccssscsascscssscsssssssscssssssssscssssc" />
   </g>
</svg>
