<?xml version="1.0" encoding="UTF-8" standalone="no"?>
<!-- Created with Inkscape (http://www.inkscape.org/) -->

<svg version="1.1" id="svg1" width="196" height="196" viewBox="0 0 196 196" sodipodi:docname="Eater.svg" inkscape:version="1.3.2 (091e20e, 2023-11-25, custom)"
   xmlns:inkscape="http://www.inkscape.org/namespaces/inkscape"
   xmlns:sodipodi="http://sodipodi.sourceforge.net/DTD/sodipodi-0.dtd"
   xmlns="http://www.w3.org/2000/svg"
   xmlns:svg="http://www.w3.org/2000/svg">
   <defs id="defs1" />
   <sodipodi:namedview id="namedview1" pagecolor="#ffffff" bordercolor="#000000" borderopacity="0.25" inkscape:showpageshadow="2" inkscape:pageopacity="0.0" inkscape:pagecheckerboard="0" inkscape:deskcolor="#d1d1d1" showgrid="false" inkscape:zoom="4.3905559" inkscape:cx="160.45804" inkscape:cy="115.81677" inkscape:window-width="2560" inkscape:window-height="1494" inkscape:window-x="-11" inkscape:window-y="-11" inkscape:window-maximized="1" inkscape:current-layer="g1" />
   <g inkscape:groupmode="layer" inkscape:label="Image" id="g1" transform="matrix(1.4375577,0,0,1.4375577,-46.121962,-44.196441)">
      <path style="fill:#1e7b50;fill-opacity:1;stroke:#d0fbf6;stroke-width:1;stroke-linejoin:round;stroke-dasharray:none;stroke-dashoffset:2.26667;stroke-opacity:1;paint-order:normal" d="m 106.61627,31.244043 c 5.01925,12.787082 9.20492,25.510043 8.37469,37.847165 -0.58111,11.74076 -5.59933,20.185385 -11.43467,28.023007 -0.27385,9.362395 4.84025,12.911485 16.10517,9.824155 l 5.31471,-3.54314 8.85785,-6.119963 c -1.06584,-4.423498 -0.50468,-4.424234 0.96631,-5.636812 1.86454,-1.536992 4.69755,-0.261138 7.24733,0.161052 -0.80578,-3.718261 -2.72313,-7.00536 -0.32211,-8.535744 4.06952,-2.59387 8.69745,4.118525 12.88415,6.603123 -0.77305,-4.122527 -1.65698,-8.228627 -6.44207,-11.756779 -0.12446,-3.022322 2.65881,-3.318652 4.83155,-4.187346 -1.34212,-2.57681 -3.74276,-4.095097 -6.11997,-5.636812 -0.084,-1.144868 0.69781,-2.227889 2.73788,-3.221035 -1.30518,-2.30548 -4.16741,-2.470027 -6.60312,-3.221036 -0.9337,-1.889475 1.03158,-2.329458 2.73788,-2.898931 C 134.0325,48.858987 120.42879,39.984393 106.61627,31.244043 Z" id="path2" sodipodi:nodetypes="ccccccacacccccccc" />
      <path style="fill:#1e7b50;fill-opacity:1;stroke:#d0fbf6;stroke-width:1;stroke-linejoin:round;stroke-dasharray:none;stroke-dashoffset:2.26667;stroke-opacity:1;paint-order:normal" d="M 100.4963,31.566146 C 88.769925,38.822509 77.147722,45.558017 65.225965,53.79129 l 4.348398,1.610518 c -4.318588,1.813248 -8.615953,3.732613 -12.723089,6.603122 l 4.670501,0.805259 c -4.50896,1.301214 -8.372577,3.749704 -11.917831,6.764174 l 4.348398,1.127363 c -3.4832,2.462348 -6.388931,5.434228 -8.052589,9.502054 l 6.281019,-2.093673 c -4.227167,6.2014 -5.192711,11.668935 -5.153656,16.910435 2.716758,-4.365497 6.077851,-8.753034 9.139688,-9.743632 3.061836,-0.990598 4.971417,0.289835 5.838126,2.657355 0.866709,2.36752 -4.606017,7.218093 -2.254725,6.119967 2.351292,-1.098126 14.896522,-0.005 10.146262,4.912078 7.425031,1.82632 9.591218,5.03713 -0.966311,12.96467 11.670799,-0.32 21.038604,3.33789 24.479869,17.23254 9.751085,-5.81734 12.917105,-3.56845 17.554645,0 3.65328,2.81109 4.84031,8.94394 3.54314,13.36729 -1.20827,4.1202 -5.29346,7.84612 -9.50206,8.6968 -4.85986,0.98232 -10.663485,-1.33557 -14.011502,-4.99261 -2.883902,-3.15009 -3.597051,-8.14674 -3.221035,-12.40098 0.29594,-3.34826 1.998835,-6.63264 4.207723,-9.1641 -3.4253,-6.73002 -5.482447,-9.68054 -12.013011,-11.34321 -7.526323,4.00168 -14.959525,14.13276 -15.144588,23.52703 -0.121594,6.17241 2.678418,12.57476 6.683647,17.2728 4.838506,5.67545 12.120176,9.3514 19.326212,11.27362 7.728832,2.06168 17.042934,1.6755 23.996714,-0.16105 6.65709,-2.60039 13.11476,-7.61802 17.23254,-13.6894 2.92664,-4.31513 4.63399,-9.76532 4.50945,-14.97781 -0.1537,-6.4333 -2.97028,-12.78058 -6.44207,-18.19885 -4.36263,-6.80855 -10.875,-12.12538 -17.39359,-16.91044 C 107.818,97.852303 102.16253,97.664615 96.63106,92.765818 91.099587,87.867021 90.310341,78.626721 89.38373,71.184881 89.741563,54.260461 95.511647,43.349654 100.4963,31.566146 Z" id="path1" sodipodi:nodetypes="cccccccccczzzcccaaaaaccsaacaaaazcc" />
   </g>
</svg>
