<?xml version="1.0" encoding="UTF-8" standalone="no"?>
<!-- Created with Inkscape (http://www.inkscape.org/) -->

<svg version="1.1" id="svg1" width="196" height="196" viewBox="0 0 196 196" sodipodi:docname="Expedition.svg" inkscape:version="1.3.2 (091e20e, 2023-11-25, custom)"
   xmlns:inkscape="http://www.inkscape.org/namespaces/inkscape"
   xmlns:sodipodi="http://sodipodi.sourceforge.net/DTD/sodipodi-0.dtd"
   xmlns="http://www.w3.org/2000/svg"
   xmlns:svg="http://www.w3.org/2000/svg">
   <defs id="defs1" />
   <sodipodi:namedview id="namedview1" pagecolor="#ffffff" bordercolor="#000000" borderopacity="0.25" inkscape:showpageshadow="2" inkscape:pageopacity="0.0" inkscape:pagecheckerboard="0" inkscape:deskcolor="#d1d1d1" inkscape:zoom="4.3905559" inkscape:cx="66.164742" inkscape:cy="82.335815" inkscape:window-width="2560" inkscape:window-height="1494" inkscape:window-x="-11" inkscape:window-y="-11" inkscape:window-maximized="1" inkscape:current-layer="g1" />
   <g inkscape:groupmode="layer" inkscape:label="Image" id="g1">
      <path id="path8" style="display:inline;fill:#2a616f;fill-opacity:1;stroke:#dbe5ef;stroke-width:2;stroke-linejoin:round;stroke-dasharray:none;stroke-dashoffset:2.26667;stroke-opacity:1;paint-order:markers fill stroke" d="m 107.56545,90.071585 c 0.35261,9.132227 -6.7644,16.821345 -15.896614,17.174465 -9.132207,0.3531 -16.821706,-6.76349 -17.175314,-15.89568 -0.353609,-9.132189 6.762569,-16.822078 15.89474,-17.176183 9.132173,-0.354107 16.822448,6.761654 17.177048,15.893805 M 8.6512695,127.27931 c 0,0 3.0182295,3.43092 4.7105155,4.95847 3.061421,2.76343 6.135187,5.65641 9.792914,7.56163 4.300206,2.23985 13.883625,4.33863 13.883625,4.33863 0,0 15.372991,0.8884 22.932773,-0.24791 6.050786,-0.9095 11.967462,-2.82182 17.602454,-5.20637 6.202125,-2.62454 17.602453,-9.91687 17.602453,-9.91687 0,0 3.808331,2.32826 5.082396,4.09069 2.27512,3.14723 3.57916,7.05897 4.09071,10.90858 0.63423,4.77271 0.2612,9.84725 -1.36358,14.37946 -1.96854,5.49115 -9.792895,14.50344 -9.792895,14.50344 0,0 -1.345999,-6.60591 -3.346947,-9.17311 -2.487052,-3.19083 -6.168068,-5.64803 -10.04084,-6.81786 -4.034817,-1.21877 -8.622546,-1.13819 -12.644017,0.12392 -4.19901,1.31785 -8.610458,3.68437 -10.908561,7.43765 -2.56655,4.1917 -2.750336,9.79379 -1.859414,14.6274 0.857815,4.65401 2.992466,9.57133 6.693889,12.52005 4.186593,3.33523 10.2022,5.01239 15.495119,4.21467 6.336419,-0.95498 11.253024,-6.26342 16.238885,-10.28875 5.501716,-4.4418 10.593371,-9.4962 14.875301,-15.12324 4.65236,-6.11386 8.0954,-13.08468 11.52837,-19.95771 3.25115,-6.50899 6.61765,-13.0681 8.55331,-20.08167 1.29812,-4.70363 1.94388,-9.62412 1.98337,-14.50344 0.0592,-7.32038 -2.62315,-21.804656 -2.62315,-21.804656 0,0 5.31826,0.566251 8.32535,1.475073 4.01658,1.213919 7.51512,3.916846 10.66064,6.693893 2.83983,2.50715 5.25454,5.54463 7.18973,8.80123 2.84973,4.79558 4.25524,10.31371 6.32203,15.49511 1.93889,4.86076 5.7022,14.6274 5.7022,14.6274 0,0 1.4767,-15.89304 -0.24793,-23.55258 -1.29956,-5.77167 -4.37541,-11.05295 -7.43765,-16.11493 -3.50785,-5.798558 -7.78506,-11.148374 -12.3961,-16.114917 -2.15029,-2.316096 -4.5545,-4.403262 -7.06578,-6.322008 -4.89053,-3.73662 -15.49511,-10.040837 -15.49511,-10.040837 0,0 -0.53266,-3.796759 0,-5.578243 0.94883,-3.173261 3.15063,-5.925673 5.45428,-8.305383 2.49571,-2.578108 5.48062,-4.83834 8.80122,-6.198047 4.45707,-1.825056 9.44269,-2.537012 14.25551,-2.355257 3.48511,0.131619 10.1648,2.47922 10.1648,2.47922 0,0 -3.61839,3.743348 -4.95843,5.950124 -1.72069,2.833645 -3.57056,5.869138 -3.8428,9.17311 -0.32428,3.935511 0.5255,8.250228 2.72714,11.528367 2.37813,3.540936 6.3797,6.048958 10.41273,7.437656 3.63678,1.25226 7.80232,1.450361 11.52835,0.495843 3.32255,-0.85116 6.41608,-2.865599 8.80123,-5.33032 2.40583,-2.486091 4.42748,-5.65213 5.0824,-9.049148 0.89941,-4.665208 0.58145,-10.055361 -1.85941,-14.131548 -3.24012,-5.41093 -9.73649,-8.199287 -15.37115,-11.032523 -6.5496,-3.293287 -13.74332,-5.346593 -20.94941,-6.693889 -8.7485,-1.635676 -17.76001,-2.00056 -26.65159,-1.611494 -7.8464,0.343332 -15.92625,0.779649 -23.30467,3.470907 -10.073188,3.674178 -26.093763,17.664432 -26.093763,17.664432 0,0 -3.005139,-2.097056 -3.408927,-3.037041 -2.090649,-4.866864 -1.531391,-10.611838 -0.867727,-15.867002 0.515769,-4.084067 1.872552,-8.097036 3.718829,-11.776287 2.124202,-4.233103 5.121193,-8.022323 8.305382,-11.528368 C 89.481837,9.1428642 100.8782,0.219351 100.8782,0.219351 c 0,0 -9.69752,1.9346545 -14.007579,4.2146719 -3.713497,1.9644356 -6.840587,4.9447163 -9.792914,7.9334981 -3.700615,3.746307 -7.023004,7.917593 -9.792915,12.396094 -3.578095,5.785206 -6.61311,11.988617 -8.677265,18.47018 -1.847094,5.799986 -2.914562,11.895152 -3.222983,17.974336 -0.220473,4.345618 0.991687,13.015899 0.991687,13.015899 0,0 -8.4753,0.874107 -12.644015,0.247921 -3.269209,-0.491071 -6.486585,-1.576565 -9.421033,-3.099023 -3.565106,-1.849656 -7.333017,-3.92253 -9.668952,-7.189735 -3.230052,-4.517785 -5.082399,-15.867 -5.082399,-15.867 0,0 5.817027,1.925302 8.801226,1.735454 3.390471,-0.215696 6.785855,-1.425888 9.668954,-3.222985 3.248292,-2.024729 6.606189,-4.639566 8.05746,-8.181422 1.739014,-4.244092 1.486736,-9.420759 0,-13.759664 -1.441398,-4.20659 -4.260907,-8.438442 -8.181421,-10.53668 -5.55198,-2.971389 -13.070198,-3.881345 -18.842062,-1.363569 -5.145954,2.244744 -8.849882,7.785007 -10.5366795,13.139858 -2.4633984,7.820224 0.02071,16.50103 1.6114915,24.544266 1.58197,7.99868 4.286949,15.82727 7.80954,23.180694 3.05047,6.367872 6.981317,12.34661 11.404405,17.850376 4.978381,6.194732 10.381497,12.253799 16.858687,16.858679 6.958671,4.9472 23.056736,11.15649 23.056736,11.15649 0,0 -9.947087,12.72727 -17.10661,15.61908 -5.519211,2.22927 -11.962144,1.36764 -17.850376,0.49584 -8.918749,-1.3205 -25.6599135,-8.5533 -25.6599135,-8.5533 z m 94.0863405,-4.21467 c 7.42889,-2.47043 12.7164,-8.71968 17.35453,-16.11493 0.72999,13.70457 -2.9129,24.33784 -7.43765,32.78766 -2.6424,-5.9743 -5.15631,-12.65365 -9.91688,-16.67273 z m -26.155746,-2.23131 c 2.654655,2.50194 5.774773,4.1505 9.421031,4.83449 -4.824247,1.58531 -9.500474,3.68869 -14.62739,4.21467 1.379646,-1.41526 2.850705,-3.24187 5.206359,-9.04916 z M 36.790402,83.087235 c 6.139892,0.602111 13.283061,2.706072 19.585829,0.185941 0.08464,7.853545 -1.567287,15.748433 5.082398,23.445674 C 51.594047,100.2208 42.557817,93.026915 36.790402,83.087235 Z M 66.045185,52.840768 c 2.178711,3.028588 3.362201,5.455076 6.81785,7.685579 -2.796981,1.333287 -5.572137,4.563527 -8.429344,7.375675 -0.596353,-5.168289 -1.386533,-10.546488 1.611494,-15.061254 z m 58.270435,-5.982029 c -5.39194,5.17923 -10.08191,10.081778 -11.04133,15.960884 -5.52478,-3.441718 -12.18276,-5.750249 -19.337897,-7.561617 6.799717,-7.176683 17.502197,-9.637328 30.379227,-8.399267 z m -1.69749,31.688884 c 4.81336,2.016017 10.78742,6.101778 12.35192,9.744149 -4.98479,-1.29248 -6.34311,-0.984077 -9.3717,-0.899097 -0.53295,-3.107644 -2.1146,-5.926659 -2.98022,-8.845052 z" sodipodi:nodetypes="csssccsscsscssscsssssssssssacsssscsssscsssscsssssssssssscsssscssssscsaacssssssssssscssccccccccccccccccccccccccc" />
   </g>
</svg>
