<?xml version="1.0" encoding="UTF-8" standalone="no"?>
<!-- Created with Inkscape (http://www.inkscape.org/) -->

<svg version="1.1" id="svg1" width="196" height="196" viewBox="0 0 196 196" sodipodi:docname="Incursion.svg" inkscape:version="1.3.2 (091e20e, 2023-11-25, custom)"
   xmlns:inkscape="http://www.inkscape.org/namespaces/inkscape"
   xmlns:sodipodi="http://sodipodi.sourceforge.net/DTD/sodipodi-0.dtd"
   xmlns="http://www.w3.org/2000/svg"
   xmlns:svg="http://www.w3.org/2000/svg">
   <defs id="defs1" />
   <sodipodi:namedview id="namedview1" pagecolor="#ffffff" bordercolor="#000000" borderopacity="0.25" inkscape:showpageshadow="2" inkscape:pageopacity="0.0" inkscape:pagecheckerboard="0" inkscape:deskcolor="#d1d1d1" inkscape:zoom="4.3905559" inkscape:cx="70.264451" inkscape:cy="121.96633" inkscape:window-width="2560" inkscape:window-height="1494" inkscape:window-x="-11" inkscape:window-y="-11" inkscape:window-maximized="1" inkscape:current-layer="g1" />
   <g inkscape:groupmode="layer" inkscape:label="Image" id="g1" transform="matrix(1.4690459,0,0,1.4690459,-48.680302,-45.357676)">
      <path id="path4-39" style="display:inline;fill:#8f9900;fill-opacity:1;stroke:#efefdb;stroke-width:0.68071392;stroke-linejoin:round;stroke-dasharray:none;stroke-dashoffset:2.26667;stroke-opacity:0.998672;paint-order:markers fill stroke" d="m 149.29183,66.989908 -14.51038,4.581168 c 0,0 -1.72603,-0.912134 -1.37529,-1.489839 0.34062,-0.561041 1.29484,0.772007 1.8998,0.517497 0.64552,-0.271656 1.18443,-1.154034 1.02259,-1.835448 -0.14802,-0.623281 -0.97313,-0.907514 -1.59036,-1.079029 -0.75418,-0.209683 -1.65006,-0.233393 -2.34498,0.126988 -0.67755,0.351399 -1.19881,1.066542 -1.41841,1.797523 -0.22172,0.738018 -0.12915,1.604394 0.19485,2.303543 0.28669,0.618312 0.82356,1.164468 1.44315,1.448408 0.82919,0.380022 2.47102,0.308539 2.47102,0.308539 0,0 4.22399,-0.998463 6.82598,-2.17332 -1.78746,1.65033 -4.28898,3.884375 -4.97465,5.282595 -0.68565,1.398209 -0.32562,1.366163 -0.32527,2.061983 2.4e-4,0.487368 -0.0209,1.025807 0.22921,1.44403 0.33613,0.561834 0.88998,1.07923 1.49317,1.396219 0.68636,0.360698 1.53521,0.739576 2.27204,0.49822 0.76494,-0.250551 1.36985,-1.039889 1.59562,-1.812519 0.19332,-0.661568 0.0773,-1.477298 -0.31561,-2.043481 -0.27751,-0.39975 -1.05135,-0.620226 -1.41736,-0.299495 0,0 -0.40281,0.314279 -0.57355,0.502628 -0.23308,0.257121 -0.26105,0.882762 -0.6062,0.846395 -0.33929,-0.03559 -0.40949,-0.937978 -0.40949,-0.937978 z M 99.86133,31.915093 94.634942,53.068451 c 0,0 -2.402588,1.429124 -2.84702,0.569404 -0.431597,-0.834892 1.909632,-1.00664 2.049854,-1.935973 0.149629,-0.991674 -0.526854,-2.308679 -1.48045,-2.619259 -0.872254,-0.284088 -1.835252,0.512338 -2.505378,1.138808 -0.818857,0.765512 -1.516356,1.842663 -1.594331,2.960901 -0.07603,1.090318 0.409188,2.261007 1.138808,3.074781 0.736628,0.82159 1.864607,1.354872 2.960901,1.480451 0.969615,0.111068 2.037717,-0.137834 2.84702,-0.683285 1.083145,-0.730014 2.220676,-2.790079 2.220676,-2.790079 0,0 1.931026,-5.907731 2.436308,-9.96457 0.68355,3.416013 1.54783,8.140283 2.74527,10.02151 1.19744,1.881227 1.42687,1.417244 2.27761,1.935973 0.59586,0.363321 1.23811,0.791018 1.93598,0.797166 0.93751,0.0083 1.98309,-0.28259 2.82057,-0.783349 0.95292,-0.569778 2.04933,-1.324664 2.30406,-2.405313 0.26445,-1.121896 -0.24902,-2.450159 -1.02492,-3.302543 -0.66438,-0.729867 -1.74788,-1.196807 -2.73314,-1.138808 -0.69566,0.04095 -1.54248,0.822291 -1.42352,1.50892 0,0 0.0836,0.72683 0.18643,1.076018 0.14038,0.476702 0.88419,0.977707 0.58227,1.372419 -0.29681,0.388031 -1.45198,-0.199291 -1.45198,-0.199291 z M 165.6366,97.504738 144.48324,92.27835 c 0,0 -1.42913,-2.402588 -0.56941,-2.84702 0.8349,-0.431597 1.00665,1.909632 1.93598,2.049854 0.99167,0.149629 2.30868,-0.526854 2.61926,-1.48045 0.28408,-0.872254 -0.51234,-1.835252 -1.13881,-2.505378 -0.76551,-0.818857 -1.84266,-1.516356 -2.9609,-1.594331 -1.09032,-0.07603 -2.26101,0.409188 -3.07478,1.138808 -0.82159,0.736628 -1.35488,1.864607 -1.48045,2.960901 -0.11107,0.969615 0.13783,2.037717 0.68328,2.84702 0.73002,1.083145 2.79008,2.220676 2.79008,2.220676 0,0 5.90773,1.931026 9.96457,2.436308 -3.41601,0.68355 -8.14028,1.54783 -10.02151,2.745272 -1.88123,1.19744 -1.41724,1.42687 -1.93597,2.27761 -0.36332,0.59586 -0.79102,1.23811 -0.79717,1.93598 -0.008,0.93751 0.28259,1.98309 0.78335,2.82057 0.56978,0.95292 1.32466,2.04933 2.40531,2.30406 1.1219,0.26445 2.45016,-0.24902 3.30255,-1.02492 0.72986,-0.66438 1.1968,-1.74788 1.1388,-2.73314 -0.041,-0.69566 -0.82229,-1.54248 -1.50892,-1.42352 0,0 -0.72683,0.0836 -1.07601,0.18643 -0.47671,0.14038 -0.97771,0.88419 -1.37242,0.58227 -0.38803,-0.29681 0.19929,-1.45198 0.19929,-1.45198 z m -65.12294,65.751302 5.22639,-21.15336 c 0,0 2.40258,-1.42913 2.84702,-0.56941 0.43159,0.8349 -1.90964,1.00665 -2.04986,1.93598 -0.14963,0.99167 0.52686,2.30868 1.48045,2.61926 0.87226,0.28408 1.83525,-0.51234 2.50538,-1.13881 0.81886,-0.76551 1.51636,-1.84266 1.59433,-2.9609 0.076,-1.09032 -0.40919,-2.26101 -1.13881,-3.07478 -0.73662,-0.82159 -1.8646,-1.35488 -2.9609,-1.48045 -0.96961,-0.11107 -2.03771,0.13783 -2.84702,0.68328 -1.08314,0.73002 -2.22067,2.79008 -2.22067,2.79008 0,0 -1.93103,5.90773 -2.43631,9.96457 -0.683549,-3.41601 -1.547829,-8.14028 -2.745269,-10.02151 -1.19744,-1.88123 -1.42687,-1.41724 -2.27761,-1.93597 -0.59586,-0.36332 -1.23811,-0.79102 -1.93598,-0.79717 -0.93751,-0.008 -1.98309,0.28259 -2.82057,0.78335 -0.95292,0.56978 -2.04933,1.32466 -2.30406,2.40531 -0.26445,1.1219 0.24902,2.45016 1.02491,3.30255 0.66438,0.72986 1.74788,1.1968 2.73315,1.1388 0.69566,-0.041 1.54248,-0.82229 1.42352,-1.50892 0,0 -0.0836,-0.72683 -0.18644,-1.07601 -0.14037,-0.47671 -0.88419,-0.97771 -0.58226,-1.37242 0.2968,-0.38803 1.45198,0.19929 1.45198,0.19929 z m -66.455612,-65.624054 21.15336,5.226394 c 0,0 1.42913,2.40258 0.56941,2.84702 -0.8349,0.43159 -1.00665,-1.90964 -1.93598,-2.04986 -0.99167,-0.14963 -2.30868,0.52686 -2.61926,1.48045 -0.28408,0.87226 0.51234,1.83525 1.13881,2.50538 0.76551,0.81886 1.84266,1.51636 2.9609,1.59433 1.09032,0.076 2.26101,-0.40919 3.07478,-1.13881 0.82159,-0.73662 1.35488,-1.8646 1.48045,-2.9609 0.11107,-0.96961 -0.13783,-2.03771 -0.68328,-2.84702 -0.73002,-1.08314 -2.79008,-2.22067 -2.79008,-2.22067 0,0 -5.90773,-1.931034 -9.96457,-2.436314 3.41601,-0.68355 8.14028,-1.54783 10.02151,-2.74527 1.88123,-1.19744 1.41724,-1.42687 1.93597,-2.277607 0.36332,-0.59586 0.79102,-1.23811 0.79717,-1.93598 0.008,-0.93751 -0.28259,-1.98309 -0.78335,-2.82057 -0.56978,-0.95292 -1.32466,-2.04933 -2.40531,-2.30406 -1.1219,-0.26445 -2.45016,0.24902 -3.30255,1.02491 -0.72986,0.66438 -1.1968,1.74788 -1.1388,2.73315 0.041,0.69566 0.82229,1.54248 1.50892,1.42352 0,0 0.72683,-0.0836 1.07601,-0.18644 0.47671,-0.14037 0.97771,-0.88419 1.37242,-0.58226 0.38803,0.2968 -0.19929,1.45198 -0.19929,1.45198 z M 150.96969,126.30876 140.11253,115.64754 c 0,0 -0.005,-1.95219 0.66983,-1.91372 0.65528,0.0374 -0.0737,1.5057 0.435,1.92037 0.54284,0.44247 1.575,0.50401 2.10065,0.0412 0.4808,-0.42337 0.34445,-1.28526 0.20611,-1.91075 -0.16895,-0.76438 -0.56859,-1.56652 -1.21303,-2.01089 -0.62813,-0.43366 -1.50436,-0.55819 -2.25303,-0.40854 -0.75569,0.15072 -1.47723,0.63918 -1.94258,1.25326 -0.41142,0.5434 -0.64154,1.27384 -0.60137,1.95419 0.0537,0.91055 0.88764,2.32667 0.88764,2.32667 0,0 2.86454,3.26088 5.1235,5.00669 -2.2963,-0.80345 -5.44324,-1.96331 -6.99969,-1.91232 -1.55647,0.0511 -1.35914,0.35387 -1.97333,0.68084 -0.43009,0.22926 -0.91558,0.46315 -1.16739,0.88037 -0.33828,0.56052 -0.53502,1.29248 -0.53199,1.97381 0.004,0.77537 0.0677,1.70272 0.62677,2.23999 0.58042,0.55766 1.56122,0.72139 2.34944,0.55788 0.6749,-0.13988 1.34067,-0.62531 1.65619,-1.23795 0.22271,-0.43267 0.054,-1.21946 -0.40096,-1.39205 0,0 -0.46679,-0.20779 -0.71306,-0.27045 -0.33646,-0.085 -0.902,0.18395 -1.03191,-0.13787 -0.12787,-0.31629 0.63595,-0.80188 0.63595,-0.80188 z m -17.59939,19.72539 -5.3343,-14.25079 c 0,0 0.8205,-1.77138 1.41583,-1.45132 0.57808,0.31085 -0.70313,1.33347 -0.41738,1.92427 0.30499,0.63042 1.21444,1.12241 1.88642,0.92511 0.61467,-0.18052 0.85535,-1.01927 0.99432,-1.64463 0.16988,-0.76416 0.14625,-1.66009 -0.24954,-2.33513 -0.386,-0.65848 -1.1275,-1.14167 -1.86927,-1.32242 -0.74859,-0.18277 -1.60897,-0.045 -2.29025,0.31486 -0.6025,0.31861 -1.11976,0.88335 -1.37089,1.51695 -0.33619,0.8479 -0.17886,2.4838 -0.17886,2.4838 0,0 1.21806,4.16597 2.52756,6.70289 -1.74159,-1.69864 -4.10352,-4.07977 -5.53569,-4.69135 -1.43226,-0.61144 -1.38135,-0.25372 -2.07618,-0.21688 -0.48669,0.026 -1.02553,0.0328 -1.43009,0.30453 -0.54347,0.36504 -1.03111,0.94528 -1.3163,1.56405 -0.32407,0.70442 -0.65828,1.5718 -0.37868,2.295 0.29038,0.75071 1.11009,1.31361 1.89355,1.49853 0.67077,0.15847 1.47934,-1.4e-4 2.02421,-0.42204 0.3847,-0.298 0.5643,-1.08238 0.22488,-1.43107 0,0 -0.33523,-0.3856 -0.53195,-0.54646 -0.26901,-0.21924 -0.89522,-0.21452 -0.87697,-0.56106 0.0178,-0.3407 0.91527,-0.45799 0.91527,-0.45799 z m -63.219077,3.13863 10.661221,-10.85715 c 0,0 1.952153,-0.005 1.913702,0.66983 -0.03746,0.65529 -1.505695,-0.0737 -1.920385,0.43494 -0.442475,0.54284 -0.504009,1.575 -0.04117,2.10066 0.423251,0.48086 1.28523,0.34446 1.910727,0.20612 0.764368,-0.169 1.566376,-0.56905 2.010887,-1.21306 0.433663,-0.6281 0.558178,-1.50436 0.408539,-2.25302 -0.150691,-0.75569 -0.639185,-1.47721 -1.253262,-1.94259 -0.543324,-0.41148 -1.273813,-0.64155 -1.954193,-0.60137 -0.91052,0.0536 -2.326654,0.8876 -2.326654,0.8876 0,0 -3.260908,2.86457 -5.006694,5.12351 0.803449,-2.29629 1.963315,-5.44326 1.912313,-6.99969 -0.05115,-1.55647 -0.353836,-1.35915 -0.680857,-1.97333 -0.22926,-0.4301 -0.463148,-0.91557 -0.880451,-1.16735 -0.56052,-0.33828 -1.29248,-0.53501 -1.973808,-0.53197 -0.775371,0.004 -1.702733,0.0676 -2.240018,0.6267 -0.557648,0.58044 -0.721384,1.56121 -0.557868,2.34944 0.139863,0.67489 0.625326,1.34068 1.237953,1.6562 0.432656,0.22272 1.219456,0.054 1.392026,-0.40098 0,0 0.207836,-0.46675 0.270444,-0.71305 0.08498,-0.33646 -0.183911,-0.90202 0.137884,-1.03193 0.316297,-0.12783 0.801892,0.63595 0.801892,0.63595 z m -19.626878,-17.92981 14.250777,-5.33429 c 0,0 1.771365,0.82049 1.451321,1.41583 -0.310888,0.57807 -1.333475,-0.70313 -1.924277,-0.41739 -0.630433,0.30498 -1.122411,1.21443 -0.925093,1.88645 0.180377,0.61468 1.019238,0.85536 1.644597,0.99432 0.764172,0.16988 1.660109,0.14624 2.335144,-0.24957 0.658478,-0.38598 1.141652,-1.12752 1.322429,-1.86926 0.182805,-0.74858 0.045,-1.60894 -0.314866,-2.29025 -0.318521,-0.60255 -0.883338,-1.11977 -1.516952,-1.3709 -0.847851,-0.33625 -2.48378,-0.17886 -2.48378,-0.17886 0,0 -4.166005,1.21806 -6.702894,2.52756 1.698626,-1.7416 4.079786,-4.10353 4.691343,-5.5357 0.611435,-1.43226 0.253721,-1.38133 0.216898,-2.0762 -0.02601,-0.48668 -0.03282,-1.02551 -0.304618,-1.43007 -0.365041,-0.54346 -0.945282,-1.0311 -1.564057,-1.31628 -0.704411,-0.32408 -1.571755,-0.65839 -2.295005,-0.37869 -0.750705,0.2904 -1.313592,1.11008 -1.498516,1.89355 -0.158454,0.67078 1.41e-4,1.47936 0.422027,2.02422 0.297995,0.38469 1.082381,0.5643 1.431062,0.22488 0,0 0.385619,-0.33518 0.546455,-0.53195 0.21921,-0.26902 0.214534,-0.89523 0.561076,-0.87697 0.340687,0.0179 0.457996,0.91527 0.457996,0.91527 z M 48.106842,70.087999 58.963989,80.749222 c 0,0 0.005,1.952153 -0.669829,1.913696 -0.655295,-0.03745 0.0737,-1.505694 -0.434949,-1.920382 -0.542856,-0.442458 -1.575003,-0.504005 -2.100666,-0.04117 -0.480851,0.423257 -0.344471,1.285233 -0.206125,1.910728 0.168988,0.764369 0.569055,1.566374 1.213064,2.010885 0.628085,0.433686 1.504358,0.558184 2.253005,0.408547 0.755702,-0.150686 1.477213,-0.639185 1.9426,-1.253272 0.411483,-0.543327 0.641544,-1.27381 0.601363,-1.954193 -0.05357,-0.910521 -0.887587,-2.326659 -0.887587,-2.326659 0,0 -2.864565,-3.260909 -5.123511,-5.006694 2.296297,0.803443 5.443253,1.963315 6.999695,1.912314 1.556471,-0.05115 1.359135,-0.353826 1.97334,-0.680863 0.430092,-0.229249 0.915556,-0.463149 1.167346,-0.880452 0.338277,-0.560511 0.535,-1.29248 0.531983,-1.973796 -0.004,-0.775373 -0.06755,-1.702737 -0.6267,-2.240019 -0.580454,-0.557643 -1.56122,-0.721388 -2.349442,-0.557869 -0.674895,0.139874 -1.340693,0.625331 -1.656211,1.237955 -0.222706,0.432653 -0.054,1.219454 0.400985,1.39202 0,0 0.466746,0.207836 0.71305,0.270447 0.33646,0.08498 0.902023,-0.183908 1.031927,0.137883 0.127763,0.316327 -0.635951,0.801901 -0.635951,0.801901 z m 17.436762,-19.829647 5.334289,14.250776 c 0,0 -0.820483,1.771367 -1.415834,1.451317 -0.578067,-0.31089 0.703129,-1.333475 0.417388,-1.924275 -0.305003,-0.630424 -1.214436,-1.122409 -1.88645,-0.925091 -0.614676,0.180383 -0.855359,1.019235 -0.994322,1.644593 -0.169877,0.764172 -0.146239,1.660111 0.249573,2.335145 0.385955,0.658493 1.127511,1.141655 1.869256,1.32243 0.748582,0.182807 1.608942,0.045 2.290249,-0.314871 0.602551,-0.318522 1.119773,-0.883337 1.370898,-1.516955 0.336252,-0.847852 0.178856,-2.483779 0.178856,-2.483779 0,0 -1.218056,-4.166005 -2.527556,-6.702896 1.741602,1.698623 4.103529,4.079785 5.535699,4.691345 1.432259,0.611435 1.381328,0.253719 2.076199,0.216898 0.486678,-0.026 1.025511,-0.03283 1.430068,-0.304619 0.543465,-0.365034 1.031101,-0.945285 1.316303,-1.564042 0.32406,-0.704417 0.658386,-1.571752 0.378686,-2.295001 -0.290399,-0.750707 -1.110072,-1.3136 -1.89355,-1.498519 -0.670775,-0.158455 -1.479357,1.42e-4 -2.02422,0.422023 -0.384686,0.297997 -0.564304,1.082379 -0.224881,1.431062 0,0 0.33518,0.385619 0.531948,0.546456 0.269022,0.219213 0.895232,0.214535 0.87697,0.561076 -0.0179,0.340688 -0.915271,0.457994 -0.915271,0.457994 z m 65.089316,-2.582084 -10.66123,10.85715 c 0,0 -1.95215,0.005 -1.91371,-0.669845 0.0375,-0.655282 1.50573,0.07372 1.92041,-0.434935 0.44247,-0.542842 0.50401,-1.575003 0.0412,-2.100676 -0.42325,-0.480837 -1.28523,-0.344464 -1.91073,-0.206115 -0.76436,0.168989 -1.56638,0.569047 -2.01088,1.21306 -0.43365,0.628107 -0.55819,1.504358 -0.40854,2.253007 0.15069,0.755704 0.6392,1.47723 1.25327,1.942602 0.54334,0.411484 1.27381,0.641533 1.95419,0.601362 0.91054,-0.05356 2.32667,-0.887582 2.32667,-0.887582 0,0 3.26093,-2.864557 5.00669,-5.123515 -0.80343,2.296298 -1.96331,5.443262 -1.91232,6.999701 0.0512,1.556468 0.35383,1.359129 0.68086,1.973329 0.22924,0.430099 0.46315,0.915567 0.88045,1.167346 0.56052,0.338291 1.29248,0.534988 1.97381,0.531986 0.77537,-0.004 1.70271,-0.06756 2.24,-0.626706 0.55766,-0.580437 0.7214,-1.561216 0.55789,-2.349436 -0.13986,-0.674884 -0.62532,-1.340687 -1.23795,-1.656211 -0.43265,-0.222703 -1.21945,-0.054 -1.39203,0.400981 0,0 -0.20779,0.466781 -0.27046,0.713038 -0.0851,0.336442 0.18391,0.902027 -0.13786,1.031926 -0.31635,0.127753 -0.80189,-0.635939 -0.80189,-0.635939 z" inkscape:label="Vaal" />
      <path id="path3" style="display:inline;fill:#8f9900;fill-opacity:1;stroke:#efefdb;stroke-width:1.36142785;stroke-linejoin:round;stroke-dasharray:none;stroke-dashoffset:2.26667;stroke-opacity:0.998672;paint-order:markers fill stroke" d="m 105.33301,90.944022 c 0.11668,3.02181 -2.23831,5.566101 -5.26011,5.682945 -3.021804,0.116843 -5.566223,-2.238004 -5.683231,-5.259801 -0.117008,-3.021798 2.237701,-5.566346 5.259493,-5.683518 3.021788,-0.117169 5.566458,2.237401 5.683798,5.259185 M 99.610232,56.297774 64.119141,120.23242 135.60352,119.41016 Z m 0,10.88582 28.163198,48.519526 H 72.257812 Z" sodipodi:nodetypes="csssccccccccc" inkscape:label="Triangle" />
      <path id="path1" style="display:inline;fill:#8f9900;fill-opacity:1;stroke:#efefdb;stroke-width:1.36142785;stroke-linejoin:round;stroke-dasharray:none;stroke-dashoffset:2.26667;stroke-opacity:0.998672;paint-order:markers fill stroke" d="M 97.988281,56.152344 A 41.879612,41.879612 0 0 0 57.761719,99.621094 41.879612,41.879612 0 0 0 101.22852,139.84766 41.879612,41.879612 0 0 0 141.45898,96.384766 V 96.375 A 41.879612,41.879612 0 0 0 97.988281,56.152344 Z m 0.25,6.435547 A 35.438061,35.438061 0 0 1 135.02148,96.625 v 0.0078 A 35.438061,35.438061 0 0 1 100.98047,133.41211 35.438061,35.438061 0 0 1 64.199219,99.371094 35.438061,35.438061 0 0 1 98.238281,62.587891 Z" inkscape:label="Circle" />
   </g>
</svg>
