<?xml version="1.0" encoding="UTF-8" standalone="no"?>
<!-- Created with Inkscape (http://www.inkscape.org/) -->

<svg
   width="196"
   height="196"
   viewBox="0 0 51.858332 51.858333"
   version="1.1"
   id="svg1"
   xml:space="preserve"
   inkscape:version="1.3.2 (091e20e, 2023-11-25, custom)"
   sodipodi:docname="Pinnacle.svg"
   xmlns:inkscape="http://www.inkscape.org/namespaces/inkscape"
   xmlns:sodipodi="http://sodipodi.sourceforge.net/DTD/sodipodi-0.dtd"
   xmlns="http://www.w3.org/2000/svg"
   xmlns:svg="http://www.w3.org/2000/svg"><sodipodi:namedview
     id="namedview1"
     pagecolor="#ffffff"
     bordercolor="#000000"
     borderopacity="0.25"
     inkscape:showpageshadow="2"
     inkscape:pageopacity="0.0"
     inkscape:pagecheckerboard="0"
     inkscape:deskcolor="#d1d1d1"
     inkscape:document-units="mm"
     inkscape:zoom="4"
     inkscape:cx="88.25"
     inkscape:cy="57.125"
     inkscape:window-width="2560"
     inkscape:window-height="1494"
     inkscape:window-x="-11"
     inkscape:window-y="-11"
     inkscape:window-maximized="1"
     inkscape:current-layer="layer1" /><defs
     id="defs1" /><g
     inkscape:label="Ebene 1"
     inkscape:groupmode="layer"
     id="layer1"><path
       id="path2-7"
       style="display:inline;fill:#0057cd;fill-opacity:1;stroke:#cae7ff;stroke-width:0.396875;stroke-linecap:round;stroke-linejoin:miter;stroke-miterlimit:1;stroke-dasharray:none;stroke-dashoffset:2.26667;stroke-opacity:1;paint-order:fill markers stroke"
       d="m 17.723887,2.8031047 c 0,0 -0.411776,4.6433233 -0.128211,6.935124 0.279502,2.2589603 1.055854,4.4332893 2.049896,6.4809473 0.430884,0.887589 1.104717,1.973806 1.824205,3.055732 C 21.038184,18.997895 20.645488,18.722863 20.332939,18.465357 19.151231,17.491762 18.167671,16.35516 17.382188,15.040876 16.238355,13.126994 14.95663,8.7440098 14.95663,8.7440098 c 0,0 -0.157389,3.1323252 0.11042,4.6887962 0.253697,1.474459 0.699549,2.942731 1.387083,4.271523 l 5.106215,9.86882 2.982803,-4.005105 c 0.213198,0.278692 0.454029,0.592825 0.454029,0.592825 l 0.833515,-0.986573 0.938788,1.111256 c 0,0 0.240831,-0.314137 0.45403,-0.592828 l 2.982803,4.005105 5.106215,-9.868818 c 0.687534,-1.328793 1.133385,-2.797064 1.387083,-4.271524 0.267809,-1.55647 0.11042,-4.6887953 0.11042,-4.6887953 0,0 -1.281725,4.3829843 -2.425558,6.2968653 -0.785484,1.314285 -1.769042,2.450888 -2.950751,3.424483 -0.312549,0.257506 -0.705245,0.532536 -1.136838,0.809547 0.719489,-1.081922 1.393321,-2.168139 1.824204,-3.055729 0.994043,-2.047658 1.770394,-4.221987 2.049896,-6.4809475 0.283566,-2.2918007 -0.12821,-6.935124 -0.12821,-6.935124 0,0 -1.295786,4.664742 -2.265295,6.8738119 -0.945145,2.1535556 -1.758898,4.5138276 -3.436833,6.1617446 -0.551203,0.541343 -1.428153,1.084436 -2.339399,1.565726 C 25.00707,17.018651 24.024811,16.426745 23.426015,15.838662 21.74808,14.190745 20.934328,11.830472 19.989182,9.6769173 19.019672,7.4678474 17.723887,2.8031047 17.723887,2.8031047 Z"
       inkscape:label="3" /><path
       style="display:inline;fill:#0057cd;fill-opacity:1;stroke:#cae7ff;stroke-width:0.396875;stroke-linecap:round;stroke-linejoin:miter;stroke-miterlimit:1;stroke-dasharray:none;stroke-dashoffset:2.26667;stroke-opacity:1;paint-order:fill markers stroke"
       d="m 21.992604,28.25924 c -1.171523,-2.999573 0.862269,-2.915213 -3.627992,-9.165455 0.585486,0.463996 1.469406,0.804383 1.826887,0.508128 0.48942,-1.033849 0.539973,-2.186453 0.238812,-3.597997 0.875396,0.581258 1.677618,0.752367 2.568744,0.741344 0.748314,-0.0093 1.227457,-0.785255 1.493219,-1.476182 0.223794,-0.581818 0.28328,-1.252461 0.11011,-1.86688 -0.210361,-0.746368 -1.325227,-1.876857 -1.325227,-1.876857 0.461949,-0.297115 0.833223,-0.78264 0.833223,-1.388706 V 5.0331429 c 0,-0.596956 0.954298,-1.7768219 1.805317,-2.1872108 0.763346,0.4706176 1.732562,1.5036906 1.73167,2.0830584 l -0.0081,5.2346605 c -8.56e-4,0.576363 0.466634,0.788551 1.088521,1.153384 0,0 -1.379411,1.36407 -1.621199,2.258752 -0.15038,0.556451 0.02296,1.146392 0.16342,1.7215 0.176316,0.721936 0.854221,1.370513 1.622688,1.41834 0.867803,0.05401 2.265326,-0.503406 2.265326,-0.503406 6.9e-5,-1.1e-5 -0.0767,1.818471 0.182267,2.673258 0.09281,0.306343 0.248997,0.677176 0.477368,0.833222 0.448998,0.306802 1.356115,-0.06305 1.353987,-0.06943 -1.823674,1.873175 -2.686091,4.20409 -3.055151,6.769939 z"
       id="path3"
       sodipodi:nodetypes="ccccssscsscsscasscasccc"
       inkscape:label="2" /><path
       style="display:inline;fill:#0057cd;fill-opacity:1;stroke:#cae7ff;stroke-width:0.396875;stroke-linecap:round;stroke-linejoin:miter;stroke-miterlimit:1;stroke-dasharray:none;stroke-dashoffset:2.26667;stroke-opacity:1;paint-order:fill markers stroke"
       d="M 25.88098,49.569094 C 23.230014,42.822829 20.688571,36.092198 17.828883,29.31611 c 3.135073,-3.00591 5.411635,-6.567327 8.052097,-9.893277 2.624385,3.398321 5.069952,6.975461 8.150292,9.917829 -3.008167,6.694245 -5.506524,13.473459 -8.150292,20.228432 z"
       id="path1"
       sodipodi:nodetypes="ccccc"
       inkscape:label="1" /><path
       id="path16"
       style="display:inline;fill:none;fill-opacity:0.143939;stroke:#cae7ff;stroke-width:0.396875;stroke-linecap:round;stroke-linejoin:miter;stroke-miterlimit:1;stroke-dasharray:none;stroke-dashoffset:2.26667;stroke-opacity:1;paint-order:fill markers stroke"
       d="m 24.049624,16.099302 c 0.69041,-0.901459 1.108679,-1.994995 1.879935,-2.786004 0.815596,0.672078 1.119821,2.0164 1.870356,2.890347 m 3.358145,0.0086 c -1.455512,2.167997 -2.008698,4.47019 -2.562736,6.795944 M 20.43899,16.021298 c 1.462562,2.099677 2.28911,4.456467 2.664578,6.995606 m -0.265676,11.538382 c 1.220566,1.319258 2.255878,2.846003 3.067378,4.623419 0.746129,-1.801808 1.801558,-3.294317 3.021263,-4.622549 m -4.978446,-0.238702 c 0.71617,0.704432 1.387773,1.565759 1.957183,2.786855 0.554576,-1.134778 1.241154,-2.043307 2.057587,-2.729271 m -3.256569,-0.494221 c 0.560292,0.227569 0.940632,0.807485 1.223271,1.578704 0.270425,-0.467465 0.421352,-0.973653 1.235875,-1.483094 m 4.912683,-6.586085 c -0.582395,0.372114 -1.086906,0.567218 -2.011522,1.717105 m 0.536865,-3.47545 c 0,0 -1.148584,0.927658 -1.581912,1.515396 -0.37378,0.506971 -0.630219,1.097986 -0.845231,1.690014 -0.169386,0.466398 -0.288363,0.955285 -0.343687,1.448397 -0.04791,0.426949 -0.104378,0.875337 0.01228,1.288826 0.08421,0.298494 0.259321,0.578619 0.478707,0.797845 0.214018,0.213863 0.49,0.375793 0.778663,0.466432 0.283927,0.08915 0.890674,0.06137 0.890674,0.06137 m -0.389193,-8.548506 c 0,0 -1.283925,0.690751 -1.795675,1.196058 -0.592733,0.585271 -1.064945,1.304676 -1.411571,2.062122 -0.283503,0.61951 -0.43236,1.723813 -0.46695,2.605458 -0.02768,0.705564 -0.06124,1.232126 0.209184,2.107965 0.165314,0.535402 0.403904,1.086972 0.81012,1.472942 0.379134,0.360238 0.899646,0.577916 1.411572,0.684902 0.585188,0.122298 1.22304,0.112112 1.792082,-0.07117 0.480666,-0.15482 0.925611,-0.460089 1.264277,-0.834672 0.319115,-0.352959 0.512411,-0.812844 0.662825,-1.264277 0.178185,-0.534774 0.313249,-1.107316 0.27004,-1.669336 -0.03759,-0.48894 -0.124334,-1.036401 -0.454157,-1.399296 -0.248966,-0.273928 -0.648727,-0.433155 -1.018788,-0.441884 -0.288682,-0.0068 -0.593552,0.115857 -0.810119,0.306862 -0.34729,0.306298 -0.5245,0.781874 -0.65055,1.227454 -0.08705,0.307718 -0.139093,0.647212 -0.06137,0.957416 0.0585,0.233487 0.181473,0.478365 0.380511,0.613726 0.213155,0.144961 0.513548,0.209575 0.761021,0.137424 0.1979,-0.0577 0.364565,-0.23409 0.454159,-0.41974 0.119476,-0.247573 0.167167,-0.568675 0.06137,-0.822393 -0.07036,-0.168759 -0.2377,-0.321871 -0.417334,-0.355959 -0.13602,-0.02581 -0.392785,0.13502 -0.392785,0.13502 M 19.671569,27.390342 c 0.582395,0.372113 1.086906,0.567218 2.011521,1.717104 m -0.536863,-3.47545 c 0,0 1.148583,0.927658 1.581911,1.515396 0.37378,0.506971 0.630219,1.097987 0.845231,1.690014 0.169386,0.466398 0.288362,0.955286 0.343687,1.448397 0.04791,0.426949 0.104378,0.875337 -0.01228,1.288826 -0.08421,0.298494 -0.259321,0.578619 -0.478707,0.797845 -0.214018,0.213863 -0.49,0.375793 -0.778662,0.466432 -0.283928,0.08915 -0.890675,0.06137 -0.890675,0.06137 m 0.389193,-8.548506 c 0,0 1.283926,0.690752 1.795675,1.196058 0.592733,0.585271 1.064946,1.304676 1.411572,2.062122 0.283502,0.61951 0.488936,1.617906 0.527805,2.453567 0.03525,0.757824 3.89e-4,1.384018 -0.27004,2.259856 -0.165314,0.535403 -0.403904,1.086972 -0.810119,1.472942 -0.379135,0.360238 -0.899647,0.577916 -1.411572,0.684902 -0.585189,0.122298 -1.22304,0.112113 -1.792083,-0.07117 -0.480665,-0.15482 -0.925611,-0.460088 -1.264277,-0.834671 -0.319115,-0.35296 -0.512411,-0.812845 -0.662825,-1.264278 -0.178184,-0.534774 -0.313248,-1.107315 -0.27004,-1.669335 0.03759,-0.488941 0.124334,-1.036402 0.454158,-1.399297 0.248965,-0.273928 0.648726,-0.433155 1.018787,-0.441884 0.288682,-0.0068 0.593552,0.115857 0.810119,0.306862 0.34729,0.306298 0.5245,0.781874 0.650551,1.227455 0.08705,0.307717 0.139093,0.647211 0.06137,0.957416 -0.0585,0.233486 -0.181472,0.478365 -0.38051,0.613725 -0.213155,0.144961 -0.513549,0.209575 -0.761022,0.137424 -0.197899,-0.0577 -0.364564,-0.23409 -0.454157,-0.41974 -0.119477,-0.247573 -0.167169,-0.568675 -0.06137,-0.822393 0.07036,-0.168758 0.2377,-0.32187 0.417334,-0.355958 0.136021,-0.02581 0.392786,0.135019 0.392786,0.135019 m 4.381912,-9.267277 c -0.473089,0.953165 -1.048079,1.877215 -1.976104,2.700397 0.837496,0.488918 1.545824,1.125459 1.927103,2.13577 0.537375,-0.96301 1.148986,-1.756342 1.914828,-2.197142 -0.968256,-0.737074 -1.445685,-1.676255 -1.865827,-2.639025 z"
       inkscape:label="details" /></g></svg>
