<?xml version="1.0" encoding="UTF-8" standalone="no"?>
<!-- Created with Inkscape (http://www.inkscape.org/) -->

<svg version="1.1" id="svg1" width="196" height="196" viewBox="0 0 196 196" sodipodi:docname="Ritual.svg" inkscape:version="1.3.2 (091e20e, 2023-11-25, custom)"
   xmlns:inkscape="http://www.inkscape.org/namespaces/inkscape"
   xmlns:sodipodi="http://sodipodi.sourceforge.net/DTD/sodipodi-0.dtd"
   xmlns="http://www.w3.org/2000/svg"
   xmlns:svg="http://www.w3.org/2000/svg">
   <defs id="defs1" />
   <sodipodi:namedview id="namedview1" pagecolor="#ffffff" bordercolor="#000000" borderopacity="0.25" inkscape:showpageshadow="2" inkscape:pageopacity="0.0" inkscape:pagecheckerboard="0" inkscape:deskcolor="#d1d1d1" showgrid="false" inkscape:zoom="5.6568543" inkscape:cx="101.55821" inkscape:cy="103.67953" inkscape:window-width="2560" inkscape:window-height="1494" inkscape:window-x="-11" inkscape:window-y="-11" inkscape:window-maximized="1" inkscape:current-layer="layer6" />
   <g inkscape:groupmode="layer" id="layer6" inkscape:label="Image" transform="matrix(1.4918693,0,0,1.4918693,-52.918292,-53.801507)">
      <path id="path18-0" style="fill:none;fill-opacity:0.325365;stroke:#e6c2a4;stroke-width:2.68120002;stroke-linejoin:round;stroke-dasharray:none;stroke-dashoffset:2.26667;stroke-opacity:1;paint-order:normal" d="m 134.33855,145.8404 16.25,8.75 z m -8.66846,-2.17233 a 4.552,4.552 0 0 0 4.37273,4.72424 4.552,4.552 0 0 0 4.72448,-4.37248 4.552,4.552 0 0 0 -4.37222,-4.72471 4.552,4.552 0 0 0 -4.72495,4.37196 m -19.55992,1.99692 c 0,0 4.27634,-1.60856 7.07107,-2.87262 2.79473,-1.26406 7.40606,-3.31827 9.63433,-4.81717 2.22827,-1.4989 6.53294,-6.33561 9.50175,-9.54594 4.63086,-1.45321 7.93116,-4.23696 9.14819,-9.104 l -12.1534,1.01647 4.37523,-5.43589 -4.37523,5.39169 -14.23052,1.5026 14.23052,-1.59099 c 0.74133,2.22558 0.47897,3.39464 3.27037,7.77818 -4.0746,1.74704 -7.23926,2.44868 -13.21406,6.23138 -5.9748,3.7827 -9.16631,7.5301 -13.25825,11.44629 z m -36.98521,0.211 -16.25,8.75 z m 32.27275,31.99678 -18.869109,-21.0219 z m 20.87193,-21.30514 -20.87193,21.30514 z m -20.87193,-7.31986 v 28.625 z m 49.15267,-16.50539 a 48.841557,25.153481 0 0 1 -46.91805,26.10521 48.841557,25.153481 0 0 1 -50.692121,-24.16146 48.841557,25.153481 0 0 1 46.912544,-26.10783 48.841557,25.153481 0 0 1 50.697217,24.15861 m -72.756549,10.96676 a 4.552,4.552 0 0 1 -4.372731,4.72423 4.552,4.552 0 0 1 -4.724471,-4.37247 4.552,4.552 0 0 1 4.372217,-4.72471 4.552,4.552 0 0 1 4.724946,4.37196 m 28.337648,1.87202 a 4.5824156,3.4886658 0 0 1 -4.40195,3.62066 4.5824156,3.4886658 0 0 1 -4.756041,-3.35107 4.5824156,3.4886658 0 0 1 4.401431,-3.62103 4.5824156,3.4886658 0 0 1 4.75652,3.35068 m -9.141548,-0.38056 c 0,0 -3.930959,-1.28127 -6.66482,-2.46637 -2.733861,-1.1851 -7.40606,-3.31827 -9.63433,-4.81717 -2.22827,-1.4989 -6.53294,-6.33561 -9.50175,-9.54594 -4.63086,-1.45321 -7.93116,-4.23696 -9.14819,-9.104 l 12.1534,1.01647 -4.37523,-5.43589 4.37523,5.39169 14.23052,1.5026 -14.23052,-1.59099 c -0.74133,2.22558 -0.47897,3.39464 -3.27037,7.77818 4.0746,1.74704 7.239262,2.44868 13.21406,6.23138 5.974798,3.7827 8.76006,7.12385 12.852,11.04004 z" transform="translate(0.17677688,-10.429825)" inkscape:label="circle" />
      <path style="fill:#994800;fill-opacity:1;stroke:#e6c2a4;stroke-width:1.34060001;stroke-linejoin:round;stroke-dasharray:none;stroke-dashoffset:2.26667;stroke-opacity:1;paint-order:normal" d="m 101.90403,135.91911 -5.000001,-8 c 1.271832,-1.32964 1.476172,-3.42178 1.000002,-6 l -6.000002,-11 2,-5.00001 -8,-11.999998 c 2.114278,-2.611813 7.618002,-3.596692 6,-8 -2.485499,-1.447345 -8.719623,-0.06872 -14,1 -5.280377,1.068723 -11.517021,2.038977 -16,0 -4.482979,-2.038977 -7.184192,-5.221672 -8,-10 -0.815808,-4.778328 1.289537,-10.856634 5,-15 3.710463,-4.143366 6.76145,-6.33667 12,-9 5.23855,-2.66333 11.460275,-4.222149 17,-6 -5.5672,3.599467 -10.601482,6.293097 -16.5,11 -5.898518,4.706903 -7.424424,8.451075 -7.5,12 -0.07558,3.548925 0.08438,6.040607 3.5,8 3.415623,1.959393 9.666667,1.249116 14.5,1 4.146796,-0.70064 7.350865,-2.134512 10,-4 l 10.046571,8.135615 9.95343,-8.135615 c 3.16783,1.701127 4.88521,3.263616 10,4 5.11479,0.736384 11.80016,0.472519 14.5,-1 2.69984,-1.472519 4.68927,-3.194262 3.5,-8 -1.18927,-4.805738 -2.37812,-8.266369 -7.5,-12 -5.12188,-3.733631 -10.99255,-7.370605 -16.5,-11 5.73312,1.94462 11.7447,3.204386 17,6 5.2553,2.795614 8.601,5.059083 12,9 3.399,3.940917 5.4579,9.821849 5,15 -0.4579,5.178151 -4.02292,7.864479 -8,10 -3.97708,2.135521 -10.68925,1.212659 -16,0 -5.31075,-1.212659 -9.33333,-1.160537 -14,-1 0.0855,3.594925 2.02564,6.290601 6,8 l -8,11.999998 2,5.00001 -6,11 c -0.12856,1.91602 -0.61872,3.76629 1,6 z" id="path9" sodipodi:nodetypes="ccccccczzzzzczzzcccczzzzczzzzzccccccc" transform="translate(0.17677688,-10.429825)" inkscape:label="head" />
   </g>
</svg>
