<?xml version="1.0" encoding="UTF-8" standalone="no"?>
<!-- Created with Inkscape (http://www.inkscape.org/) -->

<svg
   width="196"
   height="196"
   viewBox="0 0 51.858332 51.858333"
   version="1.1"
   id="svg1"
   xml:space="preserve"
   inkscape:version="1.3.2 (091e20e, 2023-11-25, custom)"
   sodipodi:docname="Sekhema.svg"
   xmlns:inkscape="http://www.inkscape.org/namespaces/inkscape"
   xmlns:sodipodi="http://sodipodi.sourceforge.net/DTD/sodipodi-0.dtd"
   xmlns="http://www.w3.org/2000/svg"
   xmlns:svg="http://www.w3.org/2000/svg"><sodipodi:namedview
     id="namedview1"
     pagecolor="#ffffff"
     bordercolor="#000000"
     borderopacity="0.25"
     inkscape:showpageshadow="2"
     inkscape:pageopacity="0.0"
     inkscape:pagecheckerboard="0"
     inkscape:deskcolor="#d1d1d1"
     inkscape:document-units="mm"
     inkscape:zoom="2.8284271"
     inkscape:cx="59.9273"
     inkscape:cy="202.05576"
     inkscape:window-width="2560"
     inkscape:window-height="1494"
     inkscape:window-x="-11"
     inkscape:window-y="-11"
     inkscape:window-maximized="1"
     inkscape:current-layer="layer1" /><defs
     id="defs1"><inkscape:path-effect
       effect="fillet_chamfer"
       id="path-effect7"
       is_visible="true"
       lpeversion="1"
       nodesatellites_param="F,0,0,1,0,0,0,1 @ F,0,0,1,0,0,0,1 @ F,0,0,1,0,0,0,1"
       radius="0"
       unit="px"
       method="auto"
       mode="F"
       chamfer_steps="1"
       flexible="false"
       use_knot_distance="true"
       apply_no_radius="true"
       apply_with_radius="true"
       only_selected="false"
       hide_knots="false" /><inkscape:path-effect
       effect="fillet_chamfer"
       id="path-effect6"
       is_visible="true"
       lpeversion="1"
       nodesatellites_param="F,0,0,1,0,0,0,1 @ F,0,0,1,0,0,0,1 @ F,0,0,1,0,0,0,1 @ F,0,0,1,0,0,0,1 @ F,0,0,1,0,0,0,1"
       radius="0"
       unit="px"
       method="auto"
       mode="F"
       chamfer_steps="1"
       flexible="false"
       use_knot_distance="true"
       apply_no_radius="true"
       apply_with_radius="true"
       only_selected="false"
       hide_knots="false" /></defs><g
     inkscape:label="Ebene 1"
     inkscape:groupmode="layer"
     id="layer1"><path
       id="path15-5"
       style="fill:none;stroke:#ffba65;stroke-width:1.32291667;stroke-linecap:round;stroke-miterlimit:1;stroke-dashoffset:2.26667;paint-order:fill markers stroke;stroke-dasharray:none;stroke-opacity:1"
       d="m 36.965539,36.309235 a 10.984491,7.0126219 0 0 0 -5.471171,-6.166508 10.984491,7.0126219 0 0 0 -11.100934,0.02862 10.984491,7.0126219 0 0 0 -5.392975,6.194514 M 36.859528,2.9815899 A 10.984491,7.0126219 0 0 1 31.388357,9.1480982 10.984491,7.0126219 0 0 1 20.287423,9.1194767 10.984491,7.0126219 0 0 1 14.894449,2.924962 m 5.791339,36.834383 h 10.47939 m -11.591282,-18.24935 12.482919,3.92e-4 M 17.790622,17.514623 H 33.840089 M 16.898985,12.929076 H 34.731726 M 27.804955,7.8018957 c 0.03739,2.8040473 -3.940942,2.8665593 -3.979189,0.062325 -0.01616,-1.184415 0.861322,-2.1587424 1.96001,-2.1763523 1.098687,-0.017654 2.002641,0.9281675 2.019159,2.1125735 M 25.815356,48.933371 V 3.945084" /></g></svg>
