<?xml version="1.0" encoding="UTF-8" standalone="no"?>
<!-- Created with Inkscape (http://www.inkscape.org/) -->

<svg version="1.1" id="svg1" width="196" height="196" viewBox="0 0 196 196" sodipodi:docname="Synthesis.svg" inkscape:version="1.3.2 (091e20e, 2023-11-25, custom)"
   xmlns:inkscape="http://www.inkscape.org/namespaces/inkscape"
   xmlns:sodipodi="http://sodipodi.sourceforge.net/DTD/sodipodi-0.dtd"
   xmlns="http://www.w3.org/2000/svg"
   xmlns:svg="http://www.w3.org/2000/svg">
   <defs id="defs1" />
   <sodipodi:namedview id="namedview1" pagecolor="#ffffff" bordercolor="#000000" borderopacity="0.25" inkscape:showpageshadow="2" inkscape:pageopacity="0.0" inkscape:pagecheckerboard="0" inkscape:deskcolor="#d1d1d1" inkscape:zoom="4.3905559" inkscape:cx="113.76692" inkscape:cy="149.98101" inkscape:window-width="2560" inkscape:window-height="1494" inkscape:window-x="-11" inkscape:window-y="-11" inkscape:window-maximized="1" inkscape:current-layer="g1" />
   <g inkscape:groupmode="layer" inkscape:label="Image" id="g1" transform="matrix(1.5007955,0,0,1.5007955,-52.33263,-51.719031)">
      <path id="path5" style="display:inline;fill:#247570;fill-opacity:1;stroke:#ccfbff;stroke-width:1.3326266;stroke-linejoin:round;stroke-dasharray:none;stroke-dashoffset:2.26667;paint-order:markers fill stroke;stroke-opacity:1" d="m 109.17482,61.581555 a 7.0287418,12.53273 0 0 1 -6.75193,13.00693 7.0287418,12.53273 0 0 1 -7.295055,-12.038453 7.0287418,12.53273 0 0 1 6.751135,-13.008238 7.0287418,12.53273 0 0 1 7.29579,12.03704 m -7.47921,60.045856 -7.971655,-25.395417 c 0,0 3.463545,-1.249419 4.276105,-2.733139 0.620498,-1.133018 0.651588,-2.759972 0,-3.875401 -0.58358,-0.999008 -1.900529,-1.983518 -3.023416,-1.704758 -1.773109,0.44018 -2.540302,1.375677 -2.960901,4.612172 0,0 -1.954819,-4.906831 -3.463595,-7.210707 -1.986616,-3.033531 -5.604465,-5.098275 -7.241199,-8.334022 -1.465142,-2.896518 -1.822093,-9.565987 -1.822093,-9.565987 0,0 0.78979,-7.471593 3.444894,-10.619384 2.655103,-3.14779 11.929013,-6.007212 11.929013,-6.007212 0,0 -5.525257,7.615025 -5.80792,12.071365 -0.167175,2.635603 1.054816,5.309274 2.505377,7.516132 1.657894,2.522289 6.750225,6.035682 6.750225,6.035682 v 3.871947 h 6.346065 v -3.871947 c 0,0 5.82463,-2.473341 7.63002,-4.896874 1.5575,-2.090765 2.20083,-4.90927 2.16373,-7.516132 -0.0658,-4.621496 -4.21359,-13.210173 -4.21359,-13.210173 0,0 8.02556,3.114928 10.7048,6.263444 2.32085,2.727345 3.83776,6.44051 3.87194,10.02151 0.037,3.878649 -2.05912,7.566093 -3.98583,10.932556 -1.5403,2.691308 -4.35445,4.498847 -5.9218,7.174491 -1.32727,2.265792 -2.84702,7.345311 -2.84702,7.345311 -0.88385,-1.604045 -1.67451,-4.063421 -3.5303,-4.498291 -1.13865,-0.266822 -2.54268,0.521286 -3.16675,1.510351 -0.68934,1.092502 -0.65153,2.759938 0,3.875401 0.96292,1.648581 2.66973,2.151064 4.98884,2.813665 z M 85.525391,34.960938 c 0,0 -19.176092,10.789343 -25.964844,15.830078 -6.788752,5.040735 -11.588878,9.04654 -15.146485,13.550781 -3.557604,4.504238 -5.931655,8.697052 -6.71875,12.414062 -0.787092,3.717013 -0.667176,4.88431 0.681641,8.654297 1.348817,3.769987 5.664959,8.870658 8.769531,12.589844 3.104572,3.7192 7.119516,7.62595 9.679688,9.73047 2.560169,2.10452 2.310966,1.34091 4.078125,3.91992 1.767158,2.57901 1.949197,7.49604 3.779297,11.79688 1.8301,4.30081 5.653341,9.33745 8.541015,12.86718 2.887674,3.52976 6.900117,5.32318 8.427735,8.42774 1.527615,3.10453 1.781659,5.26535 1.138672,8.76953 -0.64299,3.50418 -5.921875,11.04687 -5.921875,11.04687 0,0 6.520163,-3.85331 8.314453,-6.15039 1.79429,-2.29705 2.234429,-4.7329 2.732422,-6.60547 0.49799,-1.87254 0.570312,-4.4414 0.570312,-4.4414 3.361668,3.13951 7.186272,2.92061 10.81836,4.09961 -3.481516,-2.6103 -7.25396,-4.41269 -10.107422,-8.76758 0,0 -0.271902,-6.23663 -1.167969,-9.79492 -0.896067,-3.55832 -2.905613,-7.39424 -4.783203,-10.47656 -1.87759,-3.08235 -3.85192,-5.39022 -6.261719,-7.97071 -2.409799,-2.58049 -6.258711,-4.32078 -8.201172,-7.40234 -1.942461,-3.08156 -3.074219,-10.363283 -3.074219,-10.363283 0,0 9.164463,7.382123 12.414063,11.044923 3.2496,3.6628 5.481828,7.54622 7.287109,10.47851 1.805281,2.93232 3.204919,4.59153 3.757813,6.94532 0.552891,2.35376 -0.226563,6.60547 -0.226563,6.60547 0,0 3.905943,-4.53173 4.326172,-8.54102 0.420232,-4.00929 -1.042036,-9.01314 -3.757812,-14.12109 C 86.793987,103.98968 80.519862,98.359135 76.300781,93.951172 72.0817,89.543206 67.012695,87.013163 65.140625,81.539062 c -1.872071,-5.474098 0.500848,-11.771938 1.935547,-16.96875 1.434696,-5.196809 2.387594,-8.02832 5.351562,-13.095703 2.963968,-5.067383 13.097657,-16.513671 13.097657,-16.513671 z M 65.310547,54.037109 c -4.663353,7.12102 -7.193541,14.941723 -6.71875,23.240235 -4.198466,-3.969283 -5.17665,-8.947291 -3.587891,-13.988282 3.435395,-5.722123 6.871246,-6.810611 10.306641,-9.251953 z m -14.662109,12.09961 c -10e-7,0 -0.329821,8.07384 0.996093,11.787109 1.172879,3.284687 5.921875,8.625 5.921875,8.625 -0.483315,2.495094 -0.407906,4.339914 -0.255859,6.09375 0,0 -5.942781,-5.391114 -7.658203,-8.912109 -1.296908,-2.661974 -1.886882,-5.753675 -1.736328,-8.710938 0.157507,-3.09388 2.732421,-8.882812 2.732422,-8.882812 z m 19.892578,52.679691 c 0,0 6.016907,5.0348 8.091796,8.29297 2.265513,3.55749 4.470704,11.83789 4.470704,11.83789 0,0 -5.814308,-6.39871 -8.052735,-10.06641 -1.915311,-3.13827 -4.509765,-10.06445 -4.509765,-10.06445 z M 116.55013,34.960939 c 0,0 19.17609,10.789343 25.96485,15.830078 6.78875,5.040735 11.58887,9.04654 15.14648,13.550781 3.55761,4.504238 5.93166,8.697052 6.71875,12.414062 0.78709,3.717013 0.66718,4.88431 -0.68164,8.654297 -1.34882,3.769987 -5.66496,8.870658 -8.76953,12.589844 -3.10457,3.719199 -7.11952,7.625949 -9.67969,9.730469 -2.56017,2.10452 -2.31096,1.34091 -4.07812,3.91992 -1.76716,2.57901 -1.9492,7.49604 -3.7793,11.79688 -1.8301,4.30081 -5.65334,9.33745 -8.54102,12.86718 -2.88767,3.52976 -6.90011,5.32318 -8.42773,8.42774 -1.52762,3.10453 -1.78166,5.26535 -1.13867,8.76953 0.64299,3.50418 5.92187,11.04687 5.92187,11.04687 0,0 -6.52016,-3.85331 -8.31445,-6.15039 -1.79429,-2.29705 -2.23443,-4.7329 -2.73242,-6.60547 -0.49799,-1.87254 -0.57031,-4.4414 -0.57031,-4.4414 -3.36167,3.13951 -7.18628,2.92061 -10.81836,4.09961 3.48151,-2.6103 7.25396,-4.41269 10.10742,-8.76758 0,0 0.2719,-6.23663 1.16797,-9.79492 0.89606,-3.55832 2.90561,-7.39424 4.7832,-10.47656 1.87759,-3.08235 3.85192,-5.39022 6.26172,-7.97071 2.4098,-2.58049 6.25871,-4.32078 8.20117,-7.40234 1.94246,-3.08156 3.07422,-10.363282 3.07422,-10.363282 0,0 -9.16446,7.382122 -12.41406,11.044922 -3.2496,3.6628 -5.48183,7.54622 -7.28711,10.47851 -1.80528,2.93232 -3.20492,4.59153 -3.75782,6.94532 -0.55289,2.35376 0.22657,6.60547 0.22657,6.60547 0,0 -3.90595,-4.53173 -4.32617,-8.54102 -0.42024,-4.00929 1.04203,-9.01314 3.75781,-14.12109 2.71578,-5.10798 8.9899,-10.738524 13.20898,-15.146487 4.21908,-4.407966 9.28809,-6.938009 11.16016,-12.41211 1.87207,-5.474098 -0.50085,-11.771938 -1.93555,-16.96875 -1.43469,-5.196809 -2.38759,-8.02832 -5.35156,-13.095703 -2.96397,-5.067383 -13.09766,-16.513671 -13.09766,-16.513671 z m 20.21485,19.076171 c 4.66335,7.12102 7.19354,14.941723 6.71875,23.240235 4.19846,-3.969283 5.17665,-8.947291 3.58789,-13.988282 -3.4354,-5.722123 -6.87125,-6.810611 -10.30664,-9.251953 z m 14.66211,12.09961 c 0,0 0.32982,8.07384 -0.9961,11.787109 -1.17288,3.284687 -5.92187,8.625 -5.92187,8.625 0.48331,2.495094 0.4079,4.339914 0.25586,6.09375 0,0 5.94278,-5.391114 7.6582,-8.912109 1.29691,-2.661974 1.88688,-5.753675 1.73633,-8.710938 -0.15751,-3.09388 -2.73242,-8.882812 -2.73242,-8.882812 z m -19.89258,52.67969 c 0,0 -6.01691,5.0348 -8.0918,8.29297 -2.26551,3.55749 -4.4707,11.83789 -4.4707,11.83789 0,0 5.8143,-6.39871 8.05273,-10.06641 1.91531,-3.13827 4.50977,-10.06445 4.50977,-10.06445 z" />
   </g>
</svg>
