<?xml version="1.0" encoding="UTF-8" standalone="no"?>
<!-- Created with Inkscape (http://www.inkscape.org/) -->

<svg
   version="1.1"
   id="svg1"
   width="196"
   height="196"
   viewBox="0 0 196 196"
   sodipodi:docname="Abyss.svg"
   inkscape:version="1.3.2 (091e20e, 2023-11-25, custom)"
   xmlns:inkscape="http://www.inkscape.org/namespaces/inkscape"
   xmlns:sodipodi="http://sodipodi.sourceforge.net/DTD/sodipodi-0.dtd"
   xmlns="http://www.w3.org/2000/svg"
   xmlns:svg="http://www.w3.org/2000/svg">
  <defs
     id="defs1" />
  <sodipodi:namedview
     id="namedview1"
     pagecolor="#ffffff"
     bordercolor="#000000"
     borderopacity="0.25"
     inkscape:showpageshadow="2"
     inkscape:pageopacity="0.0"
     inkscape:pagecheckerboard="0"
     inkscape:deskcolor="#d1d1d1"
     showgrid="false"
     inkscape:zoom="4"
     inkscape:cx="153.875"
     inkscape:cy="65.375"
     inkscape:window-width="2560"
     inkscape:window-height="1494"
     inkscape:window-x="-11"
     inkscape:window-y="-11"
     inkscape:window-maximized="1"
     inkscape:current-layer="layer3" />
  <g
     inkscape:groupmode="layer"
     id="layer3"
     inkscape:label="Symbol"
     style="opacity:1;mix-blend-mode:normal"
     transform="matrix(1.5634359,0,0,1.5634359,-60.014622,-55.380756)">
    <path
       style="fill:#217f1a;fill-opacity:1;stroke:#d2ffcc;stroke-width:1;stroke-dasharray:none;stroke-opacity:1"
       d="m 44.413511,119.11931 c -0.479289,3.41642 -0.474785,6.83285 -0.341643,10.24927 3.12841,-0.21409 6.174053,-1.03514 9.224345,-1.82209 -0.189175,-2.59697 -0.17234,-5.24076 0.227761,-7.97165 -2.010401,-2.82995 -4.282,-5.50494 -9.110463,-0.45553 z"
       id="path8"
       sodipodi:nodetypes="ccccc" />
    <path
       style="fill:#217f1a;fill-opacity:1;stroke:#d2ffcc;stroke-width:1;stroke-dasharray:none;stroke-opacity:1"
       d="m 93.951657,152.14474 c -2.757814,3.25319 -6.370978,4.79569 -10.02151,6.26345 -6.883575,-5.28058 -13.672199,-7.14288 -20.840186,-22.66228 l -5.580159,-14.69062 c -6.098835,-2.8631 -10.346007,-2.55191 -14.34898,-1.8221 -0.426846,-1.36347 -2.939667,-2.03162 0.797165,-4.78299 -1.652439,-1.47472 -5.065177,-3.02598 -0.11388,-4.21359 -1.891712,-1.8642 -4.589407,-3.94539 1.138808,-3.75807 -2.858951,-3.21361 -3.979966,-5.55825 1.594331,-4.55523 l 16.854358,9.45211 c 5.222803,15.90705 11.288787,31.41942 30.520053,40.76932 z"
       id="path7"
       sodipodi:nodetypes="ccccccccccc" />
    <path
       style="fill:#217f1a;fill-opacity:1;stroke:#d2ffcc;stroke-width:1;stroke-dasharray:none;stroke-opacity:1"
       d="m 139.16233,147.02011 c 0.25217,2.99886 0.50163,5.99772 -1.02492,8.99658 -15.25308,0.0941 -33.01681,-2.66543 -54.321144,-10.13539 -2.916169,4.59462 -5.583839,6.45577 -8.199417,7.7439 -1.556116,-0.31337 -3.503948,-0.33294 -2.733139,-2.3915 -3.967921,-1.48212 -3.02327,-2.55486 -3.644186,-3.75807 -2.156856,-0.55559 -2.853605,-1.76011 -2.277616,-3.5303 -3.836026,-0.62591 -2.978537,-2.25757 -2.733139,-3.75807 3.490802,-0.20492 6.96453,-0.36716 11.046437,-2.04985 -1.981897,-0.46552 -4.411559,-0.78179 -4.669112,-1.8221 0.868787,-3.33048 6.199244,-1.30695 9.793748,-1.36657 18.61131,7.34282 38.664988,9.7816 58.762488,12.07137 z"
       id="path6"
       sodipodi:nodetypes="cccccccccccc"
       inkscape:label="path6" />
    <path
       style="fill:#217f1a;fill-opacity:1;stroke:#d2ffcc;stroke-width:1;stroke-dasharray:none;stroke-opacity:1"
       d="m 159.77476,109.66721 c -12.90325,9.69202 -22.65007,20.91406 -41.68037,26.98975 -3.31809,1.93947 -6.22642,2.78625 -11.2742,9.33822 1.32046,0.31486 0.42832,2.45185 6.4912,-1.13881 0.9425,1.81378 -0.25956,5.05727 -3.87194,9.90763 0.67045,0.69611 1.52112,1.21201 3.98582,0.11388 1.70821,3.05365 3.41643,0.94316 5.12464,0.34165 1.81071,2.67242 3.25973,1.0047 4.78299,0.22776 1.3921,1.76906 2.97378,1.45269 4.66912,-0.11388 0.70411,-3.99439 0.85206,-8.26687 0.34164,-12.86853 14.99008,-5.60766 27.76066,-12.90214 35.18916,-24.25661 0.10506,-3.85688 0.56885,-7.41808 -3.75806,-8.54106 z"
       id="path5"
       sodipodi:nodetypes="cccccccccccc" />
    <path
       style="fill:#217f1a;fill-opacity:1;stroke:#d2ffcc;stroke-width:1;stroke-dasharray:none;stroke-opacity:1"
       d="m 147.58951,70.378332 10.02151,-6.263444 c 0.36363,17.451069 -0.54999,34.050644 -7.40225,46.691122 6.79892,3.45439 7.59701,6.90877 11.16032,10.36316 -0.16321,1.63395 -0.37643,3.20358 -2.61926,2.16373 0.16291,1.5764 1.91448,4.21192 -2.16374,2.9609 -0.38354,1.76298 0.73694,4.91428 -3.30254,3.30255 -0.83777,2.1824 -1.64556,4.39907 -4.55523,4.21359 0.41911,-4.07318 -0.3754,-6.62932 -1.13881,-9.22435 -1.84423,-3.50975 -5.61995,-0.2593 -9.22434,2.3915 5.12452,-23.5982 8.44728,-39.835389 9.22434,-56.598758 z"
       id="path4"
       sodipodi:nodetypes="ccccccccccc" />
    <path
       style="fill:#217f1a;fill-opacity:1;stroke:#d2ffcc;stroke-width:1;stroke-dasharray:none;stroke-opacity:1"
       d="m 110.35049,45.666199 8.76882,-7.743894 c 10.80071,11.157235 24.3153,21.998896 26.76199,35.986332 4.40339,-1.398514 8.80678,-1.316797 13.21017,-0.911047 1.53312,0.728994 2.4342,1.668671 1.25269,3.302544 0.37601,1.31882 2.99037,2.824169 0.11388,3.871947 0.32691,1.998498 2.44469,4.636592 -1.13881,5.238516 2.20416,2.268742 3.27607,7.139033 0.34165,5.238517 -2.93442,-1.900516 -7.3336,-5.876481 -11.95749,-3.758066 -1.44249,3.568265 -1.53656,10.507585 -4.32747,10.704794 -5.12094,-24.024102 -15.1689,-35.294824 -33.02543,-51.929643 z"
       id="path3"
       sodipodi:nodetypes="ccccccczccc" />
    <path
       style="fill:#217f1a;fill-opacity:1;stroke:#d2ffcc;stroke-width:1;stroke-dasharray:none;stroke-opacity:1"
       d="m 66.848027,55.118305 c 16.458929,-0.07271 32.661323,1.13727 48.513223,4.099709 3.23045,2.25672 6.71871,4.384539 8.19941,7.516133 2.44552,0.319744 4.2967,0.04515 6.14957,-0.227762 l -4.66912,-6.832848 c 6.58203,-5.140883 9.91038,-5.07589 11.95749,-2.9609 2.987,-1.583747 0.089,-2.262109 -0.45553,-3.302544 0.94455,-1.830467 0.86141,-3.404015 -1.82209,-4.32747 -0.19307,-3.596433 -1.95044,-2.49994 -2.9609,-3.644185 -0.2157,-1.621756 -0.35786,-3.294983 -3.5303,-2.84702 -4.0934,2.395285 -7.99578,4.905176 -10.59092,8.199417 C 81.620866,40.45782 78.883319,45.582528 66.961908,45.893961 Z"
       id="path2"
       sodipodi:nodetypes="ccccccccccccc" />
    <path
       style="fill:#217f1a;fill-opacity:1;stroke:#d2ffcc;stroke-width:1;stroke-dasharray:none;stroke-opacity:1"
       d="M 47.032769,85.524478 C 61.550305,73.197366 78.416416,62.331652 96.570915,59.559656 c 1.130108,-0.673682 1.777961,-1.416257 0.797166,-2.391496 l -3.074782,-1.138808 c -4.451526,-5.194382 -1.690827,-8.786047 1.935974,-12.185245 -0.485642,-1.640133 -1.43427,-2.81728 -4.32747,-2.049855 -1.139292,-1.893658 -2.547487,-1.367183 -3.985828,-0.569404 -1.796677,-2.517272 -3.134241,-1.82075 -4.32747,-0.113881 -1.69153,-1.367421 -2.896138,-0.543694 -3.985828,0.797166 -0.680276,4.023788 -1.370223,8.047576 -0.569404,12.071364 -15.987892,6.827786 -29.374619,15.644697 -40.199921,26.420345 z"
       id="path1"
       sodipodi:nodetypes="cccccccccccc" />
    <path
       style="display:inline;opacity:1;mix-blend-mode:normal;fill:#217f1a;fill-opacity:1;stroke:#d2ffcc;stroke-width:1;stroke-dasharray:none;stroke-opacity:1"
       d="M 47.188168,102.26787 54.435497,81.371405 47.288232,71.007152 c 0.467364,-1.867564 0.05763,-4.140629 3.724915,-3.244621 -0.351039,-2.977439 1.339958,-2.687621 2.818406,-2.73788 -0.312786,-1.698808 0.663397,-2.762014 3.304423,-2.340136 1.399545,-2.013927 3.869305,-3.445295 3.301561,-1.409203 -1.033181,3.103783 -0.839858,5.54203 -0.163913,7.976948 4.204758,6.596176 5.953878,-1.899283 7.609696,0.68447 -0.644207,5.955911 -1.288414,5.502602 -1.932621,8.253903 -6.108044,9.488632 -7.965663,18.977265 -10.870995,28.465897 z"
       id="path9"
       sodipodi:nodetypes="cccccccccccc" />
  </g>
</svg>
