<?xml version="1.0" encoding="UTF-8" standalone="no"?>
<!-- Created with Inkscape (http://www.inkscape.org/) -->

<svg
   width="196"
   height="196"
   viewBox="0 0 51.858333 51.858333"
   version="1.1"
   id="svg1"
   inkscape:version="1.3.2 (091e20e, 2023-11-25, custom)"
   sodipodi:docname="Arbiter.svg"
   xmlns:inkscape="http://www.inkscape.org/namespaces/inkscape"
   xmlns:sodipodi="http://sodipodi.sourceforge.net/DTD/sodipodi-0.dtd"
   xmlns="http://www.w3.org/2000/svg"
   xmlns:svg="http://www.w3.org/2000/svg">
  <sodipodi:namedview
     id="namedview1"
     pagecolor="#ffffff"
     bordercolor="#000000"
     borderopacity="0.25"
     inkscape:showpageshadow="2"
     inkscape:pageopacity="0.0"
     inkscape:pagecheckerboard="0"
     inkscape:deskcolor="#d1d1d1"
     inkscape:document-units="mm"
     inkscape:zoom="4.3331089"
     inkscape:cx="114.23669"
     inkscape:cy="103.27458"
     inkscape:window-width="2560"
     inkscape:window-height="1494"
     inkscape:window-x="-11"
     inkscape:window-y="-11"
     inkscape:window-maximized="1"
     inkscape:current-layer="layer1" />
  <defs
     id="defs1">
    <pattern
       id="EMFhbasepattern"
       patternUnits="userSpaceOnUse"
       width="6"
       height="6"
       x="0"
       y="0" />
  </defs>
  <g
     inkscape:label="Ebene 1"
     inkscape:groupmode="layer"
     id="layer1">
    <path
       id="path26"
       style="fill:none;stroke:#ff71fc;stroke-width:0.79375;stroke-linecap:round;stroke-miterlimit:0;stroke-dasharray:none;stroke-dashoffset:2.26667;stroke-opacity:1;paint-order:stroke markers fill"
       d="m 30.463852,25.467029 a 4.5402354,3.6506988 0 0 1 -4.361119,3.788819 4.5402354,3.6506988 0 0 1 -4.712546,-3.506212 4.5402354,3.6506988 0 0 1 4.359967,-3.789679 4.5402354,3.6506988 0 0 1 4.713613,3.505286 m 7.462627,0.190187 c 0,0 -0.01813,-0.527474 -0.115211,-0.675389 -0.106418,-0.162137 -0.31816,-0.313312 -0.503455,-0.370567 -0.247357,-0.07643 -0.46974,-0.123444 -0.725274,-0.106133 -0.181875,0.01233 -0.536067,0.282709 -0.536067,0.282709 0,0 0.280776,-0.604133 0.515099,-0.739744 0.24885,-0.144017 0.515087,-0.195574 0.79845,-0.244268 0.231255,-0.03973 0.510857,-0.01209 0.74547,-0.01585 0.58904,-0.0095 1.172693,0.147273 1.74176,0.299658 0.556179,0.148934 1.62088,0.597012 1.62088,0.597012 h 10.061307 c 0.07263,0.303936 0.107661,0.51431 0.09883,0.925032 M 27.266158,19.311137 27.287131,4.8936082 c 0,0 0.211753,-0.65252 0.377385,-0.9504527 0.137972,-0.2481776 0.316506,-0.4739025 0.506544,-0.684885 0.08774,-0.097422 0.227569,-0.1707787 0.260509,-0.2976888 0.01479,-0.057043 0.01589,-0.094407 -0.02628,-0.1356057 C 28.100106,2.5266079 27.541697,2.4386449 27.124935,2.3907612 26.708864,2.3429567 25.929153,2.34975 25.929153,2.34975 m 0,16.332411 c 0,0 0.622544,0.103647 0.889716,0.258578 0.165321,0.09587 0.324242,0.224159 0.447269,0.370398 0.152241,0.180959 0.280142,0.393663 0.363409,0.614998 0.07701,0.204692 0.08078,0.651097 0.08078,0.651097 m 7.422435,5.030653 c -0.987939,-0.33599 -1.94019,-0.786194 -2.797004,-1.541811 -1.077592,-0.912771 -1.733336,-1.006649 -2.372013,-1.067407 0.416888,-1.721816 1.077811,-3.280944 1.808661,-4.793451 -1.344749,0.799948 -2.691431,1.597966 -4.062079,2.372016 -0.477189,0.261006 -0.990055,0.489305 -1.779014,0.464521 M 29.595019,13.651317 27.278382,10.88816 29.97772,9.5829739 m 0.790117,3.4618131 v -2.283621 m 2.857944,3.210662 c 0,0 1.249135,-1.027194 1.502928,-1.754144 0.29649,-0.849236 0.269763,-1.876184 -0.09883,-2.6966975 C 34.664844,8.7084073 33.878629,8.1038706 33.098365,7.6740861 31.629543,6.8650321 28.216589,6.4590593 28.216589,6.4590593 m 7.645226,9.6611537 c -0.03732,-0.989506 0.715745,-1.822662 1.682075,-1.860989 0.966329,-0.03833 1.780067,0.732683 1.817616,1.722177 0.03755,0.989494 -0.715307,1.82284 -1.681628,1.86141 -0.96632,0.03857 -1.780241,-0.732237 -1.818027,-1.721721 m 9.519998,5.790402 c 0.149421,0.789486 0.32366,1.514444 0.293921,2.769736 m -4.844698,-5.128047 c -0.741142,1.203457 -1.867157,2.055843 -3.116927,2.777041 m 7.667722,-0.41873 c -2.213826,-0.854881 -4.464318,-1.653239 -5.80875,-3.848437 m -2.99812,1.422797 c 1.765349,-0.354352 2.328765,-0.769105 2.99812,-1.422797 0.950167,-0.92793 0.805992,-2.395726 0.847282,-3.583883 m 4.961468,7.43232 c 0,0 -0.77229,-3.018122 -1.62088,-4.289397 -0.848813,-1.271619 -2.060161,-2.307456 -3.340588,-3.142923 -1.025055,-0.668838 -2.180725,-1.190424 -3.380126,-1.434385 -0.781264,-0.158909 -2.391784,0 -2.391784,0 m 1.397894,11.741264 c 0.05391,-0.03234 -0.279523,-2.622482 -0.648664,-3.881116 -0.434056,-1.479981 -1.039163,-2.924405 -1.822976,-4.252705 -0.774305,-1.312178 -2.72248,-3.757498 -2.806887,-3.607443 0,-0.01175 -1.30384,0.467013 -1.759245,1.186009 -0.372825,0.588616 -0.675962,1.224467 -0.761023,1.956915 -0.0672,0.578506 0.329703,1.588817 0.395334,1.690062 0.377477,0.582298 0.66605,1.272675 1.260306,1.433912 m 8.202174,4.474499 c 0,0 -0.232352,-0.979208 -0.391257,-1.455962 -0.322953,-0.968929 -0.707787,-1.918599 -1.139148,-2.84437 C 35.694658,17.59649 34.82174,15.678995 33.625798,13.971828 32.843033,12.854453 31.734972,11.998454 30.893251,10.92479 30.559185,10.498668 30.263541,10.042863 29.977741,9.5829739 29.346783,8.5676766 28.717619,7.544383 28.216611,6.4590597 27.903334,5.7804152 27.475819,4.4183816 27.475819,4.4183816 M 13.931935,25.65543 c 0,0 0.01813,-0.527474 0.115211,-0.675388 0.106419,-0.162137 0.318159,-0.313311 0.503453,-0.370568 0.247361,-0.07643 0.46974,-0.123443 0.725276,-0.106133 0.181875,0.01233 0.536065,0.282709 0.536065,0.282709 0,0 -0.280777,-0.604133 -0.515099,-0.739742 -0.248848,-0.144018 -0.515087,-0.195575 -0.79845,-0.24427 -0.231255,-0.03973 -0.510855,-0.01209 -0.745468,-0.01585 -0.589041,-0.0095 -1.172694,0.147272 -1.74176,0.299657 -0.556181,0.148934 -1.620878,0.597013 -1.620878,0.597013 H 0.32897914 c -0.0726244,0.303936 -0.10766283,0.51431 -0.0988341,0.925031 M 24.592171,19.311139 24.571201,4.8936107 c 0,0 -0.211752,-0.6525199 -0.377385,-0.9504527 C 24.055841,3.6949785 23.877308,3.4692534 23.68727,3.258271 23.599527,3.1608489 23.459698,3.0874922 23.426759,2.9605822 c -0.01481,-0.057043 -0.01587,-0.094407 0.02626,-0.1356057 0.305179,-0.2983682 0.863586,-0.3863311 1.280349,-0.4342148 0.416072,-0.047805 1.195781,-0.041011 1.195781,-0.041011 m 0,16.3324103 c 0,0 -0.622542,0.103647 -0.889712,0.258579 -0.165322,0.09587 -0.324242,0.224159 -0.447272,0.370397 -0.15224,0.18096 -0.280142,0.393663 -0.363409,0.614998 -0.07701,0.204692 -0.08078,0.651098 -0.08078,0.651098 m -7.422428,5.030653 c 0.987942,-0.33599 1.940194,-0.786194 2.797003,-1.541812 1.077596,-0.91277 1.733337,-1.006649 2.372017,-1.067407 -0.416891,-1.721815 -1.077813,-3.280944 -1.808664,-4.793451 1.34475,0.799949 2.691432,1.597967 4.062079,2.372016 0.477188,0.261007 0.990057,0.489305 1.779014,0.464521 M 22.263283,13.651317 24.579921,10.88816 21.880585,9.5829739 M 21.09047,13.044788 v -2.283622 m -2.857947,3.210663 c 0,0 -1.249133,-1.027195 -1.502928,-1.754145 -0.296488,-0.849235 -0.269763,-1.876184 0.09883,-2.6966975 0.365032,-0.8125781 1.151245,-1.4171149 1.931513,-1.8469002 1.46882,-0.8090529 4.881775,-1.2150268 4.881775,-1.2150268 m -7.645228,9.6611535 c 0.03732,-0.989504 -0.715745,-1.82266 -1.682073,-1.860988 -0.966329,-0.03833 -1.780068,0.732682 -1.817618,1.722176 -0.03755,0.989495 0.715309,1.82284 1.68163,1.86141 0.966319,0.03857 1.780243,-0.732236 1.818028,-1.721721 M 6.4764615,21.911493 C 6.3270411,22.700978 6.1528032,23.425937 6.1825392,24.681228 M 11.02726,19.553182 c 0.74114,1.203457 1.867154,2.055843 3.116925,2.777041 m -7.6677256,-0.41873 c 2.213827,-0.854882 4.4643166,-1.653239 5.8087496,-3.848437 m 2.998119,1.422797 C 13.51798,19.131501 12.954565,18.716748 12.285209,18.063056 11.335042,17.135125 11.479217,15.66733 11.437928,14.479172 m -4.9614686,7.432321 c 0,0 0.7722916,-3.018122 1.6208781,-4.289398 0.848817,-1.271619 2.0601625,-2.307456 3.3405905,-3.142923 1.025053,-0.668836 2.180725,-1.190424 3.380125,-1.434384 0.781265,-0.158909 2.391784,0 2.391784,0 M 15.81194,24.786051 c -0.05391,-0.03234 0.279525,-2.622481 0.648665,-3.881116 0.434058,-1.47998 1.039161,-2.924404 1.822977,-4.252704 0.774305,-1.312179 2.722481,-3.757499 2.806889,-3.607443 0,-0.01175 1.303837,0.467012 1.759245,1.186009 0.372824,0.588616 0.675958,1.224466 0.761022,1.956914 0.06719,0.578506 -0.329704,1.588818 -0.395336,1.690063 -0.377476,0.582297 -0.666049,1.272674 -1.260305,1.433911 m -8.202174,4.474499 c 0,0 0.232351,-0.979207 0.391257,-1.455961 0.322952,-0.968929 0.707787,-1.9186 1.139146,-2.84437 0.88034,-1.889363 1.753257,-3.806857 2.949198,-5.514024 0.78277,-1.117376 1.89083,-1.973374 2.732552,-3.047039 0.334067,-0.426122 0.62971,-0.881925 0.91551,-1.3418161 C 22.511543,8.5676776 23.14071,7.5443841 23.641718,6.4590597 23.954994,5.7804156 24.382512,4.418382 24.382512,4.418382 m 13.543882,21.14196 c 0,0 -0.01813,0.527473 -0.115211,0.675388 -0.106418,0.162137 -0.31816,0.313311 -0.503455,0.370568 -0.247357,0.07643 -0.46974,0.123443 -0.725274,0.106133 -0.181875,-0.01233 -0.536067,-0.282709 -0.536067,-0.282709 0,0 0.280776,0.604133 0.515099,0.739742 0.24885,0.144017 0.515087,0.195575 0.79845,0.24427 0.231255,0.03973 0.510857,0.01209 0.74547,0.01586 0.58904,0.0095 1.172693,-0.147272 1.74176,-0.299657 0.556179,-0.148934 1.62088,-0.597013 1.62088,-0.597013 h 10.061307 c 0.07263,-0.303935 0.107661,-0.51431 0.09883,-0.925031 m -24.362028,6.29675 0.02097,14.417529 c 0,0 0.211753,0.652519 0.377385,0.950452 0.137971,0.248177 0.316505,0.473902 0.506542,0.684886 0.08774,0.09742 0.227571,0.170779 0.26051,0.297689 0.01478,0.05704 0.01589,0.0944 -0.02628,0.135604 -0.30518,0.298367 -0.863588,0.386332 -1.28035,0.434213 -0.41607,0.0478 -1.195781,0.04102 -1.195781,0.04102 m 0,-16.332409 c 0,0 0.622544,-0.103647 0.889714,-0.258581 0.165321,-0.09587 0.324242,-0.224156 0.447271,-0.370396 0.152241,-0.180958 0.28014,-0.393663 0.363408,-0.614998 0.07701,-0.204692 0.08078,-0.651097 0.08078,-0.651097 m 7.422435,-5.030653 c -0.987939,0.335991 -1.94019,0.786194 -2.797003,1.54181 -1.077592,0.912772 -1.733337,1.00665 -2.372015,1.067408 0.41689,1.721817 1.077814,3.280943 1.808662,4.793452 -1.34475,-0.799949 -2.691432,-1.597966 -4.062079,-2.372017 -0.477189,-0.261005 -0.990055,-0.489304 -1.779015,-0.46452 m 3.663714,7.390435 -2.316575,2.791214 2.699275,1.277129 M 30.767842,38.171 v 2.283621 m 2.857942,-3.210661 c 0,0 1.249136,1.027194 1.502928,1.754144 0.296491,0.849233 0.269763,1.876184 -0.09883,2.696697 -0.365033,0.812579 -1.151246,1.417115 -1.93151,1.8469 -1.468822,0.809054 -4.881778,1.215028 -4.881778,1.215028 M 35.86182,35.09557 c -0.03732,0.989504 0.715746,1.822661 1.682076,1.860988 0.966328,0.03833 1.780066,-0.732683 1.817615,-1.722177 0.03755,-0.989495 -0.715308,-1.822839 -1.681628,-1.861409 -0.96632,-0.03857 -1.78024,0.732237 -1.818027,1.721721 m 9.519999,-5.790403 c 0.149419,-0.789485 0.323659,-1.514445 0.29392,-2.769736 m -4.844698,5.128047 c -0.741143,-1.203468 -1.867158,-2.055854 -3.116928,-2.777052 m 7.667723,0.41873 c -2.213827,0.854882 -4.464319,1.653239 -5.80875,3.848437 m -2.998121,-1.422797 c 1.76535,0.354351 2.328765,0.769104 2.998121,1.422797 0.950166,0.927931 0.805992,2.395725 0.847282,3.583884 m 4.961468,-7.432321 c 0,0 -0.77229,3.018122 -1.62088,4.289398 -0.848814,1.271618 -2.060161,2.307456 -3.340588,3.142923 -1.025054,0.668836 -2.180726,1.190424 -3.380127,1.434382 -0.781263,0.158911 -2.391783,0 -2.391783,0 m 1.397893,-11.741261 c 0.05391,0.03234 -0.279523,2.62248 -0.648662,3.881116 -0.434058,1.47998 -1.039164,2.924403 -1.822977,4.252703 -0.774306,1.31218 -2.722481,3.757499 -2.806888,3.607442 0,0.01176 -1.30384,-0.467011 -1.759245,-1.186007 -0.372826,-0.588616 -0.675962,-1.224467 -0.761024,-1.956914 -0.0672,-0.578506 0.329704,-1.588818 0.395336,-1.690063 0.377476,-0.582297 0.66605,-1.272675 1.260305,-1.433911 m 8.202174,-4.474499 c 0,0 -0.232352,0.979207 -0.391257,1.455961 -0.322952,0.968929 -0.707787,1.9186 -1.139148,2.84437 -0.880339,1.889362 -1.753256,3.806857 -2.949199,5.514023 -0.782764,1.117377 -1.890825,1.973375 -2.732547,3.04704 -0.33407,0.426122 -0.629714,0.881925 -0.915514,1.341816 -0.630958,1.015296 -1.260122,2.03859 -1.761131,3.123913 -0.313276,0.678645 -0.740792,2.040679 -0.740792,2.040679 M 13.931935,25.560342 c 0,0 0.01813,0.527472 0.115211,0.675388 0.106419,0.162137 0.318159,0.313311 0.503453,0.370568 0.247361,0.07643 0.46974,0.123443 0.725276,0.106133 0.181875,-0.01233 0.536065,-0.282709 0.536065,-0.282709 0,0 -0.280777,0.604133 -0.515099,0.739743 -0.248848,0.144018 -0.515087,0.195575 -0.79845,0.244269 -0.231255,0.03973 -0.510855,0.01209 -0.745468,0.01586 -0.589041,0.0095 -1.172694,-0.147273 -1.74176,-0.299657 C 11.454982,26.981 10.390285,26.532922 10.390285,26.532922 H 0.32897914 C 0.25635478,26.228981 0.22131599,26.018606 0.23014458,25.607884 m 24.36202642,6.29675 -0.02097,14.417529 c 0,0 -0.211752,0.652521 -0.377385,0.950453 -0.137971,0.248178 -0.316504,0.473902 -0.506542,0.684886 -0.08775,0.09742 -0.227573,0.170779 -0.260511,0.297689 -0.01481,0.05704 -0.01587,0.0944 0.02626,0.135605 0.305179,0.298366 0.863586,0.386331 1.28035,0.434213 0.416071,0.0478 1.19578,0.04102 1.19578,0.04102 m -1e-6,-16.332409 c 0,0 -0.62254,-0.103646 -0.889711,-0.25858 -0.165322,-0.09587 -0.324242,-0.224158 -0.447272,-0.370396 -0.152239,-0.180959 -0.280143,-0.393663 -0.363409,-0.615 -0.07701,-0.204691 -0.08078,-0.651097 -0.08078,-0.651097 m -7.422423,-5.030664 c 0.987943,0.335991 1.940194,0.786195 2.797004,1.54181 1.077595,0.912773 1.733337,1.006651 2.372017,1.067409 -0.416891,1.721815 -1.077813,3.280943 -1.808664,4.793451 1.34475,-0.799948 2.691431,-1.597966 4.062079,-2.372017 0.477188,-0.261005 0.990056,-0.489303 1.779013,-0.46452 m -3.663713,7.390436 2.316638,2.763157 -2.699337,1.305186 m -0.790123,-3.461814 v 2.283623 m -2.857947,-3.210663 c 0,0 -1.249133,1.027195 -1.502928,1.754145 -0.296488,0.849235 -0.269763,1.876184 0.09883,2.696697 0.365032,0.812579 1.151245,1.417116 1.931513,1.846901 1.468821,0.809054 4.881775,1.215026 4.881775,1.215026 M 15.99649,35.095558 c 0.03732,0.989505 -0.715743,1.82266 -1.682072,1.860989 -0.96633,0.03833 -1.780069,-0.732683 -1.817619,-1.722178 -0.03754,-0.989493 0.715309,-1.822839 1.68163,-1.86141 0.966319,-0.03856 1.780243,0.732238 1.818028,1.721721 M 6.4764571,29.304279 C 6.3270368,28.514793 6.1527989,27.789834 6.1825348,26.534543 m 4.8447192,5.128047 c 0.741141,-1.203457 1.867156,-2.055843 3.116926,-2.777041 m -7.6677229,0.41873 c 2.2138272,0.854881 4.4643169,1.653239 5.8087499,3.848437 m 2.998119,-1.422797 c -1.765348,0.354351 -2.328763,0.769104 -2.998119,1.422797 -0.950167,0.927931 -0.805992,2.395725 -0.847281,3.583883 m -4.9614689,-7.43232 c 0,0 0.7722917,3.018122 1.6208783,4.289398 0.848817,1.271617 2.0601626,2.307455 3.3405906,3.142922 1.025053,0.668837 2.180725,1.190424 3.380125,1.434383 0.781264,0.158911 2.391784,0 2.391784,0 M 15.81194,26.42972 c -0.05391,0.03234 0.279525,2.622481 0.648665,3.881116 0.434058,1.479981 1.039161,2.924404 1.822977,4.252704 0.774305,1.31218 2.722481,3.757498 2.806889,3.607442 0,0.01176 1.303837,-0.467011 1.759245,-1.186007 0.372824,-0.588616 0.675958,-1.224467 0.761022,-1.956915 0.06719,-0.578506 -0.329704,-1.588817 -0.395336,-1.690062 -0.377476,-0.582299 -0.66605,-1.272675 -1.260305,-1.433912 m -8.202174,-4.474499 c 0,0 0.232351,0.979208 0.391257,1.455962 0.322952,0.968929 0.707787,1.918599 1.139146,2.84437 0.88034,1.889361 1.753257,3.806857 2.949198,5.514023 0.78277,1.117376 1.89083,1.973375 2.732552,3.04704 0.334067,0.426121 0.62971,0.881925 0.91551,1.341815 0.630957,1.015297 1.260124,2.038591 1.761132,3.123914 0.313276,0.678645 0.740794,2.040678 0.740794,2.040678"
       inkscape:label="path26" />
  </g>
</svg>
