<?xml version="1.0" encoding="UTF-8" standalone="no"?>
<!-- Created with Inkscape (http://www.inkscape.org/) -->

<svg version="1.1" id="svg1" width="196" height="196" viewBox="0 0 196 196" sodipodi:docname="Delirium.svg" inkscape:version="1.3.2 (091e20e, 2023-11-25, custom)"
   xmlns:inkscape="http://www.inkscape.org/namespaces/inkscape"
   xmlns:sodipodi="http://sodipodi.sourceforge.net/DTD/sodipodi-0.dtd"
   xmlns="http://www.w3.org/2000/svg"
   xmlns:svg="http://www.w3.org/2000/svg">
   <defs id="defs1" />
   <sodipodi:namedview id="namedview1" pagecolor="#ffffff" bordercolor="#000000" borderopacity="0.25" inkscape:showpageshadow="2" inkscape:pageopacity="0.0" inkscape:pagecheckerboard="0" inkscape:deskcolor="#d1d1d1" inkscape:zoom="4.3905559" inkscape:cx="101.46779" inkscape:cy="75.502968" inkscape:window-width="2560" inkscape:window-height="1494" inkscape:window-x="-11" inkscape:window-y="-11" inkscape:window-maximized="1" inkscape:current-layer="g1" />
   <g inkscape:groupmode="layer" inkscape:label="Image" id="g1" style="display:inline" transform="matrix(1.4816872,0,0,1.4816872,-51.262019,-51.644486)">
      <rect style="display:inline;fill:#494d50;fill-opacity:1;stroke:none;stroke-width:0.204083;stroke-linejoin:round;stroke-dasharray:none;stroke-dashoffset:2.26667;stroke-opacity:1" id="rect1" width="0.8615762" height="20.471397" x="100.30708" y="145.9129" ry="0.031519599" />
      <path id="path1" style="display:inline;fill:#494d50;fill-opacity:1;stroke:#e0e6eb;stroke-width:1;stroke-linejoin:round;stroke-dasharray:none;stroke-dashoffset:2.26667;stroke-opacity:1;paint-order:markers fill stroke" d="m 100.81841,145.9129 c 0,0 -4.513462,-5.49237 -7.730489,-6.44207 -1.711515,-0.50526 -4.105909,1.95698 -5.314708,0.64421 -1.262312,-1.37089 0.01019,-3.98422 1.127362,-5.47576 2.058761,-2.74868 5.151723,-1.63839 6.764174,-4.67051 2.281151,-4.28956 1.652827,-9.83708 0.805259,-14.65571 -0.687502,-3.90862 -4.312487,-6.99908 -4.670501,-10.95152 -0.41708,-4.604515 1.36894,-14.212814 1.36894,-14.212814 0,0 -5.155498,4.684423 -6.200493,7.851274 -1.085565,3.2898 -0.09851,6.94919 0.322104,10.38784 0.680126,5.56024 5.596344,11.21545 3.543138,16.42728 -0.551307,1.39943 -2.214421,2.78403 -3.70419,2.57683 -1.370848,-0.19066 -1.727233,-0.51331 -2.632093,-3.21127 -0.90486,-2.69796 0.983775,-8.63074 0.509111,-12.91178 -0.317674,-2.86513 -0.566562,-6.47032 -2.225416,-8.35682 -1.658854,-1.8865 -3.182449,-3.214172 -5.945793,-2.43364 -2.283697,0.64505 -4.68574,3.42921 -6.455193,5.01047 -1.544629,1.38035 -3.456358,3.06537 -4.546013,2.99327 -1.861162,-0.12314 -7.776799,1.20739 -8.829376,-1.63815 -0.616667,-1.6671 2.135611,-2.07508 2.344875,-4.53624 0.480686,-5.653362 -5.868101,-10.018537 -7.329387,-15.500888 -0.765118,-2.870519 -1.550774,-5.781138 0.43347,-8.901666 1.534016,-2.412476 5.892256,-3.714396 7.086278,-6.312003 0.609098,-1.325099 0.256533,-3.587841 0.854943,-4.917802 1.298572,-2.886065 4.154705,-5.283284 7.757279,-5.474083 2.114662,-0.111996 3.202944,3.022327 5.304939,2.765512 3.579806,-0.437369 6.622084,-5.238747 8.840823,-8.081897 2.430623,-3.114664 4.64147,-6.077551 5.985709,-10.229996 0.961246,-2.96935 0.01786,-8.771598 0.01786,-8.771598 0,0 -5.621021,13.487608 -11.984541,15.819637 -3.643191,1.335115 -5.621644,-3.992659 -9.480001,-3.582217 -3.70039,0.393638 -7.229351,2.491989 -9.985209,4.992605 -2.018607,1.831647 -2.257661,5.176364 -4.348398,6.925226 -1.456804,1.218589 -3.485483,2.852402 -5.526871,3.732657 -2.724476,1.174805 -6.855422,0.616856 -8.685947,1.944417 -2.431768,1.763603 -2.145488,3.370577 -2.979458,6.683649 -1.683211,6.68681 4.459374,12.504024 5.113393,19.044371 0.594098,5.941122 -1.50053,12.621856 0.523419,18.239116 1.673587,4.64486 4.432951,8.53128 8.49548,10.4281 1.938366,0.90503 4.788737,-0.45465 7.168922,-0.22897 2.053392,0.19468 3.745361,0.93697 6.037323,1.35633 0,0 0.0068,3.8e-4 0.01022,4.3e-4 3.564727,0.0574 8.151703,-4.24258 10.619199,-4.3e-4 1.183033,2.03388 3.372032,3.93295 3.221035,6.28102 -0.267568,4.16082 -6.353007,6.20288 -7.086278,10.30731 -0.613688,3.43507 0.635815,7.24647 2.576829,10.14626 1.600602,2.39123 4.228223,4.15063 6.925226,5.15366 3.480966,1.29459 6.39812,-0.92864 9.703369,0.765 4.545086,2.32894 12.119146,11.63599 12.119146,11.63599 m 0.11761,-20.61463 c 0,0 4.31535,-5.49237 7.53237,-6.44207 1.71152,-0.50526 4.10591,1.95698 5.31471,0.64421 1.26232,-1.37089 -0.0102,-3.98422 -1.12736,-5.47576 -2.05876,-2.74868 -5.15172,-1.63839 -6.76417,-4.67051 -2.28115,-4.28956 -1.65283,-9.83708 -0.80526,-14.65571 0.6875,-3.90862 4.31249,-6.99908 4.6705,-10.95152 0.41708,-4.60451 -1.36894,-14.21281 -1.36894,-14.21281 0,0 5.1555,4.68442 6.20049,7.85127 1.08557,3.2898 0.0985,6.94919 -0.3221,10.38784 -0.68013,5.56024 -5.59635,11.21545 -3.54314,16.42728 0.55131,1.39943 2.21442,2.78403 3.70419,2.57683 1.37085,-0.19066 1.72723,-0.51331 2.63209,-3.21127 0.90486,-2.69796 -0.98377,-8.63074 -0.50911,-12.91178 0.31768,-2.86513 0.56656,-6.47032 2.22542,-8.35682 1.65885,-1.8865 3.18245,-3.21417 5.94579,-2.43364 2.2837,0.64505 4.68574,3.42921 6.45519,5.01047 1.54463,1.38035 3.45636,3.06537 4.54602,2.99327 1.86116,-0.12314 7.7768,1.20739 8.82937,-1.63815 0.61667,-1.6671 -2.13561,-2.07508 -2.34487,-4.53624 -0.48069,-5.65336 5.8681,-10.01853 7.32938,-15.50088 0.76512,-2.870522 1.55078,-5.781141 -0.43347,-8.901669 -1.53401,-2.412476 -5.89225,-3.714396 -7.08627,-6.312003 -0.6091,-1.325099 -0.25654,-3.587841 -0.85495,-4.917802 -1.29857,-2.886065 -4.1547,-5.283284 -7.75728,-5.474083 -2.11466,-0.111996 -3.20294,3.022327 -5.30493,2.765512 -3.57981,-0.437369 -6.62209,-5.238747 -8.84083,-8.081897 -2.43062,-3.114664 -4.64147,-6.077551 -5.98571,-10.229996 -0.96124,-2.96935 -0.0179,-8.771598 -0.0179,-8.771598 0,0 5.62102,13.487608 11.98454,15.819637 3.6432,1.335115 5.62165,-3.992659 9.48001,-3.582217 3.70039,0.393638 7.22935,2.491989 9.9852,4.992605 2.01861,1.831647 2.25767,5.176364 4.3484,6.925226 1.45681,1.218589 3.48549,2.852402 5.52687,3.732657 2.72448,1.174805 6.85543,0.616856 8.68595,1.944417 2.43177,1.763603 2.14549,3.370577 2.97946,6.683649 1.68321,6.68681 -4.45938,12.504022 -5.11339,19.044372 -0.5941,5.94112 1.50053,12.62185 -0.52342,18.23911 -1.67359,4.64486 -4.43295,8.53128 -8.49548,10.4281 -1.93837,0.90503 -4.78874,-0.45465 -7.16893,-0.22897 -2.05339,0.19468 -3.74536,0.93697 -6.03732,1.35633 0,0 -0.007,3.8e-4 -0.0102,4.3e-4 -3.56473,0.0574 -8.1517,-4.24258 -10.6192,-4.3e-4 -1.18303,2.03388 -3.37203,3.93295 -3.22103,6.28102 0.26757,4.16082 6.353,6.20288 7.08628,10.30731 0.61368,3.43507 -0.63582,7.24647 -2.57683,10.14626 -1.60061,2.39123 -4.22823,4.15063 -6.92523,5.15366 -3.48097,1.29459 -6.39812,-0.92864 -9.70337,0.765 -4.54508,2.32894 -12.11914,11.63599 -12.11914,11.63599" sodipodi:nodetypes="csssssscsssssssssssssssssssscsssssssssssccssssssccsssssscsssssssssssssssssssscsssssssssssccssssssc" />
   </g>
</svg>
