<?xml version="1.0" encoding="UTF-8" standalone="no"?>
<!-- Created with Inkscape (http://www.inkscape.org/) -->

<svg version="1.1" id="svg1" width="196" height="196" viewBox="0 0 196 196" sodipodi:docname="Delve.svg" inkscape:version="1.3.2 (091e20e, 2023-11-25, custom)"
   xmlns:inkscape="http://www.inkscape.org/namespaces/inkscape"
   xmlns:sodipodi="http://sodipodi.sourceforge.net/DTD/sodipodi-0.dtd"
   xmlns="http://www.w3.org/2000/svg"
   xmlns:svg="http://www.w3.org/2000/svg">
   <defs id="defs1" />
   <sodipodi:namedview id="namedview1" pagecolor="#ffffff" bordercolor="#000000" borderopacity="0.25" inkscape:showpageshadow="2" inkscape:pageopacity="0.0" inkscape:pagecheckerboard="0" inkscape:deskcolor="#d1d1d1" inkscape:zoom="4.3905559" inkscape:cx="2.3914967" inkscape:cy="159.54699" inkscape:window-width="2560" inkscape:window-height="1494" inkscape:window-x="-11" inkscape:window-y="-11" inkscape:window-maximized="1" inkscape:current-layer="g1" />
   <g inkscape:groupmode="layer" inkscape:label="Image" id="g1" transform="matrix(1.5517081,0,0,1.5517081,-52.302589,-40.160538)">
      <path id="path5" style="fill:#3a555f;fill-opacity:1;stroke:#d7e7f3;stroke-width:1;stroke-linejoin:round;stroke-dasharray:none;stroke-dashoffset:2.26667;stroke-opacity:1;paint-order:markers fill stroke" d="m 85.296717,116.67088 -25.295773,21.737 c 0,0 -1.846984,-0.97905 -2.889725,-0.78294 -0.854182,0.16065 -2.220675,1.36657 -2.220675,1.36657 0,0 -0.541071,1.1854 -0.597875,1.8221 -0.06386,0.71585 0.298937,2.13526 0.298937,2.13526 l -2.377261,2.47691 2.277616,2.61926 2.106795,-1.59434 c 0,0 1.372212,0.92292 2.163735,1.02493 0.708732,0.0913 1.472468,-0.0675 2.106795,-0.3965 0.798719,-0.41433 1.585674,-1.05231 1.935973,-1.88111 0.332514,-0.78672 -0.227762,-2.46267 -0.227762,-2.46267 l 22.71922,-17.69424 z m -12.128305,-42.933064 -5.067696,6.548145 10.192332,7.630014 4.896874,-6.035682 z M 48.235004,146.87921 c 0,0 -1.911719,-8.54005 -2.33525,-12.88414 -0.518381,-5.31695 -1.429732,-10.8163 -0.241578,-16.02465 1.52181,-6.67095 5.712595,-12.46118 9.179951,-18.359902 2.025995,-3.446656 6.764174,-9.904684 6.764174,-9.904684 l -3.583402,-5.556286 9.30074,-0.905916 9.018898,7.347987 -0.885784,2.093673 9.843964,7.811008 v 6.36155 L 70.701726,96.389482 c 0,0 -2.851308,3.860798 -4.267872,5.797868 -2.291392,3.13335 -4.927412,6.04627 -6.8447,9.42152 -2.221293,3.91043 -3.779254,8.17393 -5.314709,12.40099 -1.751177,4.82093 -3.191167,9.75869 -4.428923,14.73624 -0.666927,2.682 -1.610518,8.13311 -1.610518,8.13311 z m 24.238291,-6.44207 12.884141,11.75678 H 113.8636 l 11.27362,-11.75678 h -18.3599 V 65 h -5.53615 l -0.0604,-7.021364 H 95.825801 V 65 h -6.281019 v 75.43714 z m 38.957865,-23.76626 25.29577,21.737 c 0,0 1.84699,-0.97905 2.88973,-0.78294 0.85418,0.16065 2.22067,1.36657 2.22067,1.36657 0,0 0.54107,1.1854 0.59788,1.8221 0.0639,0.71585 -0.29894,2.13526 -0.29894,2.13526 l 2.37726,2.47691 -2.27761,2.61926 -2.1068,-1.59434 c 0,0 -1.37221,0.92292 -2.16373,1.02493 -0.70874,0.0913 -1.47247,-0.0675 -2.1068,-0.3965 -0.79872,-0.41433 -1.58567,-1.05231 -1.93597,-1.88111 -0.33252,-0.78672 0.22776,-2.46267 0.22776,-2.46267 l -22.71922,-17.69424 z m 12.1283,-42.933066 5.0677,6.548145 -10.19233,7.630014 -4.89687,-6.035682 z m 24.93341,73.141396 c 0,0 1.91172,-8.54005 2.33525,-12.88414 0.51838,-5.31695 1.42973,-10.8163 0.24158,-16.02465 -1.52181,-6.67095 -5.71259,-12.46118 -9.17995,-18.359908 -2.026,-3.44665 -6.76417,-9.90468 -6.76417,-9.90468 l 3.5834,-5.556286 -9.30074,-0.905916 -9.0189,7.347987 0.88578,2.093673 -9.84396,7.81101 v 6.36155 l 14.59499,-10.468368 c 0,0 2.85131,3.860798 4.26787,5.797868 2.29139,3.13335 4.92741,6.04627 6.8447,9.42152 2.2213,3.91043 3.77926,8.17393 5.31471,12.40099 1.75118,4.82093 3.19117,9.75869 4.42892,14.73624 0.66693,2.682 1.61052,8.13311 1.61052,8.13311 z" inkscape:label="Body" sodipodi:nodetypes="ccscsccccccscccccccccsssccccccccssssccccccccccccccccscsccccccscccccccccsssccccccccssssc" />
      <path style="fill:#3a555f;fill-opacity:0.664011;stroke:#d7e7f3;stroke-width:1;stroke-linejoin:round;stroke-dasharray:none;stroke-dashoffset:2.26667;stroke-opacity:1;paint-order:markers fill stroke" d="m 96.182699,60.205539 c -1.259442,-0.2821 -2.496427,-0.916896 -3.416424,-1.822092 -1.423159,-1.400263 -2.60956,-3.263816 -2.903961,-5.238517 -0.429259,-2.879262 0.787457,-5.820041 1.822093,-8.54106 1.598123,-4.202949 4.010033,-8.09851 6.662027,-11.729722 1.766596,-2.418894 6.092626,-6.605086 6.092626,-6.605086 0,0 -1.57126,5.450877 -1.65127,8.256358 -0.0503,1.762802 0.14278,3.57928 0.74022,5.238516 0.52824,1.467058 1.89734,2.527203 2.44844,3.985828 0.51062,1.35149 0.9384,2.839451 0.74022,4.27053 -0.13858,1.000684 -1.39231,1.726295 -1.30962,2.733139 0.11378,1.385427 2.18233,2.042158 2.39149,3.416424 0.20682,1.358938 -0.45628,2.808525 -1.25269,3.928888 -0.54984,0.773491 -1.38497,1.38603 -2.27761,1.708212 -2.53819,0.916109 -5.452335,0.988388 -8.085541,0.398582 z" id="path2" sodipodi:nodetypes="ssssscsssssssss" inkscape:label="Flame" />
   </g>
</svg>
