<?xml version="1.0" encoding="UTF-8" standalone="no"?>
<!-- Created with Inkscape (http://www.inkscape.org/) -->

<svg version="1.1" id="svg1" width="196" height="196" viewBox="0 0 196 196" sodipodi:docname="Essence.svg" inkscape:version="1.3.2 (091e20e, 2023-11-25, custom)"
   xmlns:inkscape="http://www.inkscape.org/namespaces/inkscape"
   xmlns:sodipodi="http://sodipodi.sourceforge.net/DTD/sodipodi-0.dtd"
   xmlns="http://www.w3.org/2000/svg"
   xmlns:svg="http://www.w3.org/2000/svg">
   <defs id="defs1" />
   <sodipodi:namedview id="namedview1" pagecolor="#ffffff" bordercolor="#000000" borderopacity="0.25" inkscape:showpageshadow="2" inkscape:pageopacity="0.0" inkscape:pagecheckerboard="0" inkscape:deskcolor="#d1d1d1" inkscape:zoom="3.1045918" inkscape:cx="35.270337" inkscape:cy="85.518489" inkscape:window-width="2560" inkscape:window-height="1494" inkscape:window-x="-11" inkscape:window-y="-11" inkscape:window-maximized="1" inkscape:current-layer="svg1" />
   <path id="path7" style="fill:#0b828e;fill-opacity:1;stroke:#ccfffa;stroke-width:2;stroke-dasharray:none;stroke-opacity:1;paint-order:normal" d="m 163.08257,162.67871 c -1.29372,-5.42835 -2.16948,-10.82453 -7.25232,-16.54435 1.20841,-13.42209 1.70631,-27.43627 -0.67989,-43.85386 7.82499,10.79769 12.73864,22.7151 16.65765,35.01509 -1.07417,11.51822 -5.02302,18.24532 -8.72544,25.38312 z M 114.46939,40.182514 c 19.53748,23.805368 27.17892,57.577701 35.92162,90.427356 -0.0714,10.21489 -2.60242,19.69196 -5.66586,29.00926 -2.97675,-8.8579 -6.01558,-16.90866 -9.29205,-21.87026 0.0678,-12.14619 -0.6507,-24.00645 -7.13899,-33.76861 -2.37505,-25.194422 -8.90491,-42.531834 -13.82472,-63.797746 z m 6.91235,84.421516 c -1.97092,-4.3828 -4.08669,-8.70122 -8.72545,-11.89832 2.30856,-5.64923 3.84118,-14.208283 3.73949,-28.895967 5.20273,2.798852 5.7851,19.689767 4.98596,40.794287 z m -44.760398,15.75114 c 2.892499,-6.20995 6.970201,-12.22235 11.671701,-18.1308 L 86.593281,76.670742 c -7.49444,17.391317 -10.013885,39.359638 -9.971939,63.684428 z m -14.051366,24.36326 c 1.692389,-7.05898 4.693981,-12.9958 8.49881,-18.24412 C 70.687265,107.40738 77.069316,70.941815 84.440248,34.856593 69.84215,64.885128 66.019299,78.20696 62.796611,98.994286 59.573923,119.78161 59.164917,145.32415 62.569976,164.71843 Z m -28.556004,9.29203 c -0.407279,-5.86068 -1.437732,-8.9794 -0.45327,-20.96373 6.25862,-13.09253 12.973102,-25.27331 20.737098,-35.35506 -1.958181,11.70947 -4.119358,23.41895 -3.739477,35.12842 -6.259667,6.07028 -12.086189,12.71808 -16.544351,21.19037 z m 64.024373,21.87027 -5.665873,-46.6868 c 0,0 -0.944752,-8.45674 0.90654,-28.10273 1.851291,-19.646 8.625578,-80.048503 13.824728,-121.13639101 0.25469,39.29612601 0.96145,87.34657301 0.22664,114.33734101 -0.73482,26.99077 0.0801,13.24292 -1.58645,30.93567 -1.66658,17.69275 -2.82101,37.96532 -7.705585,50.65291 z" />
</svg>
