<?xml version="1.0" encoding="UTF-8" standalone="no"?>
<!-- Created with Inkscape (http://www.inkscape.org/) -->

<svg
   version="1.1"
   id="svg1"
   width="200"
   height="200"
   viewBox="0 0 200 200"
   sodipodi:docname="Exquisite.svg"
   inkscape:version="1.3.2 (091e20e, 2023-11-25, custom)"
   xmlns:inkscape="http://www.inkscape.org/namespaces/inkscape"
   xmlns:sodipodi="http://sodipodi.sourceforge.net/DTD/sodipodi-0.dtd"
   xmlns:xlink="http://www.w3.org/1999/xlink"
   xmlns="http://www.w3.org/2000/svg"
   xmlns:svg="http://www.w3.org/2000/svg">
  <defs
     id="defs1">
    <linearGradient
       id="swatch2"
       inkscape:swatch="solid">
      <stop
         style="stop-color:#c44600;stop-opacity:1;"
         offset="0"
         id="stop2" />
    </linearGradient>
    <linearGradient
       inkscape:collect="always"
       xlink:href="#swatch2"
       id="linearGradient2"
       x1="27.601562"
       y1="100.65723"
       x2="175.68555"
       y2="100.65723"
       gradientUnits="userSpaceOnUse"
       gradientTransform="matrix(0.72497771,0,0,0.72497771,28.069731,26.546429)" />
  </defs>
  <sodipodi:namedview
     id="namedview1"
     pagecolor="#ffffff"
     bordercolor="#000000"
     borderopacity="0.25"
     inkscape:showpageshadow="2"
     inkscape:pageopacity="0.0"
     inkscape:pagecheckerboard="0"
     inkscape:deskcolor="#d1d1d1"
     inkscape:zoom="4.3027448"
     inkscape:cx="92.382891"
     inkscape:cy="110.97567"
     inkscape:window-width="2560"
     inkscape:window-height="1494"
     inkscape:window-x="-11"
     inkscape:window-y="-11"
     inkscape:window-maximized="1"
     inkscape:current-layer="g1" />
  <g
     inkscape:groupmode="layer"
     inkscape:label="Image"
     id="g1"
     transform="matrix(1.3260927,0,0,1.3260927,-34.788778,-33.480815)">
    <path
       id="path2"
       style="fill:url(#linearGradient2);fill-opacity:1;stroke:#fff0cc;stroke-width:1.44996;stroke-linejoin:round;stroke-dasharray:none;stroke-dashoffset:2.26667;paint-order:markers fill stroke"
       d="m 61.548975,97.987009 v -2.780116 h 11.423856 c 0,0 -3.549985,-4.424282 -4.88627,-6.908171 -1.099451,-2.043667 -2.110185,-4.204114 -2.52738,-6.486939 -0.504872,-2.762589 -0.694088,-5.726276 0.08424,-8.424605 0.83161,-2.883024 2.448695,-5.70304 4.717773,-7.666378 2.19729,-1.901223 5.176635,-2.781504 8.003365,-3.454086 3.202066,-0.761893 6.565568,-0.548103 9.856768,-0.589721 3.25919,-0.0412 7.097015,2.337285 9.951244,3.911236 4.371999,2.41091 8.245889,8.809903 8.245889,8.809903 0,0 -9.642232,-2.186021 -14.490306,-1.769168 -3.390052,0.291497 -7.062202,0.624676 -10.249102,1.816764 -2.307404,0.863115 -4.740119,2.173176 -6.263104,4.164709 -0.971003,1.269721 -1.466101,2.951614 -1.516431,4.549278 -0.06217,1.97437 0.76326,3.902608 1.516431,5.728724 0.862177,2.090451 3.391891,5.874935 3.391891,5.874935 h 3.010799 c 0,0 -0.740386,-3.06432 -1.259453,-4.549921 -0.379772,-1.086926 -1.210545,-2.035801 -1.352175,-3.178427 -0.178314,-1.438681 -0.05236,-3.041909 0.673967,-4.296543 0.486929,-0.84112 1.572028,-2.277375 2.987744,-3.19638 1.415706,-0.919016 3.53333,-1.64806 5.436856,-1.877064 1.5681,-0.188651 3.261265,-0.170945 4.717774,0.439918 1.525266,0.639696 2.583982,2.07059 3.791064,3.201345 1.536392,1.439245 4.380795,4.549289 4.380795,4.549289 0,0 -1.903044,1.918648 -3.152003,2.089932 -2.151747,0.295108 -4.027717,-2.042594 -6.199302,-2.005694 -1.530795,0.02607 -3.175617,0.54388 -4.319461,1.561543 -0.597279,0.53139 -0.940591,1.356758 -1.07228,2.145282 -0.210001,1.257455 -0.203682,2.731636 0.505481,3.791062 0.424109,0.633603 1.98088,1.143676 1.98088,1.143676 h 9.392323 c 0,0 1.249285,-1.326222 1.769162,-2.070375 0.64588,-0.924502 1.12584,-1.954849 1.65902,-2.948611 0.41747,-0.778075 1.20535,-2.358883 1.20535,-2.358883 0,0 0.62632,-1.921197 2.25333,-1.045129 2.78551,1.499876 16.71107,11.582941 18.59836,11.828615 M 48.745755,45.489303 c -0.167599,0 -0.303018,0.13542 -0.303018,0.303018 V 153.24902 c 0,0.1676 0.135419,0.30303 0.303018,0.30303 H 154.77233 c 0.16758,0 0.30301,-0.13543 0.30301,-0.30303 V 45.792321 c 0,-0.167598 -0.13543,-0.303018 -0.30301,-0.303018 z M 61.850576,58.59554 h 80.530564 c 0.16761,0 0.30302,0.13542 0.30302,0.303019 v 80.768451 c 0,0.16761 -0.13541,0.30302 -0.30302,0.30302 H 61.850576 c -0.167597,0 -0.301601,-0.13541 -0.301601,-0.30302 V 58.898559 c 0,-0.167599 0.134004,-0.303019 0.301601,-0.303019 z m -0.301601,39.391469 v 2.780111 h 11.423856 c 0,0 -3.549985,4.42427 -4.88627,6.90817 -1.099451,2.04366 -2.110185,4.20412 -2.52738,6.48694 -0.504872,2.76259 -0.694088,5.72626 0.08424,8.42459 0.83161,2.88302 2.448695,5.70304 4.717773,7.66639 2.19729,1.90122 5.176635,2.78149 8.003365,3.45407 3.202066,0.76189 6.565568,0.5481 9.856768,0.58971 3.25919,0.0412 7.097015,-2.33727 9.951244,-3.91122 4.371999,-2.41091 8.245889,-8.8099 8.245889,-8.8099 0,0 -9.642232,2.18601 -14.490306,1.76915 -3.390052,-0.29148 -7.062202,-0.62465 -10.249102,-1.81675 -2.307404,-0.8631 -4.740119,-2.17316 -6.263104,-4.16469 -0.971003,-1.26974 -1.466101,-2.95163 -1.516431,-4.54929 -0.06217,-1.97436 0.76326,-3.90261 1.516431,-5.72872 0.862177,-2.09045 3.391891,-5.87495 3.391891,-5.87495 h 3.010799 c 0,0 -0.740386,3.06433 -1.259453,4.54994 -0.379772,1.08691 -1.210545,2.0358 -1.352175,3.17842 -0.178314,1.43869 -0.05236,3.0419 0.673967,4.29653 0.486929,0.84114 1.572028,2.27738 2.987744,3.19639 1.415706,0.91901 3.53333,1.64806 5.436856,1.87706 1.5681,0.18865 3.261265,0.17095 4.717774,-0.43993 1.525266,-0.63968 2.583982,-2.07058 3.791064,-3.20133 1.536392,-1.43925 4.380795,-4.54928 4.380795,-4.54928 0,0 -1.903044,-1.91865 -3.152003,-2.08995 -2.151747,-0.2951 -4.027717,2.04261 -6.199302,2.0057 -1.530795,-0.0261 -3.175617,-0.54389 -4.319461,-1.56155 -0.597279,-0.53138 -0.940591,-1.35675 -1.07228,-2.14528 -0.210001,-1.25745 -0.203682,-2.73163 0.505481,-3.79105 0.424109,-0.63359 1.98088,-1.14366 1.98088,-1.14366 h 9.392323 c 0,0 1.249285,1.32621 1.769162,2.07037 0.64588,0.92448 1.12584,1.95483 1.65902,2.94859 0.41747,0.77809 1.20535,2.35889 1.20535,2.35889 0,0 0.62632,1.92119 2.25333,1.04512 2.78551,-1.49986 16.71107,-11.58293 18.59836,-11.828591"
       inkscape:label="base" />
  </g>
</svg>
