<?xml version="1.0" encoding="UTF-8" standalone="no"?>
<!-- Created with Inkscape (http://www.inkscape.org/) -->

<svg version="1.1" id="svg1" width="200" height="200" viewBox="0 0 200 200" sodipodi:docname="Exquisite.svg" inkscape:version="1.3.2 (091e20e, 2023-11-25, custom)"
   xmlns:inkscape="http://www.inkscape.org/namespaces/inkscape"
   xmlns:sodipodi="http://sodipodi.sourceforge.net/DTD/sodipodi-0.dtd"
   xmlns:xlink="http://www.w3.org/1999/xlink"
   xmlns="http://www.w3.org/2000/svg"
   xmlns:svg="http://www.w3.org/2000/svg">
   <defs id="defs1">
      <linearGradient id="swatch2" inkscape:swatch="solid">
         <stop style="stop-color:#c44600;stop-opacity:1;" offset="0" id="stop2" />
      </linearGradient>
      <linearGradient inkscape:collect="always" xlink:href="#swatch2" id="linearGradient2" x1="27.601562" y1="100.65723" x2="175.68555" y2="100.65723" gradientUnits="userSpaceOnUse" />
   </defs>
   <sodipodi:namedview id="namedview1" pagecolor="#ffffff" bordercolor="#000000" borderopacity="0.25" inkscape:showpageshadow="2" inkscape:pageopacity="0.0" inkscape:pagecheckerboard="0" inkscape:deskcolor="#d1d1d1" inkscape:zoom="3.0425" inkscape:cx="-27.773213" inkscape:cy="144.45357" inkscape:window-width="2560" inkscape:window-height="1494" inkscape:window-x="-11" inkscape:window-y="-11" inkscape:window-maximized="1" inkscape:current-layer="g1" />
   <g inkscape:groupmode="layer" inkscape:label="Image" id="g1" transform="matrix(1.3260927,0,0,1.3260927,-34.788778,-33.480815)">
      <rect style="fill:#c44600;fill-opacity:1;stroke:none;stroke-width:0.536756;stroke-linejoin:round;stroke-dasharray:none;stroke-dashoffset:2.26667;paint-order:markers fill stroke" id="rect2" width="84.963661" height="1.3905566" x="45.679688" y="97.350655" ry="0.12118622" inkscape:label="filler" />
      <path id="path2" style="fill:url(#linearGradient2);fill-opacity:1;stroke:#fff0cc;stroke-width:2;stroke-linejoin:round;stroke-dasharray:none;stroke-dashoffset:2.26667;paint-order:markers fill stroke" d="m 46.179688,98.54175 v -3.834761 h 15.757521 c 0,0 -4.896673,-6.10264 -6.739884,-9.528802 -1.51653,-2.818927 -2.910688,-5.798957 -3.486147,-8.947776 -0.696398,-3.810578 -0.957391,-7.898546 0.116205,-11.62049 1.147084,-3.976712 3.377613,-7.866508 6.507474,-10.574645 3.030838,-2.622456 7.140417,-3.836672 11.039465,-4.764401 4.416789,-1.05092 9.05624,-0.756029 13.595972,-0.813434 4.495567,-0.05685 9.789277,3.22394 13.726276,5.394975 6.03052,3.325495 11.37398,12.151964 11.37398,12.151964 0,0 -13.300028,-3.015296 -19.98724,-2.440303 -4.676075,0.402068 -9.741264,0.861642 -14.137122,2.505955 -3.18272,1.190527 -6.538295,2.997569 -8.639037,5.744593 -1.339357,1.751403 -2.022271,4.071324 -2.091689,6.275064 -0.08579,2.723345 1.052806,5.383066 2.091689,7.901933 1.189256,2.883461 4.678624,8.103614 4.678624,8.103614 h 4.152948 c 0,0 -1.02126,-4.22678 -1.737234,-6.275953 -0.523835,-1.499258 -1.669771,-2.808092 -1.865118,-4.384169 -0.245964,-1.984455 -0.07219,-4.195874 0.929639,-5.92645 0.671642,-1.160202 2.168377,-3.1413 4.121145,-4.408944 1.952767,-1.267645 4.873707,-2.273252 7.499344,-2.589126 2.162972,-0.260213 4.498444,-0.235789 6.507474,0.606801 2.103878,0.882369 3.564232,2.856077 5.229221,4.415786 2.119226,1.985225 6.042656,6.275065 6.042656,6.275065 0,0 -2.624974,2.6465 -4.347717,2.882766 -2.968028,0.407051 -5.55565,-2.81747 -8.551028,-2.766562 -2.111512,0.03589 -4.380302,0.7502 -5.958066,2.15392 -0.823852,0.732973 -1.297401,1.871445 -1.479047,2.959096 -0.289671,1.734477 -0.280948,3.767889 0.697229,5.22922 0.585004,0.873956 2.732342,1.577518 2.732342,1.577518 h 12.955319 c 0,0 1.723197,-1.829325 2.440303,-2.855772 0.890895,-1.275204 1.552925,-2.696424 2.288375,-4.067171 0.57583,-1.073248 1.66259,-3.253737 1.66259,-3.253737 0,0 0.8639,-2.650001 3.10813,-1.441591 3.8422,2.068847 23.05047,15.976954 25.65371,16.315817 M 28.519531,26.128906 c -0.231177,0 -0.417969,0.186792 -0.417969,0.417969 V 174.76758 c 0,0.23118 0.186792,0.41797 0.417969,0.41797 H 174.76758 c 0.23118,0 0.41797,-0.18679 0.41797,-0.41797 V 26.546875 c 0,-0.231177 -0.18679,-0.417969 -0.41797,-0.417969 z M 46.595703,44.207031 H 157.67578 c 0.23118,0 0.41797,0.186792 0.41797,0.417969 v 111.4082 c 0,0.23118 -0.18679,0.41797 -0.41797,0.41797 H 46.595703 c -0.231177,0 -0.416015,-0.18679 -0.416015,-0.41797 V 44.625 c 0,-0.231177 0.184838,-0.417969 0.416015,-0.417969 z M 46.179688,98.54175 v 3.83476 h 15.757521 c 0,0 -4.896673,6.10264 -6.739884,9.5288 -1.51653,2.81893 -2.910688,5.79896 -3.486147,8.94778 -0.696398,3.81058 -0.957391,7.89854 0.116205,11.62048 1.147084,3.97672 3.377613,7.86651 6.507474,10.57465 3.030838,2.62246 7.140417,3.83667 11.039465,4.7644 4.416789,1.05092 9.05624,0.75603 13.595972,0.81343 4.495567,0.0568 9.789277,-3.22394 13.726276,-5.39497 6.03052,-3.3255 11.37398,-12.15196 11.37398,-12.15196 0,0 -13.300028,3.01529 -19.98724,2.4403 -4.676075,-0.40207 -9.741264,-0.86164 -14.137122,-2.50595 -3.18272,-1.19053 -6.538295,-2.99757 -8.639037,-5.7446 -1.339357,-1.7514 -2.022271,-4.07132 -2.091689,-6.27506 -0.08579,-2.72335 1.052806,-5.38307 2.091689,-7.90193 1.189256,-2.88346 4.678624,-8.10362 4.678624,-8.10362 h 4.152948 c 0,0 -1.02126,4.22678 -1.737234,6.27596 -0.523835,1.49925 -1.669771,2.80809 -1.865118,4.38416 -0.245964,1.98446 -0.07219,4.19588 0.929639,5.92645 0.671642,1.16021 2.168377,3.1413 4.121145,4.40895 1.952767,1.26764 4.873707,2.27325 7.499344,2.58912 2.162972,0.26022 4.498444,0.23579 6.507474,-0.6068 2.103878,-0.88237 3.564232,-2.85607 5.229221,-4.41578 2.119226,-1.98523 6.042656,-6.27507 6.042656,-6.27507 0,0 -2.624974,-2.6465 -4.347717,-2.88276 -2.968028,-0.40705 -5.55565,2.81747 -8.551028,2.76656 -2.111512,-0.0359 -4.380302,-0.7502 -5.958066,-2.15392 -0.823852,-0.73297 -1.297401,-1.87145 -1.479047,-2.9591 -0.289671,-1.73447 -0.280948,-3.76789 0.697229,-5.22922 0.585004,-0.87395 2.732342,-1.57752 2.732342,-1.57752 h 12.955319 c 0,0 1.723197,1.82933 2.440303,2.85578 0.890895,1.2752 1.552925,2.69642 2.288375,4.06717 0.57583,1.07325 1.66259,3.25373 1.66259,3.25373 0,0 0.8639,2.65001 3.10813,1.4416 3.8422,-2.06885 23.05047,-15.97696 25.65371,-16.31582" inkscape:label="base" />
   </g>
</svg>
