<?xml version="1.0" encoding="UTF-8" standalone="no"?>
<!-- Created with Inkscape (http://www.inkscape.org/) -->

<svg version="1.1" id="svg1" width="196" height="196" viewBox="0 0 196 196" sodipodi:docname="Harvest.svg" inkscape:version="1.3.2 (091e20e, 2023-11-25, custom)"
   xmlns:inkscape="http://www.inkscape.org/namespaces/inkscape"
   xmlns:sodipodi="http://sodipodi.sourceforge.net/DTD/sodipodi-0.dtd"
   xmlns="http://www.w3.org/2000/svg"
   xmlns:svg="http://www.w3.org/2000/svg">
   <defs id="defs1" />
   <sodipodi:namedview id="namedview1" pagecolor="#ffffff" bordercolor="#000000" borderopacity="0.25" inkscape:showpageshadow="2" inkscape:pageopacity="0.0" inkscape:pagecheckerboard="0" inkscape:deskcolor="#d1d1d1" inkscape:zoom="4.3905559" inkscape:cx="72.542067" inkscape:cy="105.79526" inkscape:window-width="2560" inkscape:window-height="1494" inkscape:window-x="-11" inkscape:window-y="-11" inkscape:window-maximized="1" inkscape:current-layer="g1" />
   <g inkscape:groupmode="layer" inkscape:label="Image" id="g1" transform="matrix(1.4136446,0,0,1.4136446,-52.978462,-38.829653)">
      <path style="display:inline;fill:#0f5f8a;fill-opacity:1;stroke:#dbe7ef;stroke-width:1.41478275;stroke-linejoin:round;stroke-dasharray:none;stroke-dashoffset:2.26667;paint-order:markers fill stroke" d="m 62.165982,156.54232 c 0,0 15.984403,-8.82512 20.93673,-16.10518 3.172905,-4.66426 3.917678,-10.67553 4.670501,-16.26623 0.601838,-4.46943 0.12116,-9.02742 -0.161052,-13.52835 -0.415878,-6.63273 -1.709358,-13.186023 -2.254725,-19.809364 -0.432294,-5.2501 -2.212395,-10.706618 -0.805259,-15.783073 3.16187,-11.406921 13.522445,-19.443019 19.809363,-29.472473 1.58445,-2.527653 3.46372,-4.936573 4.50945,-7.730485 1.20687,-3.224434 1.93263,-10.146261 1.93263,-10.146261 0,0 10.9592,6.510865 15.78307,10.629416 4.91086,4.192818 9.58923,8.823398 13.20624,14.172556 3.82041,5.649974 6.77725,11.976251 8.6968,18.520953 2.07273,7.066989 3.19548,14.54433 2.89893,21.90304 -0.28746,7.133161 -1.75072,14.352351 -4.50945,20.936731 -2.60649,6.221 -6.56059,12.15338 -10.77093,17.42289 -2.55955,3.20345 -5.41811,6.14384 -8.87738,8.34539 -3.63788,2.31522 -12.23994,4.18735 -12.23994,4.18735 0,0 9.85059,-10.88834 13.04519,-17.39359 2.57772,-5.24907 4.27986,-11.03782 5.29685,-16.79656 1.28316,-7.26593 2.10486,-14.862276 1.14523,-22.177971 -0.68901,-5.252602 -2.80622,-10.311765 -5.31471,-14.977814 -2.45051,-4.558191 -5.51674,-8.914289 -9.34101,-12.400986 -1.58534,-1.445402 -3.41703,-2.778659 -5.47576,-3.382087 -3.03991,-0.89102 -9.50205,-0.161052 -9.50205,-0.161052 l -12.239934,18.19885 1.771569,3.865242 c 0,0 -0.640556,7.527728 -0.322103,11.273624 0.565869,6.656187 3.475356,12.984704 3.945768,19.648314 0.36351,5.14929 0.01977,10.37891 -0.885785,15.46097 -0.905636,5.08254 -2.145787,10.22704 -4.509449,14.81676 -2.821861,5.47944 -7.444668,9.82598 -11.273624,14.65571 -3.057561,3.85671 -9.341002,11.43468 -9.341002,11.43468 z" id="path1" sodipodi:nodetypes="cssssssscssssssscsssssscccssssscc" />
      <path id="path3" style="display:inline;fill:#0f5f8a;fill-opacity:1;stroke:#dbe7ef;stroke-width:1.41478275;stroke-linejoin:round;stroke-dasharray:none;stroke-dashoffset:2.26667;paint-order:markers fill stroke" d="m 65.253696,151.00594 c 6.458418,-3.05278 11.276906,-7.06219 15.943312,-11.16032 3.431762,2.09671 6.379609,4.8709 9.053523,8.02859 -3.89223,6.24648 -8.37629,12.08324 -14.235099,16.96824 -6.262611,-4.11673 -8.497827,-8.97928 -10.761736,-13.83651 z M 83.787182,71.426459 c 0,0 1.82685,-8.277473 3.986031,-11.837305 2.239749,-3.692665 6.04294,-6.173364 8.978636,-9.341003 2.067524,-2.230875 6.079701,-6.804437 6.079701,-6.804437 0,0 4.79451,3.498381 6.32128,5.958915 1.55348,2.503578 2.57683,8.455218 2.57683,8.455218 0,0 -6.47638,3.465226 -8.85784,6.16023 -2.30961,2.61369 -3.814231,5.936747 -4.87182,9.260477 -0.743013,2.335098 -0.96631,7.287592 -0.96631,7.287592 -5.009539,-2.122506 -9.598835,-4.898723 -13.246508,-9.139687 z" />
      <path style="fill:none;fill-opacity:0;stroke:#dbe7ef;stroke-width:1.41478275;stroke-linejoin:round;stroke-dasharray:none;stroke-dashoffset:2.26667;paint-order:markers fill stroke" d="m 108.87099,37.847165 c 0,0 5.44522,4.256837 8.05259,6.522597 3.23985,2.815373 6.51764,5.616565 9.42153,8.777321 3.32407,3.618099 6.60576,7.362328 9.09943,11.595727 2.55807,4.342733 4.76207,9.016011 5.87839,13.930978 1.38082,6.079492 1.4557,12.473779 0.88578,18.682005 -0.45116,4.914537 -1.96584,9.686517 -3.38209,14.414137 -1.14049,3.80708 -2.33644,7.63495 -4.10682,11.19309 -1.83416,3.68633 -3.92825,7.32828 -6.68365,10.38784 -3.73108,4.14293 -13.04519,10.46837 -13.04519,10.46837" id="path4" sodipodi:nodetypes="cssssssssc" />
   </g>
</svg>
