<?xml version="1.0" encoding="UTF-8" standalone="no"?>
<!-- Created with Inkscape (http://www.inkscape.org/) -->

<svg version="1.1" id="svg1" width="196" height="196" viewBox="0 0 196 196" sodipodi:docname="Heist.svg" inkscape:version="1.3.2 (091e20e, 2023-11-25, custom)"
   xmlns:inkscape="http://www.inkscape.org/namespaces/inkscape"
   xmlns:sodipodi="http://sodipodi.sourceforge.net/DTD/sodipodi-0.dtd"
   xmlns="http://www.w3.org/2000/svg"
   xmlns:svg="http://www.w3.org/2000/svg">
   <defs id="defs1" />
   <sodipodi:namedview id="namedview1" pagecolor="#ffffff" bordercolor="#000000" borderopacity="0.25" inkscape:showpageshadow="2" inkscape:pageopacity="0.0" inkscape:pagecheckerboard="0" inkscape:deskcolor="#d1d1d1" inkscape:zoom="4.3905559" inkscape:cx="46.577245" inkscape:cy="137.90964" inkscape:window-width="2560" inkscape:window-height="1494" inkscape:window-x="-11" inkscape:window-y="-11" inkscape:window-maximized="1" inkscape:current-layer="layer1" />
   <g inkscape:groupmode="layer" id="layer2" inkscape:label="triangle" transform="matrix(1.4003579,0,0,1.4003579,-42.051726,-41.297119)">
      <path id="path5" style="fill:#891010;fill-opacity:1;stroke:#ffebcb;stroke-width:1.42820632;stroke-linejoin:round;stroke-dasharray:none;stroke-dashoffset:2.26667;stroke-opacity:0.99601603;paint-order:markers fill stroke" d="M 102.54883,39.080078 43.966797,120.78906 h 35.431641 l 23.150392,25.72852 23.87695,-25.72852 h 33.82031 z m -0.15821,12.650391 20.65821,29.865234 c 0,0 -13.2983,-5.076056 -20.70117,-5.068359 -6.941542,0.0072 -20.240238,5.125 -20.240238,5.125 z m 2.24024,30.814453 c 0.66894,0.0094 1.3347,0.03242 1.98633,0.07422 2.27521,0.14595 4.52987,0.544006 6.76758,0.980468 2.9558,0.576528 5.98387,1.02547 8.77343,2.160157 2.30698,0.938386 4.60994,2.097428 6.44141,3.785156 1.54431,1.423106 2.56807,3.338497 3.62305,5.154297 0.25335,0.436058 0.64453,1.367187 0.64453,1.367187 0,0 -2.70401,3.394386 -4.42774,4.671873 -1.44663,1.07213 -3.16174,1.74346 -4.83203,2.41602 -1.59082,0.64057 -3.24227,1.13856 -4.91211,1.52929 -2.32889,0.54495 -4.71057,0.84712 -7.08593,1.12696 -2.43301,0.28663 -4.87837,0.54608 -7.32813,0.56445 -2.60857,0.0196 -5.207272,-0.17451 -7.810547,-0.3418 -2.013461,-0.12939 -4.047399,-0.23466 -6.041015,-0.54492 -2.322211,-0.3614 -4.630545,-0.89888 -6.84375,-1.68945 -2.295265,-0.81988 -4.517702,-1.87975 -6.603516,-3.14063 C 75.719017,99.894472 74.509757,99.016822 73.439453,98 72.831501,97.422427 71.828125,96.066406 71.828125,96.066406 l 3.140625,-3.703125 c 0,0 2.179645,-2.639278 3.884766,-3.787109 1.809649,-1.218196 4.089599,-2.441442 6.171875,-3.091797 2.31926,-0.724373 4.789357,-1.44163 7.175781,-1.898437 2.145816,-0.410751 4.177175,-0.67619 6.580078,-0.84375 1.80218,-0.125671 3.84277,-0.22551 5.84961,-0.197266 z M 68.689453,100.77734 c 0,0 5.185748,3.12071 7.890625,4.47071 2.226451,1.11122 4.472477,2.2304 6.845703,2.97851 3.6048,1.13634 7.352741,1.8573 11.111328,2.25586 4.804905,0.50951 9.692871,0.70292 14.494141,0.16016 2.96288,-0.33494 5.96501,-1.01396 8.85937,-1.73047 3.06493,-0.75873 6.08699,-1.52409 9.01758,-2.69922 3.3467,-1.34197 9.42188,-5.31445 9.42188,-5.31445 l 8.77734,12.48242 H 59.992188 Z m 20.574219,20.01172 h 27.095708 l -13.44727,17.07032 z" inkscape:label="path5" />
   </g>
   <g inkscape:groupmode="layer" id="layer1" inkscape:label="Sword" style="display:inline" transform="matrix(1.4003579,0,0,1.4003579,-42.051726,-41.297119)">
      <path style="fill:#999600;fill-opacity:1;stroke:#ffebcb;stroke-width:1.42820632;stroke-linejoin:round;stroke-dasharray:none;stroke-dashoffset:2.26667;stroke-opacity:0.99601603;paint-order:markers fill stroke" d="m 93.268372,76.072372 9.110468,93.382248 9.33822,-93.382248 -9.19587,-5.80792 z" id="path1" sodipodi:nodetypes="ccccc" />
      <path style="fill:#999600;fill-opacity:1;stroke:#ffebcb;stroke-width:1.42820632;stroke-linejoin:round;stroke-dasharray:none;stroke-dashoffset:2.26667;stroke-opacity:0.99601603;paint-order:markers fill stroke" d="M 102.49272,78.349988 98.222186,72.826769 98,42.022014 l 3.01227,-2.84702 -2.619262,-3.786536 3.985832,-5.466278 4.21359,5.466278 -2.84702,3.786536 2.73313,2.84702 v 30.804755 z" id="path2" sodipodi:nodetypes="ccccccccccc" />
      <path style="fill:#999600;fill-opacity:1;stroke:#ffebcb;stroke-width:1.42820632;stroke-linejoin:round;stroke-dasharray:none;stroke-dashoffset:2.26667;stroke-opacity:0.99601603;paint-order:markers fill stroke" d="m 81.026187,68.58471 c 0,0 5.018231,-1.266396 7.573073,-1.651272 2.561606,-0.385895 5.155816,-0.542599 7.743894,-0.654814 4.114836,-0.178412 8.243296,-0.249427 12.356066,-0.02847 2.07834,0.111658 4.57377,0.459979 6.86131,0.683285 3.27346,0.319549 9.82223,0.939517 9.82223,0.939517 l -6.14957,7.089079 c 0,0 -3.55552,-1.979334 -5.49475,-2.533848 -1.90358,-0.544323 -3.91958,-0.584594 -5.89333,-0.740225 -1.80817,-0.142575 -3.62485,-0.200135 -5.43848,-0.176408 -2.13853,0.02798 -4.282589,0.113119 -6.405119,0.3757 -2.07067,0.256166 -4.189833,0.451209 -6.149563,1.167278 -1.452791,0.530838 -4.042768,2.277616 -4.042768,2.277616 z" id="path4" sodipodi:nodetypes="csssaccaaaascc" />
      <path style="fill:#999600;fill-opacity:1;stroke:#ffebcb;stroke-width:1.42820632;stroke-linejoin:round;stroke-dasharray:none;stroke-dashoffset:2.26667;stroke-opacity:0.99601603;paint-order:markers fill stroke" d="m 102.37884,169.45462 0.11388,-91.104632" id="path3" />
   </g>
</svg>
