<?xml version="1.0" encoding="UTF-8" standalone="no"?>
<!-- Created with Inkscape (http://www.inkscape.org/) -->

<svg version="1.1" id="svg1" width="196" height="196" viewBox="0 0 196 196" sodipodi:docname="Legion.svg" inkscape:version="1.3.2 (091e20e, 2023-11-25, custom)"
   xmlns:inkscape="http://www.inkscape.org/namespaces/inkscape"
   xmlns:sodipodi="http://sodipodi.sourceforge.net/DTD/sodipodi-0.dtd"
   xmlns="http://www.w3.org/2000/svg"
   xmlns:svg="http://www.w3.org/2000/svg">
   <defs id="defs1" />
   <sodipodi:namedview id="namedview1" pagecolor="#ffffff" bordercolor="#000000" borderopacity="0.25" inkscape:showpageshadow="2" inkscape:pageopacity="0.0" inkscape:pagecheckerboard="0" inkscape:deskcolor="#d1d1d1" inkscape:zoom="4.3905559" inkscape:cx="60.015179" inkscape:cy="101.92331" inkscape:window-width="2560" inkscape:window-height="1494" inkscape:window-x="-11" inkscape:window-y="-11" inkscape:window-maximized="1" inkscape:current-layer="g1" />
   <g inkscape:groupmode="layer" inkscape:label="Image" id="g1" transform="matrix(1.4169143,0,0,1.4169143,-41.774049,-39.955246)">
      <path id="path7" style="fill:#782176;fill-opacity:1;stroke:#ffccfe;stroke-width:1.41151797;stroke-linejoin:round;stroke-dasharray:none;stroke-dashoffset:2.26667;stroke-opacity:1;paint-order:markers fill stroke" inkscape:label="Details" d="m 88.570789,51.701882 5.494749,3.074781 h 13.898772 m -9.35412,-16.075149 -4.544652,16.075149 0.455523,49.310387 m -9.224345,-54.09338 1.138808,83.13298 6.946729,5.80792 v 4.44135 l 15.487787,8.3133 4.44135,-5.58016 v -5.58016 l 3.18866,-3.18866 V 54.776663 L 101.40027,28.623064 Z m 51.436234,106.14602 4.18735,-38.08874 -12.48152,30.11668 z m -25.28513,10.38784 17.7157,-58.22022 -4.91208,52.82498 z M 77.626952,139.0682 70.21857,94.456861 89.383731,149.85867 Z m -16.346755,-20.29252 10.629417,39.37715 18.118324,5.39524 z" />
   </g>
</svg>
