<?xml version="1.0" encoding="UTF-8" standalone="no"?>
<!-- Created with Inkscape (http://www.inkscape.org/) -->

<svg version="1.1" id="svg1" width="196" height="196" viewBox="0 0 196 196" sodipodi:docname="Map.svg" inkscape:version="1.3.2 (091e20e, 2023-11-25, custom)"
   xmlns:inkscape="http://www.inkscape.org/namespaces/inkscape"
   xmlns:sodipodi="http://sodipodi.sourceforge.net/DTD/sodipodi-0.dtd"
   xmlns="http://www.w3.org/2000/svg"
   xmlns:svg="http://www.w3.org/2000/svg">
   <defs id="defs1" />
   <sodipodi:namedview id="namedview1" pagecolor="#ffffff" bordercolor="#000000" borderopacity="0.25" inkscape:showpageshadow="2" inkscape:pageopacity="0.0" inkscape:pagecheckerboard="0" inkscape:deskcolor="#d1d1d1" inkscape:zoom="3.1045919" inkscape:cx="13.045193" inkscape:cy="79.076416" inkscape:window-width="2560" inkscape:window-height="1494" inkscape:window-x="-11" inkscape:window-y="-11" inkscape:window-maximized="1" inkscape:current-layer="g1" />
   <g inkscape:groupmode="layer" inkscape:label="Image" id="g1">
      <path id="path2" style="fill:#236376;fill-opacity:1;stroke:#cffafd;stroke-width:2;stroke-linejoin:round;stroke-dasharray:none;stroke-dashoffset:2.26667;stroke-opacity:1" d="M 147.76219,95.917128 A 48.723305,48.723305 0 0 1 100.95772,146.48397 48.723305,48.723305 0 0 1 50.388336,99.682259 48.723305,48.723305 0 0 1 97.187306,49.110336 48.723305,48.723305 0 0 1 147.76176,95.90655 M 17.008875,49.404588 c 0,0 -16.19822495,31.520245 -16.19822495,48.594676 0,17.074436 16.19822495,48.594676 16.19822495,48.594676 0,0 12.552084,-9.46129 19.437871,-8.09911 9.737973,1.92642 18.044019,11.59952 21.057693,21.05768 1.995317,6.26215 -3.306149,19.43788 -3.306149,19.43788 0,0 28.236802,15.94558 43.801712,16.19823 17.072188,0.2771 48.594678,-16.19823 48.594678,-16.19823 0,0 -9.46129,-12.55209 -8.09911,-19.43788 1.92641,-9.73796 11.31972,-19.13126 21.05768,-21.05768 6.88579,-1.36218 19.43788,8.09911 19.43788,8.09911 0,0 16.19822,-31.52024 16.19822,-48.594676 0,-17.074431 -16.19822,-48.594676 -16.19822,-48.594676 0,0 -12.55209,9.461294 -19.43788,8.099112 -9.73796,-1.926416 -19.13127,-11.31972 -21.05768,-21.057693 -1.36218,-6.885787 8.09911,-19.437871 8.09911,-19.437871 0,0 -31.52024,-16.19822493 -48.594678,-16.19822493 -17.07443,0 -48.594675,16.19822493 -48.594675,16.19822493 0,0 9.461294,12.552084 8.099112,19.437871 C 55.578023,46.18398 46.184719,55.577284 36.446746,57.5037 29.560959,58.865882 17.008875,49.404588 17.008875,49.404588 Z" />
   </g>
</svg>
