<?xml version="1.0" encoding="UTF-8" standalone="no"?>
<!-- Created with Inkscape (http://www.inkscape.org/) -->

<svg version="1.1" id="svg1" width="266.66666" height="266.66666" viewBox="0 0 266.66666 266.66666" sodipodi:docname="Sanctum.svg" inkscape:version="1.3.2 (091e20e, 2023-11-25, custom)"
   xmlns:inkscape="http://www.inkscape.org/namespaces/inkscape"
   xmlns:sodipodi="http://sodipodi.sourceforge.net/DTD/sodipodi-0.dtd"
   xmlns="http://www.w3.org/2000/svg"
   xmlns:svg="http://www.w3.org/2000/svg">
   <defs id="defs1" />
   <sodipodi:namedview id="namedview1" pagecolor="#ffffff" bordercolor="#000000" borderopacity="0.25" inkscape:showpageshadow="2" inkscape:pageopacity="0.0" inkscape:pagecheckerboard="0" inkscape:deskcolor="#d1d1d1" inkscape:zoom="2.2818751" inkscape:cx="-35.278004" inkscape:cy="124.67816" inkscape:window-width="2560" inkscape:window-height="1494" inkscape:window-x="-11" inkscape:window-y="-11" inkscape:window-maximized="1" inkscape:current-layer="g1" />
   <g inkscape:groupmode="layer" inkscape:label="Image" id="g1" transform="matrix(1.1295117,0,0,1.1295117,-14.932118,-14.895376)">
      <path id="path2" style="fill:#996800;fill-opacity:1;stroke:#fff0cc;stroke-width:2;stroke-linejoin:round;stroke-dasharray:none;stroke-dashoffset:2.26667;stroke-opacity:1;paint-order:markers fill stroke" inkscape:label="Fill" d="m 63.434673,64.530263 59.052317,5.258833 V 243.5497 l -59.052317,5.72795 z m 133.248567,10e-7 -59.05232,5.258833 V 243.5497 l 59.05232,5.72795 z M 37.688303,249.27765 36.592713,49.630237 h -5.528447 l -8.495108,-8.545604 h 30.786085 l -3.936259,-6.082351 c 0,0 6.448514,0.248009 10.619359,-0.600749 4.170845,-0.848758 8.958967,-2.840287 14.023555,-5.039715 5.064588,-2.199428 10.531171,-6.048303 16.214735,-8.326486 5.683564,-2.278183 12.159497,-4.206063 17.748557,-5.258833 5.58906,-1.05277 9.34533,-1.052694 15.55739,-1.314708 6.21206,-0.262014 15.75887,-0.605836 21.69268,0 5.93381,0.605836 9.46055,1.325645 13.80444,2.848534 4.34389,1.522889 8.13809,3.982509 12.16105,5.806628 4.02296,1.824119 6.7316,3.464493 11.94193,5.149274 5.21033,1.684781 13.95461,3.926673 19.28239,4.820597 5.32778,0.893924 12.48973,1.09559 12.48973,1.09559 l -5.69707,6.902219 h 29.36182 l -10.51767,8.545604 h -7.45001 V 249.27765 H 204.21801 V 60.257461 H 56.970691 V 249.27765 Z" />
      <path id="path5" style="fill:#005599;fill-opacity:0;stroke:#fff0cc;stroke-width:2;stroke-linejoin:round;stroke-dasharray:none;stroke-dashoffset:2.26667;stroke-opacity:1;paint-order:markers fill stroke" inkscape:label="Contour" d="m 72.47587,41.084633 c 0,0 8.280142,-1.989664 12.27623,-3.434249 3.565543,-1.288943 6.886406,-3.177652 10.38097,-4.648195 3.63318,-1.528874 7.07262,-4.010646 11.00073,-4.338316 15.13417,-1.262441 30.56879,-1.55594 45.95134,-0.602575 3.93404,0.243821 7.47388,2.544774 11.06653,4.166191 2.61125,1.178497 5.01657,2.773675 7.59205,4.028437 3.55762,1.733258 10.84579,4.828707 10.84579,4.828707 m -128.234267,0 H 209.25773 m 11.39414,8.545604 H 36.592713" sodipodi:nodetypes="caassaaccccc" />
   </g>
</svg>
