<?xml version="1.0" encoding="UTF-8" standalone="no"?>
<!-- Created with Inkscape (http://www.inkscape.org/) -->

<svg version="1.1" id="svg1" width="196" height="196" viewBox="0 0 196 196" sodipodi:docname="Exarch.svg" inkscape:version="1.3.2 (091e20e, 2023-11-25, custom)"
   xmlns:inkscape="http://www.inkscape.org/namespaces/inkscape"
   xmlns:sodipodi="http://sodipodi.sourceforge.net/DTD/sodipodi-0.dtd"
   xmlns="http://www.w3.org/2000/svg"
   xmlns:svg="http://www.w3.org/2000/svg">
   <defs id="defs1" />
   <sodipodi:namedview id="namedview1" pagecolor="#ffffff" bordercolor="#000000" borderopacity="0.25" inkscape:showpageshadow="2" inkscape:pageopacity="0.0" inkscape:pagecheckerboard="0" inkscape:deskcolor="#d1d1d1" inkscape:zoom="3.1045919" inkscape:cx="30.11668" inkscape:cy="146.71816" inkscape:window-width="2560" inkscape:window-height="1494" inkscape:window-x="-11" inkscape:window-y="-11" inkscape:window-maximized="1" inkscape:current-layer="g1" />
   <g inkscape:groupmode="layer" inkscape:label="Image" id="g1">
      <path id="path2" style="display:inline;fill:#7f1a1a;fill-opacity:1;stroke:#f3d7d7;stroke-width:2;stroke-linejoin:round;stroke-dasharray:none;stroke-dashoffset:2.26667;stroke-opacity:1;paint-order:markers fill stroke" d="M 121.72058,59.184916 C 122.2264,72.284919 112.01718,83.314803 98.917213,83.821335 85.817241,84.327866 74.786804,74.119252 74.279559,61.019308 73.772312,47.91936 83.980332,36.888365 97.080253,36.38041 110.18016,35.87246 121.2117,46.079876 121.72037,59.179762 M 61.468355,180.58977 c 0,0 11.913311,6.78351 18.520316,8.1185 11.523247,2.32832 23.681489,1.50142 35.264709,-0.50742 7.2199,-1.25212 20.80365,-7.10369 20.80365,-7.10369 0,0 -11.87136,-11.50893 -15.47589,-18.77402 -3.43699,-6.92743 -4.55516,-14.88504 -5.32776,-22.57955 -0.80305,-7.99772 -0.69694,-16.19719 0.76111,-24.10178 1.68827,-9.15265 5.26376,-17.9206 9.1333,-26.385111 3.37117,-7.374331 12.17775,-21.057345 12.17775,-21.057345 0,0 12.18329,0.812319 17.75921,3.044435 5.77038,2.309971 11.40463,5.705186 15.47589,10.401821 4.33558,5.001575 6.65004,11.5687 8.6259,17.88606 2.26187,7.23183 3.08502,14.88979 3.55182,22.45271 0.62034,10.0501 -1.01479,30.19065 -1.01479,30.19065 0,0 9.08155,-18.65098 11.41663,-28.66844 1.94509,-8.34438 2.19535,-17.05752 2.02961,-25.623989 -0.15327,-7.918132 -0.62593,-15.976371 -2.79072,-23.594376 -2.24417,-7.897363 -5.71807,-15.582932 -10.40182,-22.325861 -4.74203,-6.826827 -10.9154,-12.693352 -17.5055,-17.759208 -8.258,-6.347966 -17.56317,-11.394704 -27.14623,-15.475882 -8.51821,-3.627687 -17.47551,-6.540372 -26.63881,-7.864791 -9.20678,-1.3307025 -18.725003,-1.4900853 -27.907326,0 -8.975092,1.456457 -17.654025,4.747158 -25.877703,8.625902 -7.491424,3.533371 -14.391834,8.27553 -21.057345,13.192552 -5.211386,3.844342 -10.5964,7.6875 -14.714774,12.68515 C 15.926429,51.680118 12.231974,59.181769 8.9518393,66.677135 6.2496922,72.851756 4.190565,79.350611 2.8629688,85.958561 1.3910602,93.284807 0.58089113,100.81605 0.83334526,108.28442 1.105303,116.32977 2.586178,124.34868 4.6388889,132.1325 c 1.9106232,7.24502 7.8647921,21.05735 7.8647921,21.05735 0,0 -0.93992,-24.3039 0.761111,-36.27952 1.243344,-8.75341 2.79419,-17.767891 6.849979,-25.624006 3.526634,-6.831135 7.933695,-12.937342 14.08689,-16.95193 7.254592,-4.733183 18.811496,-6.820003 24.983367,-7.149851 0,0 8.493521,10.313541 10.655524,16.490692 0,0 5.212289,13.382462 7.103684,20.296245 2.048131,7.48671 4.021298,15.09061 4.566654,22.83325 0.523725,7.43553 0.249956,15.02822 -1.268516,22.32587 -1.542518,7.41321 -3.667554,15.00881 -7.864792,21.31104 -2.752986,4.13368 -10.909227,10.14813 -10.909227,10.14813 z" sodipodi:nodetypes="csssccsscsssscsssscscssssssssssssscssaccssssc" />
   </g>
</svg>
