<?xml version="1.0" encoding="UTF-8" standalone="no"?>
<!-- Created with Inkscape (http://www.inkscape.org/) -->

<svg width="200mm" height="200mm" viewBox="0 0 200 200" version="1.1" id="svg1" inkscape:version="1.3.2 (091e20e, 2023-11-25, custom)" sodipodi:docname="Shaper.svg"
   xmlns:inkscape="http://www.inkscape.org/namespaces/inkscape"
   xmlns:sodipodi="http://sodipodi.sourceforge.net/DTD/sodipodi-0.dtd"
   xmlns="http://www.w3.org/2000/svg"
   xmlns:svg="http://www.w3.org/2000/svg"
   xmlns:rdf="http://www.w3.org/1999/02/22-rdf-syntax-ns#"
   xmlns:cc="http://creativecommons.org/ns#">
   <defs id="defs1" />
   <g inkscape:label="Layer 1" inkscape:groupmode="layer" id="layer1">
      <g inkscape:groupmode="layer" id="layer2" inkscape:label="Colors">
         <path style="fill:#480099;fill-opacity:1;stroke:none;stroke-width:0.35489898;stroke-linejoin:round;stroke-dasharray:none;stroke-dashoffset:2.26667;stroke-opacity:1;paint-order:markers fill stroke" d="M 100,100 H 200 L 130.44457,115.22229 150,150 115.13376,130.26753 100,200 Z" id="path19" />
         <path style="fill:#996200;fill-opacity:1;stroke:none;stroke-width:0.35489898;stroke-linejoin:round;stroke-dasharray:none;stroke-dashoffset:2.26667;stroke-opacity:1;paint-order:markers fill stroke" d="M 100,0 V 100 H 200 L 129.9271,85.036447 150,50 115.23117,69.537651 Z" id="path17" />
         <path style="fill:#990075;fill-opacity:1;stroke:none;stroke-width:0.35489898;stroke-linejoin:round;stroke-dasharray:none;stroke-dashoffset:2.26667;stroke-opacity:1;paint-order:markers fill stroke" d="M 0,100 H 100 V 200 L 84.965899,130.0682 50,150 70.325598,114.8372 Z" id="path18" />
         <path style="fill:#159900;stroke:none;stroke-width:0.35489898;stroke-linejoin:round;stroke-dasharray:none;stroke-dashoffset:2.26667;stroke-opacity:1;paint-order:markers fill stroke;fill-opacity:1" d="M 0,100 H 100 V 0 L 84.840428,69.680856 50,50 70.11521,85.057603 Z" id="path16" />
      </g>
      <path id="path14" style="fill:none;stroke:#e5e5e5;stroke-width:2;stroke-linejoin:round;stroke-dasharray:none;stroke-dashoffset:2.26667;stroke-opacity:1;paint-order:markers fill stroke;fill-opacity:1" d="M 100,0 V 200 M 50,150 150,50 M 150,150 50,50 M 0,100 H 200 M 50,50 84.840429,69.680858 100,0 115.23117,69.537651 150,50 129.9271,85.036449 200,100 130.44457,115.22229 150,150 115.13376,130.26753 100,200 84.965899,130.0682 50,150 70.325599,114.8372 0,100 70.115211,85.057605 Z" />
   </g>
</svg>
