<?xml version="1.0" encoding="UTF-8" standalone="no"?>
<!-- Created with Inkscape (http://www.inkscape.org/) -->

<svg version="1.1" id="svg1" width="196" height="196" viewBox="0 0 196 196" sodipodi:docname="Strongbox.svg" inkscape:version="1.3.2 (091e20e, 2023-11-25, custom)"
   xmlns:inkscape="http://www.inkscape.org/namespaces/inkscape"
   xmlns:sodipodi="http://sodipodi.sourceforge.net/DTD/sodipodi-0.dtd"
   xmlns="http://www.w3.org/2000/svg"
   xmlns:svg="http://www.w3.org/2000/svg">
   <defs id="defs1" />
   <sodipodi:namedview id="namedview1" pagecolor="#ffffff" bordercolor="#000000" borderopacity="0.25" inkscape:showpageshadow="2" inkscape:pageopacity="0.0" inkscape:pagecheckerboard="0" inkscape:deskcolor="#d1d1d1" inkscape:zoom="2.195278" inkscape:cx="107.27571" inkscape:cy="201.11349" inkscape:window-width="2560" inkscape:window-height="1494" inkscape:window-x="-11" inkscape:window-y="-11" inkscape:window-maximized="1" inkscape:current-layer="g1" />
   <g inkscape:groupmode="layer" inkscape:label="Image" id="g1" transform="matrix(1.4082125,0,0,1.4082125,-41.479056,-39.447566)">
      <path id="path2" style="display:inline;fill:#1e5f7b;fill-opacity:1;stroke:#cbf0ff;stroke-width:1.4202402;stroke-linejoin:round;stroke-dasharray:none;stroke-dashoffset:2.26667;stroke-opacity:1;paint-order:markers fill stroke" d="m 90.119141,86.820312 a 19.697468,17.474117 0 0 0 -18.919922,18.136718 19.697468,17.474117 0 0 0 20.443359,16.78516 19.697468,17.474117 0 0 0 18.921872,-18.13477 v -0.004 A 19.697468,17.474117 0 0 0 90.119141,86.820312 Z m -0.882813,5.345704 a 5.8783894,5.8381271 0 0 1 6.101563,5.607422 v 0.002 a 5.8783894,5.8381271 0 0 1 -5.646485,6.058592 5.8783894,5.8381271 0 0 1 -6.101562,-5.607421 5.8783894,5.8381271 0 0 1 5.646484,-6.060546 z M 106.77734,42.517578 C 79.171884,63.722705 54.146044,84.927686 29.955078,106.13281 52.00549,123.56953 76.377312,139.14963 100.49609,154.93164 123.40982,133.20983 146.08017,109.89989 168.13867,82.619141 150.44355,67.872642 129.6206,54.690007 106.77734,42.517578 Z m -0.64453,11.917969 c 17.89526,8.867607 33.40135,19.443128 48.31641,30.439453 -16.38808,19.08128 -33.96907,37.44701 -52.50391,55.24023 C 82.171647,129.54158 63.130967,118.39645 47.1875,104.84375 65.894292,88.040699 84.886296,71.238598 106.13281,54.435547 Z" />
   </g>
</svg>
