<?xml version="1.0" encoding="UTF-8" standalone="no"?>
<!-- Created with Inkscape (http://www.inkscape.org/) -->

<svg
   version="1.1"
   id="svg1"
   width="266.66666"
   height="266.66666"
   viewBox="0 0 266.66666 266.66666"
   sodipodi:docname="Ubers.svg"
   inkscape:version="1.3.2 (091e20e, 2023-11-25, custom)"
   xmlns:inkscape="http://www.inkscape.org/namespaces/inkscape"
   xmlns:sodipodi="http://sodipodi.sourceforge.net/DTD/sodipodi-0.dtd"
   xmlns:xlink="http://www.w3.org/1999/xlink"
   xmlns="http://www.w3.org/2000/svg"
   xmlns:svg="http://www.w3.org/2000/svg">
  <defs
     id="defs1" />
  <sodipodi:namedview
     id="namedview1"
     pagecolor="#ffffff"
     bordercolor="#000000"
     borderopacity="0.25"
     inkscape:showpageshadow="2"
     inkscape:pageopacity="0.0"
     inkscape:pagecheckerboard="0"
     inkscape:deskcolor="#d1d1d1"
     inkscape:zoom="2.2668751"
     inkscape:cx="96.829332"
     inkscape:cy="140.94292"
     inkscape:window-width="2560"
     inkscape:window-height="1494"
     inkscape:window-x="-11"
     inkscape:window-y="-11"
     inkscape:window-maximized="1"
     inkscape:current-layer="g1" />
  <g
     inkscape:groupmode="layer"
     inkscape:label="Image"
     id="g1"
     style="display:inline">
    <path
       style="fill:#451386;fill-opacity:1;stroke:#f1c2ff;stroke-width:2;stroke-linejoin:round;stroke-dasharray:none;stroke-dashoffset:2.26667;stroke-opacity:1;paint-order:markers fill stroke"
       id="path2"
       sodipodi:type="arc"
       sodipodi:cx="133.33334"
       sodipodi:cy="133.33333"
       sodipodi:rx="132.10042"
       sodipodi:ry="132.10043"
       sodipodi:start="6.2445921"
       sodipodi:end="6.2443748"
       sodipodi:open="true"
       sodipodi:arc-type="arc"
       d="M 265.3354,128.23641 A 132.10042,132.10043 0 0 1 138.43743,265.33512 132.10042,132.10043 0 0 1 1.3318453,138.44458 132.10042,132.10043 0 0 1 128.21492,1.3320927 132.10042,132.10043 0 0 1 265.33429,128.20773"
       inkscape:label="path2" />
    <path
       style="fill:#5c1bb1;fill-opacity:1;stroke:#e384ff;stroke-width:2;stroke-linejoin:round;stroke-dasharray:none;stroke-dashoffset:2.26667;stroke-opacity:1;paint-order:markers fill stroke"
       id="path1"
       sodipodi:type="arc"
       sodipodi:cx="133.33334"
       sodipodi:cy="133.33333"
       sodipodi:rx="104.40255"
       sodipodi:ry="104.40256"
       sodipodi:start="6.2445921"
       sodipodi:end="6.2443748"
       sodipodi:open="true"
       sodipodi:arc-type="arc"
       d="M 237.65815,129.3051 A 104.40255,104.40256 0 0 1 137.36724,237.65793 104.40255,104.40256 0 0 1 29.008973,137.37289 104.40255,104.40256 0 0 1 129.28811,29.00917 104.40255,104.40256 0 0 1 237.65727,129.28243" />
    <path
       id="path10"
       style="fill:none;fill-opacity:1;stroke:#b143ff;stroke-width:2;stroke-linejoin:round;stroke-dasharray:none;stroke-dashoffset:2.26667;stroke-opacity:1;paint-order:markers fill stroke"
       d="m 258.82516,174.59258 -12.47503,-14.06271 -11.75292,-1.78941 c 0,0 -5.35255,-9.65443 -10.00432,-11.99016 -3.9131,-1.96484 -9.29121,1.40634 -13.11603,-0.72525 -3.90519,-2.17636 -9.5748,-8.72158 -9.5748,-8.72158 m 63.11062,-14.50933 -16.24507,6.79211 -11.11033,-0.30382 c 0,0 -13.3364,2.95888 -20.07505,4.0509 -9.13622,1.48053 -19.03815,6.99759 -27.55918,3.38446 -2.46306,-1.0444 -2.57619,-4.97257 -4.83492,-6.4063 -5.63082,-3.57416 -13.02356,-5.3237 -19.58152,-4.10971 -2.92317,0.54113 -7.49417,4.83495 -7.49417,4.83495 m 10.97586,129.46619 c 0,0 1.30055,-15.38584 -2.51471,-21.51668 -3.65009,-5.86544 -14.10288,-5.18293 -17.40578,-11.25067 -2.0419,-3.75113 1.62226,-8.86183 0,-12.81259 -1.76401,-4.29592 -9.79076,-9.91163 -9.79076,-9.91163 m -6.04371,60.42242 c 0,0 -9.45536,-12.44021 -8.82374,-19.56716 0.72422,-8.17178 11.29661,-12.52877 13.90531,-20.30676 2.18046,-6.50109 2.5172,-13.87016 0.96214,-20.5485 -1.60727,-6.90258 -10.26043,-11.5273 -10.27425,-18.61453 -0.005,-2.93903 4.23053,-7.7359 4.23053,-7.7359 M 170.32623,6.5183069 c 0,0 -1.31659,11.7069581 -5.68661,14.5234911 -2.57743,1.661179 -6.37912,-1.717149 -9.18638,-0.483495 -3.70724,1.62915 -7.73393,9.368357 -7.73393,9.368357 -3.69618,4.477312 -8.34226,15.289849 -8.34226,15.289849 M 133.33334,1.232897 c 0,0 5.02529,12.980983 6.04371,19.808901 1.18878,7.970067 -1.17978,16.203305 0,24.174711 0.4684,3.164808 2.3117,6.021581 2.78009,9.18639 0.58988,3.985703 0,12.087356 0,12.087356 M 8.1825338,91.051 c 0,0 12.9436242,2.400814 19.4979102,2.756677 5.034709,0.273359 10.193511,-1.563352 15.118644,-0.483495 4.224162,0.926168 7.358302,4.979382 11.603859,5.801933 2.936724,0.568969 8.944642,-0.725242 8.944642,-0.725242 M 24.572892,58.355428 c 0,0 5.733475,15.075552 11.940771,19.49694 2.051819,1.461488 5.162969,0.429297 7.380783,1.623958 7.964559,4.290238 19.453143,18.924547 19.453143,18.924547 0,0 12.66493,2.857907 18.372779,5.801927 4.755402,2.45277 12.812596,9.66989 12.812596,9.66989"
       sodipodi:nodetypes="cccssccccssssccsssccssssccsssccsssccsssccsscsc" />
  </g>
</svg>
