<?xml version="1.0" encoding="UTF-8" standalone="no"?>
<!-- Created with Inkscape (http://www.inkscape.org/) -->

<svg version="1.1" id="svg1" width="196" height="196" viewBox="0 0 196 196" sodipodi:docname="Ultimatum.svg" inkscape:version="1.3.2 (091e20e, 2023-11-25, custom)"
   xmlns:inkscape="http://www.inkscape.org/namespaces/inkscape"
   xmlns:sodipodi="http://sodipodi.sourceforge.net/DTD/sodipodi-0.dtd"
   xmlns="http://www.w3.org/2000/svg"
   xmlns:svg="http://www.w3.org/2000/svg">
   <defs id="defs1" />
   <sodipodi:namedview id="namedview1" pagecolor="#ffffff" bordercolor="#000000" borderopacity="0.25" inkscape:showpageshadow="2" inkscape:pageopacity="0.0" inkscape:pagecheckerboard="0" inkscape:deskcolor="#d1d1d1" inkscape:zoom="3.1045919" inkscape:cx="174.41906" inkscape:cy="121.27198" inkscape:window-width="2560" inkscape:window-height="1494" inkscape:window-x="-11" inkscape:window-y="-11" inkscape:window-maximized="1" inkscape:current-layer="g1" />
   <g inkscape:groupmode="layer" inkscape:label="Image" id="g1" transform="matrix(1.2767266,0,0,1.2767266,-31.386971,-25.429392)">
      <path style="fill:#970202;fill-opacity:1;fill-rule:nonzero;stroke:none;stroke-width:0.1;stroke-linejoin:round;stroke-dasharray:none;stroke-dashoffset:2.26667;stroke-opacity:1;paint-order:markers fill stroke" d="m 80.530225,121.6617 -1.07503,0.61448 9.13278,15.26057 0.88655,-1.23365 z" id="path12-8" sodipodi:nodetypes="ccccc" inkscape:label="Filling2" />
      <path id="path12" style="fill:#970202;fill-opacity:1;fill-rule:nonzero;stroke:none;stroke-width:0.1;stroke-linejoin:round;stroke-dasharray:none;stroke-dashoffset:2.26667;stroke-opacity:1;paint-order:markers fill stroke" d="m 122.64929,121.39702 1.07503,0.61448 -9.13278,15.26057 -0.88655,-1.23365 z m -42.784234,0.35417 21.477684,-92.037139 21.72202,92.036709 -9.16527,15.16864 -12.55675,-56.876672 -12.312411,56.877102 z" inkscape:label="Filling1" />
      <path id="path6" style="fill:#970202;fill-opacity:1;stroke:#ffcccc;stroke-width:1.56650609;stroke-linejoin:round;stroke-dasharray:none;stroke-dashoffset:2.26667;stroke-opacity:1;paint-order:markers fill stroke" inkscape:label="Sides" d="m 76.584836,59.445776 7.943185,25.936351 m -19.900669,-20.01455 17.708464,21.865113 4.38441,-3.701126 3.928888,-30.12147 c -5.34033,0.562477 -10.089943,2.437659 -14.064278,6.035682 -4.854042,0.430441 -8.444376,3.107476 -11.957484,5.921801 z M 75.73073,115.47513 c -0.122276,1.55231 -1.378358,1.66959 -2.391497,1.82209 -3.008851,0.4529 -6.209769,-0.56997 -9.110463,0.56941 -4.197561,1.64878 -9.679869,8.65493 -9.679869,8.65493 0,0 -6.85797,-8.30535 -8.882702,-13.21017 -1.983543,-4.80504 -3.097651,-10.11484 -2.9609,-15.31139 0.09935,-3.775253 1.143699,-7.569275 2.733139,-10.995072 2.265824,-4.883641 5.882485,-9.066191 9.452106,-13.096291 1.816736,-2.051094 6.035682,-5.580159 6.035682,-5.580159 L 80.285961,92.92673 c -0.01873,-0.206068 -5.31357,4.976095 -6.263443,9.11046 -0.502145,2.18561 0.06043,4.49412 0.341642,6.71897 0.286597,2.26747 1.546045,4.44051 1.36657,6.71897 z m 50.36991,-56.029354 -7.94318,25.936351 m 19.90066,-20.01455 -17.70846,21.865113 -4.38441,-3.701126 -3.92889,-30.12147 c 5.34033,0.562477 10.08995,2.437659 14.06428,6.035682 4.85404,0.430441 8.44438,3.107476 11.95748,5.921801 z m -11.10337,50.107553 c 0.12227,1.55231 1.37835,1.66959 2.39149,1.82209 3.00885,0.4529 6.20977,-0.56997 9.11047,0.56941 4.19756,1.64878 9.67987,8.65493 9.67987,8.65493 0,0 6.85797,-8.30535 8.8827,-13.21017 1.98354,-4.80504 3.09765,-10.11484 2.9609,-15.31139 -0.0993,-3.775253 -1.1437,-7.569275 -2.73314,-10.995072 -2.26583,-4.883641 -5.88249,-9.066191 -9.45211,-13.096291 -1.81673,-2.051094 -6.03568,-5.580159 -6.03568,-5.580159 L 122.39952,92.92673 c 0.0187,-0.206068 5.31357,4.976095 6.26344,9.11046 0.50214,2.18561 -0.0604,4.49412 -0.34164,6.71897 -0.2866,2.26747 -1.54605,4.44051 -1.36657,6.71897 z" />
      <path id="path4" style="fill:#970202;fill-opacity:1;stroke:#ffcccc;stroke-width:1.56650609;stroke-linejoin:round;stroke-dasharray:none;stroke-dashoffset:2.26667;stroke-opacity:1;paint-order:markers fill stroke" inkscape:label="Arrows" d="M 76.077505,97.772488 C 68.671394,92.954215 60.981626,88.054897 52.82498,83.022186 c -1.449466,-0.390431 -2.898932,0.07773 -4.348398,0.523418 l -9.824158,-11.032046 15.581758,4.348398 c -0.696632,2.029847 -0.119208,2.438167 0.322104,3.01972 7.366452,5.441816 15.033825,10.733171 23.04442,15.852915 z m -2.181778,7.570622 c -8.421307,-1.87431 -16.724023,-4.34157 -25.338619,-5.24944 -2.992934,0.31537 -2.889283,2.17903 -3.945769,3.46262 l -19.527526,-9.059166 22.668036,-3.01972 c -0.150166,1.757421 0.133175,3.352277 1.691043,4.469186 8.017605,2.469209 16.371483,4.09774 24.579626,6.0906 z m 0.468433,3.41305 c -7.556654,1.44292 -14.996834,3.35174 -22.747069,4.02034 -1.852142,0.008 -2.85208,-0.9585 -3.986031,-1.77157 l -11.716516,7.89154 14.132293,0.20131 c 0.676083,-1.12652 0.962728,-2.8372 2.214461,-3.10024 7.582199,-2.35035 15.164397,-3.22552 22.746596,-4.59487 z m 52.24381,-10.983672 c 7.40611,-4.818273 15.09588,-9.717591 23.25253,-14.750302 1.44946,-0.390431 2.89893,0.07773 4.34839,0.523418 l 9.82416,-11.032046 -15.58176,4.348398 c 0.69664,2.029847 0.11921,2.438167 -0.3221,3.01972 -7.36645,5.441816 -15.03382,10.733171 -23.04442,15.852915 z m 2.18178,7.570622 c 8.42131,-1.87431 16.72402,-4.34157 25.33862,-5.24944 2.99293,0.31537 2.88928,2.17903 3.94577,3.46262 l 19.52752,-9.059166 -22.66803,-3.01972 c 0.15016,1.757421 -0.13318,3.352277 -1.69105,4.469186 -8.0176,2.469209 -16.37148,4.09774 -24.57962,6.0906 z m -0.46843,3.41305 c 7.55665,1.44292 14.99683,3.35174 22.74706,4.02034 1.85215,0.008 2.85209,-0.9585 3.98604,-1.77157 l 11.71651,7.89154 -14.13229,0.20131 c -0.67608,-1.12652 -0.96273,-2.8372 -2.21446,-3.10024 -7.5822,-2.35035 -15.1644,-3.22552 -22.7466,-4.59487 z" />
      <path id="path12-1" style="fill:#970202;fill-opacity:1;stroke:#ffcccc;stroke-linejoin:round;stroke-dashoffset:2.26667;stroke-opacity:1;paint-order:markers fill stroke;stroke-width:1.56650609;stroke-dasharray:none" d="m 135.44925,136.87137 a 4.2074776,4.2074776 0 0 1 -4.04178,4.36667 4.2074776,4.2074776 0 0 1 -4.36689,-4.04154 4.2074776,4.2074776 0 0 1 4.0413,-4.36711 4.2074776,4.2074776 0 0 1 4.36733,4.04106 m -59.194328,9.2e-4 a 4.2074776,4.2074776 0 0 1 -4.041777,4.36667 4.2074776,4.2074776 0 0 1 -4.366895,-4.04154 4.2074776,4.2074776 0 0 1 4.041302,-4.36711 4.2074776,4.2074776 0 0 1 4.367334,4.04106 m 3.610388,-15.1185 c -2.834646,-1.49091 -6.030225,-2.15804 -9.224609,-1.92578 -4.281465,0.31143 -8.290347,2.2176 -11.234375,5.3418 -5.279368,5.60223 -6.177881,14.03627 -2.197266,20.625 3.981177,6.589 11.865927,9.71671 19.28125,7.64844 7.415242,-2.06736 12.543605,-8.82345 12.541016,-16.52149 m 24.86914,0 c -0.003,7.69749 5.12459,14.4534 12.53906,16.52149 7.41532,2.06827 15.30007,-1.05944 19.28125,-7.64844 3.98062,-6.58873 3.08211,-15.02277 -2.19726,-20.625 -2.94403,-3.1242 -6.95291,-5.03037 -11.23438,-5.3418 -3.1942,-0.23286 -6.38977,0.43359 -9.22461,1.92383 m -51.429684,5.62305 c 5.335098,-0.20695 9.827898,3.95006 10.035156,9.28515 v 0.002 c 0.205832,5.33508 -3.952041,9.82698 -9.28711,10.0332 -5.335102,0.20695 -9.827904,-3.95007 -10.035156,-9.28516 -0.206938,-5.33583 3.951249,-9.82894 9.28711,-10.03515 z m 59.386714,0 c 5.3351,-0.20696 9.8279,3.95006 10.03516,9.28515 v 0.002 c 0.20583,5.33508 -3.95204,9.82698 -9.28711,10.0332 -5.3351,0.20695 -9.8279,-3.95007 -10.03515,-9.28516 -0.20694,-5.33583 3.95124,-9.82894 9.2871,-10.03515 z" inkscape:label="Balls" />
      <path id="path10" style="fill:none;fill-opacity:1;stroke:#ffcccc;stroke-width:1.56650609;stroke-linejoin:round;stroke-dasharray:none;stroke-dashoffset:2.26667;stroke-opacity:1;paint-order:markers fill stroke" d="M 89.030329,136.91983 101.34274,80.042728 113.89949,136.92593 M 79.865056,121.75119 101.34274,29.714051 123.06476,121.75076" inkscape:label="Contours" />
   </g>
</svg>
