<?xml version="1.0" encoding="UTF-8" standalone="no"?>
<!-- Created with Inkscape (http://www.inkscape.org/) -->

<svg version="1.1" id="svg1" width="200" height="200" viewBox="0 0 200 200" sodipodi:docname="Shade_of_Solaris_inventory.svg" inkscape:version="1.3.2 (091e20e, 2023-11-25, custom)"
   xmlns:inkscape="http://www.inkscape.org/namespaces/inkscape"
   xmlns:sodipodi="http://sodipodi.sourceforge.net/DTD/sodipodi-0.dtd"
   xmlns="http://www.w3.org/2000/svg"
   xmlns:svg="http://www.w3.org/2000/svg">
   <defs id="defs1" />
   <sodipodi:namedview id="namedview1" pagecolor="#ffffff" bordercolor="#000000" borderopacity="0.25" inkscape:showpageshadow="2" inkscape:pageopacity="0.0" inkscape:pagecheckerboard="0" inkscape:deskcolor="#d1d1d1" inkscape:zoom="3.6775596" inkscape:cx="83.343312" inkscape:cy="93.676251" inkscape:window-width="2560" inkscape:window-height="1494" inkscape:window-x="-11" inkscape:window-y="-11" inkscape:window-maximized="1" inkscape:current-layer="g1" />
   <g inkscape:groupmode="layer" inkscape:label="Image" id="g1" transform="matrix(1.0968789,0,0,1.0968789,-9.484744,-3.7977259)">
      <path id="path18256" style="display:inline;fill:#999100;fill-opacity:1;stroke:#fffacc;stroke-width:2;stroke-linejoin:round;stroke-dasharray:none;stroke-dashoffset:2.26667;stroke-opacity:1;paint-order:markers fill stroke" d="M 151.99425,52.539441 123.00863,45.761709 148.91783,44.415777 125.31594,28.216516 152.18652,38.503287 134.73747,12.78636 157.23377,32.783073 154.15735,9.3253903 165.2613,34.89811 Z m 0.14468,0.212933 1.08768,31.542656 6.52607,-30.183059 10.19698,26.240227 -4.89455,-28.823462 18.76244,20.257999 -13.05213,-23.792952 18.76244,8.021624 -19.30628,-16.315167 z" inkscape:label="spikes" />
      <path style="display:inline;fill:#980000;fill-opacity:1;stroke:#fffacc;stroke-width:1.68494;stroke-linejoin:round;stroke-dasharray:none;stroke-dashoffset:2.26667;stroke-opacity:1;paint-order:markers fill stroke" id="path18253" sodipodi:type="arc" sodipodi:cx="148.26894" sodipodi:cy="-68.756683" sodipodi:rx="7.5726438" sodipodi:ry="12.939797" sodipodi:start="6.2445921" sodipodi:end="6.2443748" sodipodi:open="true" sodipodi:arc-type="arc" d="m 155.83594,-69.255948 a 7.5726438,12.939797 0 0 1 -7.27441,13.4294 7.5726438,12.939797 0 0 1 -7.85957,-12.429466 7.5726438,12.939797 0 0 1 7.27356,-13.43075 7.5726438,12.939797 0 0 1 7.86036,12.428007" transform="matrix(0.81122004,0.58474101,-0.6987571,0.71535901,0,0)" inkscape:label="gem" />
      <path style="display:inline;fill:#999100;fill-opacity:1;stroke:#fffacc;stroke-width:2;stroke-linejoin:round;stroke-dasharray:none;stroke-dashoffset:2.26667;stroke-opacity:1;paint-order:markers fill stroke" d="m 123.63353,70.565325 c 13.64719,-15.179818 25.90376,-37.31272 41.14708,-44.511915 0,0 -9.8333,9.822272 -10.67132,16.24733 -0.11796,0.904385 0.12535,2.062444 0.86524,2.595727 0.77991,0.562129 0.91458,0.304015 1.82662,0 6.08031,-2.026768 15.38209,-11.536566 15.38209,-11.536566 0,0 -7.67378,9.143997 -9.15644,14.957713 -0.10325,0.40487 0.18078,1.015441 0.50398,1.385755 0.45244,0.518389 1.14036,1.010987 1.82663,0.96138 6.52108,-0.471381 15.86277,-11.536565 15.86277,-11.536565 -0.13744,1.649254 -13.47019,23.539758 -53.64502,37.205423 z" id="path18257" sodipodi:nodetypes="ccssscsasccc" inkscape:label="gripper" />
      <path style="display:inline;fill:#503716;fill-opacity:1;stroke:#fffacc;stroke-width:2;stroke-linejoin:round;stroke-dasharray:none;stroke-dashoffset:2.26667;stroke-opacity:1;paint-order:markers fill stroke" d="m 10.427663,176.72832 c 3.685911,-6.12879 5.116516,-12.95153 5.479625,-20.10272 2.061207,-0.97327 4.067915,-1.99649 4.622631,-4.35071 6.480747,-1.05348 12.625011,-3.38321 19.105758,-7.12622 0,0 6.260674,-4.89003 8.901945,-7.82935 3.781928,-4.2087 9.789101,-13.86789 9.789101,-13.86789 l 63.901067,-57.918842 5.30243,-0.271919 7.30884,7.716715 0.033,4.111781 -64.852791,59.958235 c 0,0 -9.568145,3.6943 -13.84315,6.67852 -4.07326,2.84339 -6.822968,6.41241 -10.500474,11.05398 -4.509142,5.69122 -6.198389,10.28529 -7.199032,15.7136 -1.468278,0.80739 -3.09995,0.30763 -4.214752,3.94283 -8.966158,0.28159 -15.527426,2.4131 -21.176728,5.24611 z" id="path18254" sodipodi:nodetypes="ccccsccccccsscccc" inkscape:label="handle" />
   </g>
</svg>
