<?xml version="1.0" encoding="UTF-8" standalone="no"?>
<!-- Created with Inkscape (http://www.inkscape.org/) -->

<svg version="1.1" id="svg1" width="196" height="196" viewBox="0 0 196 196" sodipodi:docname="Bestiary.svg" inkscape:version="1.3.2 (091e20e, 2023-11-25, custom)"
   xmlns:inkscape="http://www.inkscape.org/namespaces/inkscape"
   xmlns:sodipodi="http://sodipodi.sourceforge.net/DTD/sodipodi-0.dtd"
   xmlns="http://www.w3.org/2000/svg"
   xmlns:svg="http://www.w3.org/2000/svg">
   <defs id="defs1" />
   <sodipodi:namedview id="namedview1" pagecolor="#ffffff" bordercolor="#000000" borderopacity="0.25" inkscape:showpageshadow="2" inkscape:pageopacity="0.0" inkscape:pagecheckerboard="0" inkscape:deskcolor="#d1d1d1" inkscape:zoom="5.6568543" inkscape:cx="94.663919" inkscape:cy="105.80085" inkscape:window-width="2560" inkscape:window-height="1494" inkscape:window-x="-11" inkscape:window-y="-11" inkscape:window-maximized="1" inkscape:current-layer="g1" />
   <g inkscape:groupmode="layer" inkscape:label="Image" id="g1">
      <path id="path6" style="display:inline;fill:#6b2e2e;fill-opacity:1;stroke:#f9d2d2;stroke-width:1.56141;stroke-linejoin:round;stroke-dasharray:none;stroke-dashoffset:2.26667;stroke-opacity:1" d="m 138.19516,96.247995 4.80165,5.498935 4.51035,-11.88965 -3.97692,-2.780022 z m -11.37946,16.123345 5.50029,8.42028 8.50259,-13.79915 -5.87717,-6.45508 z m -66.337448,-11.36216 -4.840749,5.84662 8.043799,14.06627 4.528919,-8.97274 z M 51.643224,86.848889 c -0.926982,0.61632 -1.815641,0.926053 -2.795342,1.964127 1.147886,3.877019 2.367782,7.61862 3.772012,11.316034 l 4.40068,-4.212077 c -2.196465,-3.022696 -3.670146,-6.045389 -5.37735,-9.068084 z M 0.95749943,111.01765 C 20.641142,99.881019 38.823868,87.993924 56.140624,75.673841 c 1.583833,1.400455 3.462125,2.211994 3.771825,6.160714 l -4.149213,3.017848 5.406551,7.795493 c 1.774943,-2.347001 3.218274,-3.920244 4.644522,-5.453623 2.031999,1.649426 2.765423,3.57712 3.15097,5.579356 l -4.652148,4.02348 6.670861,8.662341 c 1.227204,-1.33576 2.339453,-3.89876 3.113489,-5.800977 1.394441,1.446707 2.502682,2.988817 3.186488,4.672407 -0.321992,2.53358 -0.814282,3.90214 -1.610348,6.3172 l 7.373836,11.67298 -2.011739,2.26319 -8.372735,-8.5658 -4.911241,9.98638 c 6.499717,16.58387 18.516559,27.2091 30.258031,38.05983 12.762287,-11.96559 24.486827,-24.18486 29.798887,-37.97161 l -4.65213,-9.17856 c -2.43107,3.02782 -5.32486,5.47725 -8.42417,7.66976 -1.31479,-0.59994 -1.78451,-1.6224 -1.76027,-2.89187 2.15279,-3.7744 4.63807,-6.99471 7.29255,-9.93297 -1.10507,-1.89717 -2.03713,-4.14032 -2.6404,-7.04109 1.19749,-2.18085 3.05186,-3.54058 4.90362,-4.903613 1.43502,1.886013 1.72009,3.772013 2.38894,5.658023 2.09884,-3.16886 4.27171,-5.967526 6.53814,-8.298419 -1.97551,-1.209737 -4.2074,-2.163106 -4.9036,-4.65215 0.98645,-2.662633 2.57628,-4.797299 4.9036,-6.286686 2.30328,1.583726 2.45644,3.64525 3.39482,5.532285 2.71365,-2.179385 3.60972,-4.35877 5.28082,-6.538155 -1.67646,-2.095189 -3.35291,-3.347851 -5.02935,-4.274946 1.59256,-5.064589 3.18512,-4.434488 4.77769,-5.65802 18.02918,14.615106 34.67485,26.373131 54.88297,36.462771 0.68031,3.20412 1.3454,6.5518 -4.14922,7.35543 -13.44262,-9.63099 -24.35004,-15.91847 -38.38878,-26.592679 -1.3631,3.979519 -2.47689,8.386019 -4.23495,12.761969 11.77037,13.73094 24.38163,26.12398 38.16018,38.34879 -1.05006,4.33911 -4.06727,5.98633 -8.29842,5.97235 -10.31346,-13.60091 -22.16483,-26.59847 -31.99924,-37.21719 -2.51967,6.37998 -5.83508,11.76529 -8.98996,17.35125 6.29077,13.22931 11.38396,26.65822 16.72258,40.04621 -1.05929,3.79808 -3.49155,4.74458 -6.72675,4.02349 -4.17866,-12.57605 -8.52855,-25.16768 -14.52224,-37.90874 -8.47025,11.51935 -17.52415,22.1632 -26.65556,32.69077 l -7.669757,19.99167 -9.178563,-22.0034 C 78.70109,157.54468 70.590708,146.69226 63.810197,134.64296 59.764243,146.91267 54.83488,158.96152 49.858986,170.99874 46.57438,172.6002 44.627587,171.69325 43.231924,169.75295 48.339812,156.73058 54.239098,141.41728 58.65642,128.85529 54.900079,123.23081 52.655121,117.7175 50.321169,111.85596 40.117293,125.96388 29.15206,136.21098 17.300267,149.65974 13.616753,149.03313 9.9422172,148.39498 8.6893562,144.64325 23.403179,133.24177 35.272919,119.43374 46.961874,105.47273 L 43.692797,92.019226 C 31.149456,103.36035 20.593719,110.24995 5.1511657,119.37949 2.2036027,117.31862 0.13716861,114.84472 0.95749943,111.01765 Z M 88.134942,88.635801 87.690406,104.19455 c 2.591159,2.59025 3.566781,5.03365 4.934349,7.51266 0.283754,-2.73126 -0.09028,-5.93236 0.933524,-8.13501 -0.385263,-0.88458 -0.770528,-1.4243 -1.155792,-3.42293 0.249958,-1.431531 1.290737,-2.204061 2.222682,-3.067284 -2.16341,-3.357636 -4.326818,-5.738501 -6.490227,-8.446185 z m -5.959506,-9.494875 c 2.042846,0.329713 4.025201,1.566806 6.22382,-0.44007 0.887245,-1.601554 0.63612,-3.690982 0.377202,-5.78375 -1.043915,-2.905652 -2.142565,-6.054941 -3.897745,-9.115697 -1.685762,-2.971236 -3.106679,-5.9204 -6.726755,-9.05283 -2.430853,-0.45736 -4.861706,-0.35753 -7.292558,0.691538 -2.646384,1.899989 -5.137736,3.980849 -6.789622,7.041087 l -1.068737,6.286687 c 2.836478,2.787099 4.699835,5.574196 9.367164,8.361295 3.23818,0.495493 6.123214,-1.010168 9.807231,2.01174 z m 39.767414,-2.041125 c 4.66732,-2.787098 6.5307,-5.574195 9.36716,-8.361293 l -1.06873,-6.286688 c -1.65188,-3.060238 -4.14323,-5.141098 -6.78963,-7.041088 -2.43084,-1.049067 -4.8617,-1.148898 -7.29256,-0.691536 -3.62007,3.132429 -5.04099,6.081594 -6.72674,9.05283 -1.75518,3.060754 -2.85384,6.210044 -3.89775,9.115696 -0.25893,2.092769 -0.51005,4.182196 0.37719,5.783751 2.19862,2.006876 4.18098,0.769782 6.22384,0.440069 3.68401,-3.021909 6.56904,-1.516248 9.80722,-2.011741 z M 99.461227,97.081998 c 0.931943,0.863223 1.972733,1.635741 2.222683,3.067292 -0.38526,1.99863 -0.77053,2.53834 -1.1558,3.42293 1.0238,2.20265 0.64977,5.40373 0.93353,8.13499 1.36756,-2.47901 2.34319,-4.92241 4.93435,-7.51265 l -0.44454,-15.558744 c -2.16341,2.707689 -4.32682,5.088548 -6.490223,8.446182 z M 97.959184,155.38558 C 89.977572,133.14045 82.647742,110.82294 77.660885,88.245074 73.298939,84.767236 70.142062,84.502913 66.731031,83.560851 63.962776,76.372336 56.937507,69.791965 49.555547,63.26255 c -1.632986,-3.643284 -0.610694,-7.28657 0,-10.929854 1.636987,4.860461 4.502477,7.509618 7.807037,9.368447 6.319533,-1.611097 6.162824,-4.949191 7.807039,-7.807039 C 63.449734,45.091154 62.219116,37.75601 62.827511,35.937916 64.712212,28.690757 70.184546,23.685871 74.538069,17.981727 L 70.63455,8.6132804 78.441589,14.858911 C 84.947455,10.139572 91.45332,8.1015557 97.959184,7.0518728 106.46659,7.4525284 112.29217,10.803182 117.47678,14.858911 l 7.80704,-6.2456306 -3.90353,9.3684466 c 6.27253,5.274396 10.57909,11.726375 11.71057,17.956189 0.75762,5.985395 -1.26451,11.970792 -2.34212,17.956188 -0.65804,0 5.76459,7.327129 7.80704,7.807039 2.37147,0.55722 8.41739,-7.842622 7.80704,-9.368447 0.52347,3.556042 1.39971,7.053287 0,10.929854 -5.75817,6.204777 -11.71712,8.99647 -17.17549,20.298301 -3.64328,1.100541 -7.28655,1.396366 -10.92985,4.684223 -5.09634,22.171446 -12.5599,44.638796 -20.298296,67.140506 z" />
   </g>
</svg>
