<?xml version="1.0" encoding="UTF-8" standalone="no"?>
<!-- Created with Inkscape (http://www.inkscape.org/) -->

<svg version="1.1" id="svg1" width="196" height="196" viewBox="0 0 196 196" sodipodi:docname="Betrayal.svg" inkscape:version="1.3.2 (091e20e, 2023-11-25, custom)"
   xmlns:inkscape="http://www.inkscape.org/namespaces/inkscape"
   xmlns:sodipodi="http://sodipodi.sourceforge.net/DTD/sodipodi-0.dtd"
   xmlns="http://www.w3.org/2000/svg"
   xmlns:svg="http://www.w3.org/2000/svg">
   <defs id="defs1" />
   <sodipodi:namedview id="namedview1" pagecolor="#ffffff" bordercolor="#000000" borderopacity="0.25" inkscape:showpageshadow="2" inkscape:pageopacity="0.0" inkscape:pagecheckerboard="0" inkscape:deskcolor="#d1d1d1" inkscape:zoom="3.1045919" inkscape:cx="53.630237" inkscape:cy="121.59408" inkscape:window-width="2560" inkscape:window-height="1494" inkscape:window-x="-11" inkscape:window-y="-11" inkscape:window-maximized="1" inkscape:current-layer="g1" />
   <g inkscape:groupmode="layer" inkscape:label="Image" id="g1">
      <path id="path18" style="fill:#969900;fill-opacity:1;stroke:#ecebdf;stroke-width:1.55244;stroke-linejoin:round;stroke-dasharray:none;stroke-dashoffset:2.26667;stroke-opacity:1" d="m 3.708368,127.05399 c 4.0975876,0.5455 6.182922,-1.55714 6.6256,-4.50041 M 23.64767,58.047743 c 5.372165,-1.480631 8.036832,-4.044258 9.25084,-7.18815 m 0.937584,-6.813116 c 3.753166,-0.03574 6.850492,-0.909505 7.625688,-4.750429 m 14.25129,7.688194 c 2.108782,2.16391 8.996649,-0.114389 9.188331,-4.000363 m -26.439891,47.75432 0.0625,-11.188511 6.625598,-7.688197 2.812755,-4.87544 -1.625144,-4.562913 -15.063863,-13.50122 M 46.462233,97.988855 48.399909,87.112872 59.46341,80.362262 64.901403,72.924089 64.776384,64.360813 54.837987,46.546702 M 144.15259,170.7267 c 0,0 -21.36786,2.98328 -31.82268,1.14917 -9.2319,-1.61957 -18.542041,-4.94453 -26.076919,-10.51918 -7.343302,-5.4329 -12.704394,-13.37298 -17.237287,-21.30352 -3.169421,-5.54508 -4.872983,-11.82984 -6.718122,-17.94444 -2.298177,-7.61595 -5.504507,-15.29391 -5.392177,-23.248246 0.03612,-2.558324 1.378488,-4.373165 3.182269,-6.187745 2.645434,-2.661269 6.624781,-1.914526 9.635202,-4.154627 3.417852,-2.543277 5.716018,-6.732006 6.718121,-10.87275 0.882944,-3.648373 0.755445,-7.849568 -0.883963,-11.226335 -0.910697,-1.875804 -3.005476,-4.861799 -3.005476,-4.861799 0,0 1.542439,-9.883869 -0.707171,-13.966622 -1.357155,-2.463062 -6.894915,-4.8618 -6.894915,-4.8618 -1.719518,-3.236523 -3.682797,-5.652625 -6.408736,-8.441849 -3.691779,-2.584254 -7.461174,-3.22811 -11.270532,-2.872882 3.447747,2.369822 7.11111,4.831088 7.734679,7.602085 0.598654,2.660281 0.54579,5.124476 0.132594,7.778878 -2.140652,-1.056927 -4.111758,-2.147766 -6.806519,-3.093871 0.416211,-2.198819 0.349342,-4.194146 -1.104955,-5.215386 -1.58235,-1.111162 -5.745762,0.795568 -5.745762,0.795568 0,0 -5.058626,-6.55403 -8.795436,-7.336897 -5.074578,-1.063131 -15.867143,5.215385 -15.867143,5.215385 0,0 9.997642,-1.649712 13.436245,0.530379 2.070877,1.312948 3.580052,6.364535 3.580052,6.364535 -1.883241,0.708199 -1.664987,2.536435 -2.254109,5.126989 0,0 -8.693791,-3.50028 -13.082657,-2.740286 -3.810455,0.659834 -7.46949,6.983311 -7.46949,6.983311 0,0 8.557805,-1.864616 11.182136,0.795566 2.34222,2.374216 1.953194,6.951963 0.574576,9.988788 -1.666482,3.670937 -7.016949,4.286379 -9.546805,7.425293 -2.48107,3.078384 -4.433687,6.803462 -5.1269875,10.695956 -0.986095,5.53637 -0.1655096,11.453211 1.5911345,16.795304 3.092322,9.403998 15.292566,25.458138 15.292566,25.458138 L 11.204494,123.34628 C 7.3976307,120.65827 7.2100402,117.6339 6.9172725,114.50665 L 6.2543,109.64484 c 0,0 -1.8836688,4.56366 -2.2099087,6.98331 -0.7170967,5.31855 -0.6370701,10.87046 0.6187732,16.08813 0.9347435,3.8836 2.2599965,8.00301 5.0385925,10.87276 3.556511,3.67316 13.701432,6.8949 13.701432,6.8949 -2.725539,2.51592 -6.492366,5.33658 -6.408734,9.14903 5.988681,-4.55346 11.26303,-2.35326 15.955541,5.34799 -2.043416,1.76281 -4.589352,1.59931 -7.336897,0.66296 0,0 18.299483,15.44611 29.082398,20.28695 9.010497,4.04516 19.049247,5.43227 28.817205,6.89492 8.876019,1.32908 18.092278,3.53913 26.872488,1.67953 6.36918,-1.34895 11.97353,-5.30961 17.32568,-9.01641 6.05504,-4.19365 16.44172,-14.76221 16.44172,-14.76221 z m -40.74772,-54.86122 c 0,0 -8.612037,13.02238 -9.500845,20.50185 -0.651901,5.48584 0.486352,11.46816 3.250296,16.25146 2.718283,4.70427 7.053199,8.26516 12.251109,10.75098 5.1979,2.48582 11.92009,3.45225 18.00161,3.12528 5.58416,-0.30022 11.24845,-1.89079 16.12646,-4.62542 3.60162,-2.01906 9.12584,-8.37577 9.12584,-8.37577 0,0 -13.97519,1.95119 -20.87688,1.00011 -5.35214,-0.73755 -10.89151,-2.11299 -15.37641,-5.12547 -3.87579,-2.60335 -7.14261,-6.39915 -9.12581,-10.62595 -3.28525,-7.00194 -3.87537,-22.87707 -3.87537,-22.87707 z m 4.5004,0.50003 c 2.12837,9.7787 4.05031,22.68715 11.87608,28.6276 7.82577,5.94044 18.34124,2.44272 27.75253,3.3753 l -8.7508,-7.87571 c 0,0 16.50149,-10.0009 16.50149,-9.50086 0,0.50004 -16.00144,0.25002 -16.00144,0.25002 l 6.25058,-15.37638 -16.87655,11.50103 -2.75025,-18.62668 -5.75051,17.75159 z M 118.15621,85.175197 107.86109,74.685621 m 17.04574,7.801833 -10.39739,-12.969004 m 18.3981,11.781397 -9.83483,-13.482915 m 24.64868,13.545421 -18.99413,-18.468201 m 25.05717,11.28005 c -8.18538,-6.98549 -15.61835,-15.122284 -24.85136,-20.012535 m 27.66412,10.386664 C 142.99347,49.054169 126.78544,39.952437 109.53042,33.420515 m 47.87933,16.751516 C 139.92437,37.469111 122.77604,24.541499 93.122705,19.950547 M 166.09805,43.296408 C 142.69867,19.371703 111.57228,11.997213 79.058932,11.106 m 6.594347,113.76027 c 0,0 16.039861,-21.94916 28.002541,-26.877415 6.93616,-2.857492 15.16698,-1.947566 22.50201,-0.375035 8.1475,1.746704 16.98021,4.49849 22.62706,10.62596 5.00399,5.42989 6.65431,13.44969 7.75069,20.75188 1.14666,7.63704 0.39315,15.60962 -1.37511,23.12709 -1.12005,4.76168 -5.75052,13.50122 -5.75052,13.50122 0,0 16.88786,-11.31751 22.252,-19.62678 5.53325,-8.57116 7.45308,-19.16871 9.00082,-29.25264 2.07359,-13.50996 2.47682,-27.518164 0.25001,-41.003708 C 189.25317,65.686163 186.10357,55.623754 180.91189,46.859231 175.72472,38.10234 168.32846,30.62659 160.41004,24.232186 152.95874,18.215002 144.43576,13.386543 135.53279,9.8558842 124.70896,5.5634661 113.08433,3.2941628 101.52969,1.8551616 86.682631,0.00612149 56.650657,1.1050926 56.650657,1.1050926 c 4.627742,4.1230489 9.833008,7.668576 15.876436,10.3759394 l 6.500588,-0.375035 c 2.413718,3.874473 5.59402,6.279664 9.000812,8.250747 l 5.125464,0.625056 c 1.052388,4.304984 2.9756,8.353354 7.750703,11.501041 2.50912,0.810348 4.37162,1.782354 8.7508,2.125192 -1.69293,3.364313 -2.51755,6.632151 0.25001,9.500858 5.42764,4.271172 12.08965,7.719428 19.00172,11.000997 -1.50472,2.64619 -2.22085,5.442591 -0.25003,8.75079 -2.95599,1.019882 -6.65185,1.625438 -5.6255,4.875441 -2.82316,-0.124412 -5.70734,-1.714101 -8.37577,1.875171 -3.11874,0.433895 -6.4922,0.538832 -6.87561,5.000451 0,0 -11.03532,12.267874 -14.501311,19.626776 -4.482934,9.518053 -7.62569,30.627753 -7.62569,30.627753 z" />
   </g>
</svg>
