<?xml version="1.0" encoding="UTF-8" standalone="no"?>
<!-- Created with Inkscape (http://www.inkscape.org/) -->

<svg version="1.1" id="svg1" width="196" height="196" viewBox="0 0 196 196" sodipodi:docname="Beyond.svg" inkscape:version="1.3.2 (091e20e, 2023-11-25, custom)"
   xmlns:inkscape="http://www.inkscape.org/namespaces/inkscape"
   xmlns:sodipodi="http://sodipodi.sourceforge.net/DTD/sodipodi-0.dtd"
   xmlns="http://www.w3.org/2000/svg"
   xmlns:svg="http://www.w3.org/2000/svg">
   <defs id="defs1" />
   <sodipodi:namedview id="namedview1" pagecolor="#ffffff" bordercolor="#000000" borderopacity="0.25" inkscape:showpageshadow="2" inkscape:pageopacity="0.0" inkscape:pagecheckerboard="0" inkscape:deskcolor="#d1d1d1" inkscape:zoom="4.3905559" inkscape:cx="37.922305" inkscape:cy="127.20485" inkscape:window-width="2560" inkscape:window-height="1494" inkscape:window-x="-11" inkscape:window-y="-11" inkscape:window-maximized="1" inkscape:current-layer="g1" />
   <g inkscape:groupmode="layer" inkscape:label="Image" id="g1">
      <path id="path7" style="fill:#821733;fill-opacity:1;stroke:#f5d6d6;stroke-width:1.66277;stroke-linejoin:round;stroke-dasharray:none;stroke-dashoffset:2.26667;stroke-opacity:1" d="m 92.007876,100.3269 5.304384,-5.097796 5.29963,4.671748 -4.733946,5.112638 z m 6.393192,-23.749495 c 0,0 -8.781861,5.804085 -11.266763,10.225296 -2.125847,3.782365 -2.458124,8.442786 -2.461647,12.781623 -0.0028,3.534246 0.508285,7.205196 1.988253,10.414656 2.726448,5.91257 12.213548,15.24326 12.213548,15.24326 0,0 6.424601,-5.24276 8.331721,-8.80512 2.20053,-4.11042 2.61559,-8.99919 3.12442,-13.63372 0.52354,-4.768504 -1.60948,-14.533179 -1.60948,-14.533179 -1.37009,-5.569462 -5.72465,-8.728406 -10.320052,-11.692816 z M 138.7342,130.63891 c 9.84977,1.84427 17.13792,5.87826 20.66292,12.4976 m -28.89997,-24.33242 c 7.8851,2.072 15.30769,2.24573 22.43885,1.30182 m -62.003061,19.27692 c 2.763422,7.81733 4.01884,15.87276 5.112656,23.95372 M 68.009211,126.7571 c -6.471085,3.72308 -13.069429,6.89962 -19.125091,12.40291 M 23.36877,97.263535 c 0,0 -10.027317,6.188875 -11.247252,11.381135 -0.849018,3.61359 1.207317,7.64388 3.481291,10.57779 2.533212,3.26837 6.348064,6.12582 10.443878,6.69478 5.034606,0.69937 10.502965,-1.40285 14.594649,-4.41856 3.079132,-2.26942 6.427001,-9.50661 6.427001,-9.50661 0,0 -9.601725,-6.49522 -12.318418,-11.38114 -2.297007,-4.131121 -2.730961,-9.198692 -2.677918,-13.925168 0.05226,-4.656857 2.945709,-13.657379 2.945709,-13.657379 0,0 3.782111,10.813992 7.364274,15.130233 2.200504,2.651444 4.875572,5.791641 8.301542,6.159208 3.55517,0.381427 8.525149,-1.068324 9.7744,-4.418563 C 62.690602,83.911659 55.173428,78.261493 52.424173,72.492798 49.813599,67.015094 46.380117,61.889993 44.390421,56.157504 42.923644,51.931593 41.498927,47.508226 41.578607,43.035709 41.689278,36.823229 43.000715,30.327082 46.131067,24.959767 52.126976,14.679154 71.97297,0.32292708 71.97297,0.32292708 c 0,0 -10.342109,24.88197092 -10.443878,38.02642592 -0.04424,5.715508 1.780954,11.464955 4.284667,16.603088 2.53783,5.208149 10.577774,13.791274 10.577774,13.791274 -0.955677,-7.93353 -1.06741,-15.253282 1.874542,-20.352172 1.077583,6.08587 2.038774,12.214067 5.021094,17.607306 1.55563,-8.158627 4.001484,-16.725205 7.832908,-23.833464 0.214947,7.406891 0.562227,14.794874 2.008438,22.02587 l 6.560901,-3.079605 c 3.027004,-4.8979 0.777614,-10.549573 0.401674,-15.933607 4.92599,6.333455 8.55146,12.590409 10.44389,18.745421 4.4909,-4.13692 4.61294,-10.458271 6.15921,-16.067504 2.41009,7.882006 6.53354,15.60552 4.61941,23.833463 2.03897,0.420489 2.9462,2.349957 3.94993,4.150772 1.66525,0.475786 10.44802,-13.010979 10.57778,-21.02165 0.11904,-7.349231 -1.74668,-14.946619 -5.22194,-21.42334 -2.64321,-4.926062 -6.40743,-9.766028 -11.38115,-12.318419 -4.84151,-2.484545 -16.20141,-2.008436 -16.20141,-2.008436 0,0 15.44805,-6.950634 23.43178,-5.89142 8.51745,1.130026 16.94042,6.030601 22.49451,12.586212 4.69074,5.536585 6.7222,13.258026 7.36429,20.486068 0.70897,7.981097 -1.68221,16.034724 -4.01689,23.699566 -2.02558,6.650057 -8.56934,19.013215 -8.56934,19.013215 -2.15382,4.778794 -5.04695,9.944217 -4.28467,15.130229 0.44653,3.0379 2.03969,6.79948 4.95415,7.76597 3.94184,1.30717 8.57722,-1.62368 11.64894,-4.41857 2.17028,-1.9747 3.88297,-7.899856 3.88297,-7.899856 0,0 -0.19332,9.208186 -1.87453,13.389576 -1.10905,2.75837 -5.22195,7.23039 -5.22195,7.23039 0,0 10.1444,-2.00359 14.05908,-5.08805 4.20045,-3.30962 6.52306,-8.56854 8.83713,-13.38958 3.02331,-6.298716 6.42699,-19.950487 6.42699,-19.950487 2.79227,7.236485 5.14303,11.356491 2.00845,23.699567 -3.13458,12.34309 -13.44722,27.64477 -24.90465,37.62473 0,0 5.28512,16.80184 12.05063,21.42335 6.06675,4.14418 21.82503,3.07959 21.82503,3.07959 0,0 -8.04072,8.87468 -13.52348,9.64052 -6.99048,0.97643 -13.98371,-3.32584 -19.95049,-7.09648 -6.02943,-3.81023 -8.98504,-11.50965 -15.13021,-15.13025 -4.60068,-2.7106 -10.09698,-5.06079 -15.39804,-4.41855 -3.83051,0.46408 -8.39351,2.26895 -10.04218,5.75753 -1.4892,3.15112 -0.15248,7.38364 1.74065,10.30996 4.14183,6.40234 13.10057,7.90499 19.01319,12.72012 6.02014,4.90266 16.6031,16.3353 16.6031,16.3353 0,0 -17.48387,-5.30575 -26.37749,-7.36427 -6.94222,-1.60684 -15.14055,0.1405 -21.02165,-3.883 -6.79802,-4.65089 -12.987897,-21.02163 -12.987897,-21.02163 0,0 -9.842257,7.65625 -13.925179,12.31841 -2.055178,2.34675 -5.46104,4.65568 -5.221939,7.76594 0.302617,3.9365 8.033752,8.70325 8.033752,8.70325 0,0 -9.464481,0.79652 -13.523482,-1.20507 -3.371282,-1.66246 -6.973591,-4.60076 -7.632064,-8.30153 -0.676603,-3.80269 2.165751,-7.57431 4.418563,-10.71167 3.21054,-4.47112 10.108045,-5.86532 12.452316,-10.84557 1.483133,-3.15083 2.352628,-7.65447 0.267792,-10.44388 -1.963866,-2.62756 -6.318536,-3.3167 -9.506607,-2.54402 -3.80772,0.92289 -6.231317,4.8601 -8.70323,7.89985 -3.332305,4.0978 -4.76538,9.50843 -8.033753,13.65739 -3.379104,4.28953 -7.214006,8.39046 -11.782836,11.38115 -7.836325,5.12954 -25.975797,10.71168 -25.975797,10.71168 0,0 13.57452,-9.699 18.611524,-16.20141 3.972593,-5.12833 7.452523,-11.04118 8.703232,-17.40648 0.569566,-2.89871 -1.261441,-5.94289 -0.66948,-8.83712 0.776023,-3.79415 5.355835,-10.30997 5.355835,-10.30997 0,0 -14.937935,2.15884 -22.226714,0.80338 -5.583073,-1.03827 -11.357687,-2.99498 -15.665814,-6.6948 -3.4670712,-2.97752 -6.0968641,-7.22159 -7.230378,-11.64895 -1.4301155,-5.58581 -1.3907001,-11.99742 0.9372717,-17.27257 1.5163391,-3.436 4.3680703,-6.75627 7.8998543,-8.033743 3.374406,-1.220548 10.71167,1.071168 10.71167,1.071168 z" />
   </g>
</svg>
