<?xml version="1.0" encoding="UTF-8" standalone="no"?>
<!-- Created with Inkscape (http://www.inkscape.org/) -->

<svg version="1.1" id="svg1" width="196" height="196" viewBox="0 0 196 196" sodipodi:docname="Conquerors.svg" inkscape:version="1.3.2 (091e20e, 2023-11-25, custom)"
   xmlns:inkscape="http://www.inkscape.org/namespaces/inkscape"
   xmlns:sodipodi="http://sodipodi.sourceforge.net/DTD/sodipodi-0.dtd"
   xmlns="http://www.w3.org/2000/svg"
   xmlns:svg="http://www.w3.org/2000/svg">
   <defs id="defs1" />
   <sodipodi:namedview id="namedview1" pagecolor="#ffffff" bordercolor="#000000" borderopacity="0.25" inkscape:showpageshadow="2" inkscape:pageopacity="0.0" inkscape:pagecheckerboard="0" inkscape:deskcolor="#d1d1d1" inkscape:zoom="4" inkscape:cx="70.125" inkscape:cy="98.375" inkscape:window-width="2560" inkscape:window-height="1494" inkscape:window-x="-11" inkscape:window-y="-11" inkscape:window-maximized="1" inkscape:current-layer="layer6" showguides="false" />
   <g inkscape:groupmode="layer" id="layer2" inkscape:label="Image" transform="matrix(1.2924968,0,0,1.2924968,-32.500888,-28.495141)">
      <g inkscape:groupmode="layer" id="layer4" inkscape:label="Crusader" style="display:inline">
         <path id="path11" style="fill:#702f29;fill-opacity:1;stroke:#ffcdcc;stroke-width:1;stroke-linejoin:round;stroke-dasharray:none;stroke-dashoffset:2.26667;stroke-opacity:1" d="m 128.43878,126.18406 c 1.7863,-2.22958 3.66445,-4.45808 5.95892,-6.16023 2.21753,-1.64507 4.73104,-2.96647 7.36812,-3.78472 2.22267,-0.68966 4.64205,-1.33639 6.92522,-0.88578 2.21131,0.43643 4.61604,1.47451 5.87839,3.34182 1.39575,2.06463 1.23533,4.92675 1.00658,7.40838 -0.27113,2.94143 -1.23331,5.84468 -2.57684,8.47535 -1.21982,2.38849 -3.02508,4.43661 -4.71076,6.52259 -1.85153,2.29124 -3.78097,4.71164 -6.11996,6.50247 -2.28277,1.74779 -4.9163,3.14973 -7.69022,3.90551 -2.50397,0.68223 -5.29758,1.26975 -7.77075,0.48315 -1.8556,-0.59018 -3.64769,-1.93825 -4.54971,-3.66392 -1.05955,-2.02703 -0.72311,-4.57008 -0.48316,-6.8447 0.3253,-3.08369 1.28023,-6.12168 2.57683,-8.93838 1.06154,-2.30606 2.60002,-4.38033 4.18734,-6.36154 z m 18.27936,-20.13147 3.79448,3.33896 c 0,0 -5.91316,0.28769 -8.77732,0.96631 -2.92554,0.69316 -5.87423,2.21933 -8.34133,3.93767 -2.26482,1.57746 -5.67994,5.76856 -5.67994,5.76856 l -2.76551,-2.40517 c -3.33388,1.30974 -4.6166,3.41714 -5.23419,5.78321 l 2.12131,2.82246 c 0,0 -2.773,4.62731 -3.86524,7.08627 -0.92356,2.0792 -1.86176,4.20118 -2.25473,6.44207 -0.44048,2.5118 -0.0805,7.64996 -0.0805,7.64996 l -4.04905,-3.86761 c -2.43425,0.43403 -3.2549,2.26164 -4.05713,4.10515 l 19.06175,17.45862 c 2.14308,-0.39057 4.42677,-0.58898 4.36137,-3.99782 l -4.76805,-3.6326 c 0,0 5.91975,-0.13181 8.73015,-0.81908 2.45051,-0.59925 4.88873,-1.41845 7.08628,-2.65735 2.6804,-1.51111 7.13345,-5.9451 7.13345,-5.9451 l 3.15349,2.69391 c 3.23645,-1.31728 5.19206,-3.34943 5.16746,-6.48686 l -2.92572,-3.37385 c 0,0 3.39561,-4.96302 4.50945,-7.73049 0.93828,-2.33125 1.75884,-4.96617 1.97086,-7.4702 0.26558,-3.13662 -0.8435,-9.27918 -0.8435,-9.27918 l 5.05764,5.06656 c 3.33544,-0.35016 4.58578,-2.24925 5.2854,-4.55745 l -18.15405,-15.97008 c -2.35226,0.60918 -4.82776,0.93667 -5.63683,5.07313 z" />
      </g>
      <g inkscape:groupmode="layer" id="layer3" inkscape:label="Hunter" style="display:inline">
         <path style="fill:#448811;fill-opacity:1;stroke:#ffc299;stroke-width:0.499999;stroke-linejoin:round;stroke-dasharray:none;stroke-dashoffset:2.26667;stroke-opacity:1" d="m 132.58587,80.767461 10.62941,5.797864 12.96467,-4.066557 -4.14708,10.911257 -13.12572,3.100246 -7.00575,-11.434675 z" id="path9" />
         <path id="path8" style="fill:#448811;fill-opacity:1;stroke:#e8ffcc;stroke-width:1;stroke-linejoin:round;stroke-dasharray:none;stroke-dashoffset:2.26667;stroke-opacity:1" d="m 130.45045,68.840941 6.71897,-15.82943 M 101.18309,36.555736 c 0,0 2.66596,3.648676 3.58724,5.694039 0.72274,1.60458 1.48045,5.067696 1.48045,5.067696 l -1.25269,6.035682 v 7.800835 l 2.84702,5.124636 6.26345,1.309629 5.40934,-3.017841 0.68328,6.832847 2.50538,3.701126 2.04985,3.131722 -5.75098,-0.170821 c 0,0 0.50453,2.639891 1.19575,3.758066 1.01629,1.644048 2.76481,2.70168 4.15665,4.042768 1.24708,1.201601 2.56033,2.336463 3.75807,3.587246 0.55818,0.582892 1.36561,1.048133 1.59433,1.822092 0.33699,1.140352 -0.46389,2.342196 -0.51247,3.530305 -0.0994,2.432164 0.45553,7.288367 0.45553,7.288367 l 3.87194,-5.978738 4.95382,0.512464 c 0,0 3.63537,2.794617 5.80792,3.074781 3.1323,0.403933 6.44955,-0.655414 9.22434,-2.163735 2.35877,-1.282183 3.31932,-4.572857 5.80792,-5.580159 4.60954,-1.86579 14.91839,-0.05694 14.91839,-0.05694 0,0 1.9904,-1.172001 2.04985,-2.163735 0.0933,-1.55739 -2.79008,-3.758067 -2.79008,-3.758067 l -9.90763,0.227762 c 0,0 2.10643,-5.368592 3.70113,-7.743894 1.22832,-1.829574 4.44135,-4.896875 4.44135,-4.896875 l -1.19575,-2.562317 c 0,0 -5.40875,1.238073 -7.57307,2.847019 -2.91251,2.165147 -6.60509,8.654941 -6.60509,8.654941 0,0 1.37117,-4.663399 1.36657,-7.060609 -0.003,-1.567094 -0.91104,-4.612173 -0.91104,-4.612173 0,0 3.51391,-3.269313 4.15665,-5.466278 0.79134,-2.704898 0.27529,-5.776932 -0.68329,-8.427179 -0.85255,-2.357084 -2.42763,-4.514549 -4.32747,-6.149563 -1.89794,-1.633373 -4.23925,-3.011565 -6.71897,-3.359483 -2.35198,-0.329995 -4.85745,0.292542 -7.00367,1.309629 -1.99623,0.946009 -5.06769,4.27053 -5.06769,4.27053 0,0 0.61838,-5.374366 0.0569,-7.971656 -0.52575,-2.432029 -1.62555,-4.795346 -3.13172,-6.775907 -1.19011,-1.564951 -2.76751,-2.882352 -4.49829,-3.815007 -2.01974,-1.08837 -4.31794,-1.754745 -6.60509,-1.935974 -1.79299,-0.142073 -3.77714,-0.184789 -5.3524,0.683285 -1.98367,1.093134 -3.40903,3.168162 -4.32747,5.238517 -0.8011,1.80586 -0.87438,3.88939 -0.8541,5.864861 0.0261,2.539802 1.0723,4.98261 1.25269,7.516132 0.11731,1.647537 1.32673,4.145885 -0.11389,4.953815 -0.95687,0.536634 -2.37546,-0.66071 -2.84702,-1.651272 -0.94156,-1.97786 0.81217,-4.311021 1.02493,-6.491205 0.14574,-1.493417 0.5577,-3.048512 0.17082,-4.498291 -0.57163,-2.142144 -1.74726,-4.319401 -3.5303,-5.6371 -2.00681,-1.483071 -7.23139,-1.935973 -7.23139,-1.935973 z m 46.39218,38.876056 c 3.29305,-1.162532 6.25226,-2.955987 9.26706,-4.583701 m -0.5139,11.614829 c 0,0 -2.37385,4.330367 -3.7851,6.25022 -1.05868,1.440216 -2.09763,2.99788 -3.58725,3.985828 -1.74079,1.154528 -3.9577,1.33881 -5.9218,2.049855 -1.56451,0.566384 -4.56845,1.865809 -4.56845,1.865809 m 4.73927,-9.951346 c 0,0 -1.97427,1.668726 -3.18866,1.935974 -1.15657,0.254523 -2.46849,0.125797 -3.53031,-0.398583 -1.22766,-0.606278 -2.21631,-1.745616 -2.84702,-2.960901 -0.59671,-1.149765 -0.18473,-2.644772 -0.74022,-3.815007 -0.44498,-0.937423 -1.08123,-1.895897 -1.99291,-2.391496 -1.81395,-0.986088 -6.14957,-0.740225 -6.14957,-0.740225 m -3.07478,-24.541312 c -0.0115,-1.109588 -0.51951,-2.158126 -0.74022,-3.245603 -0.27987,-1.37923 -0.22777,-3.217132 -0.22777,-3.217132 -0.2176,-1.221907 1.69457,-2.698843 2.90396,-2.419967 1.02308,0.235914 1.81569,1.368014 2.04986,2.391497 0.29778,1.30147 -0.48656,2.650203 -1.02493,3.871947 -0.89166,2.023499 -2.59078,5.637099 -2.59078,5.637099 l -2.59079,7.743894 c 0,0 2.25867,-7.099111 2.22067,-10.761735 z m 26.0787,28.527139 c -0.82034,1.956144 -4.61217,4.384411 -4.61217,4.384411 0,0 -0.76858,-4.732792 0.11388,-6.832848 0.8059,-1.917852 4.38441,-4.441351 4.38441,-4.441351 0,0 1.00218,4.771601 0.11388,6.889788 z m -11.70129,-10.04998 c 0,0 3.52924,-2.202623 3.50184,-4.014298 l -0.0569,-3.758066 c 0,0 0.55123,-3.292034 1.53739,-4.555232 0.92985,-1.191058 2.311,-2.302808 3.815,-2.448437 1.17873,-0.114134 2.60922,0.349559 3.30255,1.309629 0.57879,0.801466 0.37014,1.992595 0.17082,2.960901 -0.35083,1.704342 -1.14441,3.399702 -2.33456,4.669112 -1.26244,1.34651 -4.78299,2.79008 -4.78299,2.79008 l -5.18158,3.017841 -4.0997,7.601543 z" />
      </g>
      <g inkscape:groupmode="layer" id="layer1" inkscape:label="Redeemer" style="display:inline">
         <path id="path17" style="display:inline;fill:#1c427d;fill-opacity:1;stroke:#d0f6f9;stroke-width:1;stroke-linejoin:round;stroke-dasharray:none;stroke-dashoffset:2.26667;stroke-opacity:1" d="m 56.247334,92.2424 c 5.229459,-9.6303 9.63082,-23.975026 13.79441,-34.186709 M 49.68447,96.751849 C 56.076601,86.415508 61.119746,70.223721 65.781748,58.830079 M 42.83977,102.38866 C 49.19425,90.310907 55.675533,72.341335 61.068737,59.686816 M 37.122432,105.20707 C 43.68383,92.898568 50.367085,73.919264 55.93733,60.619609 m -5.195549,0.944454 C 44.955979,75.290555 37.722973,95.097601 31.646672,108.14626 M 45.637943,62.491845 c -4.761246,13.780843 -12.900998,32.719164 -18.796874,46.041465 -0.62954,1.4225 -1.497797,3.77584 -1.072786,4.24319 2.402784,-0.19428 4.240114,-2.42318 5.878389,-4.63024 -0.209764,0.93038 -0.655086,1.84754 -0.161052,2.57683 2.544665,-1.24005 3.919519,-3.44859 5.636812,-5.51602 -0.274509,1.157 -0.678736,2.39048 0.08053,2.61709 2.468915,-0.95029 3.978005,-3.37131 5.636808,-5.4355 -0.06112,0.90699 0.06558,1.73497 0.966315,2.21446 2.489812,-1.63136 3.959733,-5.172782 5.878385,-7.851271 -0.362439,1.319348 -0.10607,2.424008 0.603948,2.778144 3.816337,-2.074338 3.764587,-4.54537 5.958916,-7.287593 -0.353016,2.18059 -0.509204,3.987206 0.201314,4.147082 3.447411,-1.42785 3.934917,-2.993835 4.831553,-5.153656 L 74.798935,57.190923 Z" sodipodi:nodetypes="cccccccccccscccccccccccccc" />
         <path id="path23" style="display:inline;fill:#1c427d;fill-opacity:1;stroke:#d0f6f9;stroke-width:1;stroke-linejoin:round;stroke-dasharray:none;stroke-dashoffset:2.26667;stroke-opacity:1" d="m 78.805511,51.388709 c 3.58414,2.388845 6.550924,5.451169 10.875616,7.03214 M 74.762743,53.580915 c 4.448013,2.881649 8.144463,6.13908 14.121219,8.256357 M 70.644273,55.788011 c 5.004846,3.212432 9.348648,7.179441 15.449609,8.953222 M 61.43994,60.573011 c 1.611312,2.225394 2.939609,4.681512 5.180326,6.417368 M 65.469343,58.47827 c 4.712667,3.314816 7.877394,7.710939 14.474976,9.679387 M 58.022266,62.349736 c 0,0 3.026393,5.43675 4.726053,7.288371 0.860612,0.937556 3.644185,1.138808 3.644185,1.138808 l 0.227762,-3.786536 c 0.859388,1.134582 1.892791,2.044542 3.131722,2.87549 2.797564,0.307964 5.544784,0.84247 8.484119,0.512463 1.042635,-0.444456 1.214049,-1.433424 1.708212,-2.220675 1.935974,0.112223 3.871947,0.209073 5.807921,-0.569404 0.49837,-0.949007 0.342726,-1.898013 0.341642,-2.84702 1.746172,0.293586 3.492345,0.236564 5.238517,0 0.142392,-1.146723 -1.288622,-1.974272 -2.448437,-2.903961 1.550059,-0.08223 2.396036,-0.299143 3.501834,-0.825635 -0.497067,-0.764056 -1.375552,-1.902373 -2.704669,-2.590788 1.671655,-0.08153 3.285491,0.352912 5.238517,-0.854106 L 83.104511,49.310385 Z" />
         <path id="path36" style="display:inline;fill:#1c427d;fill-opacity:1;stroke:#d0f6f9;stroke-width:1;stroke-linejoin:round;stroke-dasharray:none;stroke-dashoffset:2.26667;stroke-opacity:1" d="m 95.221857,45.658176 -3.317541,-3.574692 m 0.136769,5.909943 -3.921213,-4.502727 m -0.507711,7.925077 -4.894091,-5.916459 m 1.552267,7.688028 -6.324079,-5.913667 m 1.06977,8.409969 -5.831091,-6.63951 m 1.905453,8.531869 -5.274846,-7.278986 M 70.621202,60.474938 66.344771,51.5876 m -0.867158,9.269836 -3.69948,-7.571767 M 61.682827,63.7765 57.987609,54.695145 M 58.955012,67.380033 55.424925,55.474157 M 53.79129,67.802794 53.508144,56.360799 m -4.830247,11.764098 1.788317,-10.63298 m -4.848301,6.485898 -1.409203,5.274445 c 0.109311,1.103271 0.06903,2.283079 1.288414,2.818406 1.411799,-0.809916 2.149996,-2.588134 3.180773,-3.945769 0.617966,1.090184 0.483623,2.518908 2.05341,3.180773 1.330729,-0.757029 2.047546,-2.291679 3.01972,-3.502876 1.079565,1.391694 1.295792,3.293541 3.42235,4.066557 1.190381,-1.198188 1.264059,-2.954728 1.781635,-4.489318 0.773972,0.257669 1.510544,0.574112 2.647289,0.261709 0.756186,-1.065561 0.21233,-2.528349 0.08053,-3.865242 1.127856,0.981401 2.419939,1.032186 3.704188,1.127362 0.715193,-1.089622 0.327947,-2.596383 0.0906,-4.046426 1.013529,0.647349 1.572755,2.157618 4.217541,2.476171 0.899142,-0.598614 0.778611,-1.809032 0.926048,-2.858669 1.382453,0.356979 2.686096,1.019343 4.267872,0.603945 0.369642,-0.812474 0.448989,-1.965728 0.201316,-3.502876 1.441842,0.92399 2.851379,0.588113 4.26787,0.523418 0.01487,-0.749996 0.175329,-1.437596 -0.342232,-2.415777 1.747369,0.872726 3.655897,1.000088 5.616677,0.885785 0.259742,-1.127362 -0.01301,-2.254725 -0.362368,-3.382087 0.975313,0.257087 1.883553,0.698622 3.059986,0.402629 0.482474,-0.454452 0.406268,-1.297551 0.281838,-2.174198 1.648825,0.396564 3.26891,1.032628 4.992607,0.805258 0.290477,-1.677091 -0.219132,-2.906133 -0.563683,-4.227608 1.50315,0.663029 3.006301,0.960841 4.509451,0.845521 0.125283,-1.202301 -0.619133,-2.187178 -1.328679,-3.180772 1.568922,0.301987 3.020221,0.407934 4.428926,0.442892 -0.804861,-2.086438 -2.548946,-3.651085 -3.82498,-5.47576 L 50.466214,57.491917 Z" sodipodi:nodetypes="cccccccccccccccccccccccccccccccccccccccccccccccccccccc" />
         <path id="path44" style="display:inline;fill:#1c427d;fill-opacity:1;stroke:#d0f6f9;stroke-width:1;stroke-linejoin:round;stroke-dasharray:none;stroke-dashoffset:2.26667;stroke-opacity:1" d="m 77.097299,51.075537 -1.72398,-4.442227 m -2.261848,5.751856 -1.17341,-4.814968 m -2.015252,7.092584 -1.910772,-5.661526 m -2.131996,7.768321 c -0.292362,-2.20797 -0.842836,-3.657881 -1.378449,-5.76855 m -2.607379,7.932285 -1.304049,-6.32332 m -2.39708,7.632945 c 0.443932,-2.212978 -0.470185,-4.667953 -0.810038,-6.880931 m -4.542359,7.905858 c 0.110981,2.231168 0.274087,2.96423 1.879033,3.871948 2.447579,-1.632292 2.319749,-3.264583 3.473364,-4.896875 0.435268,0.675229 0.734623,1.50336 1.992914,1.252689 1.048728,-0.203595 1.396382,-1.358648 1.708212,-2.562318 0.741542,0.711042 1.561847,1.298312 2.676199,1.42351 1.487248,-1.424162 0.920472,-2.401798 1.309629,-3.587245 0.888936,0.83504 1.869315,1.434941 3.131722,1.309629 1.078546,-0.585334 0.91512,-2.05779 0.911046,-3.416424 0.770139,0.177992 1.373368,0.898441 2.334556,0.455523 0.821915,-0.463369 0.603248,-1.793889 0.854106,-2.733139 0.962745,0.87224 1.861987,2.040828 3.131722,1.480451 0.649029,-0.747863 0.586727,-1.851392 0.854106,-2.79008 1.306469,0.767539 2.720785,1.309579 4.612172,0.854106 0.32393,-1.213928 0.56515,-2.480094 -0.11388,-4.32747 -0.399978,-0.742737 -1.304324,-1.413422 -2.049855,-2.106795 l -10.647854,2.90396 c 0,0 -6.436359,4.297819 -10.590914,4.669113 -4.154555,0.371294 -5.577259,5.968249 -5.466278,8.199417 z" sodipodi:nodetypes="cccccccccccczcccccccccccccccczz" />
         <path id="path56" style="display:inline;fill:#1c427d;fill-opacity:1;stroke:#d0f6f9;stroke-width:1;stroke-linejoin:round;stroke-dasharray:none;stroke-dashoffset:2.26667;stroke-opacity:1" d="m 94.819228,34.988496 c 2.192044,2.063065 4.598302,4.067036 5.294572,6.542728 -1.982531,0.491489 -3.888032,0.575818 -5.49785,-0.902748 m -4.024331,1.687876 -0.805653,-5.523479 m -3.019327,6.731367 -0.483155,-5.47576 m -2.73788,7.368118 -0.140125,-6.932057 m -3.76538,7.817842 -0.177714,-7.220403 m -4.25121,7.743821 -0.885785,-6.965489 m -3.663927,8.012326 -0.100658,-6.301151 m -3.281429,9.84429 -0.483156,-8.133115 M 63.695974,52.945768 63.140205,45.5208 m -3.993944,9.075749 -0.230449,-6.489663 m -3.191901,7.294922 -0.114452,-5.27084 M 94.819228,34.988496 c -0.29331,2.966037 0.219938,5.932073 -0.885785,8.89811 -2.078326,0.32751 -2.456204,-0.845376 -3.341824,-1.570254 -0.08877,1.313843 0.497179,2.880704 -0.68447,3.784716 -1.634169,0.02206 -2.195017,-1.56587 -3.14051,-2.576828 -0.09885,1.397911 0.658047,3.009759 -0.805258,4.066557 -1.080655,-0.21984 -1.785823,-1.128074 -2.415777,-2.174199 -0.45688,0.833386 -0.262351,1.731914 -1.409203,2.496303 -1.193897,0.186753 -1.814448,-0.773186 -2.496302,-1.610518 -0.57477,0.957805 -0.841169,2.312088 -1.892359,2.657354 -1.593067,-0.08836 -1.751511,-1.372234 -2.536565,-2.133936 -0.711312,1.033416 -0.566241,2.732907 -2.133936,3.100247 -1.654035,0.08714 -1.610842,-1.368645 -2.415776,-2.05341 -0.413855,1.334614 -0.101685,3.153245 -1.328677,3.945768 -0.961755,0.531275 -1.446707,-0.08178 -2.05341,-0.402629 -0.683114,0.953454 -0.472372,2.279349 -2.05341,2.858668 -0.742896,0.488702 -1.063681,-0.711039 -1.529992,-1.328677 -0.81868,1.194467 -1.021122,3.005172 -2.45604,3.583402 -1.469267,0.127169 -1.433663,-1.250533 -2.093673,-1.932621 -0.611254,1.011326 -0.605753,2.502352 -1.852095,3.019721 -0.523418,0.0089 -1.046837,-0.940127 -1.570255,-2.214462 -1.689436,2.630833 -2.259656,5.48551 -5.07313,7.891536 -1.499843,-1.366845 -1.515307,-3.647155 -2.133936,-5.556286 l 5.717337,-6.764174 12.562038,-7.690222 7.52917,-3.42235 11.958094,-1.811832 z" />
         <path style="display:inline;fill:#1c427d;fill-opacity:1;stroke:#d0f6f9;stroke-width:1;stroke-linejoin:round;stroke-dasharray:none;stroke-dashoffset:2.26667;stroke-opacity:1" d="m 36.726557,79.659617 c 0,0 2.458296,-8.189111 4.099709,-12.128305 1.55079,-3.72171 3.074783,-7.531437 5.409337,-10.818675 2.222741,-3.129796 5.047775,-5.837493 8.028596,-8.256358 3.749427,-3.042571 7.871696,-5.691028 12.242186,-7.743894 3.61278,-1.696961 7.48937,-2.845603 11.38808,-3.701126 3.154959,-0.692316 6.559332,-0.115356 9.622927,-1.138808 4.72452,-1.578316 12.915778,-7.516133 12.915778,-7.516133 0,0 -0.0847,3.789377 -1.129116,5.238517 -2.114465,2.933896 -5.948918,4.261749 -9.338225,5.523219 -3.506588,1.30512 -7.406038,1.128626 -11.046437,1.992914 -3.774646,0.896161 -7.621582,1.712448 -11.160318,3.302543 -4.323594,1.942762 -8.461889,4.44376 -12.071365,7.516132 -2.704328,2.301913 -5.032031,5.074812 -7.003669,8.028596 -2.469338,3.699407 -3.594689,8.166997 -5.921801,11.957484 -2.498182,4.069132 -6.284729,8.170832 -6.035682,7.743894 z" id="path57" sodipodi:nodetypes="csssssscsssssssc" />
      </g>
      <g inkscape:groupmode="layer" id="layer5" inkscape:label="Warlord" style="display:inline">
         <g inkscape:groupmode="layer" id="layer7" inkscape:label="Leaves" style="display:inline">
            <path id="path72" style="display:inline;fill:#979900;fill-opacity:1;stroke:#ffffca;stroke-width:1;stroke-linejoin:round;stroke-dasharray:none;stroke-dashoffset:2.26667;stroke-opacity:1" d="m 78.748571,135.57505 c -3.645659,1.01261 -7.186488,3.28586 -7.728534,3.50401 m -2.253903,-3.66811 c 1.749953,-1.14837 4.269148,-2.14499 6.927194,-2.94808 m -28.888321,-29.05911 2.163735,-1.19575 0.398583,2.44844 c 0,0 3.377046,-0.2148 4.953815,0.2847 1.576562,0.49944 2.971438,1.52745 4.213589,2.61926 1.104355,0.97069 1.810735,2.31974 2.79008,3.41643 1.582188,1.77176 3.158788,4.04969 3.017841,3.92888 0,0 -4.681726,0.0939 -7.00653,-0.61371 -1.722673,-0.52438 -5.212723,-2.46107 -5.212723,-2.46107 l 1.7966,3.97648 c 0,0 4.649931,-0.39252 6.421333,0.004 2.986332,0.66786 7.076101,4.27625 7.076101,4.27625 0,0 -2.077963,0.719 -3.11909,0.95989 -2.889961,0.66867 -8.139802,-0.48823 -8.139802,-0.48823 l 1.977608,3.11558 c 0,0 3.743337,-1.33476 5.694039,-1.65127 1.424978,-0.23121 2.898214,-0.37391 4.327471,-0.17082 2.85233,0.4053 8.199417,2.73314 8.199417,2.73314 0,0 -3.060931,2.36699 -5.010755,3.07478 -1.917311,0.69598 -6.206503,1.02493 -6.206503,1.02493 l -3.387537,-0.18357 2.493467,2.4918 c 0,0 4.849285,-1.74258 7.020047,-2.28632 1.724396,-0.43194 3.463393,-0.99282 5.227259,-0.88451 1.070764,0.0657 2.068703,0.57382 3.083703,0.92115 0.894486,0.30609 2.64518,1.02332 2.64518,1.02332 0,0 -1.35031,1.1416 -2.141386,1.51328 -1.370826,0.64407 -4.387221,1.18246 -4.387221,1.18246 1.638847,0.22498 3.497396,0.19364 4.535693,1.11926 -0.239525,1.04524 -0.814841,1.5868 -1.48045,1.99292 5.144949,-1.31485 5.606712,-0.36886 7.971655,-0.34164 -0.54204,1.88421 -8.656707,7.50427 -10.332448,8.44 -4.458169,2.48942 -2.100219,12.26746 -4.585936,13.31123 -2.755645,-4.57304 -2.447166,-10.15403 -3.453826,-15.31006 l -2.46547,-3.28062 c 0,0 0.920056,8.51234 1.648766,11.81477 0.764794,3.46596 4.042769,9.85069 4.042769,9.85069 0,0 -6.445787,-2.44204 -8.768822,-4.83993 -1.972731,-2.0363 -3.328779,-4.79043 -3.871947,-7.57308 -0.459911,-2.35613 0.131044,-4.82555 0.626345,-7.17449 0.364088,-1.72667 2.216444,-5.76205 2.216444,-5.76205 l -2.511333,-3.1615 c 0,0 -1.804234,8.12675 -2.153549,11.42893 -0.297607,2.81336 -0.227761,8.48412 -0.227761,8.48412 0,0 -4.831409,-3.20408 -6.035682,-5.69404 -1.244241,-2.5726 -1.026417,-5.69773 -0.740226,-8.54106 0.208103,-2.06751 0.992378,-4.04982 1.765153,-5.97874 0.555613,-1.38686 2.69067,-4.73713 2.69067,-4.73713 l -2.142528,-4.08691 c 0,0 -0.215454,3.72214 -1.174487,5.69232 -0.852442,1.75121 -2.542501,2.96843 -3.587245,4.61217 -1.188403,1.86977 -3.017841,5.9218 -3.017841,5.9218 0,0 -2.415904,-4.83046 -2.676199,-7.45919 -0.204193,-2.06214 0.0537,-4.26301 0.911047,-6.14957 0.980359,-2.15724 3.162408,-3.53504 4.612172,-5.40933 0.567001,-0.73303 2.257244,-2.58698 2.257244,-2.58698 l -1.001995,-2.74249 c 0,0 -3.850647,5.61738 -5.981302,7.94872 -1.604645,1.75578 -5.295457,4.783 -5.295457,4.783 0,0 -1.450011,-7.14407 -0.398583,-10.47703 0.802861,-2.54502 3.06771,-4.38211 4.839934,-6.37733 1.488666,-1.67599 4.839934,-4.66911 4.839934,-4.66911 z" sodipodi:nodetypes="cccccccsssccccccsccsscscccsaacsccccccccscsssccscsssccsscsssccscsscc" />
         </g>
         <g inkscape:groupmode="layer" id="layer6" inkscape:label="Aere" style="display:inline">
            <path style="display:inline;fill:#979900;fill-opacity:1;stroke:#ffffca;stroke-width:1;stroke-linejoin:round;stroke-dasharray:none;stroke-dashoffset:2.26667;stroke-opacity:1" d="m 80.698561,161.5739 c -3.863141,-1.76937 -6.438319,-3.75291 -7.711883,-6.67332 -1.769106,-4.05674 0.01363,-7.45409 -0.295218,-11.79985 l 3.985431,2.51907 c 0.871618,2.68921 1.413652,5.09052 2.666476,7.80319 1.252824,2.71266 1.305662,5.5305 1.355194,8.15091 z" id="path84" sodipodi:nodetypes="cscczc" />
            <path style="display:inline;fill:#979900;fill-opacity:1;stroke:#ffffca;stroke-width:1;stroke-linejoin:round;stroke-dasharray:none;stroke-dashoffset:2.26667;stroke-opacity:1" d="m 108.69922,152.65717 c -2.06645,-2.42252 -5.71289,-4.02781 -9.456152,-5.58302 -3.673625,-1.07602 -7.882277,-0.36862 -11.871187,-0.39369 l -1.635184,3.27037 c 3.716461,1.59644 7.23101,3.4705 11.380528,4.47149 4.046205,0.11255 8.056665,0.09 11.581995,-1.76515 z" id="path79" sodipodi:nodetypes="cccccc" />
            <path style="display:inline;fill:#979900;fill-opacity:1;stroke:#ffffca;stroke-width:1;stroke-linejoin:round;stroke-dasharray:none;stroke-dashoffset:2.26667;stroke-opacity:1" d="m 83.350212,150.74633 4.905553,-4.94975 c 4.552285,4.47469 10.545033,7.91056 13.155085,13.75038 0,0.13566 -8.593639,-0.85713 -12.299127,-3.35949 -2.189146,-1.47835 -5.761511,-5.44114 -5.761511,-5.44114 z" id="path80" sodipodi:nodetypes="cccsc" />
            <path style="display:inline;fill:#979900;fill-opacity:1;stroke:#ffffca;stroke-width:1;stroke-linejoin:round;stroke-dasharray:none;stroke-dashoffset:2.26667;stroke-opacity:1" d="m 79.063377,144.16139 0.678364,6.67332 c 0,0 6.980834,0.17154 10.414373,-0.35355 4.519188,-0.69112 12.768036,-4.4997 12.450486,-5.05542 -0.1297,-0.69174 -7.66937,-2.30612 -11.558903,-2.33456 -4.010563,-0.0293 -11.98432,1.07021 -11.98432,1.07021 z" id="path81" sodipodi:nodetypes="ccscsc" />
            <path style="display:inline;fill:#979900;fill-opacity:1;stroke:#ffffca;stroke-width:1;stroke-linejoin:round;stroke-dasharray:none;stroke-dashoffset:2.26667;stroke-opacity:1" d="m 72.69146,143.10073 7.993084,12.40346 c 2.178803,2.71643 4.405668,5.38824 8.199418,6.60508 0.326198,-1.97393 0.48813,-3.94787 0.227761,-5.9218 -0.498374,-3.77831 -3.828825,-6.58096 -6.2533,-9.63959 0,0 6.673449,-1.23915 8.189274,-3.4567 0.542353,-0.79342 0.455523,-2.84702 0.455523,-2.84702 0,0 -4.951688,-1.42697 -7.459192,-1.19575 -4.00107,0.36894 -11.352568,4.05232 -11.352568,4.05232 z" id="path82" sodipodi:nodetypes="cccscscsc" />
            <path style="fill:#979900;fill-opacity:1;stroke:#ffffca;stroke-width:1;stroke-linejoin:round;stroke-dasharray:none;stroke-dashoffset:2.26667;stroke-opacity:1" d="M 82.858423,146.54788 72.69146,143.10073" id="path83" />
         </g>
      </g>
   </g>
</svg>
