<?xml version="1.0" encoding="UTF-8" standalone="no"?>
<!-- Created with Inkscape (http://www.inkscape.org/) -->

<svg width="200mm" height="200mm" viewBox="0 0 200 200" version="1.1" id="svg1" inkscape:version="1.3.2 (091e20e, 2023-11-25, custom)" sodipodi:docname="Elder.svg"
   xmlns:inkscape="http://www.inkscape.org/namespaces/inkscape"
   xmlns:sodipodi="http://sodipodi.sourceforge.net/DTD/sodipodi-0.dtd"
   xmlns:xlink="http://www.w3.org/1999/xlink"
   xmlns="http://www.w3.org/2000/svg"
   xmlns:svg="http://www.w3.org/2000/svg">
   <sodipodi:namedview id="namedview1" pagecolor="#ffffff" bordercolor="#000000" borderopacity="0.25" inkscape:showpageshadow="2" inkscape:pageopacity="0.0" inkscape:pagecheckerboard="0" inkscape:deskcolor="#d1d1d1" inkscape:document-units="mm" inkscape:zoom="0.5" inkscape:cx="675" inkscape:cy="487" inkscape:window-width="2560" inkscape:window-height="1494" inkscape:window-x="-11" inkscape:window-y="-11" inkscape:window-maximized="1" inkscape:current-layer="layer1" />
   <defs id="defs1">
      <linearGradient id="linearGradient9" inkscape:collect="always">
         <stop style="stop-color:#852c94;stop-opacity:1;" offset="0" id="stop10" />
         <stop style="stop-color:#1f4b65;stop-opacity:1;" offset="1" id="stop11" />
      </linearGradient>
      <linearGradient inkscape:collect="always" xlink:href="#linearGradient9" id="linearGradient11" x1="18.101034" y1="99.751973" x2="181.90144" y2="99.751973" gradientUnits="userSpaceOnUse" />
   </defs>
   <g inkscape:label="Ebene 1" inkscape:groupmode="layer" id="layer1">
      <path id="path1" style="fill:#4f4f4f;stroke:#e5e5e5;stroke-width:2;stroke-linejoin:round;stroke-dashoffset:2.26667;paint-order:markers fill stroke;stroke-dasharray:none;fill-opacity:1;stroke-opacity:1" d="M 96.142969 0.28370361 A 99.546844 99.546844 0 0 0 0.52761637 103.60763 A 99.546844 99.546844 0 0 0 103.84637 199.22867 A 99.546844 99.546844 0 0 0 199.47258 95.915076 L 199.47206 95.893372 A 99.546844 99.546844 0 0 0 96.142969 0.28370361 z M 96.555863 10.9337 A 88.889183 88.889183 0 0 1 188.82207 96.306783 L 188.8231 96.32642 A 88.889183 88.889183 0 0 1 103.43451 188.57867 A 88.889183 88.889183 0 0 1 11.177612 103.19525 A 88.889183 88.889183 0 0 1 96.555863 10.9337 z " />
      <path id="path2" style="fill:url(#linearGradient11);fill-opacity:1;stroke:#e5e5e5;stroke-width:2;stroke-linejoin:round;stroke-dasharray:none;stroke-dashoffset:2.26667;paint-order:markers fill stroke;stroke-opacity:1" d="M 96.865405 18.913574 A 80.903336 80.903336 0 0 0 66.835197 26.154993 A 31.245468 31.245468 0 0 1 71.575993 41.384554 L 71.57651 41.391272 A 31.245468 31.245468 0 0 1 41.561287 73.81875 A 31.245468 31.245468 0 0 1 24.927161 69.732694 A 80.903336 80.903336 0 0 0 19.15697 102.88623 A 80.903336 80.903336 0 0 0 25.304915 130.30316 A 31.245468 31.245468 0 0 1 39.143347 126.39435 A 31.245468 31.245468 0 0 1 71.575993 156.40389 L 71.57651 156.41061 A 31.245468 31.245468 0 0 1 67.208818 173.57287 A 80.903336 80.903336 0 0 0 103.12601 180.5988 A 80.903336 80.903336 0 0 0 128.00459 175.63217 A 34.160931 34.160931 0 0 1 122.79767 158.9381 A 34.160931 34.160931 0 0 1 155.60911 123.48083 A 34.160931 34.160931 0 0 1 175.4203 128.97456 A 80.903336 80.903336 0 0 0 180.84323 96.634412 L 180.84219 96.616842 A 80.903336 80.903336 0 0 0 174.39659 68.496594 A 31.245468 31.245468 0 0 1 158.14022 73.81875 A 31.245468 31.245468 0 0 1 125.71067 43.805595 A 31.245468 31.245468 0 0 1 131.12998 25.115263 A 80.903336 80.903336 0 0 0 96.865405 18.913574 z " />
   </g>
</svg>
