<?xml version="1.0" encoding="UTF-8" standalone="no"?>
<!-- Created with Inkscape (http://www.inkscape.org/) -->

<svg version="1.1" id="svg1" width="196" height="196" viewBox="0 0 196 196" sodipodi:docname="Harbinger.svg" inkscape:version="1.3.2 (091e20e, 2023-11-25, custom)"
   xmlns:inkscape="http://www.inkscape.org/namespaces/inkscape"
   xmlns:sodipodi="http://sodipodi.sourceforge.net/DTD/sodipodi-0.dtd"
   xmlns="http://www.w3.org/2000/svg"
   xmlns:svg="http://www.w3.org/2000/svg">
   <defs id="defs1" />
   <sodipodi:namedview id="namedview1" pagecolor="#ffffff" bordercolor="#000000" borderopacity="0.25" inkscape:showpageshadow="2" inkscape:pageopacity="0.0" inkscape:pagecheckerboard="0" inkscape:deskcolor="#d1d1d1" inkscape:zoom="4.3905559" inkscape:cx="102.15107" inkscape:cy="65.709219" inkscape:window-width="2560" inkscape:window-height="1494" inkscape:window-x="-11" inkscape:window-y="-11" inkscape:window-maximized="1" inkscape:current-layer="g1" />
   <g inkscape:groupmode="layer" inkscape:label="Image" id="g1" transform="matrix(1.3854484,0,0,1.3854484,-41.901814,-37.662375)">
      <path id="path2" style="display:inline;fill:#005499;fill-opacity:1;stroke:#dbe7ef;stroke-width:1.44357596;stroke-linejoin:round;stroke-dasharray:none;stroke-dashoffset:2.26667;stroke-opacity:1;paint-order:markers fill stroke" d="m 144.52227,96.824204 c 0.89394,23.151726 -17.14888,42.644926 -40.30056,43.540126 -23.151682,0.8952 -42.645862,-17.14656 -43.542323,-40.29819 -0.89646,-23.151636 17.144246,-42.646795 40.295833,-43.544509 23.15158,-0.897713 42.64772,17.14193 43.54669,40.293464 M 67.641742,71.99014 64.662284,73.681187 c 0,0 -1.531553,-4.426362 -3.382087,-5.556286 -3.169736,-1.93542 -7.768856,0.811108 -11.112572,-0.805259 -2.394553,-1.157538 -5.395234,-5.878389 -5.395234,-5.878389 0,0 0.173298,6.546048 1.932621,9.099425 1.740436,2.525964 5.535839,2.849443 7.730485,4.992605 2.32234,2.267861 5.47576,8.052588 5.47576,8.052588 0,0 -4.324823,1.82705 -6.361545,1.127362 -2.426564,-0.833612 -5.153656,-5.717337 -5.153656,-5.717337 0,0 0.929035,6.210165 2.818406,8.535743 2.093087,2.576326 8.616269,4.992605 8.616269,4.992605 0,0 -6.352959,-0.749414 -9.421528,-0.08053 -2.721964,0.593332 -4.822239,3.08048 -7.569433,3.543139 -3.566181,0.600585 -10.790468,-1.127362 -10.790468,-1.127362 0,0 3.628927,4.457072 6.119967,5.717339 2.339383,1.18354 5.150649,0.98263 7.730485,1.44946 2.305812,0.41724 4.82479,0.16912 6.925225,1.20789 3.013706,1.49042 7.408382,6.8447 7.408382,6.8447 -4.368163,1.58026 -8.514889,1.09377 -12.562038,-0.3221 0,0 3.710681,4.5304 6.281019,5.71734 2.505758,1.15712 8.21364,1.04683 8.21364,1.04683 0,0 -6.037437,1.61313 -8.374692,3.54314 -2.267483,1.87239 -2.428395,5.75349 -4.912079,7.32786 -2.888831,1.83119 -10.146261,1.52999 -10.146261,1.52999 0,0 6.79605,4.31221 10.548891,4.02629 2.708894,-0.20638 4.624839,-2.8765 7.086277,-4.02629 1.946926,-0.90945 3.896454,-2.41358 6.039442,-2.25473 2.875593,0.21316 7.569433,4.18735 7.569433,4.18735 -2.996345,3.0333 -6.702843,4.37998 -10.548891,5.39523 0,0 6.648226,1.47971 9.743632,0.48316 1.763722,-0.56782 4.348398,-3.46261 4.348398,-3.46261 l 1.932621,1.77157 c 0,0 -4.390753,4.37589 -4.912079,7.24733 -0.40937,2.25479 2.188714,4.46613 1.610517,6.68364 -0.987239,3.78626 -7.972062,8.61627 -7.972062,8.61627 0,0 7.941565,-0.90145 10.870994,-3.30156 2.545314,-2.0854 2.151075,-6.58019 4.670502,-8.69679 2.879096,-2.41877 10.709942,-3.54314 10.709942,-3.54314 -1.52172,3.96691 -2.983773,7.97243 -6.281019,10.79047 0,0 5.023239,-1.70955 7.086278,-3.30156 2.263741,-1.74689 5.47576,-6.60313 5.47576,-6.60313 0,0 0.464979,6.14878 1.288414,9.09943 0.75317,2.69887 2.97273,4.94785 3.30154,7.73048 0.31951,2.70389 -1.368939,8.05259 -1.368939,8.05259 0,0 4.864779,-4.84239 6.281019,-7.89154 1.38373,-2.97915 0.92198,-6.53761 1.93262,-9.6631 0.93499,-2.89155 3.78472,-8.29417 3.78472,-8.29417 0,0 2.55489,3.72087 2.89893,5.87839 0.32877,2.06177 -0.88579,6.20049 -0.88579,6.20049 0,0 3.58967,-3.57304 4.42893,-5.87838 0.87352,-2.39946 0.40263,-7.64996 0.40263,-7.64996 0,0 6.27557,5.09109 9.26047,7.81101 1.72566,1.57246 4.20508,2.71428 4.99261,4.91208 0.94692,2.6426 -0.88579,8.37469 -0.88579,8.37469 0,0 3.41475,-2.81782 4.3484,-4.75103 0.88663,-1.83586 1.36738,-4.04053 0.96631,-6.03944 -0.57148,-2.84825 -3.55281,-4.69482 -4.58997,-7.40838 -1.37231,-3.59042 -2.01315,-11.35415 -2.01315,-11.35415 0,0 4.39151,0.77365 5.87839,2.25472 1.36673,1.36139 2.09367,5.39524 2.09367,5.39524 0,0 1.45943,-3.75978 1.36894,-5.71734 -0.13876,-3.00165 -2.89893,-8.53574 -2.89893,-8.53574 0,0 4.56789,3.70197 7.32786,4.42892 2.72656,0.71815 5.77365,-1.11284 8.45521,-0.24158 2.67561,0.86932 6.68365,5.15366 6.68365,5.15366 0,0 -0.92592,-5.76847 -2.57683,-8.05259 -1.92479,-2.66303 -5.80378,-3.32903 -7.97206,-5.79786 -1.99746,-2.27434 -4.3484,-7.97207 -4.3484,-7.97207 0,0 4.36559,-0.60759 6.28102,0.24158 1.61377,0.71544 3.70419,3.78472 3.70419,3.78472 0,0 -0.84661,-4.13805 -1.85209,-5.95892 -1.53684,-2.78314 -6.20049,-7.24733 -6.20049,-7.24733 0,0 5.25183,1.26143 7.81101,0.72474 2.22246,-0.46607 3.77313,-2.68599 5.95891,-3.30156 2.99986,-0.84483 9.341,-0.40263 9.341,-0.40263 0,0 -3.71415,-3.744707 -6.11996,-4.589983 -3.14185,-1.103882 -6.92259,0.985621 -9.98521,-0.322104 -3.31672,-1.416223 -7.73049,-7.569433 -7.73049,-7.569433 0,0 3.4498,-1.163012 5.23418,-1.127362 1.82903,0.03654 5.31471,1.36894 5.31471,1.36894 0,0 -2.60354,-3.968315 -4.6705,-4.831553 -2.22932,-0.931044 -7.24733,0.08053 -7.24733,0.08053 0,0 -0.0805,-2.898932 -0.0805,-3.221036 0,-0.322103 4.84487,-3.358483 6.76417,-5.556286 1.24458,-1.42518 1.54991,-3.591991 2.97946,-4.831553 2.38863,-2.071184 8.69679,-3.784716 8.69679,-3.784716 0,0 -5.87884,-3.527131 -9.0189,-3.059984 -2.77772,0.413241 -4.25072,3.836092 -6.8447,4.912079 -3.34235,1.386412 -10.70994,1.77157 -10.70994,1.77157 0,0 -3.86524,-4.670502 -3.86524,-4.992605 0,-0.322104 11.59573,-3.301561 11.59573,-3.301561 0,0 -4.69963,-1.886795 -7.16681,-1.852096 -2.70971,0.03811 -7.81101,2.254725 -7.81101,2.254725 0,0 3.00128,-3.825885 3.54314,-6.119967 0.5069,-2.146077 -0.91996,-4.459535 -0.40263,-6.603123 0.91474,-3.790296 5.95892,-10.065735 5.95892,-10.065735 0,0 -6.35914,3.237832 -8.93838,5.636812 -1.85545,1.725776 -2.76771,4.279485 -4.50944,6.119967 -2.05756,2.174214 -6.92523,5.717338 -6.92523,5.717338 l -2.97946,-0.241578 c 0,0 -0.62934,-4.704628 0.40263,-6.683648 1.1397,-2.185628 5.79786,-4.589976 5.79786,-4.589976 0,0 -3.82306,-0.308081 -5.47576,0.483156 -1.74651,0.836146 -2.9674,2.56618 -4.02629,4.187346 -1.00041,1.531622 -2.09367,5.07313 -2.09367,5.07313 l -3.38209,-1.046836 c 0,0 0.8249,-6.139335 0.16105,-9.099425 -0.5569,-2.483214 -3.07924,-4.317888 -3.38209,-6.8447 -0.40917,-3.413959 2.25473,-10.065736 2.25473,-10.065736 0,0 -6.049767,5.294338 -7.24733,8.938373 -0.906042,2.756974 0.778279,5.819174 0.402629,8.696796 -0.415376,3.181936 -2.898931,9.179951 -2.898931,9.179951 l -3.221036,0.402629 c 0,0 -1.732899,-3.781551 -2.174199,-5.797864 -0.477573,-2.182046 -0.483155,-6.683648 -0.483155,-6.683648 0,0 -3.425806,3.634061 -3.945768,5.958915 -0.568371,2.541302 1.127362,7.730485 1.127362,7.730485 l -5.234182,2.576829 c 0,0 1.377357,-5.466744 0.241577,-7.811011 -1.179731,-2.434983 -4.400455,-3.153034 -6.522596,-4.831553 -1.762897,-1.394373 -4.335009,-2.2551 -5.153657,-4.348398 -0.788194,-2.015426 0.805259,-6.442071 0.805259,-6.442071 0,0 -3.704781,2.22823 -4.428923,4.10682 -0.775301,2.011307 -0.206529,4.428809 0.563681,6.442071 1.055008,2.757698 4.332541,4.301805 5.314708,7.086278 1.28652,3.647325 0.40263,11.595727 0.40263,11.595727 l -1.852096,2.013147 c 0,0 -3.442876,-3.418406 -4.469186,-5.435497 -0.816365,-1.604468 -1.167626,-5.274445 -1.167626,-5.274445 0,0 -2.136412,1.742457 -2.576828,2.979457 -0.621475,1.74554 -0.390219,3.78732 0.161052,5.556286 0.866113,2.779256 4.751027,7.327856 4.751027,7.327856 z" sodipodi:nodetypes="cssscccsscsscscscsscsasccscsscsssccsccsscssccscsscsscscscsscssscscscsscsacscscsscsscscscssscsscscscsscssccscssccsscssccscsccssscsssccscssc" />
      <path id="path3" style="display:inline;fill:#005499;fill-opacity:1;stroke:#dbe7ef;stroke-width:1.44357596;stroke-linejoin:round;stroke-dasharray:none;stroke-dashoffset:2.26667;stroke-opacity:1;paint-order:markers fill stroke" inkscape:label="path3" d="m 100.5918,51.164062 a 47.605949,47.605949 0 0 0 -45.726566,49.412108 47.605949,47.605949 0 0 0 49.410156,45.72852 47.605949,47.605949 0 0 0 45.73047,-49.406252 v -0.01172 A 47.605949,47.605949 0 0 0 100.5918,51.164062 Z m 0.36132,8.597657 a 38.266487,38.266487 0 0 1 39.72071,36.753906 v 0.0078 A 38.266487,38.266487 0 0 1 103.91406,136.23828 38.266487,38.266487 0 0 1 64.197266,99.480469 38.266487,38.266487 0 0 1 100.95312,59.761719 Z" />
   </g>
</svg>
