<?xml version="1.0" encoding="UTF-8" standalone="no"?>
<!-- Created with Inkscape (http://www.inkscape.org/) -->

<svg version="1.1" id="svg1" width="196" height="196" viewBox="0 0 196 196" sodipodi:docname="Labyrinth.svg" inkscape:version="1.3.2 (091e20e, 2023-11-25, custom)"
   xmlns:inkscape="http://www.inkscape.org/namespaces/inkscape"
   xmlns:sodipodi="http://sodipodi.sourceforge.net/DTD/sodipodi-0.dtd"
   xmlns="http://www.w3.org/2000/svg"
   xmlns:svg="http://www.w3.org/2000/svg">
   <defs id="defs1" />
   <sodipodi:namedview id="namedview1" pagecolor="#ffffff" bordercolor="#000000" borderopacity="0.25" inkscape:showpageshadow="2" inkscape:pageopacity="0.0" inkscape:pagecheckerboard="0" inkscape:deskcolor="#d1d1d1" inkscape:zoom="4" inkscape:cx="105.375" inkscape:cy="125.375" inkscape:window-width="2560" inkscape:window-height="1494" inkscape:window-x="-11" inkscape:window-y="-11" inkscape:window-maximized="1" inkscape:current-layer="layer1" />
   <g inkscape:groupmode="layer" id="layer3" inkscape:label="Image" transform="translate(-1.5562908e-6,9.1923882)">
      <g inkscape:groupmode="layer" id="layer2" inkscape:label="Skull" transform="matrix(1.3037312,0,0,1.3037312,-34.651523,-42.594502)">
         <path id="path3" style="display:inline;fill:#179108;fill-opacity:1;stroke:#cdffca;stroke-width:1.53405855;stroke-linejoin:round;stroke-dasharray:none;stroke-dashoffset:2.26667;stroke-opacity:0.99867201;paint-order:markers fill stroke" d="m 102.92188,57.341797 c -2.64826,0.0098 -5.295413,0.188363 -7.900396,0.476562 -5.321124,0.588703 -10.786651,1.737675 -15.460937,4.347657 -4.843031,2.704201 -9.12868,6.681501 -12.240235,11.273437 -4.222558,6.231527 -6.54919,13.721934 -8.052734,21.097656 -1.427155,7.000991 -1.577148,14.316611 -0.80664,21.419921 0.161474,1.48866 0.452507,3.0137 1.128906,4.34961 0.844582,1.66808 1.854182,3.54528 3.542968,4.34766 2.521436,1.19798 5.627742,-0.58838 8.259766,0.34179 1.691659,0.59785 3.444431,1.29227 3.845703,3.04102 0.448877,1.95621 3.356675,6.89544 4.402902,7.6242 13.511655,-11.27624 28.157837,-11.77444 44.026437,-0.65967 0.98718,-1.85878 4.68598,-10.16406 6.76402,-10.49773 2.69909,-0.4334 5.43197,2.30792 8.07227,1.59961 2.31705,-0.62163 3.88053,-3.21183 4.67187,-5.47657 1.04539,-2.99176 0.14071,-6.36678 -0.32226,-9.50195 -0.39757,-2.69232 -2.40688,-5.18721 -2.09375,-7.89062 0.21001,-1.81313 2.24102,-3.03782 2.57617,-4.832036 0.65535,-3.50838 -0.35692,-7.183729 -1.28906,-10.628906 -1.23721,-4.572545 -3.34464,-8.899432 -5.63672,-13.044922 -1.51311,-2.7366 -2.98151,-5.64821 -5.31446,-7.730469 -4.26424,-3.806034 -9.63201,-6.520876 -15.13867,-8.052735 -4.20831,-1.170684 -8.62142,-1.619839 -13.03515,-1.603515 z m -18.179692,23.375 c 0.963322,0.01848 1.9294,0.135223 2.86914,0.292969 1.540363,0.258564 3.287259,0.464202 4.429688,1.529296 1.152338,1.074335 1.770362,2.774287 1.851562,4.347657 0.09845,1.907768 -0.58626,3.918383 -1.691406,5.476562 -1.33238,1.878563 -3.575773,2.929233 -5.554688,4.107422 -1.578642,0.939879 -2.280004,0.733792 -4.054623,1.209412 -2.1358,0.547229 -4.867315,1.227359 -6.521485,0.564453 -1.475083,-0.591136 -3.28381,-1.17121 -3.837954,-2.660584 -0.47819,-1.285226 -0.573083,-2.776639 -0.242188,-4.107422 0.386562,-1.554653 1.306871,-2.854392 2.253907,-4.146484 1.180746,-1.610955 4.1875,-4.46875 4.1875,-4.46875 0,0 2.193226,-1.533333 3.46289,-1.851562 0.924297,-0.231667 1.884333,-0.311449 2.847657,-0.292969 z m 35.476562,0.517578 c 0.96332,-0.01848 1.92336,0.0613 2.84766,0.292969 1.26963,0.318228 3.46093,1.851562 3.46093,1.851562 0,0 3.00675,2.857797 4.1875,4.46875 0.94703,1.292091 1.8693,2.593784 2.25586,4.148438 0.3309,1.330779 0.23601,2.820244 -0.24218,4.105468 -0.55414,1.489373 -2.25591,1.257024 -3.70984,1.898438 -1.99664,0.880841 -4.41553,0.0025 -6.52344,-0.5625 -1.77462,-0.47562 -2.60214,0.490659 -4.18079,-0.449219 -1.97889,-1.178188 -4.22425,-2.228861 -5.55664,-4.107422 -1.10514,-1.558177 -1.78985,-3.566843 -1.6914,-5.474609 0.0812,-1.573366 0.70117,-3.275275 1.85351,-4.349609 1.14244,-1.065095 2.88737,-1.270734 4.42774,-1.529297 0.93974,-0.157746 1.90777,-0.274489 2.87109,-0.292969 z m -17.87305,7.238281 c 0.40972,-0.0043 0.81933,0.06601 1.21094,0.226563 1.95971,0.803431 3.10841,2.924787 4.30859,4.669922 0.8911,1.295702 1.54952,2.753147 2.09375,4.228515 0.57002,1.545283 1.03563,3.152894 1.20704,4.791014 0.14536,1.38923 0.2846,2.86338 -0.16016,4.1875 -0.32838,0.97764 -0.92687,1.94809 -1.77344,2.53711 -0.83102,0.57819 -1.92604,0.80651 -2.9375,0.76367 -0.96693,-0.041 -2.01274,-0.32435 -2.73828,-0.96484 -0.69744,-0.61569 -1.01727,-1.59681 -1.24805,-2.49805 -0.70631,-2.75826 -0.32226,-8.535154 -0.32226,-8.535154 h -0.32227 c 0,0 0.26078,5.555364 -0.60351,8.132814 -0.31482,0.93887 -0.86327,1.84725 -1.611331,2.49609 -0.557993,0.48397 -1.309114,0.70595 -2.013672,0.92774 -1.079752,0.33989 -2.165747,0.77313 -3.259766,0.48242 -0.948292,-0.25199 -1.949938,-0.8694 -2.335937,-1.77149 -0.661318,-1.5455 -0.104095,-3.40711 0.322265,-5.0332 0.517631,-1.97418 1.670491,-3.728559 2.65625,-5.515624 1.124136,-2.037925 2.499445,-3.927172 3.705079,-5.917968 0.563992,-0.93129 0.920129,-2.053443 1.851562,-2.617188 0.60348,-0.365248 1.28784,-0.582624 1.9707,-0.589844 z" sodipodi:nodetypes="ssssssssssccsssssscsssssssssscsssscsssscsssscsssssscsssssscssccsssssssssc" inkscape:label="Outline" />
         <path id="path12" style="display:inline;fill:#179108;fill-opacity:1;stroke:#cdffca;stroke-width:1.53405855;stroke-linejoin:round;stroke-dasharray:none;stroke-dashoffset:2.26667;stroke-opacity:0.99867201;paint-order:markers fill stroke" d="m 118.73542,136.5719 1.20788,-6.28102 m -6.03944,4.14708 1.77157,-7.81101 m -6.44207,4.95234 0.3221,-6.8447 m -6.60312,6.36155 -0.40263,-8.41496 m -5.51602,9.13969 -0.764996,-7.81101 m -2.335251,8.09285 -1.731307,-6.8447 m -2.093672,8.37469 -2.536566,-6.4018 m -1.529992,9.09942 -2.294987,-6.16023 m -5.757601,3.46261 4.589975,5.63682 c 0.946066,0.29253 1.88868,0.60404 2.939195,0.3221 1.016094,-0.7428 0.62516,-2.0612 0.523418,-3.2613 1.138749,0.9529 2.363879,0.68087 3.502876,0 1.138997,-0.68087 0.434873,-1.77478 0.563682,-2.69762 1.342426,1.07191 1.878461,0.90431 2.979457,0.28184 1.100996,-0.62247 0.563681,-1.20789 0.845522,-1.81183 0.454414,0.63839 0.559446,1.25859 1.570255,1.26828 1.010809,0.01 1.136896,-0.99536 1.529992,-1.55012 0.891608,0.74913 1.638002,1.6924 3.05998,1.69104 1.42198,-0.001 2.08735,-1.3641 2.85867,-2.41577 0.76761,1.22739 1.49461,2.50475 2.9392,2.89893 2.23251,-0.22526 2.42491,-1.50835 3.34182,-2.41578 0.70909,1.3193 1.00513,2.92257 2.4963,3.70419 1.24738,0.24081 1.71327,-0.29987 2.1742,-0.84552 -0.0614,0.99386 -0.58283,2.08628 0.765,2.77815 2.43786,0.82752 2.96866,-0.1814 4.06656,-0.64421 -0.10245,1.53653 0.38541,2.51555 1.24815,3.14051 1.61799,0.16852 2.45487,-0.44407 3.05998,-1.28842 l 1.24815,-6.8447 c -1.44947,-2.08317 -2.89893,-1.72838 -4.3484,-1.28841 -0.76091,-2.05948 -1.90672,-3.63142 -4.26787,-3.66393 -1.76228,-1.8527 -3.82098,-2.40116 -6.11997,-1.89236 -1.10606,-2.34749 -4.13492,-2.09355 -7.00575,-2.05341 -2.12863,0.21218 -4.491116,-1.11911 -6.281016,1.32868 -2.019088,-1.00588 -3.093876,0.0117 -4.066558,1.24815 -1.934919,-0.28198 -3.454368,0.43316 -4.630238,1.97289 -1.316132,0.83281 -2.981136,0.41964 -3.824979,2.93919 -2.563357,0.32059 -4.484892,1.47177 -5.757601,3.46261 z" inkscape:label="Teeth" />
         <path id="path16" style="fill:#8c8988;fill-opacity:0;stroke:#cdffca;stroke-width:1.53405855;stroke-linejoin:round;stroke-dasharray:none;stroke-dashoffset:2.26667;stroke-opacity:0.99867201;paint-order:markers fill stroke" d="m 81.5,105.875 c 0,0 2.14226,4.59924 1.875,7 -0.104134,0.93542 -1.3125,2.5 -1.3125,2.5 m 36.8125,-10.25 c 0,0 -1.2431,4.04606 -1.1875,6.125 0.0413,1.54561 0.0601,2.98625 0.76376,4.36303 0.63286,1.23833 2.6875,3.19109 2.6875,3.19109 M 130.5,107.75 c 0,0 -6.19085,1.20075 -8.1875,3.375 -1.12307,1.22297 -1.42921,3.09111 -1.5,4.75 -0.0893,2.09291 0.62539,4.17607 1.375,6.13217 1.02074,2.66363 4.1875,7.463 4.1875,7.463 M 65.4375,110.5 c 0,0 7.506379,-0.62517 10.9375,0.625 2.223663,0.81022 5.6875,4.25 5.6875,4.25 0,0 -0.220848,4.28931 -1,6.25 -1.126473,2.83471 -5.150758,7.56374 -5.150758,7.56374" inkscape:label="Features" />
      </g>
      <g inkscape:groupmode="layer" id="layer1" inkscape:label="Tears" style="display:inline" transform="matrix(1.3037312,0,0,1.3037312,-34.651523,-42.594502)">
         <path id="path1-1" style="display:inline;fill:#179108;fill-opacity:1;stroke:#cdffca;stroke-width:1.53405855;stroke-linejoin:round;stroke-dasharray:none;stroke-dashoffset:2.26667;stroke-opacity:0.99867201;paint-order:markers fill stroke" d="m 176.4166,80.592256 c 0,0 -9.30612,-5.682447 -13.9896,-6.632431 -5.16032,-1.046706 -10.56807,-0.08258 -15.78307,0.644207 -5.11332,0.712615 -10.39762,1.402959 -15.05834,3.623665 -7.53647,3.590923 -18.82778,14.653162 -18.82778,14.653162 0,0 7.38428,1.257754 11.49992,0.4857 4.88491,-0.916361 9.22715,-3.709712 13.93098,-5.314709 7.0321,-2.399426 14.02485,-5.136111 21.33936,-6.44207 5.55192,-0.991259 16.88853,-1.017524 16.88853,-1.017524 z m -149.337994,0.04346 c 0,0 9.306121,-5.682447 13.989595,-6.632431 5.160319,-1.046706 10.568069,-0.08258 15.783073,0.644207 5.113318,0.712615 10.397621,1.402959 15.05834,3.623665 7.536468,3.590923 19.671849,14.845439 19.671849,14.845439 0,0 -8.228351,1.065477 -12.343994,0.293423 C 74.352562,92.49366 70.010321,89.700309 65.306491,88.095312 58.274395,85.695886 51.281644,82.959201 43.967132,81.653242 38.415212,80.661983 27.078606,80.635718 27.078606,80.635718 Z" inkscape:label="Lower" />
         <path id="path2-3" style="display:inline;fill:#179108;fill-opacity:1;stroke:#cdffca;stroke-width:1.53405855;stroke-linejoin:round;stroke-dasharray:none;stroke-dashoffset:2.26667;stroke-opacity:0.99867201;paint-order:markers fill stroke" d="m 169.99644,119.21537 c 0,0 -0.22581,-7.22074 -1.61052,-10.46836 -1.69717,-3.98042 -4.66265,-7.42662 -7.89154,-10.307317 -4.01552,-3.582493 -8.78698,-6.472096 -13.85045,-8.294166 -4.18992,-1.507725 -8.75341,-1.982672 -13.20625,-2.013147 -3.52266,-0.02411 -7.03133,0.677093 -10.46836,1.449466 -3.84325,0.863659 -10.21151,3.299013 -10.21151,3.299013 0,0 3.57648,4.634024 6.50732,5.63936 2.43953,0.836807 5.15202,0.377627 7.73048,0.322104 2.85483,-0.06147 5.69666,-1.030331 8.53575,-0.724733 2.98832,0.321661 5.88388,1.179364 8.73015,2.1449 3.87658,1.31503 7.84159,2.75907 11.40132,4.78033 2.30751,1.31024 4.28048,3.16096 6.20049,4.9926 2.95806,2.8219 8.13312,9.17995 8.13312,9.17995 z m -136.497673,0.0435 c 0,0 0.225802,-7.22074 1.610518,-10.46836 1.697167,-3.98042 4.662645,-7.42662 7.891537,-10.307315 4.015524,-3.582493 8.78698,-6.472096 13.850452,-8.294166 4.189916,-1.507725 8.753414,-1.982672 13.206245,-2.013147 3.522663,-0.02411 7.031334,0.677093 10.468364,1.449466 3.843252,0.863659 11.05558,3.49129 11.05558,3.49129 0,0 -4.420546,4.441747 -7.351389,5.447083 -2.439534,0.836807 -5.152019,0.377627 -7.730485,0.322104 -2.854823,-0.06147 -5.696658,-1.030331 -8.535743,-0.724733 -2.988319,0.321661 -5.883878,1.179364 -8.730151,2.144898 -3.876577,1.31503 -7.841591,2.75907 -11.40132,4.78033 -2.307515,1.31024 -4.280477,3.16096 -6.200493,4.9926 -2.95806,2.8219 -8.133115,9.17995 -8.133115,9.17995 z" inkscape:label="Upper" />
      </g>
   </g>
</svg>
