<?xml version="1.0" encoding="UTF-8" standalone="no"?><!-- Created with Inkscape (http://www.inkscape.org/) -->
<svg version="1.1" id="svg1" width="200" height="200" viewBox="0 0 200 200" sodipodi:docname="The_Maven's_Writ_inventory_icon.svg" inkscape:version="1.3.2 (091e20e, 2023-11-25, custom)"
   xmlns:inkscape="http://www.inkscape.org/namespaces/inkscape"
   xmlns:sodipodi="http://sodipodi.sourceforge.net/DTD/sodipodi-0.dtd"
   xmlns:xlink="http://www.w3.org/1999/xlink"
   xmlns="http://www.w3.org/2000/svg"
   xmlns:svg="http://www.w3.org/2000/svg">
   <defs id="defs1" />
   <sodipodi:namedview id="namedview1" pagecolor="#ffffff" bordercolor="#000000" borderopacity="0.25" inkscape:showpageshadow="2" inkscape:pageopacity="0.0" inkscape:pagecheckerboard="0" inkscape:deskcolor="#d1d1d1" inkscape:zoom="2" inkscape:cx="64.250001" inkscape:cy="-37.75" inkscape:window-width="2560" inkscape:window-height="1494" inkscape:window-x="-11" inkscape:window-y="-11" inkscape:window-maximized="1" inkscape:current-layer="g1" />
   <g inkscape:groupmode="layer" inkscape:label="Image" id="g1" transform="matrix(2.6561063,0,0,2.6561063,-3.6473501,-3.3665966)">
      <path style="display:inline;fill:#1162b4;fill-opacity:1;stroke:#d4fff9;stroke-width:0.75298191;stroke-linejoin:round;stroke-dasharray:none;stroke-dashoffset:2.26667;stroke-opacity:1;paint-order:markers fill stroke" d="m 42.214107,14.598311 c -10.162712,-1.616004 -20.860238,4.621162 -24.394082,14.292833 -4.051193,9.866622 0.117779,22.158762 9.306941,27.558887 8.800479,5.605512 21.316623,3.958197 28.363976,-3.738388 3.008881,-3.254881 5.142861,-7.266602 6.704544,-11.379613 2.689267,-8.539253 1.046233,-17.657682 -1.320883,-26.063846 3.13204,1.780023 5.744297,3.896885 7.261397,7.083074 1.146785,2.408458 1.762436,4.112935 2.349159,6.952713 0.586724,2.839779 0.515805,7.574433 0.427852,10.58912 -0.147978,5.072169 -1.61155,9.998393 -2.55817,14.977877 l -5.80822,-1.831625 C 58.301065,59.237544 51.651379,63.701577 44.237909,65.054591 36.336692,66.489172 27.83847,64.576791 21.541743,59.524191 11.694893,52.144475 7.8409111,38.007876 12.54367,26.643135 16.54676,16.060579 27.408923,8.6468273 38.706733,8.6386721 43.730607,8.4622473 48.847941,10.012005 52.55091,13.505069 c 3.530313,2.718092 6.089644,6.500155 7.707158,10.623965 -4.757419,-5.063533 -10.972259,-8.991971 -18.043961,-9.530723 z" id="path10" sodipodi:nodetypes="ccccccszsccccccccc" />
      <path id="path3" style="display:inline;fill:#1162b4;fill-opacity:1;stroke:#d4fff9;stroke-width:0.75298191;stroke-linejoin:round;stroke-dasharray:none;stroke-dashoffset:2.26667;stroke-opacity:1;paint-order:markers fill stroke" d="M 47.579493,19.478034 C 57.993218,26.777083 53.496398,45.023707 41.091425,46.648666 27.22118,49.268295 19.09412,29.578725 29.251216,20.657864 15.540238,29.157481 19.068112,53.161547 35.182048,56.440782 47.191847,59.600733 58.930152,48.201392 57.993072,36.297516 57.780601,29.38682 53.80755,22.62793 47.579493,19.478034 Z" sodipodi:nodetypes="cccccc" />
      <path style="display:inline;fill:#1162b4;fill-opacity:1;stroke:#d4fff9;stroke-width:0.75298191;stroke-linejoin:round;stroke-dasharray:none;stroke-dashoffset:2.26667;stroke-opacity:1;paint-order:markers fill stroke" d="M 29.196667,5.3375157 C 21.665386,11.969569 13.239705,18.797244 10.218834,28.786089 5.8483634,30.871274 5.3970999,24.24812 8.1437788,22.278634 12.41323,15.898235 18.13774,10.349542 25.266131,7.2943481 26.581863,6.6534158 27.903133,6.0227167 29.196667,5.3375157 Z" id="path12" />
      <path style="display:inline;fill:#1162b4;fill-opacity:1;stroke:#d4fff9;stroke-width:0.75298191;stroke-linejoin:round;stroke-dasharray:none;stroke-dashoffset:2.26667;stroke-opacity:1;paint-order:markers fill stroke" d="m 11.769907,52.006563 c 5.25225,7.56915 13.043598,13.692412 22.216838,15.51073 1.250544,2.51246 -0.08657,6.248783 -2.988457,4.932493 -8.576603,-2.84842 -18.184996,-8.427567 -22.609306,-16.643893 0.3276987,-2.486377 1.2539937,-3.298989 3.380925,-3.79933 z" id="path15" sodipodi:nodetypes="ccccc" />
      <path style="display:inline;fill:#1162b4;fill-opacity:1;stroke:#d4fff9;stroke-width:0.75298191;stroke-linejoin:round;stroke-dasharray:none;stroke-dashoffset:2.26667;stroke-opacity:1;paint-order:markers fill stroke" d="m 62.32258,56.693549 c 0.161279,-0.61748 4.29606,-0.485611 4.092405,3.069134 -4.478136,5.485277 -12.588656,10.325826 -19.124663,12.624414 -2.69158,-0.273689 -2.685002,-4.972703 -0.961618,-5.80694 6.998771,-1.350385 15.247632,-7.029503 15.993876,-9.886608 z" id="path16" sodipodi:nodetypes="scccs" />
      <path id="path14" style="display:inline;fill:#1162b4;fill-opacity:1;stroke:#d4fff9;stroke-width:0.75298191;stroke-linejoin:round;stroke-dasharray:none;stroke-dashoffset:2.26667;stroke-opacity:1;paint-order:markers fill stroke" d="m 48.44822,51.641605 c 7.564878,-1.269618 15.792639,-1.709743 22.186792,-6.420893 1.203983,-1.6986 3.768608,-2.894657 4.633787,-0.173949 0.796212,2.873693 -1.884395,5.013026 -4.288473,5.851839 -7.138722,2.995106 -15.116038,1.770219 -22.532106,0.743003 z M 7.9378439,39.962938 c 3.2110721,5.186326 9.2201341,7.359169 14.7501251,9.09787 1.215535,0.466606 4.211667,1.290905 4.234371,1.674982 C 20.197193,50.927389 12.891752,51.621178 6.900828,47.89981 4.6122186,46.603748 1.5797695,43.984366 3.3970465,41.130604 4.1201468,39.114442 6.291563,39.292336 7.9378439,39.962938 Z" />
      <path style="fill:#1162b4;fill-opacity:1;stroke:#d4fff9;stroke-width:0.75298191;stroke-linejoin:round;stroke-dasharray:none;stroke-dashoffset:2.26667;stroke-opacity:1;paint-order:markers fill stroke" id="path17" sodipodi:type="arc" sodipodi:cx="38.919357" sodipodi:cy="31.370966" sodipodi:rx="9.5967741" sodipodi:ry="9.5967741" sodipodi:start="6.2445921" sodipodi:end="6.2443748" sodipodi:open="true" sodipodi:arc-type="arc" d="m 48.508985,31.000688 a 9.5967741,9.5967741 0 0 1 -9.218828,9.959886 9.5967741,9.5967741 0 0 1 -9.960388,-9.218288 9.5967741,9.5967741 0 0 1 9.217747,-9.960888 9.5967741,9.5967741 0 0 1 9.961389,9.217206" />
   </g>
</svg>