<?xml version="1.0" encoding="UTF-8" standalone="no"?>
<!-- Created with Inkscape (http://www.inkscape.org/) -->

<svg version="1.1" id="svg1" width="196" height="196" viewBox="0 0 196 196" sodipodi:docname="Rogue Exiles.svg" inkscape:version="1.3.2 (091e20e, 2023-11-25, custom)"
   xmlns:inkscape="http://www.inkscape.org/namespaces/inkscape"
   xmlns:sodipodi="http://sodipodi.sourceforge.net/DTD/sodipodi-0.dtd"
   xmlns="http://www.w3.org/2000/svg"
   xmlns:svg="http://www.w3.org/2000/svg">
   <defs id="defs1" />
   <sodipodi:namedview id="namedview1" pagecolor="#ffffff" bordercolor="#000000" borderopacity="0.25" inkscape:showpageshadow="2" inkscape:pageopacity="0.0" inkscape:pagecheckerboard="0" inkscape:deskcolor="#d1d1d1" inkscape:zoom="3.1045919" inkscape:cx="71.668036" inkscape:cy="124.81512" inkscape:window-width="2560" inkscape:window-height="1494" inkscape:window-x="-11" inkscape:window-y="-11" inkscape:window-maximized="1" inkscape:current-layer="g1" />
   <g inkscape:groupmode="layer" inkscape:label="Image" id="g1" transform="matrix(1.5662132,0,0,1.5662132,-61.664325,-60.843552)">
      <path style="display:inline;fill:#999000;fill-opacity:1;stroke:#ffffcc;stroke-width:1.27696536;stroke-linejoin:round;stroke-dasharray:none;stroke-dashoffset:2.26667;stroke-opacity:1;paint-order:markers fill stroke" d="m 48.154478,133.67297 c 0,0 7.347973,-7.84239 9.60449,-12.7524 1.382284,-3.00774 1.302712,-6.51725 1.449466,-9.82416 0.288465,-6.50022 0.05056,-12.651626 -0.102436,-18.974799 -0.120878,-4.995759 -0.485633,-9.374742 0.665422,-14.23759 1.627415,-6.875319 6.361818,-12.744093 8.143578,-19.60282 1.515626,-5.834268 2.654984,-15.931004 2.654984,-15.931004 0.0738,-3.311773 2.644948,-3.033607 5.075501,-2.957548 5.246278,2.693871 5.314657,5.958024 6.725097,8.93265 0,0 1.033374,7.101328 0.400259,10.421194 -0.491229,2.575861 -2.203442,4.71911 -2.718342,7.24733 -0.997267,4.8967 -0.815028,14.693112 -0.815028,14.693112 0,0 8.698746,-11.026248 13.367297,-16.266228 5.70785,-6.406488 10.934574,-13.478247 17.876744,-18.520954 3.76855,-2.737424 10.62607,-4.696457 10.62607,-4.696457 5.16658,-1.012423 8.48999,5.17896 6.53808,7.209928 l -11.77463,11.431323 c 0,0 -5.35254,6.223477 -8.1274,9.246661 -3.62012,3.94409 -8.490214,7.880815 -10.486226,12.848416 -0.940716,2.34122 -0.626344,6.316744 -0.626344,6.316744 0,0 10.05063,-13.380869 16.42728,-18.682005 2.49916,-2.077642 5.65017,-3.220781 8.37469,-4.992605 4.52019,-2.939588 8.59057,-6.553752 13.20625,-9.341002 2.83621,-1.712689 7.49127,-3.883106 7.49127,-3.883106 3.05724,0.651913 6.82362,-0.469038 7.00171,7.38075 0,0 -0.92365,2.6569 -1.76989,3.749685 -5.34472,6.901882 -13.74005,10.803648 -20.13147,16.749384 -2.89106,2.689462 -5.66926,5.516214 -8.21364,8.535744 -3.73616,4.433873 -10.30732,14.011507 -10.30732,14.011507 0,0 6.62893,-3.310008 9.96568,-5.069088 3.66496,-1.932105 7.43779,-3.819069 10.97105,-6.043487 3.90807,-2.460387 7.5443,-5.328869 11.27363,-8.052589 4.05781,-2.963625 9.06104,-6.969045 9.06104,-6.969045 6.52708,-1.425566 8.83035,3.600448 8.01044,7.065063 -0.97334,4.112947 -8.37705,9.083933 -8.37469,9.083933 0,0 -8.57871,8.454753 -13.3673,12.078883 -3.94308,2.98422 -12.56203,7.89154 -12.56203,7.89154 v 4.9926 c 0,0 8.69695,-3.30213 12.88414,-5.31471 4.20142,-2.01942 5.77053,-3.21509 8.65268,-4.8282 2.30738,-1.2914 6.91714,-3.8831 6.91714,-3.8831 3.45024,0.29525 5.86798,-1.85486 6.62434,6.93331 0,0 -8.03593,6.4306 -12.37,9.18637 -4.68211,2.97707 -14.65571,7.89154 -14.65571,7.89154 0,0 -7.29489,3.14405 -10.46837,5.47576 -2.6308,1.93298 -4.4374,4.81141 -6.92523,6.92523 -4.83664,4.10952 -9.50117,8.93038 -15.460965,11.11257 -1.921576,0.70359 -3.993138,0.80276 -5.892205,1.56502 -6.30263,2.52978 -16.010836,11.80227 -16.010836,11.80227" id="path1" sodipodi:nodetypes="cssssscccsscsscscsscsssccssscssscscsccssccscssssc" inkscape:label="Hand" />
      <path id="path5" style="fill:#999000;fill-opacity:1;stroke:#ffffcc;stroke-width:1.27696536;stroke-linejoin:round;stroke-dasharray:none;stroke-dashoffset:2.26667;stroke-opacity:1;paint-order:markers fill stroke" d="m 123.27596,116.44311 c -1.5899,0.42543 -3.06262,1.30774 -4.49829,3.24561 3.49315,3.6252 4.97503,7.25041 6.71897,10.87561 2.30974,-0.51097 4.30494,-1.96561 6.32038,-3.35948 -2.49073,-3.58725 -5.01018,-7.17449 -8.54106,-10.76174 z m -9.42988,-17.594579 c -2.83738,0.870835 -4.85695,2.695769 -6.79813,4.612169 4.57117,4.95219 8.53502,10.12128 10.9895,15.82943 2.07251,-1.47005 4.16599,-2.77228 6.09262,-5.40933 -2.19379,-5.57176 -6.53734,-10.16635 -10.28399,-15.032269 z m -0.24999,-4.213589 c -4.00723,-3.494363 -8.37049,-6.887004 -13.43793,-10.078451 -1.275794,1.551214 -2.235507,3.49753 -2.90396,5.807921 3.62521,2.846699 7.25041,6.173626 10.87562,10.533978 2.06544,-1.276643 3.85589,-3.469924 5.46627,-6.263448 z M 98,81.083127 c 0.117021,2.964233 -0.411124,5.498356 -1.201323,7.857775 -5.39652,-3.394857 -10.71536,-7.061591 -16.398835,-9.452106 1.15246,-2.640903 2.892116,-4.988207 4.953815,-7.17449 4.341476,2.60787 8.606786,5.406155 12.646343,8.768821 z" inkscape:label="Ring Base" />
      <path id="path9" style="fill:#999000;fill-opacity:1;stroke:#ffffcc;stroke-width:1.27696536;stroke-linejoin:round;stroke-dasharray:none;stroke-dashoffset:2.26667;stroke-opacity:1;paint-order:markers fill stroke" d="m 121.62469,124.35783 c 0.69421,-1.04343 1.86906,-1.82181 3.07478,-2.16374 1.81106,-0.51361 3.95215,-0.4978 5.6371,0.34165 1.07243,0.53429 1.97779,1.58933 2.33456,2.73314 0.22157,0.71035 0.11997,1.56281 -0.22776,2.22067 -0.59168,1.11938 -1.76738,1.89052 -2.90396,2.44844 -1.13287,0.5561 -2.43924,0.78025 -3.70113,0.79716 -1.23579,0.0166 -2.68261,0.0931 -3.64419,-0.68328 -0.80084,-0.64663 -1.10268,-1.82193 -1.19574,-2.84702 -0.0879,-0.96772 0.0881,-2.03801 0.62634,-2.84702 z m -15.37391,-12.81159 c -0.0286,-1.60724 0.93252,-3.14207 1.87904,-4.44135 0.75277,-1.03333 1.76202,-1.93057 2.90396,-2.50538 1.70279,-0.85713 3.41892,-1.33323 5.31845,-1.49427 1.09838,-0.0931 2.58402,-0.0918 3.56425,0.4124 1.05699,0.54373 1.77817,1.68687 2.22067,2.79008 0.39022,0.97287 0.37662,2.08755 0.28471,3.13173 -0.0949,1.07787 -0.33528,2.18219 -0.85411,3.13172 -0.62505,1.14394 -1.58423,2.1115 -2.61926,2.90396 -1.06488,0.81532 -2.29684,1.45662 -3.58724,1.82209 -1.33761,0.37884 -2.80767,0.67775 -4.15665,0.34164 -1.15969,-0.28895 -2.23145,-1.03599 -3.01784,-1.93597 -1.00571,-1.15097 -1.90875,-2.62843 -1.93598,-4.15665 z M 89.510306,92.812849 c 1.586345,3.175206 4.034938,5.756792 7.17449,7.914711 4.192984,-2.063265 7.506784,-5.85107 10.306214,-10.64785 -0.99416,-3.108948 -3.63636,-5.588099 -7.743896,-7.516133 -3.648261,2.927697 -7.341333,5.759952 -9.736808,10.249272 z M 80.342902,82.677458 c -1.271951,-0.883954 -1.36657,-4.441351 -1.36657,-4.441351 0,0 0.05558,-3.034057 0.740225,-4.32747 0.66567,-1.257562 1.81004,-2.308975 3.074782,-2.960901 1.373178,-0.70782 3.069802,-1.278515 4.555232,-0.854106 0.891258,0.254645 1.684487,1.027157 2.049854,1.879033 0.404067,0.942107 0.134358,2.067687 -0.05694,3.074782 -0.223031,1.174151 -0.600821,2.357764 -1.252689,3.359483 -0.6369,0.978717 -1.612726,1.695641 -2.505378,2.448437 -0.716858,0.604544 -1.39433,1.336366 -2.277615,1.651272 -0.931198,0.331988 -2.149084,0.735001 -2.960901,0.170821 z" inkscape:label="Ring Jewels" />
   </g>
</svg>
