<?xml version="1.0" encoding="UTF-8" standalone="no"?>
<!-- Created with Inkscape (http://www.inkscape.org/) -->

<svg version="1.1" id="svg1" width="196" height="196" viewBox="0 0 196 196" sodipodi:docname="Scarab.svg" inkscape:version="1.3.2 (091e20e, 2023-11-25, custom)"
   xmlns:inkscape="http://www.inkscape.org/namespaces/inkscape"
   xmlns:sodipodi="http://sodipodi.sourceforge.net/DTD/sodipodi-0.dtd"
   xmlns="http://www.w3.org/2000/svg"
   xmlns:svg="http://www.w3.org/2000/svg">
   <defs id="defs1" />
   <sodipodi:namedview id="namedview1" pagecolor="#ffffff" bordercolor="#000000" borderopacity="0.25" inkscape:showpageshadow="2" inkscape:pageopacity="0.0" inkscape:pagecheckerboard="0" inkscape:deskcolor="#d1d1d1" inkscape:zoom="6.2091837" inkscape:cx="69.010682" inkscape:cy="120.86935" inkscape:window-width="2560" inkscape:window-height="1494" inkscape:window-x="-11" inkscape:window-y="-11" inkscape:window-maximized="1" inkscape:current-layer="g1" />
   <g inkscape:groupmode="layer" inkscape:label="Image" id="g1" style="display:inline" transform="matrix(1.3653877,0,0,1.3653877,-40.523641,-40.693189)">
      <path id="path6-7" style="display:inline;fill:#d46565;fill-opacity:0;stroke:#fffdcc;stroke-width:4.39435627;stroke-linejoin:round;stroke-dasharray:none;stroke-dashoffset:2.26667;stroke-opacity:1;paint-order:markers fill stroke" d="m 113.12671,50.731304 c 0,0 7.59368,2.027278 10.79047,4.187346 2.6953,1.821216 4.73621,4.507841 6.66983,7.12368 1.6943,2.292085 3.33703,4.71909 4.25322,7.41815 1.057,3.113918 1.10167,6.534581 1.31688,9.776987 1.08793,16.391215 2.30959,33.017733 0,49.281843 -0.54223,3.81835 -1.62478,7.60176 -3.22104,11.11257 -1.47923,3.25342 -3.32881,6.43497 -5.79786,9.0189 -2.5006,2.61695 -5.63447,4.63444 -8.85785,6.28102 -2.52476,1.28971 -8.05258,2.73788 -8.05258,2.73788 M 90.672145,50.731306 c 0,0 -7.593681,2.027278 -10.790469,4.187346 -2.695305,1.821216 -4.736212,4.507841 -6.669832,7.12368 -1.694302,2.292085 -3.337035,4.71909 -4.253218,7.41815 -1.057004,3.113918 -1.101676,6.534581 -1.316884,9.776987 -1.087934,16.391215 -2.309586,33.017731 0,49.281841 0.542225,3.81835 1.624777,7.60176 3.221035,11.11257 1.479232,3.25342 3.32882,6.43497 5.797864,9.0189 2.500597,2.61695 5.634468,4.63444 8.857847,6.28102 2.524765,1.28971 8.052588,2.73788 8.052588,2.73788" inkscape:label="Legs" />
      <path style="display:inline;fill:#997d00;fill-opacity:1;stroke:#fffdcc;stroke-width:1.46478542;stroke-linejoin:round;stroke-dasharray:none;stroke-dashoffset:2.26667;stroke-opacity:1;paint-order:markers fill stroke" d="M 93.852917,80.284306 90.188989,76.78143 c 0,0 -1.030311,-4.544462 -0.483155,-6.723911 0.4098,-1.632328 1.475829,-3.110433 2.697617,-4.267872 1.138451,-1.078492 2.602779,-1.851057 4.10682,-2.294988 1.599447,-0.472091 3.324949,-0.319026 4.992609,-0.322103 1.98997,-0.0037 4.06554,-0.250119 5.95891,0.362366 1.69334,0.547777 3.34849,1.509736 4.50945,2.858669 0.97604,1.134063 1.45825,2.652955 1.81183,4.10682 0.25739,1.05832 0.39628,2.189721 0.20132,3.261298 -0.43443,2.387774 -2.97946,6.643386 -2.97946,6.643386 z" id="path5" sodipodi:nodetypes="ccsssssssscc" inkscape:label="Head" />
      <path style="display:inline;fill:#997d00;fill-opacity:1;stroke:#fffdcc;stroke-width:1.46478542;stroke-linejoin:round;stroke-dasharray:none;stroke-dashoffset:2.26667;stroke-opacity:1;paint-order:markers fill stroke" d="M 30.633934,81.652531 H 172.64329 c 0.5904,6.36411 -1.97631,8.150413 -4.32747,10.249272 -1.53321,2.996756 0.74191,5.6473 -8.42718,9.338227 -0.98516,3.1507 -2.77368,6.3014 -7.97166,9.4521 H 52.84069 c -6.051076,-1.87954 -8.443787,-4.76513 -8.427179,-8.31329 -8.106693,-2.428946 -9.308756,-6.482511 -9.793749,-10.704799 -2.935594,-2.322746 -5.527304,-4.863286 -3.985828,-10.02151 z" id="path1" sodipodi:nodetypes="ccccccccc" inkscape:label="Wings" />
      <path id="path4" style="display:inline;fill:#997d00;fill-opacity:1;stroke:#fffdcc;stroke-width:1.46478542;stroke-linejoin:round;stroke-dasharray:none;stroke-dashoffset:2.26667;stroke-opacity:1;paint-order:markers fill stroke" d="m 102.02629,101.22104 -0.24533,48.36139 M 78.577749,86.264703 c 0,0 -2.205472,6.889131 -2.9609,10.420093 -1.21185,5.664334 -2.282467,11.407774 -2.505378,17.196004 -0.172771,4.48627 -0.218983,9.09288 0.911047,13.43793 1.141164,4.38787 2.954891,8.77552 5.80792,12.29913 2.642023,3.26301 6.191321,5.91037 10.02151,7.63001 3.696317,1.65954 9.152774,2.21235 11.929012,2.33456 2.77623,0.12221 11.21467,0.11218 15.17462,-3.58725 0,0 6.40394,-4.84207 8.65494,-8.08554 2.08608,-3.00583 3.20758,-6.61763 4.21359,-10.13539 0.83564,-2.92205 1.35769,-5.95987 1.48045,-8.99658 0.14924,-3.69163 -0.39212,-7.38842 -0.91105,-11.04644 -0.48413,-3.4127 -0.90425,-6.83263 -1.65127,-10.192328 -0.8437,-3.794557 -3.18866,-11.217258 -3.18866,-11.217258 z" inkscape:label="WingPlate" />
      <path style="display:inline;fill:#997d00;fill-opacity:1;stroke:#fffdcc;stroke-width:1.46478542;stroke-linejoin:round;stroke-dasharray:none;stroke-dashoffset:2.26667;stroke-opacity:1;paint-order:markers fill stroke" d="m 76.258012,93.248973 c 0,0 0.182924,-7.545142 1.852095,-10.790468 1.640756,-3.19008 7.569433,-7.649959 7.569433,-7.649959 H 118.212 c 0,0 5.34616,4.067946 6.92522,6.925226 1.98424,3.590443 2.73788,11.998356 2.73788,11.998356 0,0 -9.23962,-1.463905 -13.60887,-0.241577 -4.64716,1.300075 -12.23994,7.730489 -12.23994,7.730489 0,0 -7.034072,-6.113205 -11.354145,-7.488912 -4.580756,-1.45872 -14.414133,-0.483155 -14.414133,-0.483155 z" id="path2" sodipodi:nodetypes="csccscscsc" inkscape:label="BackPlate" />
   </g>
</svg>
