<?xml version="1.0" encoding="UTF-8" standalone="no"?>
<!-- Created with Inkscape (http://www.inkscape.org/) -->

<svg version="1.1" id="svg1" width="196" height="196" viewBox="0 0 196 196" sodipodi:docname="Shaper and Elder.svg" inkscape:version="1.3.2 (091e20e, 2023-11-25, custom)"
   xmlns:inkscape="http://www.inkscape.org/namespaces/inkscape"
   xmlns:sodipodi="http://sodipodi.sourceforge.net/DTD/sodipodi-0.dtd"
   xmlns="http://www.w3.org/2000/svg"
   xmlns:svg="http://www.w3.org/2000/svg">
   <defs id="defs1" />
   <sodipodi:namedview id="namedview1" pagecolor="#ffffff" bordercolor="#000000" borderopacity="0.25" inkscape:showpageshadow="2" inkscape:pageopacity="0.0" inkscape:pagecheckerboard="0" inkscape:deskcolor="#d1d1d1" inkscape:zoom="6.2091837" inkscape:cx="93.007395" inkscape:cy="63.37387" inkscape:window-width="2560" inkscape:window-height="1494" inkscape:window-x="-11" inkscape:window-y="-11" inkscape:window-maximized="1" inkscape:current-layer="layer3" />
   <g inkscape:groupmode="layer" id="layer3" inkscape:label="Tentacles" style="display:inline" transform="matrix(1.3782286,0,0,1.3782286,-39.307774,-38.549797)">
      <path style="fill:#4d4554;fill-opacity:1;stroke:#e5e5e5;stroke-width:1.45113808;stroke-linejoin:round;stroke-dasharray:none;stroke-dashoffset:2.26667;stroke-opacity:1;paint-order:markers fill stroke" d="m 60.716516,142.0074 c 0,0 -5.187872,-2.66372 -6.522596,-5.07314 -1.660519,-2.99754 -1.516941,-6.83244 -1.046837,-10.22678 0.314891,-2.27364 1.154455,-4.56923 2.536565,-6.40181 1.988139,-2.63614 5.002404,-4.37035 7.851274,-6.03944 2.355282,-1.37991 4.93973,-2.36892 7.609696,-2.57683 3.737931,-0.29108 9.143478,1.34974 11.083551,1.91483 l -3.952892,6.5815 c -2.531246,-0.72594 -6.352655,-0.78032 -8.902228,-0.12164 -1.493501,0.38584 -2.893959,1.15391 -4.147083,2.05341 -1.680676,1.2064 -3.248167,2.66258 -4.388661,4.38866 -1.028719,1.55691 -1.859255,3.34202 -2.088876,5.19392 -0.218346,1.76097 0.385902,3.53172 0.719936,5.27445 0.325373,1.69754 1.248151,5.03287 1.248151,5.03287 z" id="path2" sodipodi:nodetypes="cssssaccssssac" />
      <path style="fill:#4d4554;fill-opacity:1;stroke:#e5e5e5;stroke-width:1.45113808;stroke-linejoin:round;stroke-dasharray:none;stroke-dashoffset:2.26667;stroke-opacity:1;paint-order:markers fill stroke" d="M 87.802094,98 72.88371,89.965829 c -5.829021,-1.982306 -9.756116,-5.866537 -14.634173,-8.799806 -0.636856,-6.417371 -0.237594,-14.099995 7.687444,-16.937254 8.400165,2.127285 15.889522,5.248642 23.117802,8.654941 l 14.850317,9.565987 z" id="path5" sodipodi:nodetypes="ccccccc" />
      <path style="fill:#4d4554;fill-opacity:1;stroke:#e5e5e5;stroke-width:1.45113808;stroke-linejoin:round;stroke-dasharray:none;stroke-dashoffset:2.26667;stroke-opacity:1;paint-order:markers fill stroke" d="m 113.8636,58.703369 c 0,0 -2.73708,1.316535 -4.6705,1.691044 -1.93342,0.374509 -4.9667,0.945421 -6.8447,0.241577 -1.878,-0.703844 -2.52309,-2.375533 -3.784719,-3.543139 -1.261629,-1.167606 -2.247221,-3.51813 -3.784716,-3.462613 -1.537495,0.05552 -2.349936,1.42502 -2.818406,2.979458 -0.46847,1.554438 -0.09376,3.69792 0.96631,5.556286 1.06007,1.858366 2.342588,2.107218 5.47576,4.670501 3.133171,2.563283 9.565471,8.420253 13.447821,10.548891 3.88235,2.128638 6.18769,2.145282 8.93838,3.140509 2.75069,0.995227 5.04139,1.575217 7.56943,2.818406 2.52804,1.243189 7.44035,1.059495 7.48891,4.670502 0.0486,3.611007 -3.2177,6.485756 -10.70995,7.086277 -7.49225,0.600521 -23.39986,-10.129338 -29.391945,-13.286771 -5.992088,-3.157433 -4.583226,-2.251295 -7.166803,-4.348397 -2.583577,-2.097102 -6.11119,-5.353225 -7.916163,-8.455218 -1.804973,-3.101993 -2.687885,-6.338245 -2.954832,-9.502054 -0.266947,-3.163809 -0.540622,-5.774433 1.207889,-9.018899 1.748511,-3.244466 6.394269,-7.585266 9.824157,-8.535744 3.429888,-0.950478 5.611823,0.330063 8.213641,1.449466 2.601818,1.119403 5.315636,3.196967 6.951936,5.153657 1.6363,1.95669 1.27712,4.145991 2.95275,5.958915 1.67563,1.812924 7.00575,4.187346 7.00575,4.187346 z" id="path4" sodipodi:nodetypes="czzzzzzzzzzzzzzzzzzzzzc" />
      <path style="fill:#4d4554;fill-opacity:1;stroke:#e5e5e5;stroke-width:1.45113808;stroke-linejoin:round;stroke-dasharray:none;stroke-dashoffset:2.26667;stroke-opacity:1;paint-order:markers fill stroke" d="m 84.129438,114.84878 c 0,0 3.236792,3.81316 4.412881,4.92535 1.176089,1.11219 1.406279,1.32087 2.419967,1.93597 1.013688,0.6151 1.350172,1.05843 3.672656,1.6228 2.322484,0.56437 7.502488,1.86137 10.306208,0.62635 2.80372,-1.23502 3.78027,-4.0644 5.0677,-6.26345 1.28743,-2.19905 1.92579,-4.31339 2.6762,-6.71896 0.75041,-2.40557 0.99365,-5.18457 1.76515,-7.68696 0.7715,-2.50239 1.61266,-5.070962 2.84702,-7.288369 1.23436,-2.217408 2.48454,-4.404444 4.44135,-5.921801 1.95681,-1.517357 4.78804,-1.566267 6.88979,-2.84702 2.10175,-1.280753 4.65159,-2.829535 5.58016,-4.726053 0.92857,-1.896518 0.71767,-3.366657 0.22776,-5.352397 -0.48991,-1.98574 -2.29645,-3.938445 -3.47336,-5.978742 -1.17691,-2.040297 -2.68219,-4.070434 -3.58725,-6.263444 -0.90506,-2.19301 -1.58435,-4.526155 -1.82209,-6.775907 -0.23774,-2.249752 -0.25639,-4.28084 0.34164,-6.548146 0.59803,-2.267306 1.83358,-4.93506 3.35948,-6.718967 1.52589,-1.783907 5.3524,-3.815007 5.3524,-3.815007 0,0 -2.1792,5.222615 -2.61926,7.971656 -0.44006,2.749041 -0.75084,5.651407 0,8.313298 0.75084,2.661891 2.44641,4.950518 4.32747,7.060609 1.88106,2.110091 4.90075,3.476037 6.83285,5.352398 1.9321,1.876361 3.85586,3.186293 4.78299,5.75098 0.92713,2.564687 0.6552,6.316686 0,8.882702 -0.6552,2.566016 -1.7712,4.407248 -3.35948,6.149563 -1.58828,1.742315 -3.35274,2.422292 -5.9218,3.985828 -2.56906,1.563536 -7.55822,3.6892 -9.56599,5.238517 -2.00777,1.549312 -2.14312,1.634812 -2.9609,3.131722 -0.81778,1.49691 -1.00781,3.93766 -1.42351,5.75098 -0.4157,1.81332 -0.41925,3.18161 -1.08187,5.12464 -0.66262,1.94303 -1.83763,4.19036 -3.07478,6.37732 -1.23715,2.18696 -2.96807,4.88747 -4.38441,6.68674 -1.41634,1.79927 -2.18408,2.9998 -3.92889,4.18888 -1.74481,1.18908 -3.89576,2.00589 -6.43426,2.56231 -2.5385,0.55642 -6.332431,0.53269 -8.654941,0.45553 -2.32251,-0.0772 -3.841674,-0.15261 -5.238516,-0.62635 -1.396842,-0.47374 -1.935829,-0.98184 -3.074782,-1.82209 -1.138953,-0.84025 -2.58895,-2.19312 -3.644185,-3.30254 -1.055235,-1.10942 -2.002014,-2.34479 -2.70468,-3.30255 -0.702666,-0.95776 -1.56585,-2.39149 -1.56585,-2.39149 z" id="path3" sodipodi:nodetypes="czzzzzzzzzzzzzzzzzczzzzzzzzzzzzzzzzzzzzzcc" />
      <path id="path10" style="display:inline;fill:#990000;fill-opacity:1;stroke:#ffcccc;stroke-width:1.45113808;stroke-linejoin:round;stroke-dasharray:none;stroke-dashoffset:2.26667;stroke-opacity:1;paint-order:markers fill stroke" inkscape:transform-center-x="0.32210353" inkscape:transform-center-y="-0.44289236" d="M 127.25321,126.6838 74.762743,71.346319 M 127.25321,72.191841 74.762743,125.83828 M 44.982915,99.133233 H 158.29431 M 101.06921,28.470199 V 169.68239 m 0,-141.212191 -6.66203,54.605842 -19.644437,-11.729722 10.249272,20.327722 -40.0291,7.459192 40.0291,7.003667 -10.249272,19.70138 19.644437,-8.42718 6.66203,52.27129 7.45919,-52.27129 18.72481,9.2727 -9.89905,-20.5469 40.94015,-7.003667 -40.94015,-7.459192 9.89905,-19.4822 -18.72481,10.8842 z" inkscape:label="Star" />
      <path style="display:inline;fill:#4d4554;fill-opacity:1;stroke:#e5e5e5;stroke-width:1.45113808;stroke-linejoin:round;stroke-dasharray:none;stroke-dashoffset:2.26667;stroke-opacity:1;paint-order:markers fill stroke" d="m 61.695494,102.05734 c -1.606796,3.65254 -2.163408,9.43525 -2.428444,13.41678 -0.378564,5.68702 -0.739746,11.88168 1.820417,16.9576 2.376202,4.71118 7.192019,7.89545 11.652667,10.714 5.763029,3.64148 12.217583,6.68197 18.965031,7.65399 7.778556,1.12056 16.013995,0.20589 23.464715,-2.29379 5.80159,-1.94641 12.33068,-5.43476 15.65133,-9.59472 3.32065,-4.15997 3.37569,-8.44226 4.35481,-12.86126 0.81394,-3.6735 0.0291,-8.34129 1.23483,-11.22003 0.76486,-1.82605 2.73108,-2.99526 4.50945,-3.86524 2.41162,-1.17977 7.89153,-1.61052 7.89153,-1.61052 0,0 -6.49234,-3.28755 -10.13649,-2.71666 -2.94057,0.46067 -5.41531,1.8707 -7.09605,4.32718 -2.07072,3.02644 -2.03198,7.0589 -3.38208,10.46836 -1.20242,3.0365 -1.94114,6.48705 -4.18735,8.85785 -3.10588,3.27816 -7.60785,5.09416 -11.91783,6.44207 -3.71175,1.16081 -7.71167,1.48487 -11.59573,1.28841 -5.867884,-0.2968 -11.909223,-1.21773 -17.232537,-3.70419 -3.638879,-1.69968 -6.6325,-4.5984 -9.502054,-7.40838 -2.126613,-2.08247 -4.672028,-4.10949 -5.636812,-6.92522 -1.514302,-4.4195 -0.113942,-12.1038 1.161264,-16.59813" id="path1" sodipodi:nodetypes="csaaaazasscsssssssssc" />
   </g>
</svg>
