<?xml version="1.0" encoding="UTF-8" standalone="no"?>
<!-- Created with Inkscape (http://www.inkscape.org/) -->

<svg version="1.1" id="svg1" width="196" height="196" viewBox="0 0 196 196" sodipodi:docname="Shrine.svg" inkscape:version="1.3.2 (091e20e, 2023-11-25, custom)"
   xmlns:inkscape="http://www.inkscape.org/namespaces/inkscape"
   xmlns:sodipodi="http://sodipodi.sourceforge.net/DTD/sodipodi-0.dtd"
   xmlns="http://www.w3.org/2000/svg"
   xmlns:svg="http://www.w3.org/2000/svg">
   <defs id="defs1" />
   <sodipodi:namedview id="namedview1" pagecolor="#ffffff" bordercolor="#000000" borderopacity="0.25" inkscape:showpageshadow="2" inkscape:pageopacity="0.0" inkscape:pagecheckerboard="0" inkscape:deskcolor="#d1d1d1" inkscape:zoom="4" inkscape:cx="24.375" inkscape:cy="138.875" inkscape:window-width="2560" inkscape:window-height="1494" inkscape:window-x="-11" inkscape:window-y="-11" inkscape:window-maximized="1" inkscape:current-layer="g1" />
   <g inkscape:groupmode="layer" inkscape:label="Image" id="g1" transform="matrix(1.5812234,0,0,1.5812234,-55.341,-47.508402)">
      <path id="path3" style="fill:#999200;fill-opacity:1;stroke:#fffdcb;stroke-width:1.26484341;stroke-linejoin:round;stroke-dasharray:none;stroke-dashoffset:2.26667;stroke-opacity:1;paint-order:markers fill stroke" d="M 101.38281,79.5 61.611328,154 H 142.375 Z m 0,11.117188 L 132.125,147.75 H 71.626953 Z" />
      <path id="path2" style="fill:#999200;fill-opacity:1;stroke:#fffdcb;stroke-width:1.26484341;stroke-linejoin:round;stroke-dasharray:none;stroke-dashoffset:2.26667;stroke-opacity:1;paint-order:markers fill stroke" d="m 101.38281,30.4375 c 0,0 -3.535269,7.942094 -4.19531,12.1875 -0.973223,6.259803 1.301188,12.724146 0.4375,19 -0.213837,1.553814 -1.375,6.25 -1.375,6.25 L 94.449219,68.107422 94.4375,63.875 c 0,-1.541665 0.08393,-3.085622 0,-4.625 C 94.36447,57.910705 94.263466,56.565153 94,55.25 93.611783,53.312121 93.161232,51.454042 92.523438,49.517578 92.091868,48.207251 91.466595,46.701016 90.6875,45.5625 c -1.237827,-1.808875 -3.259031,-3.108508 -5.3125,-3.875 -1.390713,-0.519107 -2.973317,-0.619385 -4.4375,-0.375 -1.324896,0.221137 -2.700992,0.71338 -3.6875,1.625 -1.129559,1.043812 -1.914911,2.548849 -2.1875,4.0625 -0.242297,1.345442 -0.123694,2.880105 0.5625,4.0625 0.633754,1.092033 1.7901,1.951496 3,2.3125 1.041174,0.31066 2.302676,0.2821 3.25,-0.25 C 82.43456,52.810701 82.92582,52.199986 83,51.5625 83.075573,50.913035 82.730757,50.193159 82.25,49.75 81.799479,49.334711 81.308638,49.036455 80.720703,49.208984 80.280461,49.338173 80.083649,50.26202 79.625,50.25 79.029358,50.234386 78.416915,49.378425 78.230469,48.8125 77.98275,48.060589 78.10142,47.081037 78.5625,46.4375 c 0.67916,-0.947918 2.151017,-1.228752 3.3125,-1.125 1.328207,0.118645 2.520245,1.032907 3.5,1.9375 1.579273,1.458119 2.825259,3.355918 3.5625,5.375 1.122099,3.073107 0.875742,6.487949 1.125,9.75 0.166431,2.178085 0.246094,6.548828 0.246094,6.548828 A 39.517235,39.517235 0 0 0 62.230469,112.2207 39.517235,39.517235 0 0 0 100.91992,146.37305 39.517235,39.517235 0 0 0 140.39648,113.13672 39.517235,39.517235 0 0 0 113.33984,69.193359 c 0,0 -0.27434,-3.459821 -0.27734,-5.193359 -0.004,-2.503116 -0.0805,-5.033827 0.19727,-7.521484 0.18223,-1.631848 0.34962,-3.330363 1.02343,-4.832032 0.8407,-1.873594 1.95987,-3.798791 3.6543,-4.958984 1.24683,-0.853717 2.86425,-1.21999 4.375,-1.1875 0.96173,0.02069 2.15355,0.120289 2.75,0.875 0.51816,0.65564 0.49002,1.721005 0.1875,2.5 -0.17606,0.453373 -0.57943,0.94354 -1.0625,1 -0.78795,0.09209 -1.27913,-1.062283 -2.0625,-1.1875 -0.50433,-0.08062 -1.08138,0.01991 -1.5,0.3125 -0.74393,0.519958 -1.5217,1.408788 -1.4375,2.3125 0.0944,1.013039 1.14074,1.819276 2.0625,2.25 1.24699,0.582702 2.81688,0.615701 4.125,0.1875 0.91529,-0.299611 1.61746,-1.086267 2.25,-1.8125 0.71807,-0.824434 1.42501,-1.751176 1.6875,-2.8125 0.27052,-1.093777 0.23043,-2.328641 -0.1875,-3.375 -0.40567,-1.015681 -1.28581,-1.798617 -2.125,-2.5 -1.14605,-0.95785 -2.41769,-1.922643 -3.875,-2.25 -1.69311,-0.380328 -3.55817,-0.159623 -5.1875,0.4375 -1.24839,0.457514 -2.3636,1.304385 -3.38281,2.158203 -1.23094,1.031189 -2.31651,2.229249 -3.12696,3.595703 -0.80603,1.359015 -1.29719,2.904335 -1.64648,4.445313 -0.53098,2.342569 -0.65625,7.175781 -0.65625,7.175781 l -0.0625,9.482422 -1.80469,-0.419922 c 0,0 -0.76485,-4.558593 -0.99219,-6.265625 -0.84936,-6.377425 0.90957,-11.921452 -0.45312,-19.296875 -0.76759,-4.154492 -4.42969,-11.875 -4.42969,-11.875 z m -1.32422,42.810547 a 34.169575,34.169575 0 0 1 35.4668,32.818363 l 0.002,0.008 A 34.169575,34.169575 0 0 1 102.70312,141.53516 34.169575,34.169575 0 0 1 67.238281,108.71484 34.169575,34.169575 0 0 1 100.05859,73.248047 Z" />
   </g>
</svg>
