<?xml version="1.0" encoding="UTF-8" standalone="no"?>
<!-- Created with Inkscape (http://www.inkscape.org/) -->

<svg version="1.1" id="svg1" width="196" height="196" viewBox="0 0 196 196" sodipodi:docname="Torment.svg" inkscape:version="1.3.2 (091e20e, 2023-11-25, custom)"
   xmlns:inkscape="http://www.inkscape.org/namespaces/inkscape"
   xmlns:sodipodi="http://sodipodi.sourceforge.net/DTD/sodipodi-0.dtd"
   xmlns="http://www.w3.org/2000/svg"
   xmlns:svg="http://www.w3.org/2000/svg">
   <defs id="defs1" />
   <sodipodi:namedview id="namedview1" pagecolor="#ffffff" bordercolor="#000000" borderopacity="0.25" inkscape:showpageshadow="2" inkscape:pageopacity="0.0" inkscape:pagecheckerboard="0" inkscape:deskcolor="#d1d1d1" inkscape:zoom="4.3905559" inkscape:cx="81.880292" inkscape:cy="98.506888" inkscape:window-width="2560" inkscape:window-height="1494" inkscape:window-x="-11" inkscape:window-y="-11" inkscape:window-maximized="1" inkscape:current-layer="g1" />
   <g inkscape:groupmode="layer" inkscape:label="Image" id="g1">
      <path style="fill:#1e7b2a;fill-opacity:1;stroke:#ccffce;stroke-width:2;stroke-linejoin:round;stroke-dashoffset:2.26667;stroke-opacity:1;paint-order:markers fill stroke;stroke-dasharray:none" d="m 71.248939,195.69445 -20.80058,-11.08227 c 3.534469,-0.22565 5.727212,-2.06137 8.183834,-3.58044 0,0 -21.74382,-5.70713 -30.177891,-12.61674 -6.047858,-4.95471 -13.128234,-19.4366 -13.128234,-19.4366 4.124999,3.72866 8.953127,5.17215 13.980717,5.96737 0,0 -11.050228,-11.39941 -12.957737,-18.75463 -2.207509,-8.51198 2.557448,-26.25646 2.557448,-26.25646 0,0 3.397415,12.89048 8.524827,16.19718 5.645761,3.64098 20.118594,1.19347 20.118594,1.19347 -6.693765,-4.85732 -10.630247,-10.49012 -10.059297,-17.39065 2.904853,3.29419 6.252427,5.32346 10.741284,4.09192 0,0 -8.384389,-13.24405 -10.741284,-20.63008 -1.761656,-5.520672 -3.280006,-11.494447 -2.386952,-17.220153 0.951927,-6.103164 4.283491,-11.784942 8.013339,-16.708662 7.586494,-10.014824 28.302429,-24.892498 28.302429,-24.892498 0,0 -7.362881,11.3322 -9.206815,17.731643 -1.342038,4.657596 -2.721061,9.892125 -1.193476,14.492206 1.839957,5.54073 11.593768,13.128236 11.593768,13.128236 0,0 0.112659,-11.747421 0.852481,-17.561146 0.77668,-6.103373 0.56344,-12.810095 3.750925,-18.072635 3.996143,-6.597635 13.019275,-8.691474 17.902142,-14.662704 3.54053,-4.329691 7.006179,-9.303142 7.842839,-14.833201 0.73534,-4.8602621 -2.72795,-14.49220727 -2.72795,-14.49220727 0,0 12.93763,12.46353527 16.53817,20.45958627 3.09961,6.883603 4.59696,14.83333 3.75092,22.335051 -0.90243,8.002014 -9.0947,14.283087 -9.2068,22.335048 -0.0846,6.079127 2.44462,12.501268 6.47887,17.049657 5.27972,5.952611 14.94872,6.086492 21.14156,11.082275 4.55347,3.6733 9.6749,7.835614 11.25278,13.469234 1.64315,5.86668 -0.24721,12.50811 -2.72796,18.07263 -1.52888,3.42942 -7.16084,8.69532 -7.16084,8.69532 0,0 9.97591,-6.34707 13.81022,-10.74129 4.6208,-5.29555 10.79156,-11.21845 10.57077,-18.24313 -0.11588,-3.68658 -3.51936,-6.609162 -6.13786,-9.206805 -4.19646,-4.163024 -14.8332,-9.718303 -14.8332,-9.718303 0,0 16.75867,2.395933 23.52853,6.990359 4.78851,3.249767 8.47487,8.314859 10.74127,13.639709 2.2695,5.33204 3.23939,11.48826 2.38696,17.22016 -0.97626,6.56453 -4.68047,12.54552 -8.35433,18.07264 -3.45161,5.19276 -7.49545,10.25345 -12.61676,13.81021 -5.73828,3.98526 -13.85028,3.64722 -19.4366,7.84285 -3.23633,2.43066 -7.50186,9.5478 -7.50186,9.5478 9.97425,-5.18824 15.82652,-4.48795 22.84656,-5.45588 -12.13357,7.47638 -25.685,14.69825 -29.32542,23.69902 l -6.13786,-1.02299 c 0,0 6.53384,-12.15745 8.35432,-18.7546 0.76131,-2.75889 1.02298,-8.52484 1.02298,-8.52484 -1.67595,-0.47761 -3.89439,0.53664 -6.47887,2.55745 1.0736,-8.64073 3.84835,-16.89105 1.02298,-23.35803 0,0 -3.82028,-12.46525 -7.67235,-17.56114 -1.99654,-2.64123 -4.36311,-6.20224 -7.67234,-6.30838 -3.49973,-0.11229 -6.09387,3.61775 -8.524829,6.13788 -1.56487,1.62228 -3.75092,5.62638 -3.75092,5.62638 0,0 -2.177351,-9.46601 -5.967382,-11.59376 -3.428378,-1.92471 -8.563876,-1.43134 -11.764264,0.85248 -4.476823,3.19469 -4.965626,9.88664 -6.478869,15.17419 -1.835607,6.41394 -2.924557,13.10773 -3.068939,19.77761 -0.07797,3.60162 1.193477,10.74128 1.193477,10.74128 -2.240821,-2.90654 -5.952552,-2.87126 -10.229794,-1.70497 0,0 -0.236444,5.16492 0.681986,7.50184 1.970891,5.0149 9.8888,12.78725 9.8888,12.78725 z" id="path1" sodipodi:nodetypes="cccsccscscccssscsscsssscssssssscssscssssssccccsccsssscssssccscc" />
   </g>
</svg>
