<?xml version="1.0" encoding="UTF-8" standalone="no"?>
<!-- Created with Inkscape (http://www.inkscape.org/) -->

<svg version="1.1" id="svg1" width="200" height="200" viewBox="0 0 200 200" sodipodi:docname="Vaal.svg" inkscape:version="1.3.2 (091e20e, 2023-11-25, custom)"
   xmlns:inkscape="http://www.inkscape.org/namespaces/inkscape"
   xmlns:sodipodi="http://sodipodi.sourceforge.net/DTD/sodipodi-0.dtd"
   xmlns="http://www.w3.org/2000/svg"
   xmlns:svg="http://www.w3.org/2000/svg">
   <defs id="defs1" />
   <sodipodi:namedview id="namedview1" pagecolor="#ffffff" bordercolor="#000000" borderopacity="0.25" inkscape:showpageshadow="2" inkscape:pageopacity="0.0" inkscape:pagecheckerboard="0" inkscape:deskcolor="#d1d1d1" inkscape:zoom="4.3905559" inkscape:cx="69.808928" inkscape:cy="69.353405" inkscape:window-width="2560" inkscape:window-height="1494" inkscape:window-x="-11" inkscape:window-y="-11" inkscape:window-maximized="1" inkscape:current-layer="g1" />
   <g inkscape:groupmode="layer" inkscape:label="Image" id="g1">
      <path style="fill:#990000;fill-opacity:1;stroke:#ffcccc;stroke-width:2;stroke-linejoin:round;stroke-dasharray:none;stroke-dashoffset:2.26667;stroke-opacity:1;paint-order:markers fill stroke" d="m 26.949662,160.25427 0.285479,7.51761 c 0,0 2.291315,2.53279 4.377347,3.71125 2.086032,1.17845 5.300451,2.90984 8.183735,2.75962 12.258345,-0.53687 14.019454,-15.31308 17.414227,-24.45604 10.314223,-27.63076 43.48798,-147.7830234 43.48798,-147.7830234 0,0 44.7034,158.0875034 50.91044,164.9117634 6.20705,6.82427 8.2876,7.22799 15.79653,4.56768 7.50892,-2.66031 6.12742,-4.09433 7.04182,-6.37571 0.91439,-2.2814 -0.38064,-5.23378 -0.38064,-5.23378 0,0 -6.13014,0.53102 -9.2305,-0.38064 -3.10036,-0.91166 -6.62101,-2.12191 -8.7547,-5.13862 -2.13369,-3.01671 -2.92425,-8.15249 -2.28383,-11.79981 0.64043,-3.64731 2.39743,-6.2648 5.23378,-8.75469 2.83635,-2.4899 8.03457,-4.60104 11.41917,-4.94831 3.3846,-0.34726 4.35195,-0.0199 7.8031,1.61772 3.45117,1.63766 8.64276,6.00228 11.60948,9.42081 2.96672,3.41855 4.96852,6.70367 6.28054,10.46757 1.31202,3.76389 1.75412,7.57207 1.52256,11.60948 -0.23154,4.03741 -1.81115,8.7722 -3.04512,12.18044 -1.23396,3.40824 -1.9536,5.52491 -3.99669,8.2789 -2.0431,2.75401 -5.05215,5.36009 -8.37406,7.70794 -3.32191,2.34786 -7.10554,4.96481 -11.51434,6.09021 -4.4088,1.1254 -9.21065,1.0719 -14.27395,0.19032 -5.0633,-0.88158 -11.45288,-3.07116 -15.51103,-5.80474 -6.87502,-4.63103 -11.63571,-13.17251 -14.27395,-19.03194 -6.49835,-14.43255 -26.16892,-79.648671 -26.16892,-79.648671 0,0 -20.60005,63.630131 -27.31084,78.316431 -1.226044,2.68315 -8.089362,17.19484 -15.225553,21.98191 -4.135193,2.77395 -10.590803,4.54782 -16.177151,5.13862 -5.586349,0.59078 -11.751834,0.10411 -16.652948,-1.61773 -4.901113,-1.72184 -8.512121,-4.30453 -12.085282,-7.89824 -3.5731631,-3.59372 -6.8746096,-8.65964 -8.6595337,-13.41753 -1.784924,-4.75788 -2.390608,-9.24926 -2.0935136,-14.36911 0.2970931,-5.11986 1.6698955,-11.21693 4.1870273,-15.70135 2.5171319,-4.48443 6.804453,-8.12803 10.086929,-10.56273 3.282475,-2.43471 5.135123,-3.74647 8.849852,-4.47251 3.71473,-0.72604 9.536972,-0.5031 12.751401,1.04677 3.214428,1.54986 4.30753,3.53129 5.899901,6.28052 1.592373,2.74924 3.125894,7.00265 3.045112,9.99178 -0.08078,2.98914 -1.369903,4.92465 -2.569312,7.04181 -1.19941,2.11716 -1.482123,3.94469 -4.472507,5.51928 -2.990384,1.57458 -13.13204,1.04674 -13.13204,1.04674 z" id="path1" sodipodi:nodetypes="cczzzczzzczzzzzzzzzzzzzzzzczzzzzzzzzzzzzzzc" />
   </g>
</svg>
