<?xml version="1.0" encoding="UTF-8"?>
<svg xmlns="http://www.w3.org/2000/svg" xmlns:xlink="http://www.w3.org/1999/xlink" viewBox="0 0 2500 2000">
  <defs>
    <style>
      .cls-1 {
        fill: url(#linear-gradient);
      }

      .cls-2 {
        fill: #fff;
      }

      .cls-3 {
        fill: url(#linear-gradient-8);
      }

      .cls-4 {
        fill: url(#linear-gradient-9);
      }

      .cls-5 {
        fill: url(#linear-gradient-3);
      }

      .cls-6 {
        fill: url(#linear-gradient-4);
      }

      .cls-7 {
        fill: url(#linear-gradient-2);
      }

      .cls-8 {
        fill: url(#linear-gradient-6);
      }

      .cls-9 {
        fill: url(#linear-gradient-7);
      }

      .cls-10 {
        fill: url(#linear-gradient-5);
      }

      .cls-11 {
        fill: url(#linear-gradient-10);
      }
    </style>
    <linearGradient id="linear-gradient" x1="487.71" y1="888.34" x2="487.71" y2="1062.36" gradientUnits="userSpaceOnUse">
      <stop offset=".5" stop-color="#fff"/>
      <stop offset=".5" stop-color="#b1b2be"/>
      <stop offset="1" stop-color="#fff"/>
    </linearGradient>
    <linearGradient id="linear-gradient-2" x1="677.67" y1="888.34" x2="677.67" y2="1062.36" xlink:href="#linear-gradient"/>
    <linearGradient id="linear-gradient-3" x1="841.99" y1="888.34" x2="841.99" y2="1062.36" xlink:href="#linear-gradient"/>
    <linearGradient id="linear-gradient-4" x1="963.75" y1="888.34" x2="963.75" y2="1062.36" xlink:href="#linear-gradient"/>
    <linearGradient id="linear-gradient-5" x1="1103.35" y1="888.34" x2="1103.35" y2="1062.36" xlink:href="#linear-gradient"/>
    <linearGradient id="linear-gradient-6" x1="1292.17" y1="888.34" x2="1292.17" y2="1062.36" xlink:href="#linear-gradient"/>
    <linearGradient id="linear-gradient-7" x1="1447.57" y1="888.34" x2="1447.57" y2="1062.36" xlink:href="#linear-gradient"/>
    <linearGradient id="linear-gradient-8" x1="1630.88" y1="888.34" x2="1630.88" y2="1062.36" xlink:href="#linear-gradient"/>
    <linearGradient id="linear-gradient-9" x1="1820.27" y1="888.34" x2="1820.27" y2="1062.36" xlink:href="#linear-gradient"/>
    <linearGradient id="linear-gradient-10" x1="2012.29" y1="888.34" x2="2012.29" y2="1062.36" xlink:href="#linear-gradient"/>
  </defs>
  <g id="Layer_2" data-name="Layer 2">
    <path class="cls-2" d="M364.12,942.02v225.64h263.21v-47.77h419.97v-.46c2.65,.3,5.32,.46,8.01,.46h36.61v40.24l108.35-40.24h321.79l9.89-21.26c13.43,13.2,31.3,21.26,50.88,21.26h289.85v47.77h187.67c22.7,0,43.91-11.57,58.2-31.74,11.18-15.79,17.33-35.93,17.33-56.73v-67.89c0-.68,0-1.36-.02-2.04h.03v-67.24l38.83-109.69H325.29s38.82,109.69,38.82,109.69Z"/>
  </g>
  <g id="Layer_1" data-name="Layer 1">
    <g>
      <path d="M1934.88,857.34h0s-239.91,0-239.91,0H852.31l-10.32,57.48-10.32-57.48H501.26v45.71l-21.58-45.71h-119.02l28.46,80.39v204.94h101.06v-45.71l21.58,45.71h90.57v-47.77h65.03l9.61-53.55h1.41l9.61,53.55h223.79l9.46-52.68v52.68h101.06v-13.72c8.86,8.54,20.4,13.72,33.01,13.72h61.61v29.28l78.86-29.28h86.08l9.61-53.55h1.41l9.61,53.55h203.62l26.18-56.3c0,31.04,22.67,56.3,50.53,56.3h239.91v-54.71l19.64,54.71h55.3v47.77h162.67c14.48,0,28.26-7.72,37.79-21.18,8.21-11.6,12.74-26.62,12.74-42.28v-67.89c0-9.45-1.65-18.67-4.76-27.04h4.77v-46.53l28.46-80.4h-204.46Z"/>
      <g>
        <g>
          <polygon class="cls-1" points="527.76 1022.63 463.68 886.86 399.6 886.86 415.62 932.12 415.62 1113.14 463.68 1113.14 463.68 977.37 527.76 1113.14 575.82 1113.14 575.82 886.86 527.76 886.86 527.76 1022.63"/>
          <path class="cls-7" d="M613.59,886.86l11.44,25.49v.02l-11.44,63.74h-16.02l11.44,25.49-11.44,63.76h48.06l9.61-53.55h44.86l9.61,53.55h48.06l-32.04-178.5h-112.14Zm48.06,89.25l9.61-53.55h12.82l9.61,53.55h-32.04Z"/>
          <polygon class="cls-5" points="848.4 1029.66 835.58 1029.66 809.95 886.86 761.89 886.86 789.35 1039.86 789.35 1039.88 777.91 1065.36 890.05 1065.36 922.09 886.86 874.03 886.86 848.4 1029.66"/>
          <polygon class="cls-6" points="947.73 922.56 947.73 1065.36 995.79 1065.36 995.79 886.86 931.71 886.86 947.73 922.56"/>
          <path class="cls-10" d="M1031.27,922.56v116.03c0,14.78,10.77,26.77,24.03,26.77h88.11v17.85l48.06-17.85v-80.33c0-3.13-.48-6.12-1.38-8.93-3.29-10.39-12.19-17.85-22.65-17.85h-72.09l16.02,35.7h24.03c4.42,0,8.01,4,8.01,8.93v26.77h-56.07c-4.42,0-8.01-4-8.01-8.93v-98.17h64.08v17.85h40.05c4.42,0,8.01-4,8.01-8.93v-44.63h-176.22l16.02,35.7Z"/>
          <path class="cls-8" d="M1228.09,886.86l11.44,25.49v.02l-11.44,63.74h-16.02l11.44,25.49-11.44,63.76h48.06l9.61-53.55h44.86l9.61,53.55h48.06l-32.04-178.5h-112.14Zm48.06,89.25l9.61-53.55h12.82l9.61,53.55h-32.04Z"/>
          <polygon class="cls-9" points="1375.48 922.56 1431.55 922.56 1431.55 1065.36 1479.61 1065.36 1479.61 922.56 1535.68 922.56 1535.68 886.86 1359.45 886.86 1375.48 922.56"/>
          <path class="cls-3" d="M1694.97,886.86h-152.2l16.02,35.7v116.03c0,14.78,10.77,26.77,24.03,26.77h136.17v-151.73c0-14.78-10.76-26.77-24.02-26.77Zm-24.03,142.8h-56.07c-4.42,0-8.01-4-8.01-8.93v-98.17h56.07c4.42,0,8.01,4,8.01,8.93v98.17Z"/>
          <path class="cls-4" d="M1748.17,922.56v35.7h-16.02l16.02,35.7v71.4h48.06v-71.4h38.45l25.63,71.4h48.06l-25.63-71.4h1.6c13.27,0,24.04-12,24.04-26.77v-80.33h-176.22l16.02,35.7Zm48.06,0h64.08v26.77c0,4.93-3.59,8.93-8.01,8.93h-56.07v-35.7Z"/>
          <path class="cls-11" d="M2084.38,886.86h-160.21v101.83c0,18.73,10.77,33.94,24.03,33.94h80.1c4.42,0,8.01,5.07,8.01,11.32v22.62c0,6.25-3.59,11.32-8.01,11.32h-56.07v-22.64h-40.05c-4.43,0-8.01,5.07-8.01,11.32v56.57h136.17c13.26,0,24.03-15.21,24.03-33.94v-67.89c0-18.74-10.77-33.94-24.03-33.94h-80.1c-4.42,0-8.01-5.07-8.01-11.32v-33.93h64.08v11.31c0,6.24,3.59,11.31,8.01,11.31h40.06v-22.62l16.02-45.26h-16.02Z"/>
        </g>
        <g>
          <path class="cls-2" d="M568.82,894.66v210.68h-36.84l-62.11-131.6-13.2-27.96v159.55h-34.06v-174.7l-.49-1.38-12.24-34.6h49.56l62.11,131.6,13.2,27.96v-159.55h34.06m7-7.8h-48.06v135.77l-64.08-135.77h-64.08l16.02,45.26v181.02h48.06v-135.77l64.08,135.77h48.06v-226.28h0Z"/>
          <path class="cls-2" d="M719.99,894.66l29.24,162.9h-33.78l-8.49-47.28-1.13-6.27h-56.33l-1.13,6.27-8.49,47.28h-33.78l9.77-54.44,.47-2.62-1.07-2.39-6.37-14.2h10.43l1.13-6.27,11.44-63.74,.14-.77v-2.61l-.74-1.65-6.37-14.2h95.08m-66.88,89.25h49.12l-1.67-9.33-9.61-53.55-1.13-6.27h-24.29l-1.13,6.27-9.61,53.55-1.67,9.33m72.62-97.05h-112.14l11.44,25.49v.02l-11.44,63.74h-16.02l11.44,25.49-11.44,63.76h48.06l9.61-53.55h44.86l9.61,53.55h48.06l-32.04-178.5h0Zm-64.08,89.25l9.61-53.55h12.82l9.61,53.55h-32.04Z"/>
          <path class="cls-2" d="M913.55,894.66l-29.24,162.9h-95.08l6.37-14.2,.74-1.66v-2.61l-.14-.76-25.78-143.67h33.78l24.51,136.53,1.13,6.27h24.3l1.13-6.27,24.51-136.53h33.78m8.54-7.8h-48.06l-25.63,142.8h-12.82l-25.63-142.8h-48.06l27.46,153v.02l-11.44,25.49h112.14l32.04-178.5h0Z"/>
          <path class="cls-2" d="M988.79,894.66v162.9h-34.06v-136.84l-.74-1.65-10.96-24.41h45.76m7-7.8h-64.08l16.02,35.7v142.8h48.06v-178.5h0Z"/>
          <path class="cls-2" d="M1184.47,894.66v36.83c0,.62-.45,1.13-1.01,1.13h-33.05v-17.85h-78.08v105.97c0,9.22,6.73,16.73,15.01,16.73h63.07v-34.57c0-9.22-6.73-16.73-15.01-16.73h-19.7l-9.02-20.1h60.77c7.21,0,13.66,5.08,16.06,12.67,.64,2.01,.97,4.13,.97,6.3v74.71l-34.06,12.65v-14.83h-95.11c-9.39,0-17.03-8.51-17.03-18.97v-117.87l-.74-1.65-10.96-24.41h157.9m7-7.8h-176.22l16.02,35.7v116.03c0,14.78,10.77,26.77,24.03,26.77h88.11v17.85l48.06-17.85v-80.33c0-3.13-.48-6.12-1.38-8.93-3.29-10.39-12.19-17.85-22.65-17.85h-72.09l16.02,35.7h24.03c4.42,0,8.01,4,8.01,8.93v26.77h-56.07c-4.42,0-8.01-4-8.01-8.93v-98.17h64.08v17.85h40.05c4.42,0,8.01-4,8.01-8.93v-44.63h0Z"/>
          <path class="cls-2" d="M1334.49,894.66l29.24,162.9h-33.78l-8.49-47.28-1.13-6.27h-56.33l-1.13,6.27-8.49,47.28h-33.78l9.77-54.44,.47-2.62-1.07-2.39-6.37-14.2h10.43l1.13-6.27,11.44-63.74,.14-.77v-2.61l-.74-1.65-6.37-14.2h95.08m-66.88,89.25h49.12l-1.67-9.33-9.61-53.55-1.13-6.27h-24.29l-1.13,6.27-9.61,53.55-1.67,9.33m72.62-97.05h-112.14l11.44,25.49v.02l-11.44,63.74h-16.02l11.44,25.49-11.44,63.76h48.06l9.61-53.55h44.86l9.61,53.55h48.06l-32.04-178.5h0Zm-64.08,89.25l9.61-53.55h12.82l9.61,53.55h-32.04Z"/>
          <path class="cls-2" d="M1528.68,894.66v20.1h-56.07v142.8h-34.06v-142.8h-58.75l-9.02-20.1h157.9m7-7.8h-176.22l16.02,35.7h56.07v142.8h48.06v-142.8h56.07v-35.7h0Z"/>
          <path class="cls-2" d="M1694.97,894.66c4.55,0,8.82,1.97,12.04,5.56,3.22,3.59,4.99,8.35,4.99,13.42v143.93h-129.17c-9.39,0-17.03-8.51-17.03-18.97v-117.87l-.74-1.65-10.95-24.41h140.87m-80.1,142.8h63.07v-105.97c0-9.22-6.73-16.73-15.01-16.73h-63.07v105.97c0,9.22,6.73,16.73,15.01,16.73m80.1-150.6h-152.2l16.02,35.7v116.03c0,14.78,10.77,26.77,24.03,26.77h136.17v-151.73c0-14.78-10.76-26.77-24.02-26.77h0Zm-80.1,142.8c-4.42,0-8.01-4-8.01-8.93v-98.17h56.07c4.42,0,8.01,4,8.01,8.93v98.17h-56.07Z"/>
          <path class="cls-2" d="M1901.38,894.66v72.53c0,10.46-7.64,18.97-17.04,18.97h-11.94l3.84,10.7,21.79,60.71h-32.98l-23.87-66.5-1.76-4.9h-50.19v71.4h-34.06v-65.44l-.74-1.65-10.95-24.41h11.69v-45.34l-.74-1.65-10.95-24.41h157.9m-112.14,71.4h63.07c8.28,0,15.01-7.5,15.01-16.73v-34.57h-78.08v51.3m119.14-79.2h-176.22l16.02,35.7v35.7h-16.02l16.02,35.7v71.4h48.06v-71.4h38.45l25.63,71.4h48.06l-25.63-71.4h1.6c13.27,0,24.04-12,24.04-26.77v-80.33h0Zm-112.14,71.4v-35.7h64.08v26.77c0,4.93-3.59,8.93-8.01,8.93h-56.07Z"/>
          <path class="cls-2" d="M2090.11,894.66l-12.25,34.6-.49,1.38v16.3h-32.92c-.38-.29-1.15-1.55-1.15-3.51v-19.11h-78.08v41.73c0,10.54,6.73,19.12,15.01,19.12h80.1c9.23,0,17.03,11.97,17.03,26.14v67.89c0,14.17-7.8,26.14-17.03,26.14h-129.17v-48.77c0-1.97,.76-3.23,1.14-3.52h32.92v22.64h63.07c8.28,0,15.01-8.58,15.01-19.12v-22.62c0-10.54-6.73-19.12-15.01-19.12h-80.1c-9.23,0-17.03-11.97-17.03-26.14v-94.03h158.94m10.29-7.8h-176.23v101.83c0,18.73,10.77,33.94,24.03,33.94h80.1c4.42,0,8.01,5.07,8.01,11.32v22.62c0,6.25-3.59,11.32-8.01,11.32h-56.07v-22.64h-40.05c-4.43,0-8.01,5.07-8.01,11.32v56.57h136.17c13.26,0,24.03-15.21,24.03-33.94v-67.89c0-18.74-10.77-33.94-24.03-33.94h-80.1c-4.42,0-8.01-5.07-8.01-11.32v-33.93h64.08v11.31c0,6.24,3.59,11.31,8.01,11.31h40.06v-22.62l16.02-45.26h0Z"/>
        </g>
      </g>
    </g>
  </g>
</svg>